<svg xmlns="http://www.w3.org/2000/svg" fill="none" viewBox="0 0 48 48">
  <circle cx="24" cy="24" r="24" fill="#F3BA2F"/>
  <path fill="#fff" d="M17.591 21.367L24 14.958l6.412 6.412 3.729-3.73L24 7.5 13.862 17.638l3.73 3.729zM7.5 24l3.73-3.73L14.957 24l-3.73 3.728L7.5 24zm10.091 2.634L24 33.041l6.412-6.412 3.73 3.728-.001.002L24 40.5 13.862 30.362l-.005-.005 3.735-3.724zm15.451-2.632l3.73-3.73 3.728 3.73-3.729 3.729L33.042 24z"/>
  <path fill="#fff" d="M27.782 23.998h.001L24 20.214l-2.797 2.796-.321.321-.663.663-.005.005.005.006 3.78 3.78 3.785-3.783.002-.002-.004-.002"/>
</svg>
