<svg xmlns="http://www.w3.org/2000/svg" fill="none" viewBox="0 0 288 278">
  <path fill="var(--fill)" fill-rule="evenodd" d="M157.045 277c71.773 0 129.956-61.785 129.956-138S228.818 1 157.045 1h-26.253v2.817C71.604 16.711 27.089 72.335 27.089 139c0 66.665 44.515 122.289 103.703 135.183V277h26.253z" clip-rule="evenodd"/>
  <path fill="currentColor" d="M156.881 1h-.5v.5h.501l-.001-.5zm0 0h.5V.5h-.5V1zm-26.089 0V.5h-.5V1h.5zm0 2.817l.106.489.394-.086v-.403h-.5zm0 270.366h.5v-.403l-.394-.086-.106.489zm0 2.817h-.5v.5h.5v-.5zm26.089 0l.001-.5h-.001v.5zm129.62-138c0 75.968-57.987 137.5-129.456 137.5v1c72.077 0 130.456-62.037 130.456-138.5h-1zM157.045 1.5c71.469 0 129.456 61.532 129.456 137.5h1C287.501 62.537 229.122.5 157.045.5v1zm-.163 0h.163v-1h-.165l.002 1zm-.501-.5h1-1zm-25.589.5h26.089v-1h-26.089v1zm.5 2.317V1h-1v2.817h1zM27.589 139c0-66.445 44.366-121.854 103.309-134.694l-.213-.977C71.253 16.276 26.589 72.115 26.589 139h1zm103.309 134.694C71.955 260.854 27.588 205.445 27.588 139h-1c0 66.885 44.665 122.724 104.097 135.671l.213-.977zm.394 3.306v-2.817h-1V277h1zm25.589-.5h-26.089v1h26.089v-1zm.164 0h-.163l-.002 1h.165v-1z"/>
  <path stroke="currentColor" d="M222 41h26.5M227 46h26M244 71h26M261 147h26M261 127h26M244 207h26M239 216h26M213 246h26"/>
  <ellipse cx="130.956" cy="139" fill="var(--fill)" stroke="currentColor" rx="129.956" ry="138"/>
  <path fill="var(--fill)" fill-rule="evenodd" stroke="currentColor" d="M105.452 174.733h52.435l10.069 32.114h31.8l-11.319-32.47h11.319V148.4h-20.374l-33.955-97.412h-27.713L83.945 148.4H63.684v25.977H74.94l-11.256 32.47h31.8l9.968-32.114zm44.26-26.333h-36.086l17.944-58.019 18.142 58.019z" clip-rule="evenodd"/>
</svg>
