<svg xmlns="http://www.w3.org/2000/svg" fill="none" viewBox="0 0 288 278">
  <mask id="a" fill="var(--fill)">
    <path fill-rule="evenodd" d="M157.045 276.999c71.773 0 129.956-61.784 129.956-137.999S228.818 1 157.045 1h-26.249v2.816C71.606 16.708 27.089 72.333 27.089 139c0 66.666 44.517 122.291 103.707 135.183v2.816h26.249z" clip-rule="evenodd"/>
  </mask>
  <path fill="var(--fill)" fill-rule="evenodd" d="M157.045 276.999c71.773 0 129.956-61.784 129.956-137.999S228.818 1 157.045 1h-26.249v2.816C71.606 16.708 27.089 72.333 27.089 139c0 66.666 44.517 122.291 103.707 135.183v2.816h26.249z" clip-rule="evenodd"/>
  <path fill="currentColor" d="M156.885 1h-1v1.001h1.001l-.001-1zm0 0h1V0h-1v1zm-26.089 0V0h-1v1h1zm0 2.816l.213.978.787-.172v-.806h-1zm0 270.367h1v-.806l-.787-.171-.213.977zm0 2.816h-1v1h1v-1zm26.089 0l.001-1h-.001v1zM286.001 139c0 75.72-57.791 136.999-128.956 136.999v2c72.381 0 130.956-62.29 130.956-138.999h-2zM157.045 2c71.165 0 128.956 61.28 128.956 137h2c0-76.71-58.575-139-130.956-139v2zm-.159 0h.159V0h-.161l.002 2zm-1.001-1h2-2zm-25.089 1h26.089V0h-26.089v2zm1 1.816V1h-2v2.816h2zM28.089 139c0-66.227 44.219-121.421 102.92-134.206l-.426-1.955C70.905 15.838 26.089 71.894 26.089 139h2zm102.92 134.206C72.308 260.42 28.089 205.226 28.089 139h-2c0 67.105 44.816 123.161 104.494 136.16l.426-1.954zm.787 3.793v-2.816h-2v2.816h2zm25.089-1h-26.089v2h26.089v-2zm.16 0h-.159l-.002 2h.161v-2z" mask="url(#a)"/>
  <path stroke="currentColor" d="M261.031 138.457h25.003M248.027 187.621h30.004M238.027 209.695h30.004M235.031 214.712h30.004M208.027 245.817h30.004M259.031 113.376h25.003M258.031 107.355h25.003M239.027 64.21h27.004M210.023 31.101h27.004M207.027 28.09h27.004"/>
  <ellipse cx="130.956" cy="139" fill="var(--fill)" stroke="currentColor" rx="129.956" ry="138"/>
  <path fill="var(--fill)" stroke="currentColor" d="M194.908 151.54v-6.037c19.494-16.388 19.899-20.269 23.554-23.288 3.655-3.018 10.153-13.344 10.153-17.25 0-3.018-5.28-10.35-7.716-15.956-2.437-5.606-4.034-10.18-8.529-17.681-5.685-9.488-6.904-10.781-11.371-9.488-3.612 1.047-13.953-1.457-21.118-3.875-8.528-2.878-14.214-2.158-20.305 1.583-6.049 3.715-25.179 8.33-45.891 15.23S90.13 78.665 82.414 82.97c-10.072 5.621-27.616 10.357-33.301 12.944-5.6 2.548-13.284 2.985-15.72 5.135-.72.635-4.174 10.134-5.686 18.975-1.42 8.309-3.655 14.662-1.337 16.853.931.878 2.44 3.728 5.28 5.612 3.249 2.157 4.467 8.41 7.31 9.488 7.31 2.772 8.935 7.325 12.996 7.756 4.06.431 8.122 1.725 10.965 2.156 2.842.431 12.322.216 12.995 1.294.812 1.3 1.219 2.163 1.219 10.356 0 8.194.406 25.006.406 30.181 0 5.175 1.624 6.907 12.996 11.644 8.368 3.486 19.899 6.038 41.017 6.038 21.118 0 36.956-2.157 45.485-3.882 8.528-1.725 13.401-7.762 15.026-9.918 1.624-2.157 2.031-6.469 2.031-12.075 0-5.607.29-23.226 0-28.463-.407-7.325.812-12.937.812-15.525z"/>
</svg>
