<svg xmlns="http://www.w3.org/2000/svg" viewBox="0 0 318.02 69.06"><defs><style>.cls-1{fill:#999;}</style></defs><g id="Layer_2" data-name="Layer 2"><g id="Layer_1-2" data-name="Layer 1"><g id="Atoms_Icons_logos_CT-GY-icon" data-name="Atoms/Icons/logos/CT-GY-icon"><g id="Group"><path id="Shape" class="cls-1" d="M42.81,50.24,30.53,55.59v-.54a42.43,42.43,0,0,1-7.48,1.09C11.45,56,2.31,49.94,2.16,42.77V40.11C6,45.62,13.71,49.35,23.05,49.2a30.07,30.07,0,0,0,9.1-1.08l1.08-2.65a35.41,35.41,0,0,1-10.18,1.62C11.45,47.09,2.31,41,2.16,33.72V31.56c3.79,5.11,11.55,8.8,20.89,8.55A25.93,25.93,0,0,0,34.85,38l.54-2.66A25.24,25.24,0,0,1,23.1,38c-11.6.15-20.74-5.9-20.89-13.37V22.41c3.79,5.22,11.55,9,20.89,9.1a33.34,33.34,0,0,0,14.45-3.74l.55-3.19a27.88,27.88,0,0,1-15,4.81C11.5,29.15,2.36,23.05,2.21,15.48,2.31,8.26,11.5,2.21,23.1,2.11c6.88.1,13.32,2.51,17.11,6.44l.39.64h2.71l-.4-.64C39.13,3.39,31.51,0,23.1,0,10.22,0,0,7,0,15.43V43.26c.44,8.25,10.42,15,23,15C31.31,58.3,38.83,55,42.81,50.24Z"/><path id="Shape-2" data-name="Shape" class="cls-1" d="M37.8,69.06l4.33-18.38L29.69,56.09l7.57-31.86H22.71L26.49,8.55H73L69.16,24.23H54l-3.24,8.65,16.76-7Zm7.57-22.12L43.21,57.76l17.84-27-14.6,6.49,6.49-15.14h14.6l2.7-11.35H28.07L25.36,22.12H40l-7,30.23Z"/></g></g><path class="cls-1" d="M98.6,21.94V22a6.23,6.23,0,0,1-2,5.07A8,8,0,0,1,91,28.93a7.82,7.82,0,0,1-5.88-2.35,8.42,8.42,0,0,1-2.23-6.07v-4a8.62,8.62,0,0,1,2.17-6.06A7.63,7.63,0,0,1,90.8,8.07a8.8,8.8,0,0,1,5.82,1.8,6.08,6.08,0,0,1,2,5.07V15h-4a4,4,0,0,0-.93-2.91,4,4,0,0,0-2.9-.93A3.24,3.24,0,0,0,88,12.65a6.5,6.5,0,0,0-1,3.78v4.08a6.7,6.7,0,0,0,1,3.84,3.56,3.56,0,0,0,3,1.49,3.6,3.6,0,0,0,2.72-.93A4,4,0,0,0,94.7,22h3.9Z"/><path class="cls-1" d="M119.37,20.33V16.68A8.37,8.37,0,0,0,117,10.49,7.94,7.94,0,0,0,110.9,8a8.1,8.1,0,0,0-6.07,2.48,8.74,8.74,0,0,0-2.35,6.19v3.65a8.65,8.65,0,0,0,2.35,6.19,9,9,0,0,0,12.26,0,8.69,8.69,0,0,0,2.35-6.19Zm-4-.06a6.22,6.22,0,0,1-1.17,4,3.84,3.84,0,0,1-3.28,1.54,3.89,3.89,0,0,1-3.23-1.54,6.33,6.33,0,0,1-1.17-4V16.61a6.41,6.41,0,0,1,1.17-3.9,3.74,3.74,0,0,1,3.23-1.54,4,4,0,0,1,3.28,1.54,6.15,6.15,0,0,1,1.17,3.9Z"/><rect class="cls-1" x="123.25" y="8.32" width="4.08" height="20.3"/><polygon class="cls-1" points="147.55 28.62 143.46 28.62 135.29 14.94 135.23 14.94 135.23 28.62 131.15 28.62 131.15 8.32 135.23 8.32 143.4 22 143.46 22 143.46 8.32 147.55 8.32 147.55 28.62"/><polygon class="cls-1" points="166.96 11.48 161.14 11.48 161.14 28.62 157.06 28.62 157.06 11.48 151.36 11.48 151.36 8.32 166.96 8.32 166.96 11.48"/><polygon class="cls-1" points="182.34 19.71 174.79 19.71 174.79 25.53 183.77 25.53 183.77 28.62 170.77 28.62 170.77 8.32 183.77 8.32 183.77 11.48 174.86 11.48 174.86 16.55 182.41 16.55 182.41 19.71 182.34 19.71"/><polygon class="cls-1" points="191.67 25.53 200.76 25.53 200.76 28.62 187.58 28.62 187.58 8.32 191.67 8.32 191.67 25.53 191.67 25.53"/><polygon class="cls-1" points="216.15 19.71 208.6 19.71 208.6 25.53 217.57 25.53 217.57 28.62 204.58 28.62 204.58 8.32 217.57 8.32 217.57 11.48 208.66 11.48 208.66 16.55 216.21 16.55 216.21 19.71 216.15 19.71"/><path class="cls-1" d="M237.42,25.9a7.63,7.63,0,0,1-2.85,2.16,10.82,10.82,0,0,1-4.83.93,8,8,0,0,1-8.35-8.29V16.43a8,8,0,0,1,2.29-6,7.76,7.76,0,0,1,5.81-2.36,8.25,8.25,0,0,1,5.7,1.8,5.79,5.79,0,0,1,1.92,4.7v.06h-3.84a3.44,3.44,0,0,0-.93-2.53,3.72,3.72,0,0,0-2.72-.93,3.82,3.82,0,0,0-3,1.42,6,6,0,0,0-1.12,3.72v4.27a5.71,5.71,0,0,0,1.18,3.77,3.8,3.8,0,0,0,3.15,1.42,7.46,7.46,0,0,0,2.29-.3,3.3,3.3,0,0,0,1.3-.75v-4h-3.9V17.91h8v8Z"/><path class="cls-1" d="M256.2,27.07a6.36,6.36,0,0,1-.24-1.79V23.79a5.89,5.89,0,0,0-.81-3.09,4.59,4.59,0,0,0-2.6-1.8A6,6,0,0,0,255,17a4.48,4.48,0,0,0,.81-2.71,5.39,5.39,0,0,0-2-4.4,8.54,8.54,0,0,0-5.45-1.6h-7.05V28.62h4.08v-8h3.35a3.25,3.25,0,0,1,2.35.86,3.2,3.2,0,0,1,.8,2.35v1.43a10.68,10.68,0,0,0,.19,2,2.34,2.34,0,0,0,.74,1.48H257v-.3A2.41,2.41,0,0,1,256.2,27.07Zm-5.38-10.39a3.79,3.79,0,0,1-2.54.74h-2.91v-6h3a3.37,3.37,0,0,1,2.48.81,3.08,3.08,0,0,1,.87,2.24A2.74,2.74,0,0,1,250.82,16.68Z"/><path class="cls-1" d="M271.84,8.39h-4.15l-6.87,20.29h4.27l1.37-4.39H273l1.37,4.39h4.27Zm-4.4,12.68,2.29-7.17h.06L272,21.07Z"/><path class="cls-1" d="M295.76,10.12a8.08,8.08,0,0,0-5.5-1.79h-7.8V28.62h4.08V21.31h3.72a8,8,0,0,0,5.5-1.79,6.07,6.07,0,0,0,2-4.7A5.88,5.88,0,0,0,295.76,10.12Zm-2.9,7.11a3.52,3.52,0,0,1-2.6.94h-3.72V11.54h3.72a3.35,3.35,0,0,1,2.6.93,3.53,3.53,0,0,1,.86,2.41A3.46,3.46,0,0,1,292.86,17.23Z"/><polygon class="cls-1" points="318.02 28.62 313.94 28.62 313.94 20.2 305.65 20.2 305.65 28.62 301.56 28.62 301.56 8.32 305.65 8.32 305.65 17.05 313.94 17.05 313.94 8.32 318.02 8.32 318.02 28.62"/><g id="Tag_The-future-of-money-_-dark-grey" data-name="Tag/The-future-of-money-—-dark-grey"><path id="The-future-of-money" class="cls-1" d="M89.91,50.36H87.5V37.65H83.15V35.59H94.27v2.06H89.91Zm16.19,0h-2.41V43.47a3,3,0,0,0-.53-1.94,2.07,2.07,0,0,0-1.65-.65,2.6,2.6,0,0,0-2.18.89,4.89,4.89,0,0,0-.71,3V50.3H96.27V34.59h2.35v4c0,.65-.05,1.29-.11,2.06h.17A3.16,3.16,0,0,1,100,39.41a4.4,4.4,0,0,1,2-.47c2.71,0,4.06,1.36,4.06,4.12Zm8.18.18A5.31,5.31,0,0,1,110.22,49a5.68,5.68,0,0,1-1.47-4.18,6.49,6.49,0,0,1,1.35-4.3,4.68,4.68,0,0,1,3.77-1.59,4.53,4.53,0,0,1,3.47,1.36,5,5,0,0,1,1.29,3.7v1.3h-7.47a3.78,3.78,0,0,0,.88,2.47,3.07,3.07,0,0,0,2.36.88,9.31,9.31,0,0,0,1.82-.17,9,9,0,0,0,1.83-.65v1.94a6.82,6.82,0,0,1-1.77.59A9.55,9.55,0,0,1,114.28,50.54Zm-.41-9.77a2.44,2.44,0,0,0-1.83.7,3.53,3.53,0,0,0-.82,2.12h5.06a3.11,3.11,0,0,0-.65-2.12A2.21,2.21,0,0,0,113.87,40.77Zm18.42.17h-2.71v9.42h-2.41V40.94h-1.83V39.83l1.83-.71v-.71a4,4,0,0,1,.94-2.94,3.82,3.82,0,0,1,2.83-.94,7.4,7.4,0,0,1,2.47.41l-.65,1.83a5.7,5.7,0,0,0-1.71-.3,1.45,1.45,0,0,0-1.17.47,2.55,2.55,0,0,0-.36,1.47v.71h2.71v1.82Zm9.83,9.42-.36-1.47h-.11a3.61,3.61,0,0,1-1.42,1.23,4.5,4.5,0,0,1-2.06.48,4.4,4.4,0,0,1-3.06-1,4,4,0,0,1-1-3.07V39.18h2.42v6.88a3,3,0,0,0,.53,1.95,2,2,0,0,0,1.64.64,2.59,2.59,0,0,0,2.18-.88,4.89,4.89,0,0,0,.71-3V39.18H144V50.36Zm9.41-1.77a6.07,6.07,0,0,0,1.77-.29v1.77a3.76,3.76,0,0,1-1,.29,8.71,8.71,0,0,1-1.3.12q-3.34,0-3.35-3.53v-6h-1.53V39.88l1.65-.88.82-2.35h1.47v2.47h3.18v1.82h-3.18v6a1.71,1.71,0,0,0,.41,1.29A1.34,1.34,0,0,0,151.53,48.59Zm11.83,1.77L163,48.89h-.12a3.51,3.51,0,0,1-1.41,1.23,4.53,4.53,0,0,1-2.06.48,4.4,4.4,0,0,1-3.06-1,4.26,4.26,0,0,1-1-3.07V39.18h2.41v6.88A3.08,3.08,0,0,0,158.3,48a2,2,0,0,0,1.65.64,2.59,2.59,0,0,0,2.18-.88,4.9,4.9,0,0,0,.7-3V39.18h2.42V50.36Zm10.95-11.42a6,6,0,0,1,1.18.12l-.24,2.24a6.26,6.26,0,0,0-1.06-.12,2.92,2.92,0,0,0-2.29.94,3.38,3.38,0,0,0-.89,2.41v5.83h-2.35V39.18h1.88l.3,1.94H171a4.67,4.67,0,0,1,1.47-1.59A3.41,3.41,0,0,1,174.31,38.94ZM182,50.54A5.31,5.31,0,0,1,178,49a5.68,5.68,0,0,1-1.47-4.18,6.49,6.49,0,0,1,1.35-4.3,4.68,4.68,0,0,1,3.77-1.59,4.53,4.53,0,0,1,3.47,1.36,5,5,0,0,1,1.29,3.7v1.3H178.9a3.78,3.78,0,0,0,.88,2.47,3.07,3.07,0,0,0,2.36.88,9.31,9.31,0,0,0,1.82-.17,9,9,0,0,0,1.83-.65v1.94a6.82,6.82,0,0,1-1.77.59A10,10,0,0,1,182,50.54Zm-.41-9.77a2.44,2.44,0,0,0-1.83.7,3.53,3.53,0,0,0-.82,2.12H184a3.11,3.11,0,0,0-.65-2.12A2.39,2.39,0,0,0,181.61,40.77Zm22.71,3.94a6.22,6.22,0,0,1-1.41,4.3A5.08,5.08,0,0,1,199,50.54a5.41,5.41,0,0,1-2.77-.71,4.46,4.46,0,0,1-1.82-2.06,7.11,7.11,0,0,1-.65-3.06,6,6,0,0,1,1.41-4.24,5.15,5.15,0,0,1,4-1.53A4.89,4.89,0,0,1,203,40.53,6,6,0,0,1,204.32,44.71Zm-8.12,0c0,2.59.94,3.88,2.89,3.88s2.82-1.29,2.82-3.88-.94-3.83-2.82-3.83a2.51,2.51,0,0,0-2.18,1A4.73,4.73,0,0,0,196.2,44.71Zm16.48-3.77H210v9.42h-2.41V40.94h-1.82V39.83l1.82-.71v-.71a4.06,4.06,0,0,1,.94-2.94,3.82,3.82,0,0,1,2.83-.94,7.36,7.36,0,0,1,2.47.41l-.65,1.83a5.69,5.69,0,0,0-1.7-.3,1.47,1.47,0,0,0-1.18.47,2.45,2.45,0,0,0-.35,1.47v.71h2.7v1.82Zm16.72,9.42H227V43.47a3.45,3.45,0,0,0-.47-1.94,1.79,1.79,0,0,0-1.53-.65,2.25,2.25,0,0,0-2,.89,5.42,5.42,0,0,0-.65,3v5.59H220V39.18h1.88l.36,1.47h.11a3.16,3.16,0,0,1,1.36-1.24,4.3,4.3,0,0,1,1.94-.41c1.71,0,2.88.59,3.41,1.77h.18a3.76,3.76,0,0,1,1.41-1.3,4.7,4.7,0,0,1,2.06-.47,3.91,3.91,0,0,1,2.94,1,4.53,4.53,0,0,1,1,3.06v7.3h-2.36V43.47a3.45,3.45,0,0,0-.47-1.94,1.87,1.87,0,0,0-1.53-.65,2.25,2.25,0,0,0-2,.89,4.63,4.63,0,0,0-.65,2.65v5.94Zm20.24-5.65a6.22,6.22,0,0,1-1.41,4.3,5.1,5.1,0,0,1-3.89,1.53,5.37,5.37,0,0,1-2.76-.71,4.48,4.48,0,0,1-1.83-2.06,7.11,7.11,0,0,1-.64-3.06,6,6,0,0,1,1.41-4.24,5.14,5.14,0,0,1,3.94-1.53,4.89,4.89,0,0,1,3.83,1.59A6.26,6.26,0,0,1,249.64,44.71Zm-8.12,0c0,2.59.94,3.88,2.88,3.88s2.83-1.29,2.83-3.88-.94-3.83-2.83-3.83a2.49,2.49,0,0,0-2.17,1A4.73,4.73,0,0,0,241.52,44.71Zm20.72,5.65h-2.42V43.47a2.9,2.9,0,0,0-.53-1.94,2,2,0,0,0-1.64-.65,2.52,2.52,0,0,0-2.18.89,5.35,5.35,0,0,0-.71,3v5.59h-2.35V39.18h1.88l.35,1.47h.12a3.68,3.68,0,0,1,1.41-1.24,4.68,4.68,0,0,1,2.06-.41c2.71,0,4,1.36,4,4.12Zm8.18.18A5.31,5.31,0,0,1,266.36,49a5.68,5.68,0,0,1-1.48-4.18,6.49,6.49,0,0,1,1.36-4.3A4.67,4.67,0,0,1,270,38.94a4.55,4.55,0,0,1,3.48,1.36,5,5,0,0,1,1.29,3.7v1.3H267.3a3.78,3.78,0,0,0,.88,2.47,3,3,0,0,0,2.35.88,9.34,9.34,0,0,0,1.83-.17,10.1,10.1,0,0,0,1.82-.65v1.94a6.76,6.76,0,0,1-1.76.59A10,10,0,0,1,270.42,50.54ZM270,40.77a2.44,2.44,0,0,0-1.83.7,3.53,3.53,0,0,0-.82,2.12h5.06a3.16,3.16,0,0,0-.65-2.12A2.21,2.21,0,0,0,270,40.77Zm5.41-1.59H278l2.3,6.35a12.28,12.28,0,0,1,.7,2.53H281a10.46,10.46,0,0,1,.35-1.35c.18-.53,1-3.06,2.59-7.53h2.59l-4.76,12.65c-.89,2.3-2.3,3.47-4.36,3.47a6.3,6.3,0,0,1-1.53-.17V53.24a7.24,7.24,0,0,0,1.24.12,2.52,2.52,0,0,0,2.41-2L280,50.3Z"/></g></g></g></svg>