<svg width="200" height="120" viewBox="0 0 200 120" fill="var(--plate)" xmlns="http://www.w3.org/2000/svg">
<circle cx="36.5" cy="67.5" r="36" fill="var(--plate)" stroke="currentColor"/>
<circle cx="56.5" cy="61.5" r="36" fill="var(--plate)" stroke="currentColor"/>
<circle cx="83.5" cy="68.5" r="36" fill="var(--plate)" stroke="currentColor"/>
<circle cx="107.5" cy="83.5" r="36" fill="var(--plate)" stroke="currentColor"/>
<circle cx="129.5" cy="78.5" r="36" fill="var(--plate)" stroke="currentColor"/>
<circle cx="157.5" cy="53.5" r="36" fill="var(--plate)" stroke="currentColor"/>
<path d="M158.872 41.4H159.864V44.28C160.963 44.3227 161.965 44.52 162.872 44.872C163.779 45.224 164.499 45.7467 165.032 46.44C165.576 47.1333 165.848 48.0133 165.848 49.08V49.448H164.6V49.112C164.6 48.2373 164.381 47.5333 163.944 47C163.507 46.4667 162.925 46.0773 162.2 45.832C161.485 45.576 160.707 45.432 159.864 45.4V52.472C161.176 52.7173 162.301 53.0213 163.24 53.384C164.179 53.736 164.899 54.216 165.4 54.824C165.912 55.432 166.168 56.2267 166.168 57.208C166.168 58.616 165.581 59.7147 164.408 60.504C163.235 61.2933 161.72 61.72 159.864 61.784V65H158.872V61.768C156.995 61.6933 155.523 61.256 154.456 60.456C153.4 59.6453 152.84 58.5467 152.776 57.16C152.776 57.0533 152.771 56.9413 152.76 56.824C152.76 56.7067 152.76 56.6053 152.76 56.52H154.008C154.008 56.6053 154.008 56.7013 154.008 56.808C154.008 56.9147 154.013 57.0213 154.024 57.128C154.067 58.184 154.509 59.016 155.352 59.624C156.195 60.232 157.368 60.5733 158.872 60.648V53.416C157.731 53.2027 156.723 52.92 155.848 52.568C154.973 52.2053 154.285 51.72 153.784 51.112C153.293 50.504 153.048 49.7147 153.048 48.744C153.048 47.8373 153.309 47.064 153.832 46.424C154.355 45.784 155.053 45.2827 155.928 44.92C156.813 44.5573 157.795 44.3493 158.872 44.296V41.4ZM154.28 48.712C154.28 49.7787 154.696 50.568 155.528 51.08C156.36 51.5813 157.475 51.976 158.872 52.264V45.416C158.04 45.4587 157.277 45.608 156.584 45.864C155.891 46.12 155.331 46.488 154.904 46.968C154.488 47.4373 154.28 48.0187 154.28 48.712ZM164.936 57.256C164.936 56.1467 164.499 55.3413 163.624 54.84C162.76 54.328 161.507 53.912 159.864 53.592V60.664C161.4 60.6107 162.627 60.2853 163.544 59.688C164.472 59.0907 164.936 58.28 164.936 57.256Z" fill="currentColor"/>
</svg>
