<svg xmlns="http://www.w3.org/2000/svg" viewBox="0 0 246.97 62.77"><defs><style>.cls-1{fill:#999;}</style></defs><g id="Layer_2" data-name="Layer 2"><g id="Layer_1-2" data-name="Layer 1"><path class="cls-1" d="M10,62.77q0-6.84,0-13.69l0,0H20.09v5H33.18c2,0,2,0,2-2v-3h10.1l0,0q0,6.84,0,13.68Z"/><path class="cls-1" d="M127.09,58.84H102.23V34h24.86ZM107.21,39V53.86h14.91V39Z"/><path class="cls-1" d="M132.19,58.83V34h24.87V58.83ZM152.08,39H137.17V53.87h14.91Z"/><path class="cls-1" d="M127.14,29h-4.91V19.1h-15V29c-.18,0-.31.05-.43.05-1.37,0-2.74,0-4.11,0-.35,0-.46-.1-.46-.46q0-12,0-24c0-.1,0-.2,0-.34h24.87Zm-19.9-14.95h15c0-.19,0-.36,0-.52,0-1.28,0-2.57,0-3.85,0-.49-.15-.6-.62-.6H107.8l-.56,0Z"/><path class="cls-1" d="M192.13,29V4.21H217V9.09H197.12v5h9.94v5h-9.94v5H217V29Z"/><path class="cls-1" d="M242,24.13c-.76,0-1.53-.05-2.29-.05H237v-5h-10V29h-5V4.21H247V19.06h-4.92c0,.23,0,.41,0,.59,0,1.32,0,2.63,0,4a4.78,4.78,0,0,1-.06.53Zm.06-15H227.08v4.91H242Z"/><path class="cls-1" d="M77.29,4.17v9.9h15V4.22h5v.54q0,11.85,0,23.69c0,.48-.12.62-.61.61-1.43,0-2.86,0-4.36,0V19.11h-15v9.94H75.52c-.93,0-1.87,0-2.8,0-.32,0-.48-.09-.44-.42a1.33,1.33,0,0,0,0-.2c0-7.89,0-15.77,0-23.65,0-.52.14-.65.64-.63,1.25,0,2.51,0,3.76,0Z"/><path class="cls-1" d="M97.14,58.84H92.2V39h-15V58.83h-5V34H97.14Z"/><path class="cls-1" d="M137.22,24.09H157.1v5H132.81c-.47,0-.61-.11-.61-.6q0-11.85,0-23.69V4.2h24.88V9.09H137.22Z"/><path class="cls-1" d="M182.08,38.92h-.64c-4.59,0-9.18,0-13.77,0-.52,0-.64.15-.64.64,0,6.2,0,12.4,0,18.6v.68h-4.91V34H187V58.83h-4.93Z"/><path class="cls-1" d="M10,13.91c0-1.6,0-3.2,0-4.8,0-2.74,0-5.47,0-8.21V0H45.29V13.9H35.21c0-1.47,0-2.85,0-4.22,0-.7-.22-.87-.87-.85-1.12,0-2.24.06-3.35,0-.71,0-.89.2-.89.89,0,7.78,0,15.56,0,23.33v1c-1.46,0-2.79,0-4.12,0-.72,0-.94-.16-.94-.92,0-7.75,0-15.51,0-23.26v-1h-5v5H10Z"/><path class="cls-1" d="M177.19,14.11c0,.92-.06,1.85-.06,2.77,0,.73,0,1.45.07,2.18v0c-1,0-1.9,0-2.85,0h-7.21V29h-5V4.2h5v9.9h9.51l.55,0Z"/><path class="cls-1" d="M177.2,14.12c0-.73,0-1.46,0-2.19,0-.91,0-1.82,0-2.79h5V4.22h5V9.08l-.54,0h-3.76c-.67,0-.67,0-.67.69v3.7c0,.17,0,.35,0,.61H177.2Z"/><path class="cls-1" d="M50.24,24h5.08V29h5v5h-5v5H50.24l0,0c0-.31,0-.62.05-.94V26.68c0-.92,0-1.84-.05-2.76Z"/><path class="cls-1" d="M4.93,39.05H0V23.94H4.93l0,0V39.07Z"/><path class="cls-1" d="M182,24.13h5v4.92h-1.25c-1.07,0-2.14,0-3.21,0-.4,0-.5-.13-.5-.51,0-1.3,0-2.6,0-3.9a5.15,5.15,0,0,0-.07-.53Z"/><path class="cls-1" d="M242,24.13h5v4.92H246c-1.12,0-2.24,0-3.35,0-.49,0-.67-.09-.65-.62,0-1.26,0-2.53,0-3.79a3,3,0,0,0-.08-.52Z"/><path class="cls-1" d="M182,24.12l-3.95-.05h-1c0-.95,0-1.84,0-2.74s0-1.52.06-2.28h0l4.18,0h.68c0,.22,0,.4,0,.58,0,1.32,0,2.65,0,4a3.93,3.93,0,0,1-.06.48Z"/><path class="cls-1" d="M4.93,23.94v-10H10l0,0v10H4.91Z"/><path class="cls-1" d="M10.05,49.08H4.93v-10l0,0H10v1c0,3,0,6,0,9Z"/><path class="cls-1" d="M45.29,13.9h4.85c.06.12.12.19.12.25,0,3.26,0,6.53,0,9.8l0,0H45.31v-10Z"/><path class="cls-1" d="M50.24,39.05v10h-5l0,0v-10h4.95Z"/></g></g></svg>