<svg viewBox="0 0 632 360" fill="none" xmlns="http://www.w3.org/2000/svg">
<path opacity="0.4" d="M527.188 244.167V226.552C587.804 178.738 589.064 167.416 600.43 158.609C611.795 149.801 632 119.673 632 108.28C632 99.472 615.583 78.0822 608.007 61.7252C600.43 45.3683 595.464 32.0217 581.487 10.138C563.808 -17.543 560.02 -21.3177 546.129 -17.543C534.896 -14.4906 502.742 -21.7942 480.462 -28.8492C453.943 -37.2467 436.264 -35.1451 417.322 -24.2303C398.514 -13.3931 339.027 0.0710373 274.624 20.2027C210.221 40.3343 201.381 31.5457 177.387 44.109C146.068 60.5085 91.5163 74.3254 73.8369 81.8748C56.4267 89.3092 32.5314 90.5836 24.9553 96.8556C22.7162 98.7094 11.9764 126.423 7.27666 152.218C2.85954 176.461 -4.08934 194.997 3.11995 201.387C6.01316 203.952 10.7052 212.264 19.5357 217.763C29.6382 224.055 33.4267 242.299 42.2664 245.444C64.997 253.533 70.049 266.815 82.6771 268.073C95.3053 269.332 107.933 273.106 116.773 274.364C125.613 275.623 155.089 274.993 157.183 278.139C159.708 281.933 160.971 284.449 160.971 308.356C160.971 332.262 162.234 381.314 162.234 396.413C162.234 411.511 167.285 416.563 202.644 430.385C228.667 440.557 264.522 448 330.188 448C395.855 448 445.104 441.709 471.623 436.676C498.142 431.643 513.296 414.028 518.347 407.737C523.399 401.446 524.662 388.863 524.662 372.506C524.662 356.149 525.566 304.744 524.662 289.463C523.398 268.092 527.188 251.716 527.188 244.167Z" stroke="black"/>
</svg>
