<svg id="eoqn6s2nycal1" xmlns="http://www.w3.org/2000/svg" xmlns:xlink="http://www.w3.org/1999/xlink" viewBox="0 0 202 156" shape-rendering="geometricPrecision" text-rendering="geometricPrecision"><style>#eoqn6s2nycal2 {animation: eoqn6s2nycal2_s_do 3000ms linear infinite normal forwards}@keyframes eoqn6s2nycal2_s_do { 0% {stroke-dashoffset: 585.070000;animation-timing-function: cubic-bezier(0.455000,0.030000,0.515000,0.955000)} 50% {stroke-dashoffset: 0;animation-timing-function: cubic-bezier(0.455000,0.030000,0.515000,0.955000)} 66.666667% {stroke-dashoffset: 0} 100% {stroke-dashoffset: -585.070000} }</style><path id="eoqn6s2nycal2" d="M167.832000,89.874900L167.832000,84.246800C187.014000,68.970300,187.413000,65.352900,191.009000,62.538900C194.606000,59.724800,201,50.099000,201,46.458600C201,43.644600,195.805000,36.810500,193.407000,31.584400C191.009000,26.358300,189.438000,22.094100,185.015000,15.102200C179.420000,6.258040,178.221000,5.052010,173.826000,6.258030C170.271000,7.233290,160.096000,4.899770,153.045000,2.645690C144.653000,-0.037315,139.058000,0.634145,133.064000,4.121420C127.112000,7.583930,108.287000,11.885800,87.906400,18.317900C67.525600,24.750000,64.728200,21.942000,57.135300,25.956000C47.224000,31.195700,29.960900,35.610200,24.366200,38.022200C18.856600,40.397500,11.294800,40.804700,8.897330,42.808600C8.188720,43.400900,4.790050,52.255600,3.302810,60.496900C1.904980,68.242700,-0.294031,74.165100,1.987390,76.206700C2.902960,77.026100,4.387780,79.682000,7.182260,81.438900C10.379300,83.449000,11.578100,89.278000,14.375500,90.283100C21.568700,92.867400,23.167500,97.111000,27.163700,97.513100C31.160000,97.915100,35.156200,99.121100,37.953600,99.523100C40.750900,99.925100,50.079000,99.724000,50.741500,100.729000C51.540500,101.941000,51.940200,102.745000,51.940200,110.383000C51.940200,118.021000,52.340000,133.694000,52.340000,138.518000C52.340000,143.342000,53.938300,144.956000,65.128000,149.372000C73.363000,152.622000,84.709600,155,105.490000,155C126.271000,155,141.856000,152.990000,150.248000,151.382000C158.640000,149.774000,163.436000,144.146000,165.034000,142.136000C166.633000,140.126000,167.032000,136.106000,167.032000,130.880000C167.032000,125.654000,167.318000,109.229000,167.032000,104.347000C166.632000,97.519200,167.832000,92.287000,167.832000,89.874900Z" fill="none" stroke="currentColor" stroke-dashoffset="585.070000" stroke-dasharray="585.070000"/></svg>
