<svg width="160" height="160" viewBox="0 0 160 160" fill="none" xmlns="http://www.w3.org/2000/svg">
<path d="M133.465 89.4074V84.9488C148.811 72.8466 149.13 69.9809 152.008 67.7516C154.885 65.5223 160 57.8966 160 55.0127C160 52.7834 155.844 47.3694 153.926 43.2292C152.008 39.0891 150.75 35.7109 147.212 30.1719C142.736 23.1655 141.777 22.21 138.26 23.1655C135.417 23.9381 127.276 22.0894 121.636 20.3037C114.922 18.1782 110.447 18.7102 105.651 21.4728C100.89 24.2158 85.8297 27.6238 69.5251 32.7193C53.2204 37.8149 50.9825 35.5904 44.9082 38.7703C36.9792 42.9212 23.1687 46.4185 18.6929 48.3293C14.2852 50.211 8.23581 50.5336 6.31781 52.1211C5.75093 52.5903 3.03199 59.6051 1.84219 66.1339C0.723935 72.2702 -1.03528 76.962 0.789861 78.5794C1.52232 79.2284 2.71017 81.3325 4.94576 82.7243C7.50335 84.3167 8.46245 88.9346 10.7003 89.7307C16.4549 91.7781 17.7339 95.1399 20.9309 95.4584C24.1279 95.7769 27.3249 96.7323 29.5628 97.0508C31.8007 97.3692 39.2631 97.2099 39.7932 98.0062C40.4324 98.9664 40.7521 99.6034 40.7521 105.654C40.7521 111.705 41.072 124.121 41.072 127.943C41.072 131.764 42.3506 133.043 51.3024 136.541C57.8904 139.116 66.9676 141 83.592 141C100.216 141 112.685 139.408 119.398 138.134C126.112 136.86 129.948 132.401 131.227 130.809C132.506 129.217 132.826 126.032 132.826 121.892C132.826 117.752 133.055 104.74 132.826 100.872C132.506 95.4632 133.465 91.3183 133.465 89.4074Z" fill="currentColor"/>
</svg>
