<svg width="200" height="120" viewBox="0 0 200 120" fill="none" xmlns="http://www.w3.org/2000/svg">
<circle cx="36" cy="67" r="35.5" fill="var(--plate)" stroke="currentColor"/>
<path d="M53.4051 68.3044L53.2155 68.4545V68.6964V70.2714C53.2155 70.4078 53.1979 70.599 53.1677 70.8636C53.1589 70.9405 53.1492 71.0232 53.1388 71.1108C53.115 71.3122 53.0881 71.5395 53.0633 71.7822C52.9915 72.486 52.9329 73.3588 52.9914 74.3508C53.0483 75.3171 53.0231 77.9345 53.0043 79.8878C52.9969 80.6578 52.9905 81.3247 52.9905 81.7464C52.9905 82.4695 52.9623 83.0855 52.8841 83.5809C52.8042 84.0867 52.681 84.4048 52.5375 84.5841C52.1091 85.1196 50.8547 86.577 48.6719 86.9927C46.3413 87.4367 41.9852 87.9964 36.1654 87.9964C30.3526 87.9964 27.226 87.3349 24.9856 86.4559C23.3936 85.8314 22.5783 85.4373 22.148 85.0667C21.9504 84.8964 21.8506 84.7435 21.7924 84.5835C21.7303 84.4125 21.7029 84.199 21.7029 83.8839C21.7029 83.2811 21.6808 82.0826 21.6562 80.7552C21.653 80.5831 21.6498 80.4088 21.6466 80.2334C21.6184 78.6996 21.5904 77.0738 21.5904 76.0106C21.5904 74.9435 21.563 74.3176 21.5002 73.9094C21.4678 73.6989 21.4241 73.5314 21.3627 73.3828C21.3012 73.2336 21.2293 73.1226 21.1697 73.0326C21.0883 72.9098 20.9779 72.8452 20.9168 72.8142C20.8472 72.7788 20.7749 72.7545 20.7121 72.7369C20.5859 72.7014 20.4367 72.6764 20.2853 72.6573C19.979 72.6185 19.5912 72.595 19.2009 72.5774C18.9548 72.5662 18.7102 72.5574 18.4785 72.5489C17.9426 72.5295 17.4763 72.5125 17.2237 72.4764C16.9279 72.4342 16.5814 72.3581 16.1808 72.2701C16.0795 72.2478 15.9747 72.2248 15.8664 72.2014C15.3432 72.0883 14.7575 71.9706 14.1652 71.9114C13.7758 71.8724 13.4994 71.6593 12.9635 71.2345C12.4454 70.8237 11.7749 70.3045 10.6835 69.9147C10.6178 69.8913 10.5209 69.8234 10.3881 69.6525C10.2567 69.4834 10.1295 69.2667 9.97845 69.0042C9.97119 68.9916 9.96388 68.9789 9.95651 68.9661C9.81778 68.7247 9.66034 68.4509 9.48127 68.2026C9.2922 67.9404 9.05769 67.6755 8.75538 67.4866C8.42316 67.279 8.16026 67.0128 7.94143 66.7559C7.85531 66.6548 7.78012 66.5602 7.70741 66.4687C7.68644 66.4424 7.66568 66.4163 7.64492 66.3903C7.56217 66.2869 7.46178 66.1631 7.36027 66.0728C7.32907 66.0451 7.27664 65.9757 7.25719 65.775C7.2374 65.5709 7.25831 65.2936 7.31814 64.9275C7.37732 64.5654 7.4682 64.1515 7.57236 63.6787L7.57495 63.6669C7.67738 63.2019 7.79076 62.6872 7.89021 62.1394C8.09392 61.0173 8.43023 59.846 8.74119 58.9337C8.89651 58.4779 9.04353 58.0926 9.1618 57.8151C9.22127 57.6756 9.27089 57.5694 9.30852 57.4974C9.31748 57.4803 9.32502 57.4665 9.33116 57.4557C9.43021 57.3873 9.60191 57.3088 9.86983 57.2248C10.1657 57.132 10.5238 57.0485 10.9314 56.9572C10.9853 56.9451 11.0401 56.9329 11.0956 56.9205C11.8567 56.7507 12.7536 56.5507 13.5249 56.2202C14.0585 55.9914 14.9873 55.6951 16.1133 55.3359C16.5917 55.1832 17.1058 55.0192 17.6403 54.8442C19.3996 54.2681 21.3489 53.5814 22.7855 52.8265C23.7278 52.3313 24.3645 52.2406 25.4604 52.0845C25.5077 52.0777 25.5559 52.0709 25.6049 52.0639C26.8053 51.8922 28.4641 51.6336 31.3651 50.7235C33.5033 50.0527 35.5776 49.4657 37.4327 48.9408C38.0598 48.7634 38.6619 48.593 39.233 48.4289C40.3598 48.1051 41.3678 47.8049 42.2013 47.5238C43.0268 47.2454 43.713 46.9754 44.1782 46.7064C44.9725 46.247 45.7174 45.9855 46.5289 45.9178C47.3447 45.8497 48.2613 45.9747 49.4015 46.3371C50.4096 46.6575 51.6413 46.9838 52.7532 47.1961C53.3088 47.3022 53.8429 47.3814 54.3087 47.416C54.7613 47.4496 55.1986 47.4455 55.5345 47.3539C55.8262 47.2743 56.0083 47.2516 56.1463 47.2653C56.266 47.2772 56.3837 47.3196 56.5375 47.4435C56.7037 47.5776 56.9015 47.7989 57.166 48.1624C57.4282 48.5227 57.7371 48.9958 58.1311 49.6149C59.1113 51.1553 59.578 52.2002 60.0776 53.319C60.2008 53.5948 60.326 53.8752 60.4614 54.1685C60.742 54.7764 61.1533 55.4598 61.5299 56.0855C61.6255 56.2442 61.7188 56.3992 61.8071 56.5483C62.0313 56.9265 62.2248 57.2679 62.3617 57.5579C62.5077 57.8674 62.5529 58.0458 62.5529 58.1215C62.5529 58.2625 62.4806 58.5389 62.3003 58.9376C62.1284 59.3177 61.8847 59.7528 61.6054 60.1883C61.0372 61.0745 60.371 61.8864 59.9334 62.2268C59.6408 62.4544 59.4183 62.6952 59.1761 62.9733C59.1204 63.0373 59.0635 63.1033 59.0041 63.1724C58.8029 63.4062 58.5723 63.6741 58.2583 64.0093C57.45 64.8725 56.0915 66.1777 53.4051 68.3044ZM9.35095 57.4236C9.35095 57.4237 9.34971 57.4256 9.34724 57.4289C9.34972 57.4251 9.35095 57.4235 9.35095 57.4236Z" fill="var(--plate)" stroke="currentColor"/>
<circle cx="56" cy="61" r="35.5" fill="var(--plate)" stroke="currentColor"/>
<path d="M73.4051 62.3044L73.2155 62.4545V62.6964V64.2714C73.2155 64.4078 73.1979 64.599 73.1677 64.8636C73.1589 64.9405 73.1492 65.0232 73.1388 65.1108C73.115 65.3122 73.0881 65.5395 73.0633 65.7822C72.9915 66.486 72.9329 67.3588 72.9914 68.3508C73.0483 69.3171 73.0231 71.9345 73.0043 73.8878C72.9969 74.6578 72.9905 75.3247 72.9905 75.7464C72.9905 76.4695 72.9623 77.0855 72.8841 77.5809C72.8042 78.0867 72.681 78.4048 72.5375 78.5841C72.1091 79.1196 70.8547 80.577 68.6719 80.9927C66.3413 81.4367 61.9852 81.9964 56.1654 81.9964C50.3526 81.9964 47.226 81.3349 44.9856 80.4559C43.3936 79.8314 42.5783 79.4373 42.148 79.0667C41.9504 78.8964 41.8506 78.7435 41.7924 78.5835C41.7303 78.4125 41.7029 78.199 41.7029 77.8839C41.7029 77.2811 41.6808 76.0826 41.6562 74.7552C41.653 74.5831 41.6498 74.4088 41.6466 74.2334C41.6184 72.6996 41.5904 71.0738 41.5904 70.0106C41.5904 68.9435 41.563 68.3176 41.5002 67.9094C41.4678 67.6989 41.4241 67.5314 41.3627 67.3828C41.3012 67.2336 41.2293 67.1226 41.1697 67.0326C41.0883 66.9098 40.9779 66.8452 40.9168 66.8142C40.8472 66.7788 40.7749 66.7545 40.7121 66.7369C40.5859 66.7014 40.4367 66.6764 40.2853 66.6573C39.979 66.6185 39.5912 66.595 39.2009 66.5774C38.9548 66.5662 38.7102 66.5574 38.4785 66.5489C37.9426 66.5295 37.4763 66.5125 37.2237 66.4764C36.9279 66.4342 36.5814 66.3581 36.1808 66.2701C36.0795 66.2478 35.9747 66.2248 35.8664 66.2014C35.3432 66.0883 34.7575 65.9706 34.1652 65.9114C33.7758 65.8724 33.4994 65.6593 32.9635 65.2345C32.4454 64.8237 31.7749 64.3045 30.6835 63.9147C30.6178 63.8913 30.5209 63.8234 30.3881 63.6525C30.2567 63.4834 30.1295 63.2667 29.9785 63.0042C29.9712 62.9916 29.9639 62.9789 29.9565 62.9661C29.8178 62.7247 29.6603 62.4509 29.4813 62.2026C29.2922 61.9404 29.0577 61.6755 28.7554 61.4866C28.4232 61.279 28.1603 61.0128 27.9414 60.7559C27.8553 60.6548 27.7801 60.5602 27.7074 60.4687C27.6864 60.4424 27.6657 60.4163 27.6449 60.3903C27.5622 60.2869 27.4618 60.1631 27.3603 60.0728C27.3291 60.0451 27.2766 59.9757 27.2572 59.775C27.2374 59.5709 27.2583 59.2936 27.3181 58.9275C27.3773 58.5654 27.4682 58.1515 27.5724 57.6787L27.575 57.6669C27.6774 57.2019 27.7908 56.6872 27.8902 56.1394C28.0939 55.0173 28.4302 53.846 28.7412 52.9337C28.8965 52.4779 29.0435 52.0926 29.1618 51.8151C29.2213 51.6756 29.2709 51.5694 29.3085 51.4974C29.3175 51.4803 29.325 51.4665 29.3312 51.4557C29.4302 51.3873 29.6019 51.3088 29.8698 51.2248C30.1657 51.132 30.5238 51.0485 30.9314 50.9572C30.9853 50.9451 31.0401 50.9329 31.0956 50.9205C31.8567 50.7507 32.7536 50.5507 33.5249 50.2202C34.0585 49.9914 34.9873 49.6951 36.1133 49.3359C36.5917 49.1832 37.1058 49.0192 37.6403 48.8442C39.3996 48.2681 41.3489 47.5814 42.7855 46.8265C43.7278 46.3313 44.3645 46.2406 45.4604 46.0845C45.5077 46.0777 45.5559 46.0709 45.6049 46.0639C46.8053 45.8922 48.4641 45.6336 51.3651 44.7235C53.5033 44.0527 55.5776 43.4657 57.4327 42.9408C58.0598 42.7634 58.6619 42.593 59.233 42.4289C60.3598 42.1051 61.3678 41.8049 62.2013 41.5238C63.0268 41.2454 63.713 40.9754 64.1782 40.7064C64.9725 40.247 65.7174 39.9855 66.5289 39.9178C67.3447 39.8497 68.2613 39.9747 69.4015 40.3371C70.4096 40.6575 71.6413 40.9838 72.7532 41.1961C73.3088 41.3022 73.8429 41.3814 74.3087 41.416C74.7613 41.4496 75.1986 41.4455 75.5345 41.3539C75.8262 41.2743 76.0083 41.2516 76.1463 41.2653C76.266 41.2772 76.3837 41.3196 76.5375 41.4435C76.7037 41.5776 76.9015 41.7989 77.166 42.1624C77.4282 42.5227 77.7371 42.9958 78.1311 43.6149C79.1113 45.1553 79.578 46.2002 80.0776 47.319C80.2008 47.5948 80.326 47.8752 80.4614 48.1685C80.742 48.7764 81.1533 49.4598 81.5299 50.0855C81.6255 50.2442 81.7188 50.3992 81.8071 50.5483C82.0313 50.9265 82.2248 51.2679 82.3617 51.5579C82.5077 51.8674 82.5529 52.0458 82.5529 52.1215C82.5529 52.2625 82.4806 52.5389 82.3003 52.9376C82.1284 53.3177 81.8847 53.7528 81.6054 54.1883C81.0372 55.0745 80.371 55.8864 79.9334 56.2268C79.6408 56.4544 79.4183 56.6952 79.1761 56.9733C79.1204 57.0373 79.0635 57.1033 79.0041 57.1724C78.8029 57.4062 78.5723 57.6741 78.2583 58.0093C77.45 58.8725 76.0915 60.1777 73.4051 62.3044ZM29.351 51.4236C29.351 51.4237 29.3497 51.4256 29.3472 51.4289C29.3497 51.4251 29.351 51.4235 29.351 51.4236Z" fill="var(--plate)" stroke="currentColor"/>
<circle cx="83" cy="68" r="35.5" fill="var(--plate)" stroke="currentColor"/>
<path d="M100.405 69.3044L100.215 69.4545V69.6964V71.2714C100.215 71.4078 100.198 71.599 100.168 71.8636C100.159 71.9405 100.149 72.0232 100.139 72.1108C100.115 72.3122 100.088 72.5395 100.063 72.7822C99.9915 73.486 99.9329 74.3588 99.9914 75.3508C100.048 76.3171 100.023 78.9345 100.004 80.8878C99.9969 81.6578 99.9905 82.3247 99.9905 82.7464C99.9905 83.4695 99.9623 84.0855 99.8841 84.5809C99.8042 85.0867 99.681 85.4048 99.5375 85.5841C99.1091 86.1196 97.8547 87.577 95.6719 87.9927C93.3413 88.4367 88.9852 88.9964 83.1654 88.9964C77.3526 88.9964 74.226 88.3349 71.9856 87.4559C70.3936 86.8314 69.5783 86.4373 69.148 86.0667C68.9504 85.8964 68.8506 85.7435 68.7924 85.5835C68.7303 85.4125 68.7029 85.199 68.7029 84.8839C68.7029 84.2811 68.6808 83.0826 68.6562 81.7552C68.653 81.5831 68.6498 81.4088 68.6466 81.2334C68.6184 79.6996 68.5904 78.0738 68.5904 77.0106C68.5904 75.9435 68.563 75.3176 68.5002 74.9094C68.4678 74.6989 68.4241 74.5314 68.3627 74.3828C68.3012 74.2336 68.2293 74.1226 68.1697 74.0326C68.0883 73.9098 67.9779 73.8452 67.9168 73.8142C67.8472 73.7788 67.7749 73.7545 67.7121 73.7369C67.5859 73.7014 67.4367 73.6764 67.2853 73.6573C66.979 73.6185 66.5912 73.595 66.2009 73.5774C65.9548 73.5662 65.7102 73.5574 65.4785 73.5489C64.9426 73.5295 64.4763 73.5125 64.2237 73.4764C63.9279 73.4342 63.5814 73.3581 63.1808 73.2701C63.0795 73.2478 62.9747 73.2248 62.8664 73.2014C62.3432 73.0883 61.7575 72.9706 61.1652 72.9114C60.7758 72.8724 60.4994 72.6593 59.9635 72.2345C59.4454 71.8237 58.7749 71.3045 57.6835 70.9147C57.6178 70.8913 57.5209 70.8234 57.3881 70.6525C57.2567 70.4834 57.1295 70.2667 56.9785 70.0042C56.9712 69.9916 56.9639 69.9789 56.9565 69.9661C56.8178 69.7247 56.6603 69.4509 56.4813 69.2026C56.2922 68.9404 56.0577 68.6755 55.7554 68.4866C55.4232 68.279 55.1603 68.0128 54.9414 67.7559C54.8553 67.6548 54.7801 67.5602 54.7074 67.4687C54.6864 67.4424 54.6657 67.4163 54.6449 67.3903C54.5622 67.2869 54.4618 67.1631 54.3603 67.0728C54.3291 67.0451 54.2766 66.9757 54.2572 66.775C54.2374 66.5709 54.2583 66.2936 54.3181 65.9275C54.3773 65.5654 54.4682 65.1515 54.5724 64.6787L54.575 64.6669C54.6774 64.2019 54.7908 63.6872 54.8902 63.1394C55.0939 62.0173 55.4302 60.846 55.7412 59.9337C55.8965 59.4779 56.0435 59.0926 56.1618 58.8151C56.2213 58.6756 56.2709 58.5694 56.3085 58.4974C56.3175 58.4803 56.325 58.4665 56.3312 58.4557C56.4302 58.3873 56.6019 58.3088 56.8698 58.2248C57.1657 58.132 57.5238 58.0485 57.9314 57.9572C57.9853 57.9451 58.0401 57.9329 58.0956 57.9205C58.8567 57.7507 59.7536 57.5507 60.5249 57.2202C61.0585 56.9914 61.9873 56.6951 63.1133 56.3359C63.5917 56.1832 64.1058 56.0192 64.6403 55.8442C66.3996 55.2681 68.3489 54.5814 69.7855 53.8265C70.7278 53.3313 71.3645 53.2406 72.4604 53.0845C72.5077 53.0777 72.5559 53.0709 72.6049 53.0639C73.8053 52.8922 75.4641 52.6336 78.3651 51.7235C80.5033 51.0527 82.5776 50.4657 84.4327 49.9408C85.0598 49.7634 85.6619 49.593 86.233 49.4289C87.3598 49.1051 88.3678 48.8049 89.2013 48.5238C90.0268 48.2454 90.713 47.9754 91.1782 47.7064C91.9725 47.247 92.7174 46.9855 93.5289 46.9178C94.3447 46.8497 95.2613 46.9747 96.4015 47.3371C97.4096 47.6575 98.6413 47.9838 99.7532 48.1961C100.309 48.3022 100.843 48.3814 101.309 48.416C101.761 48.4496 102.199 48.4455 102.534 48.3539C102.826 48.2743 103.008 48.2516 103.146 48.2653C103.266 48.2772 103.384 48.3196 103.537 48.4435C103.704 48.5776 103.901 48.7989 104.166 49.1624C104.428 49.5227 104.737 49.9958 105.131 50.6149C106.111 52.1553 106.578 53.2002 107.078 54.319C107.201 54.5948 107.326 54.8752 107.461 55.1685C107.742 55.7764 108.153 56.4598 108.53 57.0855C108.625 57.2442 108.719 57.3992 108.807 57.5483C109.031 57.9265 109.225 58.2679 109.362 58.5579C109.508 58.8674 109.553 59.0458 109.553 59.1215C109.553 59.2625 109.481 59.5389 109.3 59.9376C109.128 60.3177 108.885 60.7528 108.605 61.1883C108.037 62.0745 107.371 62.8864 106.933 63.2268C106.641 63.4544 106.418 63.6952 106.176 63.9733C106.12 64.0373 106.064 64.1033 106.004 64.1724C105.803 64.4062 105.572 64.6741 105.258 65.0093C104.45 65.8725 103.092 67.1777 100.405 69.3044ZM56.351 58.4236C56.351 58.4237 56.3497 58.4256 56.3472 58.4289C56.3497 58.4251 56.351 58.4235 56.351 58.4236Z" fill="var(--plate)" stroke="currentColor"/>
<circle cx="107" cy="83" r="35.5" fill="var(--plate)" stroke="currentColor"/>
<path d="M124.405 84.3044L124.215 84.4545V84.6964V86.2714C124.215 86.4078 124.198 86.599 124.168 86.8636C124.159 86.9405 124.149 87.0232 124.139 87.1108C124.115 87.3122 124.088 87.5395 124.063 87.7822C123.992 88.486 123.933 89.3588 123.991 90.3508C124.048 91.3171 124.023 93.9345 124.004 95.8878C123.997 96.6578 123.99 97.3247 123.99 97.7464C123.99 98.4695 123.962 99.0855 123.884 99.5809C123.804 100.087 123.681 100.405 123.538 100.584C123.109 101.12 121.855 102.577 119.672 102.993C117.341 103.437 112.985 103.996 107.165 103.996C101.353 103.996 98.226 103.335 95.9856 102.456C94.3936 101.831 93.5783 101.437 93.148 101.067C92.9504 100.896 92.8506 100.744 92.7924 100.583C92.7303 100.413 92.7029 100.199 92.7029 99.8839C92.7029 99.2811 92.6808 98.0826 92.6562 96.7552C92.653 96.5831 92.6498 96.4088 92.6466 96.2334C92.6184 94.6996 92.5904 93.0738 92.5904 92.0106C92.5904 90.9435 92.563 90.3176 92.5002 89.9094C92.4678 89.6989 92.4241 89.5314 92.3627 89.3828C92.3012 89.2336 92.2293 89.1226 92.1697 89.0326C92.0883 88.9098 91.9779 88.8452 91.9168 88.8142C91.8472 88.7788 91.7749 88.7545 91.7121 88.7369C91.5859 88.7014 91.4367 88.6764 91.2853 88.6573C90.979 88.6185 90.5912 88.595 90.2009 88.5774C89.9548 88.5662 89.7102 88.5574 89.4785 88.5489C88.9426 88.5295 88.4763 88.5125 88.2237 88.4764C87.9279 88.4342 87.5814 88.3581 87.1808 88.2701C87.0795 88.2478 86.9747 88.2248 86.8664 88.2014C86.3432 88.0883 85.7575 87.9706 85.1652 87.9114C84.7758 87.8724 84.4994 87.6593 83.9635 87.2345C83.4454 86.8237 82.7749 86.3045 81.6835 85.9147C81.6178 85.8913 81.5209 85.8234 81.3881 85.6525C81.2567 85.4834 81.1295 85.2667 80.9785 85.0042C80.9712 84.9916 80.9639 84.9789 80.9565 84.9661C80.8178 84.7247 80.6603 84.4509 80.4813 84.2026C80.2922 83.9404 80.0577 83.6755 79.7554 83.4866C79.4232 83.279 79.1603 83.0128 78.9414 82.7559C78.8553 82.6548 78.7801 82.5602 78.7074 82.4687C78.6864 82.4424 78.6657 82.4163 78.6449 82.3903C78.5622 82.2869 78.4618 82.1631 78.3603 82.0728C78.3291 82.0451 78.2766 81.9757 78.2572 81.775C78.2374 81.5709 78.2583 81.2936 78.3181 80.9275C78.3773 80.5654 78.4682 80.1515 78.5724 79.6787L78.575 79.6669C78.6774 79.2019 78.7908 78.6872 78.8902 78.1394C79.0939 77.0173 79.4302 75.846 79.7412 74.9337C79.8965 74.4779 80.0435 74.0926 80.1618 73.8151C80.2213 73.6756 80.2709 73.5694 80.3085 73.4974C80.3175 73.4803 80.325 73.4665 80.3312 73.4557C80.4302 73.3873 80.6019 73.3088 80.8698 73.2248C81.1657 73.132 81.5238 73.0485 81.9314 72.9572C81.9853 72.9451 82.0401 72.9329 82.0956 72.9205C82.8567 72.7507 83.7536 72.5507 84.5249 72.2202C85.0585 71.9914 85.9873 71.6951 87.1133 71.3359C87.5917 71.1832 88.1058 71.0192 88.6403 70.8442C90.3996 70.2681 92.3489 69.5814 93.7855 68.8265C94.7278 68.3313 95.3645 68.2406 96.4604 68.0845C96.5077 68.0777 96.5559 68.0709 96.6049 68.0639C97.8053 67.8922 99.4641 67.6336 102.365 66.7235C104.503 66.0527 106.578 65.4657 108.433 64.9408C109.06 64.7634 109.662 64.593 110.233 64.4289C111.36 64.1051 112.368 63.8049 113.201 63.5238C114.027 63.2454 114.713 62.9754 115.178 62.7064C115.973 62.247 116.717 61.9855 117.529 61.9178C118.345 61.8497 119.261 61.9747 120.401 62.3371C121.41 62.6575 122.641 62.9838 123.753 63.1961C124.309 63.3022 124.843 63.3814 125.309 63.416C125.761 63.4496 126.199 63.4455 126.534 63.3539C126.826 63.2743 127.008 63.2516 127.146 63.2653C127.266 63.2772 127.384 63.3196 127.537 63.4435C127.704 63.5776 127.901 63.7989 128.166 64.1624C128.428 64.5227 128.737 64.9958 129.131 65.6149C130.111 67.1553 130.578 68.2002 131.078 69.319C131.201 69.5948 131.326 69.8752 131.461 70.1685C131.742 70.7764 132.153 71.4598 132.53 72.0855C132.625 72.2442 132.719 72.3992 132.807 72.5483C133.031 72.9265 133.225 73.2679 133.362 73.5579C133.508 73.8674 133.553 74.0458 133.553 74.1215C133.553 74.2625 133.481 74.5389 133.3 74.9376C133.128 75.3177 132.885 75.7528 132.605 76.1883C132.037 77.0745 131.371 77.8864 130.933 78.2268C130.641 78.4544 130.418 78.6952 130.176 78.9733C130.12 79.0373 130.064 79.1033 130.004 79.1724C129.803 79.4062 129.572 79.6741 129.258 80.0093C128.45 80.8725 127.092 82.1777 124.405 84.3044ZM80.351 73.4236C80.351 73.4237 80.3497 73.4256 80.3472 73.4289C80.3497 73.4251 80.351 73.4235 80.351 73.4236Z" fill="var(--plate)" stroke="currentColor"/>
<circle cx="129" cy="78" r="35.5" fill="var(--plate)" stroke="currentColor"/>
<path d="M146.405 79.3044L146.215 79.4545V79.6964V81.2714C146.215 81.4078 146.198 81.599 146.168 81.8636C146.159 81.9405 146.149 82.0232 146.139 82.1108C146.115 82.3122 146.088 82.5395 146.063 82.7822C145.992 83.486 145.933 84.3588 145.991 85.3508C146.048 86.3171 146.023 88.9345 146.004 90.8878C145.997 91.6578 145.99 92.3247 145.99 92.7464C145.99 93.4695 145.962 94.0855 145.884 94.5809C145.804 95.0867 145.681 95.4048 145.538 95.5841C145.109 96.1196 143.855 97.577 141.672 97.9927C139.341 98.4367 134.985 98.9964 129.165 98.9964C123.353 98.9964 120.226 98.3349 117.986 97.4559C116.394 96.8314 115.578 96.4373 115.148 96.0667C114.95 95.8964 114.851 95.7435 114.792 95.5835C114.73 95.4125 114.703 95.199 114.703 94.8839C114.703 94.2811 114.681 93.0826 114.656 91.7552C114.653 91.5831 114.65 91.4088 114.647 91.2334C114.618 89.6996 114.59 88.0738 114.59 87.0106C114.59 85.9435 114.563 85.3176 114.5 84.9094C114.468 84.6989 114.424 84.5314 114.363 84.3828C114.301 84.2336 114.229 84.1226 114.17 84.0326C114.088 83.9098 113.978 83.8452 113.917 83.8142C113.847 83.7788 113.775 83.7545 113.712 83.7369C113.586 83.7014 113.437 83.6764 113.285 83.6573C112.979 83.6185 112.591 83.595 112.201 83.5774C111.955 83.5662 111.71 83.5574 111.479 83.5489C110.943 83.5295 110.476 83.5125 110.224 83.4764C109.928 83.4342 109.581 83.3581 109.181 83.2701C109.079 83.2478 108.975 83.2248 108.866 83.2014C108.343 83.0883 107.758 82.9706 107.165 82.9114C106.776 82.8724 106.499 82.6593 105.964 82.2345C105.445 81.8237 104.775 81.3045 103.684 80.9147C103.618 80.8913 103.521 80.8234 103.388 80.6525C103.257 80.4834 103.129 80.2667 102.978 80.0042C102.971 79.9916 102.964 79.9789 102.957 79.9661C102.818 79.7247 102.66 79.4509 102.481 79.2026C102.292 78.9404 102.058 78.6755 101.755 78.4866C101.423 78.279 101.16 78.0128 100.941 77.7559C100.855 77.6548 100.78 77.5602 100.707 77.4687C100.686 77.4424 100.666 77.4163 100.645 77.3903C100.562 77.2869 100.462 77.1631 100.36 77.0728C100.329 77.0451 100.277 76.9757 100.257 76.775C100.237 76.5709 100.258 76.2936 100.318 75.9275C100.377 75.5654 100.468 75.1515 100.572 74.6787L100.575 74.6669C100.677 74.2019 100.791 73.6872 100.89 73.1394C101.094 72.0173 101.43 70.846 101.741 69.9337C101.897 69.4779 102.044 69.0926 102.162 68.8151C102.221 68.6756 102.271 68.5694 102.309 68.4974C102.317 68.4803 102.325 68.4665 102.331 68.4557C102.43 68.3873 102.602 68.3088 102.87 68.2248C103.166 68.132 103.524 68.0485 103.931 67.9572C103.985 67.9451 104.04 67.9329 104.096 67.9205C104.857 67.7507 105.754 67.5507 106.525 67.2202C107.059 66.9914 107.987 66.6951 109.113 66.3359C109.592 66.1832 110.106 66.0192 110.64 65.8442C112.4 65.2681 114.349 64.5814 115.785 63.8265C116.728 63.3313 117.364 63.2406 118.46 63.0845C118.508 63.0777 118.556 63.0709 118.605 63.0639C119.805 62.8922 121.464 62.6336 124.365 61.7235C126.503 61.0527 128.578 60.4657 130.433 59.9408C131.06 59.7634 131.662 59.593 132.233 59.4289C133.36 59.1051 134.368 58.8049 135.201 58.5238C136.027 58.2454 136.713 57.9754 137.178 57.7064C137.973 57.247 138.717 56.9855 139.529 56.9178C140.345 56.8497 141.261 56.9747 142.401 57.3371C143.41 57.6575 144.641 57.9838 145.753 58.1961C146.309 58.3022 146.843 58.3814 147.309 58.416C147.761 58.4496 148.199 58.4455 148.534 58.3539C148.826 58.2743 149.008 58.2516 149.146 58.2653C149.266 58.2772 149.384 58.3196 149.537 58.4435C149.704 58.5776 149.901 58.7989 150.166 59.1624C150.428 59.5227 150.737 59.9958 151.131 60.6149C152.111 62.1553 152.578 63.2002 153.078 64.319C153.201 64.5948 153.326 64.8752 153.461 65.1685C153.742 65.7764 154.153 66.4598 154.53 67.0855C154.625 67.2442 154.719 67.3992 154.807 67.5483C155.031 67.9265 155.225 68.2679 155.362 68.5579C155.508 68.8674 155.553 69.0458 155.553 69.1215C155.553 69.2625 155.481 69.5389 155.3 69.9376C155.128 70.3177 154.885 70.7528 154.605 71.1883C154.037 72.0745 153.371 72.8864 152.933 73.2268C152.641 73.4544 152.418 73.6952 152.176 73.9733C152.12 74.0373 152.064 74.1033 152.004 74.1724C151.803 74.4062 151.572 74.6741 151.258 75.0093C150.45 75.8725 149.092 77.1777 146.405 79.3044ZM102.351 68.4236C102.351 68.4237 102.35 68.4256 102.347 68.4289C102.35 68.4251 102.351 68.4235 102.351 68.4236Z" fill="var(--plate)" stroke="currentColor"/>
<circle cx="157" cy="53" r="35.5" fill="var(--plate)" stroke="currentColor"/>
<path d="M174.405 54.3044L174.215 54.4545V54.6964V56.2714C174.215 56.4078 174.198 56.599 174.168 56.8636C174.159 56.9405 174.149 57.0232 174.139 57.1108C174.115 57.3122 174.088 57.5395 174.063 57.7822C173.992 58.486 173.933 59.3588 173.991 60.3508C174.048 61.3171 174.023 63.9345 174.004 65.8878C173.997 66.6578 173.99 67.3247 173.99 67.7464C173.99 68.4695 173.962 69.0855 173.884 69.5809C173.804 70.0867 173.681 70.4048 173.538 70.5841C173.109 71.1196 171.855 72.577 169.672 72.9927C167.341 73.4367 162.985 73.9964 157.165 73.9964C151.353 73.9964 148.226 73.3349 145.986 72.4559C144.394 71.8314 143.578 71.4373 143.148 71.0667C142.95 70.8964 142.851 70.7435 142.792 70.5835C142.73 70.4125 142.703 70.199 142.703 69.8839C142.703 69.2811 142.681 68.0826 142.656 66.7552C142.653 66.5831 142.65 66.4088 142.647 66.2334C142.618 64.6996 142.59 63.0738 142.59 62.0106C142.59 60.9435 142.563 60.3176 142.5 59.9094C142.468 59.6989 142.424 59.5314 142.363 59.3828C142.301 59.2336 142.229 59.1226 142.17 59.0326C142.088 58.9098 141.978 58.8452 141.917 58.8142C141.847 58.7788 141.775 58.7545 141.712 58.7369C141.586 58.7014 141.437 58.6764 141.285 58.6573C140.979 58.6185 140.591 58.595 140.201 58.5774C139.955 58.5662 139.71 58.5574 139.479 58.5489C138.943 58.5295 138.476 58.5125 138.224 58.4764C137.928 58.4342 137.581 58.3581 137.181 58.2701C137.079 58.2478 136.975 58.2248 136.866 58.2014C136.343 58.0883 135.758 57.9706 135.165 57.9114C134.776 57.8724 134.499 57.6593 133.964 57.2345C133.445 56.8237 132.775 56.3045 131.684 55.9147C131.618 55.8913 131.521 55.8234 131.388 55.6525C131.257 55.4834 131.129 55.2667 130.978 55.0042C130.971 54.9916 130.964 54.9789 130.957 54.9661C130.818 54.7247 130.66 54.4509 130.481 54.2026C130.292 53.9404 130.058 53.6755 129.755 53.4866C129.423 53.279 129.16 53.0128 128.941 52.7559C128.855 52.6548 128.78 52.5602 128.707 52.4687C128.686 52.4424 128.666 52.4163 128.645 52.3903C128.562 52.2869 128.462 52.1631 128.36 52.0728C128.329 52.0451 128.277 51.9757 128.257 51.775C128.237 51.5709 128.258 51.2936 128.318 50.9275C128.377 50.5654 128.468 50.1515 128.572 49.6787L128.575 49.6669C128.677 49.2019 128.791 48.6872 128.89 48.1394C129.094 47.0173 129.43 45.846 129.741 44.9337C129.897 44.4779 130.044 44.0926 130.162 43.8151C130.221 43.6756 130.271 43.5694 130.309 43.4974C130.317 43.4803 130.325 43.4665 130.331 43.4557C130.43 43.3873 130.602 43.3088 130.87 43.2248C131.166 43.132 131.524 43.0485 131.931 42.9572C131.985 42.9451 132.04 42.9329 132.096 42.9205C132.857 42.7507 133.754 42.5507 134.525 42.2202C135.059 41.9914 135.987 41.6951 137.113 41.3359C137.592 41.1832 138.106 41.0192 138.64 40.8442C140.4 40.2681 142.349 39.5814 143.785 38.8265C144.728 38.3313 145.364 38.2406 146.46 38.0845C146.508 38.0777 146.556 38.0709 146.605 38.0639C147.805 37.8922 149.464 37.6336 152.365 36.7235C154.503 36.0527 156.578 35.4657 158.433 34.9408C159.06 34.7634 159.662 34.593 160.233 34.4289C161.36 34.1051 162.368 33.8049 163.201 33.5238C164.027 33.2454 164.713 32.9754 165.178 32.7064C165.973 32.247 166.717 31.9855 167.529 31.9178C168.345 31.8497 169.261 31.9747 170.401 32.3371C171.41 32.6575 172.641 32.9838 173.753 33.1961C174.309 33.3022 174.843 33.3814 175.309 33.416C175.761 33.4496 176.199 33.4455 176.534 33.3539C176.826 33.2743 177.008 33.2516 177.146 33.2653C177.266 33.2772 177.384 33.3196 177.537 33.4435C177.704 33.5776 177.901 33.7989 178.166 34.1624C178.428 34.5227 178.737 34.9958 179.131 35.6149C180.111 37.1553 180.578 38.2002 181.078 39.319C181.201 39.5948 181.326 39.8752 181.461 40.1685C181.742 40.7764 182.153 41.4598 182.53 42.0855C182.625 42.2442 182.719 42.3992 182.807 42.5483C183.031 42.9265 183.225 43.2679 183.362 43.5579C183.508 43.8674 183.553 44.0458 183.553 44.1215C183.553 44.2625 183.481 44.5389 183.3 44.9376C183.128 45.3177 182.885 45.7528 182.605 46.1883C182.037 47.0745 181.371 47.8864 180.933 48.2268C180.641 48.4544 180.418 48.6952 180.176 48.9733C180.12 49.0373 180.064 49.1033 180.004 49.1724C179.803 49.4062 179.572 49.6741 179.258 50.0093C178.45 50.8725 177.092 52.1777 174.405 54.3044ZM130.351 43.4236C130.351 43.4237 130.35 43.4256 130.347 43.4289C130.35 43.4251 130.351 43.4235 130.351 43.4236Z" fill="var(--plate)" stroke="currentColor"/>
</svg>
