<svg width="200" height="120" viewBox="0 0 200 120" fill="none" xmlns="http://www.w3.org/2000/svg">
<g clip-path="url(#clip0)">
<mask id="path-1-inside-1" fill="white">
<path fill-rule="evenodd" clip-rule="evenodd" d="M37.4 32H50.6L51.489 43.8534C55.0611 44.6823 58.4108 46.0912 61.4335 47.9756L70.4462 40.2204L79.78 49.5542L72.0248 58.5671C73.9089 61.5896 75.3177 64.9391 76.1466 68.511L88 69.4V82.6L76.1465 83.489C75.3177 87.0611 73.9088 90.4107 72.0245 93.4334L79.7794 102.446L70.4456 111.78L61.4331 104.025C58.4105 105.909 55.061 107.318 51.489 108.147L50.6 120H37.4L36.511 108.147C32.9391 107.318 29.5896 105.909 26.567 104.025L17.5546 111.78L8.22082 102.446L15.9756 93.4335C14.0912 90.4108 12.6823 87.0611 11.8535 83.489L0 82.6V69.4L11.8535 68.511C12.6823 64.9391 14.0911 61.5895 15.9753 58.5669L8.22017 49.5542L17.554 40.2204L26.5667 47.9755C29.5893 46.0912 32.9389 44.6823 36.511 43.8535L37.4 32Z"/>
</mask>
<path fill-rule="evenodd" clip-rule="evenodd" d="M37.4 32H50.6L51.489 43.8534C55.0611 44.6823 58.4108 46.0912 61.4335 47.9756L70.4462 40.2204L79.78 49.5542L72.0248 58.5671C73.9089 61.5896 75.3177 64.9391 76.1466 68.511L88 69.4V82.6L76.1465 83.489C75.3177 87.0611 73.9088 90.4107 72.0245 93.4334L79.7794 102.446L70.4456 111.78L61.4331 104.025C58.4105 105.909 55.061 107.318 51.489 108.147L50.6 120H37.4L36.511 108.147C32.9391 107.318 29.5896 105.909 26.567 104.025L17.5546 111.78L8.22082 102.446L15.9756 93.4335C14.0912 90.4108 12.6823 87.0611 11.8535 83.489L0 82.6V69.4L11.8535 68.511C12.6823 64.9391 14.0911 61.5895 15.9753 58.5669L8.22017 49.5542L17.554 40.2204L26.5667 47.9755C29.5893 46.0912 32.9389 44.6823 36.511 43.8535L37.4 32Z" fill="var(--plate)"/>
<path d="M50.6 32L51.5972 31.9252L51.5278 31H50.6V32ZM37.4 32V31H36.4722L36.4028 31.9252L37.4 32ZM51.489 43.8534L50.4918 43.9282L50.5468 44.6614L51.263 44.8276L51.489 43.8534ZM61.4335 47.9756L60.9044 48.8242L61.5284 49.2131L62.0857 48.7336L61.4335 47.9756ZM70.4462 40.2204L71.1533 39.5133L70.4973 38.8572L69.794 39.4624L70.4462 40.2204ZM79.78 49.5542L80.538 50.2064L81.1432 49.5031L80.4871 48.8471L79.78 49.5542ZM72.0248 58.5671L71.2668 57.9148L70.7872 58.4721L71.1761 59.0961L72.0248 58.5671ZM76.1466 68.511L75.1724 68.737L75.3386 69.4532L76.0718 69.5082L76.1466 68.511ZM88 69.4H89V68.4722L88.0748 68.4028L88 69.4ZM88 82.6L88.0748 83.5972L89 83.5278V82.6H88ZM76.1465 83.489L76.0718 82.4918L75.3386 82.5468L75.1724 83.263L76.1465 83.489ZM72.0245 93.4334L71.1759 92.9043L70.7869 93.5283L71.2665 94.0856L72.0245 93.4334ZM79.7794 102.446L80.4865 103.153L81.1425 102.497L80.5374 101.794L79.7794 102.446ZM70.4456 111.78L69.7933 112.538L70.4966 113.143L71.1527 112.487L70.4456 111.78ZM61.4331 104.025L62.0853 103.267L61.528 102.787L60.9041 103.176L61.4331 104.025ZM51.489 108.147L51.263 107.172L50.5468 107.339L50.4918 108.072L51.489 108.147ZM50.6 120V121H51.5278L51.5972 120.075L50.6 120ZM37.4 120L36.4028 120.075L36.4722 121H37.4V120ZM36.511 108.147L37.5082 108.072L37.4532 107.339L36.737 107.172L36.511 108.147ZM26.567 104.025L27.096 103.176L26.4721 102.787L25.9148 103.267L26.567 104.025ZM17.5546 111.78L16.8475 112.487L17.5036 113.143L18.2069 112.538L17.5546 111.78ZM8.22082 102.446L7.46281 101.794L6.85766 102.497L7.51372 103.153L8.22082 102.446ZM15.9756 93.4335L16.7336 94.0857L17.2132 93.5284L16.8242 92.9045L15.9756 93.4335ZM11.8535 83.489L12.8276 83.263L12.6614 82.5468L11.9282 82.4918L11.8535 83.489ZM0 82.6H-1V83.5278L-0.0747898 83.5972L0 82.6ZM0 69.4L-0.0747898 68.4028L-1 68.4722V69.4H0ZM11.8535 68.511L11.9282 69.5082L12.6614 69.4532L12.8276 68.737L11.8535 68.511ZM15.9753 58.5669L16.8239 59.0959L17.2129 58.472L16.7333 57.9147L15.9753 58.5669ZM8.22017 49.5542L7.51306 48.8471L6.857 49.5032L7.46216 50.2064L8.22017 49.5542ZM17.554 40.2204L18.2062 39.4624L17.5029 38.8572L16.8469 39.5133L17.554 40.2204ZM26.5667 47.9755L25.9144 48.7335L26.4717 49.2131L27.0957 48.8241L26.5667 47.9755ZM36.511 43.8535L36.737 44.8276L37.4532 44.6614L37.5082 43.9282L36.511 43.8535ZM50.6 31H37.4V33H50.6V31ZM52.4862 43.7787L51.5972 31.9252L49.6028 32.0748L50.4918 43.9282L52.4862 43.7787ZM61.9625 47.1269C58.8482 45.1855 55.3964 43.7335 51.715 42.8793L51.263 44.8276C54.7258 45.6311 57.9734 46.997 60.9044 48.8242L61.9625 47.1269ZM62.0857 48.7336L71.0985 40.9784L69.794 39.4624L60.7812 47.2175L62.0857 48.7336ZM69.7391 40.9275L79.0729 50.2613L80.4871 48.8471L71.1533 39.5133L69.7391 40.9275ZM79.022 48.9019L71.2668 57.9148L72.7828 59.2193L80.538 50.2064L79.022 48.9019ZM77.1207 68.285C76.2665 64.6038 74.8147 61.1522 72.8734 58.0381L71.1761 59.0961C73.0032 62.027 74.369 65.2744 75.1724 68.737L77.1207 68.285ZM88.0748 68.4028L76.2213 67.5138L76.0718 69.5082L87.9252 70.3972L88.0748 68.4028ZM89 82.6V69.4H87V82.6H89ZM76.2213 84.4862L88.0748 83.5972L87.9252 81.6028L76.0718 82.4918L76.2213 84.4862ZM72.8731 93.9624C74.8145 90.8481 76.2665 87.3963 77.1207 83.715L75.1724 83.263C74.3689 86.7258 73.0031 89.9733 71.1759 92.9043L72.8731 93.9624ZM80.5374 101.794L72.7825 92.7811L71.2665 94.0856L79.0214 103.098L80.5374 101.794ZM71.1527 112.487L80.4865 103.153L79.0723 101.739L69.7385 111.072L71.1527 112.487ZM60.7808 104.783L69.7933 112.538L71.0978 111.022L62.0853 103.267L60.7808 104.783ZM51.715 109.121C55.3962 108.266 58.8479 106.815 61.9621 104.873L60.9041 103.176C57.9731 105.003 54.7257 106.369 51.263 107.172L51.715 109.121ZM51.5972 120.075L52.4862 108.221L50.4918 108.072L49.6028 119.925L51.5972 120.075ZM37.4 121H50.6V119H37.4V121ZM35.5138 108.221L36.4028 120.075L38.3972 119.925L37.5082 108.072L35.5138 108.221ZM26.038 104.873C29.1522 106.815 32.6038 108.266 36.285 109.121L36.737 107.172C33.2744 106.369 30.027 105.003 27.096 103.176L26.038 104.873ZM25.9148 103.267L16.9024 111.022L18.2069 112.538L27.2193 104.783L25.9148 103.267ZM18.2617 111.072L8.92793 101.739L7.51372 103.153L16.8475 112.487L18.2617 111.072ZM8.97884 103.098L16.7336 94.0857L15.2176 92.7813L7.46281 101.794L8.97884 103.098ZM10.8793 83.715C11.7336 87.3964 13.1855 90.8482 15.127 93.9625L16.8242 92.9045C14.997 89.9734 13.6311 86.7258 12.8276 83.263L10.8793 83.715ZM-0.0747898 83.5972L11.7787 84.4862L11.9282 82.4918L0.0747898 81.6028L-0.0747898 83.5972ZM-1 69.4V82.6H1V69.4H-1ZM11.7787 67.5138L-0.0747898 68.4028L0.0747898 70.3972L11.9282 69.5082L11.7787 67.5138ZM15.1267 58.0379C13.1854 61.1521 11.7335 64.6038 10.8793 68.285L12.8276 68.737C13.6311 65.2743 14.9968 62.0269 16.8239 59.0959L15.1267 58.0379ZM7.46216 50.2064L15.2173 59.2192L16.7333 57.9147L8.97818 48.902L7.46216 50.2064ZM16.8469 39.5133L7.51306 48.8471L8.92728 50.2613L18.2611 40.9275L16.8469 39.5133ZM27.2189 47.2175L18.2062 39.4624L16.9017 40.9784L25.9144 48.7335L27.2189 47.2175ZM36.285 42.8793C32.6037 43.7335 29.1519 45.1855 26.0376 47.1269L27.0957 48.8241C30.0267 46.9969 33.2742 45.6311 36.737 44.8276L36.285 42.8793ZM36.4028 31.9252L35.5138 43.7787L37.5082 43.9282L38.3972 32.0748L36.4028 31.9252Z" fill="currentColor" mask="url(#path-1-inside-1)"/>
<mask id="path-3-inside-2" fill="white">
<path fill-rule="evenodd" clip-rule="evenodd" d="M132.977 83.7095L135.946 77.1501L142.036 79.3744C143.252 77.7857 144.705 76.438 146.321 75.3598L144.495 69.137L151.232 66.5981L153.967 72.4789C155.893 72.2224 157.874 72.2757 159.835 72.6672L162.943 66.9769L169.503 69.9459L167.278 76.0361C168.867 77.2514 170.215 78.7049 171.293 80.3211L177.515 78.4946L180.054 85.2321L174.174 87.9664C174.43 89.8922 174.377 91.8737 173.985 93.8351L179.675 96.9429L176.707 103.502L170.616 101.278C169.401 102.867 167.948 104.214 166.331 105.292L168.158 111.515L161.42 114.054L158.686 108.173C156.76 108.43 154.779 108.376 152.818 107.985L149.71 113.675L143.15 110.706L145.375 104.616C143.786 103.401 142.438 101.947 141.36 100.331L135.137 102.158L132.599 95.4201L138.479 92.6858C138.223 90.76 138.276 88.7787 138.668 86.8173L132.977 83.7095Z"/>
</mask>
<path fill-rule="evenodd" clip-rule="evenodd" d="M132.977 83.7095L135.946 77.1501L142.036 79.3744C143.252 77.7857 144.705 76.438 146.321 75.3598L144.495 69.137L151.232 66.5981L153.967 72.4789C155.893 72.2224 157.874 72.2757 159.835 72.6672L162.943 66.9769L169.503 69.9459L167.278 76.0361C168.867 77.2514 170.215 78.7049 171.293 80.3211L177.515 78.4946L180.054 85.2321L174.174 87.9664C174.43 89.8922 174.377 91.8737 173.985 93.8351L179.675 96.9429L176.707 103.502L170.616 101.278C169.401 102.867 167.948 104.214 166.331 105.292L168.158 111.515L161.42 114.054L158.686 108.173C156.76 108.43 154.779 108.376 152.818 107.985L149.71 113.675L143.15 110.706L145.375 104.616C143.786 103.401 142.438 101.947 141.36 100.331L135.137 102.158L132.599 95.4201L138.479 92.6858C138.223 90.76 138.276 88.7787 138.668 86.8173L132.977 83.7095Z" fill="var(--plate)"/>
<path d="M135.946 77.1501L136.289 76.2108L135.418 75.8925L135.035 76.7377L135.946 77.1501ZM132.977 83.7095L132.066 83.2971L131.684 84.1424L132.498 84.5871L132.977 83.7095ZM142.036 79.3744L141.693 80.3137L142.384 80.5659L142.831 79.982L142.036 79.3744ZM146.321 75.3598L146.876 76.1917L147.488 75.7836L147.281 75.0782L146.321 75.3598ZM144.495 69.137L144.142 68.2012L143.274 68.5284L143.535 69.4186L144.495 69.137ZM151.232 66.5981L152.139 66.1765L151.748 65.3352L150.88 65.6624L151.232 66.5981ZM153.967 72.4789L153.06 72.9005L153.37 73.5672L154.099 73.4701L153.967 72.4789ZM159.835 72.6672L159.64 73.6479L160.361 73.7918L160.713 73.1466L159.835 72.6672ZM162.943 66.9769L163.356 66.0659L162.51 65.6833L162.066 66.4976L162.943 66.9769ZM169.503 69.9459L170.442 70.2889L170.76 69.4174L169.915 69.0349L169.503 69.9459ZM167.278 76.0361L166.339 75.693L166.087 76.3836L166.671 76.8303L167.278 76.0361ZM171.293 80.3211L170.461 80.8761L170.869 81.4877L171.574 81.2806L171.293 80.3211ZM177.515 78.4946L178.451 78.142L178.124 77.2737L177.234 77.5351L177.515 78.4946ZM180.054 85.2321L180.476 86.1389L181.317 85.7477L180.99 84.8795L180.054 85.2321ZM174.174 87.9664L173.752 87.0596L173.085 87.3696L173.182 88.0984L174.174 87.9664ZM173.985 93.8351L173.005 93.6394L172.861 94.3604L173.506 94.7128L173.985 93.8351ZM179.675 96.9429L180.586 97.3553L180.969 96.51L180.155 96.0653L179.675 96.9429ZM176.707 103.502L176.363 104.442L177.235 104.76L177.618 103.915L176.707 103.502ZM170.616 101.278L170.959 100.339L170.269 100.086L169.822 100.67L170.616 101.278ZM166.331 105.292L165.776 104.46L165.165 104.868L165.372 105.574L166.331 105.292ZM168.158 111.515L168.511 112.451L169.379 112.124L169.118 111.233L168.158 111.515ZM161.42 114.054L160.514 114.475L160.905 115.317L161.773 114.99L161.42 114.054ZM158.686 108.173L159.593 107.752L159.283 107.085L158.554 107.182L158.686 108.173ZM152.818 107.985L153.013 107.004L152.292 106.86L151.94 107.505L152.818 107.985ZM149.71 113.675L149.297 114.586L150.143 114.969L150.587 114.154L149.71 113.675ZM143.15 110.706L142.211 110.363L141.893 111.235L142.738 111.617L143.15 110.706ZM145.375 104.616L146.314 104.959L146.566 104.268L145.982 103.822L145.375 104.616ZM141.36 100.331L142.192 99.7761L141.784 99.1645L141.079 99.3716L141.36 100.331ZM135.137 102.158L134.202 102.51L134.529 103.378L135.419 103.117L135.137 102.158ZM132.599 95.4201L132.177 94.5134L131.336 94.9045L131.663 95.7727L132.599 95.4201ZM138.479 92.6858L138.901 93.5926L139.568 93.2826L139.471 92.5538L138.479 92.6858ZM138.668 86.8173L139.648 87.0131L139.792 86.2921L139.147 85.9397L138.668 86.8173ZM135.035 76.7377L132.066 83.2971L133.888 84.1218L136.857 77.5624L135.035 76.7377ZM142.379 78.4351L136.289 76.2108L135.603 78.0894L141.693 80.3137L142.379 78.4351ZM145.766 74.5279C144.06 75.6661 142.526 77.0891 141.242 78.7668L142.831 79.982C143.978 78.4824 145.35 77.21 146.876 76.1917L145.766 74.5279ZM147.281 75.0782L145.454 68.8553L143.535 69.4186L145.362 75.6414L147.281 75.0782ZM144.848 70.0727L151.585 67.5339L150.88 65.6624L144.142 68.2012L144.848 70.0727ZM150.326 67.0198L153.06 72.9005L154.874 72.0573L152.139 66.1765L150.326 67.0198ZM160.031 71.6866C157.96 71.2731 155.868 71.2169 153.835 71.4877L154.099 73.4701C155.918 73.2279 157.788 73.2783 159.64 73.6479L160.031 71.6866ZM162.066 66.4976L158.958 72.1879L160.713 73.1466L163.821 67.4563L162.066 66.4976ZM169.915 69.0349L163.356 66.0659L162.531 67.888L169.09 70.8569L169.915 69.0349ZM168.218 76.3791L170.442 70.2889L168.563 69.6028L166.339 75.693L168.218 76.3791ZM172.125 79.7661C170.986 78.0601 169.564 76.5253 167.886 75.2418L166.671 76.8303C168.17 77.9775 169.443 79.3497 170.461 80.8761L172.125 79.7661ZM177.234 77.5351L171.011 79.3616L171.574 81.2806L177.797 79.4541L177.234 77.5351ZM180.99 84.8795L178.451 78.142L176.58 78.8472L179.118 85.5847L180.99 84.8795ZM174.595 88.8732L180.476 86.1389L179.633 84.3253L173.752 87.0596L174.595 88.8732ZM174.966 94.0309C175.379 91.9595 175.436 89.8673 175.165 87.8344L173.182 88.0984C173.425 89.9172 173.374 91.7879 173.005 93.6394L174.966 94.0309ZM180.155 96.0653L174.465 92.9575L173.506 94.7128L179.196 97.8206L180.155 96.0653ZM177.618 103.915L180.586 97.3553L178.764 96.5306L175.795 103.09L177.618 103.915ZM170.273 102.217L176.363 104.442L177.05 102.563L170.959 100.339L170.273 102.217ZM166.886 106.124C168.592 104.986 170.127 103.563 171.41 101.886L169.822 100.67C168.675 102.17 167.303 103.442 165.776 104.46L166.886 106.124ZM165.372 105.574L167.198 111.797L169.118 111.233L167.291 105.011L165.372 105.574ZM167.805 110.579L161.068 113.118L161.773 114.99L168.511 112.451L167.805 110.579ZM162.327 113.632L159.593 107.752L157.779 108.595L160.514 114.475L162.327 113.632ZM152.622 108.965C154.693 109.379 156.785 109.435 158.818 109.164L158.554 107.182C156.735 107.424 154.865 107.374 153.013 107.004L152.622 108.965ZM150.587 114.154L153.695 108.464L151.94 107.505L148.832 113.196L150.587 114.154ZM142.738 111.617L149.297 114.586L150.122 112.764L143.563 109.795L142.738 111.617ZM144.435 104.273L142.211 110.363L144.09 111.049L146.314 104.959L144.435 104.273ZM140.528 100.886C141.667 102.592 143.089 104.127 144.767 105.41L145.982 103.822C144.483 102.675 143.21 101.302 142.192 99.7761L140.528 100.886ZM135.419 103.117L141.642 101.291L141.079 99.3716L134.856 101.198L135.419 103.117ZM131.663 95.7727L134.202 102.51L136.073 101.805L133.534 95.0675L131.663 95.7727ZM138.058 91.779L132.177 94.5134L133.02 96.3269L138.901 93.5926L138.058 91.779ZM137.687 86.6216C137.274 88.6929 137.217 90.785 137.488 92.8178L139.471 92.5538C139.228 90.735 139.279 88.8645 139.648 87.0131L137.687 86.6216ZM132.498 84.5871L138.188 87.695L139.147 85.9397L133.457 82.8318L132.498 84.5871Z" fill="currentColor" mask="url(#path-3-inside-2)"/>
<mask id="path-5-inside-3" fill="white">
<path fill-rule="evenodd" clip-rule="evenodd" d="M94.7784 15.1118L102.818 9.86528L108.071 16.7313C110.576 15.8163 113.176 15.343 115.766 15.2892L118.173 6.9838L127.567 8.95875L126.426 17.5303C128.775 18.6223 130.965 20.1024 132.889 21.9485L140.462 17.7787L145.709 25.8182L138.842 31.071C139.757 33.576 140.231 36.1761 140.284 38.766L148.59 41.1728L146.615 50.5674L138.043 49.4264C136.951 51.7754 135.471 53.9649 133.625 55.8895L137.795 63.4622L129.755 68.7087L124.502 61.8426C121.998 62.7574 119.398 63.2307 116.808 63.2844L114.401 71.5898L105.006 69.6148L106.147 61.0434C103.798 59.9514 101.609 58.4712 99.6844 56.6251L92.1116 60.795L86.8651 52.7554L93.7312 47.5027C92.8163 44.9977 92.343 42.3977 92.2892 39.8079L83.9837 37.401L85.9586 28.0064L94.5302 29.1475C95.6222 26.7985 97.1023 24.6091 98.9483 22.6846L94.7784 15.1118Z"/>
</mask>
<path fill-rule="evenodd" clip-rule="evenodd" d="M94.7784 15.1118L102.818 9.86528L108.071 16.7313C110.576 15.8163 113.176 15.343 115.766 15.2892L118.173 6.9838L127.567 8.95875L126.426 17.5303C128.775 18.6223 130.965 20.1024 132.889 21.9485L140.462 17.7787L145.709 25.8182L138.842 31.071C139.757 33.576 140.231 36.1761 140.284 38.766L148.59 41.1728L146.615 50.5674L138.043 49.4264C136.951 51.7754 135.471 53.9649 133.625 55.8895L137.795 63.4622L129.755 68.7087L124.502 61.8426C121.998 62.7574 119.398 63.2307 116.808 63.2844L114.401 71.5898L105.006 69.6148L106.147 61.0434C103.798 59.9514 101.609 58.4712 99.6844 56.6251L92.1116 60.795L86.8651 52.7554L93.7312 47.5027C92.8163 44.9977 92.343 42.3977 92.2892 39.8079L83.9837 37.401L85.9586 28.0064L94.5302 29.1475C95.6222 26.7985 97.1023 24.6091 98.9483 22.6846L94.7784 15.1118Z" fill="var(--plate)"/>
<path d="M102.818 9.86528L103.612 9.25767L103.048 8.52077L102.271 9.02783L102.818 9.86528ZM94.7784 15.1118L94.2319 14.2743L93.4549 14.7814L93.9025 15.5941L94.7784 15.1118ZM108.071 16.7313L107.276 17.3389L107.723 17.9228L108.414 17.6706L108.071 16.7313ZM115.766 15.2892L115.787 16.289L116.522 16.2738L116.726 15.5676L115.766 15.2892ZM118.173 6.9838L118.378 6.00519L117.47 5.81431L117.212 6.70546L118.173 6.9838ZM127.567 8.95875L128.559 9.09071L128.681 8.17102L127.773 7.98014L127.567 8.95875ZM126.426 17.5303L125.435 17.3983L125.338 18.1271L126.005 18.4371L126.426 17.5303ZM132.889 21.9485L132.197 22.6702L132.728 23.1791L133.372 22.8245L132.889 21.9485ZM140.462 17.7787L141.299 17.2321L140.792 16.4552L139.98 16.9027L140.462 17.7787ZM145.709 25.8182L146.316 26.6124L147.053 26.0487L146.546 25.2717L145.709 25.8182ZM138.842 31.071L138.235 30.2767L137.651 30.7234L137.903 31.414L138.842 31.071ZM140.284 38.766L139.285 38.7867L139.3 39.5218L140.006 39.7265L140.284 38.766ZM148.59 41.1728L149.568 41.3785L149.759 40.4705L148.868 40.2123L148.59 41.1728ZM146.615 50.5674L146.483 51.5587L147.402 51.6811L147.593 50.7732L146.615 50.5674ZM138.043 49.4264L138.175 48.4351L137.446 48.3381L137.137 49.0048L138.043 49.4264ZM133.625 55.8895L132.903 55.1972L132.394 55.7278L132.749 56.3718L133.625 55.8895ZM137.795 63.4622L138.341 64.2996L139.118 63.7925L138.671 62.9798L137.795 63.4622ZM129.755 68.7087L128.961 69.3163L129.525 70.0532L130.302 69.5461L129.755 68.7087ZM124.502 61.8426L125.297 61.2349L124.85 60.651L124.159 60.9032L124.502 61.8426ZM116.808 63.2844L116.787 62.2846L116.052 62.2999L115.847 63.0061L116.808 63.2844ZM114.401 71.5898L114.195 72.5684L115.103 72.7593L115.361 71.8681L114.401 71.5898ZM105.006 69.6148L104.015 69.4829L103.893 70.4026L104.801 70.5934L105.006 69.6148ZM106.147 61.0434L107.139 61.1753L107.236 60.4465L106.569 60.1366L106.147 61.0434ZM99.6844 56.6251L100.377 55.9035L99.8461 55.3945L99.2021 55.7491L99.6844 56.6251ZM92.1116 60.795L91.2742 61.3415L91.7813 62.1185L92.594 61.671L92.1116 60.795ZM86.8651 52.7554L86.2575 51.9612L85.5206 52.525L86.0277 53.302L86.8651 52.7554ZM93.7312 47.5027L94.3388 48.2969L94.9227 47.8502L94.6705 47.1596L93.7312 47.5027ZM92.2892 39.8079L93.289 39.7871L93.2738 39.0521L92.5676 38.8474L92.2892 39.8079ZM83.9837 37.401L83.0051 37.1953L82.8142 38.1033L83.7054 38.3615L83.9837 37.401ZM85.9586 28.0064L86.0906 27.0151L85.1709 26.8927L84.98 27.8007L85.9586 28.0064ZM94.5302 29.1475L94.3983 30.1387L95.1271 30.2357L95.437 29.569L94.5302 29.1475ZM98.9483 22.6846L99.67 23.3769L100.179 22.8463L99.8243 22.2023L98.9483 22.6846ZM102.271 9.02783L94.2319 14.2743L95.3249 15.9493L103.364 10.7027L102.271 9.02783ZM108.865 16.1237L103.612 9.25767L102.024 10.4729L107.276 17.3389L108.865 16.1237ZM115.745 14.2894C113.047 14.3454 110.338 14.8385 107.728 15.792L108.414 17.6706C110.814 16.7941 113.305 16.3405 115.787 16.289L115.745 14.2894ZM116.726 15.5676L119.133 7.26214L117.212 6.70546L114.805 15.0109L116.726 15.5676ZM117.967 7.96241L127.362 9.93736L127.773 7.98014L118.378 6.00519L117.967 7.96241ZM126.576 8.8268L125.435 17.3983L127.418 17.6622L128.559 9.09071L126.576 8.8268ZM133.581 21.2269C131.576 19.3031 129.295 17.761 126.848 16.6235L126.005 18.4371C128.256 19.4836 130.353 20.9017 132.197 22.6702L133.581 21.2269ZM139.98 16.9027L132.407 21.0725L133.372 22.8245L140.944 18.6546L139.98 16.9027ZM146.546 25.2717L141.299 17.2321L139.625 18.3252L144.871 26.3647L146.546 25.2717ZM139.45 31.8652L146.316 26.6124L145.101 25.024L138.235 30.2767L139.45 31.8652ZM141.284 38.7452C141.228 36.0474 140.735 33.3382 139.782 30.7279L137.903 31.414C138.78 33.8137 139.233 36.3048 139.285 38.7867L141.284 38.7452ZM148.868 40.2123L140.563 37.8055L140.006 39.7265L148.311 42.1333L148.868 40.2123ZM147.593 50.7732L149.568 41.3785L147.611 40.967L145.636 50.3617L147.593 50.7732ZM137.911 50.4176L146.483 51.5587L146.747 49.5762L138.175 48.4351L137.911 50.4176ZM134.347 56.5817C136.27 54.5762 137.813 52.2949 138.95 49.8479L137.137 49.0048C136.09 51.2559 134.672 53.3535 132.903 55.1972L134.347 56.5817ZM138.671 62.9798L134.501 55.4071L132.749 56.3718L136.919 63.9445L138.671 62.9798ZM130.302 69.5461L138.341 64.2996L137.248 62.6247L129.209 67.8712L130.302 69.5461ZM123.708 62.4502L128.961 69.3163L130.549 68.1011L125.297 61.2349L123.708 62.4502ZM116.829 64.2842C119.526 64.2282 122.235 63.7352 124.845 62.7819L124.159 60.9032C121.76 61.7796 119.269 62.2331 116.787 62.2846L116.829 64.2842ZM115.847 63.0061L113.44 71.3114L115.361 71.8681L117.768 63.5628L115.847 63.0061ZM114.607 70.6112L105.212 68.6362L104.801 70.5934L114.195 72.5684L114.607 70.6112ZM105.998 69.7468L107.139 61.1753L105.156 60.9114L104.015 69.4829L105.998 69.7468ZM98.9922 57.3468C100.998 59.2705 103.279 60.8126 105.726 61.9502L106.569 60.1366C104.318 59.0901 102.22 57.6719 100.377 55.9035L98.9922 57.3468ZM92.594 61.671L100.167 57.5011L99.2021 55.7491L91.6293 59.919L92.594 61.671ZM86.0277 53.302L91.2742 61.3415L92.9491 60.2485L87.7026 52.2089L86.0277 53.302ZM93.1236 46.7084L86.2575 51.9612L87.4727 53.5497L94.3388 48.2969L93.1236 46.7084ZM91.2895 39.8287C91.3455 42.5264 91.8385 45.2355 92.7919 47.8457L94.6705 47.1596C93.7941 44.76 93.3406 42.269 93.289 39.7871L91.2895 39.8287ZM83.7054 38.3615L92.0109 40.7684L92.5676 38.8474L84.262 36.4406L83.7054 38.3615ZM84.98 27.8007L83.0051 37.1953L84.9623 37.6068L86.9373 28.2121L84.98 27.8007ZM94.6622 28.1562L86.0906 27.0151L85.8267 28.9976L94.3983 30.1387L94.6622 28.1562ZM98.2267 21.9924C96.303 23.9978 94.7609 26.2791 93.6234 28.7259L95.437 29.569C96.4835 27.318 97.9016 25.2205 99.67 23.3769L98.2267 21.9924ZM93.9025 15.5941L98.0723 23.167L99.8243 22.2023L95.6544 14.6294L93.9025 15.5941Z" fill="currentColor" mask="url(#path-5-inside-3)"/>
<circle cx="44" cy="76" r="17.5" fill="var(--plate)" stroke="currentColor"/>
<circle cx="156.326" cy="90.3261" r="9.5" transform="rotate(-65.6474 156.326 90.3261)" fill="var(--plate)" stroke="currentColor"/>
<circle cx="116.287" cy="39.2868" r="12.5" transform="rotate(-33.1281 116.287 39.2868)" fill="var(--plate)" stroke="currentColor"/>
</g>
<defs>
<clipPath id="clip0">
<rect width="200" height="120" fill="white"/>
</clipPath>
</defs>
</svg>
