<svg width="200" height="120" viewBox="0 0 200 120" fill="var(--plate)" xmlns="http://www.w3.org/2000/svg">
<path d="M50.4333 47.8955L60.9276 35.8402L59.8238 51.7852L59.7635 52.6565L60.5454 52.2674L74.8543 45.1457L67.7326 59.4546L67.3435 60.2365L68.2148 60.1762L84.1598 59.0724L72.1045 69.5667L71.4457 70.1402L72.2738 70.4179L87.4275 75.5L72.2738 80.5821L71.4457 80.8598L72.1045 81.4333L84.1598 91.9276L68.2148 90.8238L67.3435 90.7635L67.7326 91.5454L74.8543 105.854L60.5454 98.7326L59.7635 98.3435L59.8238 99.2148L60.9276 115.16L50.4333 103.104L49.8598 102.446L49.5821 103.274L44.5 118.428L39.4179 103.274L39.1402 102.446L38.5667 103.104L28.0724 115.16L29.1762 99.2148L29.2365 98.3435L28.4546 98.7326L14.1457 105.854L21.2674 91.5454L21.6565 90.7635L20.7852 90.8238L4.84015 91.9276L16.8955 81.4333L17.5543 80.8598L16.7262 80.5821L1.5725 75.5L16.7262 70.4179L17.5543 70.1402L16.8955 69.5667L4.84016 59.0724L20.7852 60.1762L21.6565 60.2365L21.2674 59.4546L14.1457 45.1457L28.4546 52.2674L29.2365 52.6565L29.1762 51.7852L28.0724 35.8402L38.5667 47.8955L39.1402 48.5543L39.4179 47.7262L44.5 32.5725L49.5821 47.7262L49.8598 48.5543L50.4333 47.8955Z" fill="var(--plate)" stroke="currentColor"/>
<circle cx="106" cy="46" r="40.5" fill="var(--plate)" stroke="currentColor"/>
<path d="M135 76L163 104" stroke="currentColor"/>
<path d="M120 75L94 67L113 36L75 44L85 21" stroke="currentColor"/>
</svg>
