<svg xmlns="http://www.w3.org/2000/svg" viewBox="0 0 229.56 96.38"><defs><style>.cls-1{fill:#999;}.cls-2{fill:#d6d6d6;}</style></defs><g id="Layer_2" data-name="Layer 2"><g id="Layer_1-2" data-name="Layer 1"><path class="cls-1" d="M85,48.53a15.91,15.91,0,0,1,2,.44,11.59,11.59,0,0,1,1.82.67V51.1H76.15V49.64A8,8,0,0,1,77.7,49a13.43,13.43,0,0,1,1.59-.42V26.83a10.21,10.21,0,0,1-1.69-.44,9.74,9.74,0,0,1-1.45-.67V24.26H81q1.53,0,3.51-.15C85.8,24,87,24,88.11,24a20.1,20.1,0,0,1,4,.4,10.35,10.35,0,0,1,3.45,1.37A7.25,7.25,0,0,1,98,28.27a7.74,7.74,0,0,1,.92,4,8.08,8.08,0,0,1-.9,3.92,8.24,8.24,0,0,1-2.39,2.72,10.66,10.66,0,0,1-3.46,1.59,15.83,15.83,0,0,1-4,.52H87.5l-.91,0-.91,0a3.71,3.71,0,0,1-.64-.06Zm2.07-22.09a9.57,9.57,0,0,0-1.21.06,8.17,8.17,0,0,0-.86.17V38.33a4,4,0,0,0,1,.14h1.11a5.82,5.82,0,0,0,2-.34,4.79,4.79,0,0,0,1.71-1.07,5.49,5.49,0,0,0,1.21-1.88,7.59,7.59,0,0,0,.46-2.76,6.06,6.06,0,0,0-1.5-4.53A5.42,5.42,0,0,0,87.11,26.44Z"/><path class="cls-1" d="M101.72,34.31a5.43,5.43,0,0,1-1-.39,8.75,8.75,0,0,1-1-.54V31.93h10.08v1.42a8.17,8.17,0,0,1-2.18,1L111.46,44l.65,2.46h.08l.61-2.5,3-9.61a5.4,5.4,0,0,1-2.11-.93V31.93h7.4v1.45a7.61,7.61,0,0,1-2.18.93L112.65,51.1a27.2,27.2,0,0,1-1.84,4A13,13,0,0,1,109,57.58a5.65,5.65,0,0,1-1.84,1.28,7.05,7.05,0,0,1-1.84.48,3.34,3.34,0,0,1-.69-.86,6.71,6.71,0,0,1-.54-1.11,10.58,10.58,0,0,1-.38-1.21,6.47,6.47,0,0,1-.2-1.15l.5-.92h4.68a7.36,7.36,0,0,0,.6-1.15c.16-.41.36-1,.59-1.84Z"/><path class="cls-1" d="M137.53,48a3.72,3.72,0,0,1-.88,1.4,6.51,6.51,0,0,1-1.47,1.13,7.29,7.29,0,0,1-2,.77,9.49,9.49,0,0,1-2.28.27,12,12,0,0,1-4.35-.71,7.67,7.67,0,0,1-3-2,8.37,8.37,0,0,1-1.77-3.18,14.07,14.07,0,0,1-.57-4.13c0-3.24.89-5.73,2.66-7.45s4.3-2.59,7.58-2.59a13.84,13.84,0,0,1,3.45.4,12.26,12.26,0,0,1,2.6.94q-.08.64-.21,1.44c-.09.52-.19,1-.3,1.57s-.25,1-.41,1.53a8.63,8.63,0,0,1-.46,1.25h-1.88L132.66,34a1.92,1.92,0,0,0-.57-.29,3.44,3.44,0,0,0-.92-.1,3.74,3.74,0,0,0-1.73.37,3.07,3.07,0,0,0-1.24,1.24,7,7,0,0,0-.77,2.34,21.53,21.53,0,0,0-.25,3.61,11.39,11.39,0,0,0,.35,2.89,6.84,6.84,0,0,0,1.05,2.3,5.08,5.08,0,0,0,1.78,1.54,5.45,5.45,0,0,0,2.53.55,6.39,6.39,0,0,0,4-1.3Z"/><path class="cls-1" d="M155.52,48a3.85,3.85,0,0,1-.88,1.4,6.57,6.57,0,0,1-1.48,1.13,7.29,7.29,0,0,1-2,.77,9.43,9.43,0,0,1-2.28.27,12.05,12.05,0,0,1-4.35-.71,7.75,7.75,0,0,1-3-2,8.36,8.36,0,0,1-1.76-3.18,13.74,13.74,0,0,1-.58-4.13c0-3.24.89-5.73,2.67-7.45s4.3-2.59,7.57-2.59a13.84,13.84,0,0,1,3.45.4,12.37,12.37,0,0,1,2.61.94q-.08.64-.21,1.44c-.09.52-.19,1-.31,1.57s-.25,1-.4,1.53a11.9,11.9,0,0,1-.46,1.25h-1.88L150.65,34a1.86,1.86,0,0,0-.58-.29,3.39,3.39,0,0,0-.92-.1,3.7,3.7,0,0,0-1.72.37,3.09,3.09,0,0,0-1.25,1.24,7,7,0,0,0-.77,2.34,22.65,22.65,0,0,0-.25,3.61,11.39,11.39,0,0,0,.35,2.89,6.84,6.84,0,0,0,1.05,2.3,5.11,5.11,0,0,0,1.79,1.54,5.43,5.43,0,0,0,2.53.55,6.33,6.33,0,0,0,4-1.3Z"/><path class="cls-1" d="M169.7,31.93h8.78v1.45a3.18,3.18,0,0,1-.93.52c-.37.15-.87.32-1.48.53-.87,1-1.76,2.06-2.68,3s-1.82,1.86-2.69,2.68c.56.62,1.14,1.29,1.73,2s1.17,1.45,1.74,2.21,1.16,1.51,1.77,2.25,1.2,1.45,1.82,2.12l1.61.92V51.1h-6l-1.23-.88a23.39,23.39,0,0,1-2.7-4c-.71-1.33-1.41-2.65-2.13-3.95h-1.53v6.44a8.37,8.37,0,0,1,2.14.92V51.1H157.7V49.64a8.08,8.08,0,0,1,2.53-.92V34.31a8.86,8.86,0,0,1-2.53-.93V31.93h9.78v1.45l-.75.51a4.52,4.52,0,0,1-1,.42v6.28l1.76-.38c.74-.85,1.48-1.76,2.22-2.74a31,31,0,0,0,2-3c-.44-.18-.81-.35-1.12-.51s-.62-.33-1-.54Z"/><path class="cls-1" d="M180.48,31.93h10.2v1.45a10.09,10.09,0,0,1-1,.47c-.37.15-.81.3-1.32.46V43L188,46.54h.2l1.49-2.88,7-11.73h7.25v1.45a7.68,7.68,0,0,1-2.53.93V48.72c.48.13.94.26,1.38.4a5.8,5.8,0,0,1,1.15.52V51.1h-10.2V49.64a8.72,8.72,0,0,1,2.3-.92V39.64l.38-3h-.19l-1.46,2.87L187.8,51.1h-7.32V49.64c.43-.2.86-.38,1.26-.52s.83-.27,1.27-.4V34.31a6,6,0,0,1-2.53-.93Z"/><path class="cls-1" d="M206.13,31.93h10.2v1.45a10.09,10.09,0,0,1-1,.47c-.37.15-.81.3-1.32.46V43l-.42,3.58h.19l1.5-2.88,7-11.73h7.25v1.45a7.68,7.68,0,0,1-2.53.93V48.72c.48.13.94.26,1.38.4a5.55,5.55,0,0,1,1.15.52V51.1h-10.2V49.64a8.86,8.86,0,0,1,2.3-.92V39.64l.38-3h-.19l-1.45,2.87-7,11.62h-7.32V49.64c.44-.2.86-.38,1.27-.52s.83-.27,1.26-.4V34.31a6,6,0,0,1-2.53-.93Zm12.19-2.15q-3.8,0-5.52-1.38a4.47,4.47,0,0,1-1.72-3.68,3.76,3.76,0,0,1,1.57-.71,12.37,12.37,0,0,1,2.15-.33l1.3.5v3.41a5.43,5.43,0,0,0,2.26.43,10.4,10.4,0,0,0,1.06-.08,7.53,7.53,0,0,0,1.2-.23V24.18l1.31-.5a13.62,13.62,0,0,1,2,.31,3.27,3.27,0,0,1,1.53.73,4.46,4.46,0,0,1-1.74,3.68Q222,29.78,218.32,29.78Z"/><path class="cls-1" d="M96.05,76.56A4.87,4.87,0,0,1,93.59,81a8.72,8.72,0,0,1-2.7,1,16,16,0,0,1-3.32.33l-2.11,0-1.53-.06-1.13-.06-.9,0H76.49V80.71A10.5,10.5,0,0,1,79,79.78V65.37a7.59,7.59,0,0,1-2.53-.92V63h5.18c1.22,0,2.31,0,3.26-.08s1.89-.07,2.83-.07a12.1,12.1,0,0,1,5.54,1,3.68,3.68,0,0,1,1.9,3.55,3.36,3.36,0,0,1-.4,1.65,4.3,4.3,0,0,1-1.07,1.26,6.33,6.33,0,0,1-1.48.89,7.61,7.61,0,0,1-1.61.49,8.12,8.12,0,0,1,2,.43,5.91,5.91,0,0,1,1.73.95,4.74,4.74,0,0,1,1.19,1.48A4.44,4.44,0,0,1,96.05,76.56ZM84.54,71.73l3.39-.38a4.09,4.09,0,0,0,1.18-1.25A3.76,3.76,0,0,0,89.68,68c0-2-1.13-3-3.39-3l-.87,0a4.15,4.15,0,0,0-.88.14Zm0,8.25a7,7,0,0,0,1.17.13l1.09,0a3.11,3.11,0,0,0,3.5-3.45,3,3,0,0,0-1-2.47,4.12,4.12,0,0,0-2.67-.83H84.54Z"/><path class="cls-1" d="M116,78.94a4.89,4.89,0,0,1-1,1.32,6.72,6.72,0,0,1-1.65,1.19,10.13,10.13,0,0,1-2.26.85,11.71,11.71,0,0,1-2.78.32,11.52,11.52,0,0,1-4.22-.71,8,8,0,0,1-3.07-2,8.68,8.68,0,0,1-1.86-3.16,12.76,12.76,0,0,1-.63-4.14c0-3.28.85-5.77,2.57-7.48a9.64,9.64,0,0,1,7.13-2.57,12.09,12.09,0,0,1,3.66.54,6.4,6.4,0,0,1,2.84,1.76,6.82,6.82,0,0,1,1.57,3.22,12.71,12.71,0,0,1-.06,4.87H104.48A7.38,7.38,0,0,0,106,77.75a5.49,5.49,0,0,0,4.46,1.8,9.5,9.5,0,0,0,2.63-.38,6,6,0,0,0,2.13-1Zm-7.92-14.22a3.44,3.44,0,0,0-1.36.26,2.51,2.51,0,0,0-1,1,6.41,6.41,0,0,0-.7,1.92,19.23,19.23,0,0,0-.38,3.05h6.13a10.7,10.7,0,0,0-.34-4.6A2.28,2.28,0,0,0,108.07,64.72Z"/><path class="cls-1" d="M129.21,82.16H119.05V80.71a6.11,6.11,0,0,1,1.19-.52c.44-.15.88-.28,1.34-.41V65.37l-1.34-.4a6.78,6.78,0,0,1-1.19-.52V63h10.16v1.46a9.17,9.17,0,0,1-2.11.92v6h7.14v-6a5.58,5.58,0,0,1-2.11-.92V63h10.16v1.46a7.2,7.2,0,0,1-2.53.92V79.78c.46.1.9.22,1.34.35a4,4,0,0,1,1.19.58v1.45H132.13V80.71a4.91,4.91,0,0,1,2.11-.93V73.57H127.1v6.21a5.73,5.73,0,0,1,1.17.39,4.52,4.52,0,0,1,.94.54Z"/><path class="cls-1" d="M143.52,63h10v1.46a5,5,0,0,1-2,.92v4.28a5,5,0,0,0,.55,2.56,2.06,2.06,0,0,0,1.94.94,5.23,5.23,0,0,0,1.84-.31,7.47,7.47,0,0,0,1.5-.73V65.37a4,4,0,0,1-1.08-.34,10.67,10.67,0,0,1-1-.58V63h10.09v1.46a7.2,7.2,0,0,1-2.53.92V79.78c.51.13,1,.26,1.38.41a6.31,6.31,0,0,1,1.15.52v1.45H154.33V80.71a14.67,14.67,0,0,1,3.07-.93v-6A6.83,6.83,0,0,1,155,75.39a8,8,0,0,1-3.22.64,5.82,5.82,0,0,1-4.2-1.46,5.27,5.27,0,0,1-1.51-4V65.37a7.43,7.43,0,0,1-2.53-.92Z"/><path class="cls-1" d="M168,65.37A6,6,0,0,1,167,65c-.32-.16-.64-.34-1-.54V63h10.09v1.42a8.4,8.4,0,0,1-2.19,1L177.76,75l.65,2.46h.07l.62-2.5,3-9.61a5.32,5.32,0,0,1-2.11-.92V63h7.4v1.46a7.75,7.75,0,0,1-2.18.92L179,82.16a25.69,25.69,0,0,1-1.85,4,12.18,12.18,0,0,1-1.84,2.47,5.49,5.49,0,0,1-1.84,1.29,7.69,7.69,0,0,1-1.84.48,3.89,3.89,0,0,1-.69-.87,7.12,7.12,0,0,1-.53-1.11,8.53,8.53,0,0,1-.39-1.21,7.43,7.43,0,0,1-.19-1.15l.5-.92H175a6.56,6.56,0,0,0,.59-1.15,17.39,17.39,0,0,0,.6-1.84Z"/><path class="cls-1" d="M198.19,89.83H187.61V88.37a14.16,14.16,0,0,1,2.53-.92V65.68l-2.53-.31V63.91a10.66,10.66,0,0,1,1.51-.5c.6-.15,1.22-.29,1.86-.4s1.26-.21,1.86-.29l1.52-.19h1.3v4.3h0a7.27,7.27,0,0,1,2.05-3.07,5.71,5.71,0,0,1,3.89-1.23,8,8,0,0,1,3.05.56,5.57,5.57,0,0,1,2.3,1.72,8.44,8.44,0,0,1,1.46,3,15.93,15.93,0,0,1,.52,4.36,13.68,13.68,0,0,1-.67,4.37,9.13,9.13,0,0,1-1.92,3.29,8.26,8.26,0,0,1-3,2.07,10.54,10.54,0,0,1-4,.73,9.36,9.36,0,0,1-2.06-.17,7.1,7.1,0,0,1-1.59-.59v5.59a6.09,6.09,0,0,1,1.23.29,6.68,6.68,0,0,1,1.3.63Zm1.23-24.23a3.33,3.33,0,0,0-2.32.92,5.2,5.2,0,0,0-1.44,2.84V79.55a4.21,4.21,0,0,0,1.31.68,6.34,6.34,0,0,0,1.8.21A3.41,3.41,0,0,0,202,78.33a14.5,14.5,0,0,0,1-6.17,12.05,12.05,0,0,0-.78-4.86A2.86,2.86,0,0,0,199.42,65.6Z"/><path class="cls-1" d="M30.68,74.13v5a3.26,3.26,0,0,0,2.08-.57,2.1,2.1,0,0,0,.71-1.71,2.33,2.33,0,0,0-.66-1.77A4.41,4.41,0,0,0,30.68,74.13Z"/><path class="cls-1" d="M26.39,68.17A1.89,1.89,0,0,0,27,69.68a4.48,4.48,0,0,0,2.08.83V66a3.44,3.44,0,0,0-2,.62A1.89,1.89,0,0,0,26.39,68.17Z"/><path class="cls-1" d="M59.9,92.57a13.38,13.38,0,0,0-.44-1.4C58.12,87.58,56.64,84,55,80.59A133.34,133.34,0,0,0,33.47,48.85,4.67,4.67,0,0,1,32,45.78q0-12.66,0-25.31c0-.32-.12-.69.22-.94,1.15-.83,1.37-2.11,1.61-3.36.38-2,.75-4,1-6a40.29,40.29,0,0,0,.78-6.92C35.55,1.08,34.32-.13,32.16,0a45.79,45.79,0,0,0-6.61.63c-2,.42-2.5.79-2.79,2.61h.06a2.59,2.59,0,1,1,0,5.17h0c0,.76,0,1.52.06,2.28a2.58,2.58,0,0,1,.18,5.15,5.14,5.14,0,0,0,1.25,3.21,2.23,2.23,0,0,1,.62,1.71q0,12.09,0,24.18a7,7,0,0,1-1.45,4.29,169.29,169.29,0,0,0-20.14,35A51.89,51.89,0,0,0,.13,92.8c-.52,2.31.5,3.52,2.88,3.56,1.5,0,3,0,4.49,0,13.25,0,26.51,0,39.76,0,3.21,0,6.41,0,9.61,0C59.34,96.38,60.46,95,59.9,92.57Zm-25-12.17a6.37,6.37,0,0,1-4.24,1.46v2.52H29.1V81.86a8,8,0,0,1-3.17-1,7.89,7.89,0,0,1-2.45-2.22l2.06-2a8,8,0,0,0,1.76,1.74,3.78,3.78,0,0,0,1.8.67V73.63a8.74,8.74,0,0,1-4.2-1.89A4.89,4.89,0,0,1,25,64.88a6.43,6.43,0,0,1,4.07-1.46V61.7h1.58v1.72a7.79,7.79,0,0,1,2.85.81,8.19,8.19,0,0,1,2.4,1.88l-2,2.11a5.86,5.86,0,0,0-1.5-1.52,3.73,3.73,0,0,0-1.74-.59v4.94a9.8,9.8,0,0,1,4.47,2.09,4.77,4.77,0,0,1,1.34,3.56A4.69,4.69,0,0,1,34.92,80.4Z"/><path class="cls-2" d="M25.41,5.83a2.58,2.58,0,0,0-2.59-2.58h-.06a2.59,2.59,0,0,0,0,5.17h0A2.59,2.59,0,0,0,25.41,5.83Z"/><path class="cls-2" d="M25.41,13.29a2.58,2.58,0,0,0-2.54-2.59h-.05a2.59,2.59,0,1,0,0,5.18,1.81,1.81,0,0,0,.23,0A2.57,2.57,0,0,0,25.41,13.29Z"/></g></g></svg>