<svg xmlns="http://www.w3.org/2000/svg" viewBox="0 0 198.14 44.66"><defs><style>.cls-1{fill:#999;}</style></defs><g id="Layer_2" data-name="Layer 2"><g id="Layer_1-2" data-name="Layer 1"><path class="cls-1" d="M184.18,8.15H178a.52.52,0,0,1-.53-.52V1.53A.53.53,0,0,1,178,1H191.9a.53.53,0,0,1,.53.53V35.71a.53.53,0,0,0,.53.53h4.65a.53.53,0,0,1,.53.53v6a.53.53,0,0,1-.53.53c-3.44,0-6.79,0-10.14,0-.33,0-.85-.7-.94-1.15-.27-1.35-.45-2.73-.66-4.24a.53.53,0,0,0-1-.23h0c-3.6,5.51-9,7.81-15.38,6.57a14.09,14.09,0,0,1-11.7-11.94,30.37,30.37,0,0,1-.42-5c-.05-5.74,0-11.48,0-17.22V8.67a.52.52,0,0,0-.52-.53h-5.27a.53.53,0,0,1-.53-.53V1.52a.53.53,0,0,1,.53-.53h12.79a.53.53,0,0,1,.53.5c0,.43.07.88.07,1.33,0,7.78,0,15.56,0,23.34a21.76,21.76,0,0,0,.66,5.4c1.23,4.61,5.11,6.84,9.79,5.83A12,12,0,0,0,184.7,26c.21-5.74.05-11.48.05-17.23a.83.83,0,0,0-.07-.27A.54.54,0,0,0,184.18,8.15Z"/><path class="cls-1" d="M83.9,31.78l4.87,3.71a.53.53,0,0,1,.11.75,20.72,20.72,0,0,1-12.3,7.88A22.44,22.44,0,0,1,49.1,22.67C48.68,11.34,58,.92,69.29.09,75.71-.38,81.67,1,86.83,5a3.18,3.18,0,0,1,1,2.11c.1,2.87,0,5.75,0,8.72a.52.52,0,0,1-.52.53H81.13a.52.52,0,0,1-.52-.52c0-1.65-.09-3.33,0-5a2.36,2.36,0,0,0-1.72-2.64c-7.29-3.29-15.47-1-19.42,5.4-4.2,6.86-2.81,15.9,3.17,20.72C68.37,39,77,38.28,82.27,32.82c.31-.31.6-.64.92-1A.52.52,0,0,1,83.9,31.78Z"/><path class="cls-1" d="M0,7.74V1.55A.53.53,0,0,1,.53,1c4.07,0,8.06,0,12.06.07.4,0,.94.87,1.14,1.44C17,12,20.24,21.47,23.49,31l.09.25a.53.53,0,0,0,1,0c.07-.17.13-.33.18-.49q4.88-14.13,9.7-28.27a1.78,1.78,0,0,1,2-1.47c3.42.08,6.84,0,10.37,0a.53.53,0,0,1,.53.53V7.74a.54.54,0,0,1-.53.53c-1.64,0-3.23.06-4.82,0A1.8,1.8,0,0,0,40,9.68c-4.05,11-8.18,21.87-12.2,32.83-.47,1.28-1.07,1.78-2.41,1.65-1.69-.15-3.78.43-5-.39S19,40.86,18.48,39.3Q13.22,24.63,8,9.94c-.44-1.25-1-1.8-2.38-1.71-1.65.12-3.31,0-5.1,0A.54.54,0,0,1,0,7.74Z"/><path class="cls-1" d="M115.67,7.46h-5.78a.53.53,0,0,1-.53-.53V1.54a.53.53,0,0,1,.53-.53H122a.52.52,0,0,1,.52.49l.4,6.13a.53.53,0,0,0,1,.27C128.53,1.29,135,.1,142.4.94a.53.53,0,0,1,.47.53V13.14a.53.53,0,0,1-.53.53h-6a.53.53,0,0,1-.53-.53V7.94a.52.52,0,0,0-.55-.52,10.2,10.2,0,0,0-6.32,2.34,13.13,13.13,0,0,0-5.1,10.48c0,4.77,0,9.55,0,14.32v1.23a.53.53,0,0,0,.53.53h17a.52.52,0,0,1,.52.53v5.76a.52.52,0,0,1-.52.53H109.89a.53.53,0,0,1-.53-.53V36.79a.53.53,0,0,1,.53-.53h5.78a.53.53,0,0,0,.53-.53V8A.52.52,0,0,0,115.67,7.46Z"/><rect class="cls-1" x="94.64" y="36.1" width="7.19" height="7.23" rx="0.53"/></g></g></svg>