<svg width="43" height="40" viewBox="0 0 43 40" fill="none" xmlns="http://www.w3.org/2000/svg">
<g clip-path="url(#clip0)">
<path d="M10.115 22.0384L11.2395 13.5898L1.48605 6.81892L10.3977 9.83756L12.5023 6.60846L20.1872 1.83997L37.1265 11.1725L38.0044 25.4118L30.4578 35.8989L24.4927 36.8129L27.5774 31.1665V25.7305L25.3345 21.4852L23.0555 19.9759L19.5498 23.5898V27.4142L16.8138 29.9759L13.3381 30.3968L11.7987 31.2687L9.27318 30.4629L8.22086 26.6746L10.115 24.0107V22.0384Z" fill="white"/>
<path d="M25.689 6.74683C23.8309 6.36198 21.7984 6.46421 21.7984 6.46421C21.7984 6.46421 21.1309 9.54899 16.9938 10.3608C17.0239 10.3608 22.4598 12.2189 25.689 6.74683Z" fill="#94A6C3"/>
<path d="M27.3722 34.7386C29.6152 32.9828 31.2989 30.5655 32.0746 27.8294C32.1107 27.7272 32.4233 27.5468 32.6338 27.4085C32.9826 27.1981 33.3374 27.0237 33.4035 26.7411C33.5418 25.9353 33.614 25.0934 33.614 24.2516C33.614 23.9389 33.2953 23.6202 32.9826 23.3075C32.736 23.097 32.4895 22.8505 32.4895 22.6761C32.1407 19.4831 30.6675 16.5005 28.3163 14.3297L28.0698 14.5763C30.3488 16.717 31.822 19.6274 32.1407 22.7122C32.1768 22.9948 32.4534 23.2714 32.736 23.554C32.9826 23.7645 33.2652 24.0832 33.2652 24.2215C33.2652 25.0273 33.193 25.8331 33.0547 26.6388C33.0187 26.7771 32.706 26.9214 32.4594 27.0597C32.1107 27.2341 31.792 27.4085 31.7258 27.6911C30.884 30.6737 28.9537 33.2714 26.3921 34.9551C26.8491 33.975 28.2862 30.7819 29.0559 29.1644L28.9176 23.975L24.4618 19.6635L21.9363 20.0122L19.1642 24.5041C19.1642 24.5041 20.463 26.1518 18.635 28.082C16.8491 29.9762 15.442 30.3971 15.442 30.3971L14.1432 29.6935C14.528 29.2005 15.3037 28.4668 15.899 27.9738C16.9152 27.1319 17.9315 27.0597 17.9315 26.1518C17.9736 24.2516 15.9351 24.7747 15.9351 24.7747L15.1955 25.4783L14.8828 28.076L13.3434 30.0062L13.169 29.9702L10.6435 29.4109C10.6435 29.4109 12.1889 28.6052 12.4354 27.6911C12.6819 26.8132 11.9423 23.9028 11.9062 23.7284C11.9423 23.7645 12.6459 24.3598 12.9585 25.34C13.5178 23.7946 14.2574 22.3213 14.4679 22.183C14.6783 22.0447 17.5166 20.5354 17.5166 20.5354L16.5725 23.0249L17.276 22.64L18.9597 18.5029C18.9597 18.5029 20.6074 17.6972 21.8341 17.6972C24.0409 17.6611 27.3061 14.9611 25.8329 10.1205C26.2538 10.2949 33.5478 13.9449 34.8106 21.1006C35.7547 26.6027 32.6338 31.7561 27.3722 34.7386Z" fill="#94A6C3"/>
<path d="M19.0255 7.51658C19.8313 6.56649 19.5186 5.16541 19.5186 5.16541L17.1674 8.64105C17.1313 8.64105 18.0032 8.67713 19.0255 7.51658Z" fill="#1B314F"/>
<path d="M11.1313 26.4945L11.4139 25.0934C11.4139 25.0934 10.2533 27.1258 10.1511 27.4085C10.0429 27.7272 10.2233 28.2864 10.6743 28.2503C11.1313 28.2142 11.6905 27.5468 11.6905 27.0597C11.6905 26.4283 11.1313 26.4945 11.1313 26.4945Z" fill="#1B314F"/>
<path d="M31.9658 4.18533C31.9658 4.18533 33.7217 4.25749 35.5437 4.46795C31.4367 1.23885 27.5461 0.294768 24.3892 0.294768C20.0416 0.294768 17.0951 2.08671 16.9147 2.18894L18.2857 0.0121465C18.2857 0.0121465 12.8137 -0.517018 10.8834 5.27372C10.3904 4.04702 9.93936 2.25508 9.93936 2.25508C9.93936 2.25508 7.09511 4.75057 8.43004 8.88767C5.16486 7.69705 0.504607 6.04342 0.32421 6.01335C0.0776673 5.97727 0.0055085 6.08551 0.0055085 6.08551C0.0055085 6.08551 -0.0666502 6.18773 0.143813 6.36813C0.534673 6.6748 7.90088 12.1168 9.51844 13.1691C9.16967 14.4319 9.16967 15.0272 9.51844 15.6225C10.0115 16.4283 10.0416 16.8492 9.97544 17.4445C9.90328 18.0398 9.27189 23.1992 9.13359 23.8305C8.99529 24.4619 7.52205 26.7049 7.58819 27.3723C7.66035 28.0398 8.56835 30.8781 9.38013 31.1968C9.97544 31.4072 11.4487 31.8642 12.4288 31.8642C12.7776 31.8642 13.0963 31.7921 13.2346 31.6538C13.8299 31.1306 14.0043 31.0224 14.4252 31.0224C14.4613 31.0224 14.4974 31.0224 14.5275 31.0224C14.7018 31.0224 14.9123 31.0584 15.1588 31.0584C15.7181 31.0584 16.4577 30.9502 16.9809 30.4631C17.7505 29.6934 19.0855 28.6411 19.5064 28.148C20.0356 27.4806 20.3122 26.5726 20.1739 25.6586C20.0656 24.8167 20.5226 24.0771 21.0518 23.3435C21.7193 22.4655 22.946 20.8901 22.946 20.8901C25.3693 22.7061 26.8786 25.4782 26.8786 28.563C26.8786 34.035 22.1101 38.4547 16.2172 38.4547C15.3032 38.4547 14.4312 38.3525 13.5533 38.142C16.2533 39.0861 18.5323 39.4048 20.3964 39.4048C24.3591 39.4048 26.4637 37.9677 26.4637 37.9677C26.4637 37.9677 25.7301 38.9177 24.5335 40.0001C24.5696 40.0001 24.5696 40.0001 24.5696 40.0001C31.13 39.0861 34.323 33.6862 34.323 33.6862C34.323 33.6862 34.0765 35.4421 33.7638 36.6327C42.489 30.0723 41.0157 21.8642 40.9797 21.5876C41.0518 21.6898 41.9297 22.7422 42.3807 23.3074C43.7878 8.85159 31.9658 4.18533 31.9658 4.18533ZM18.5323 27.2701C18.394 27.4445 17.7987 27.9737 17.3777 28.3585C16.9568 28.7434 16.4998 29.1282 16.151 29.483C16.0127 29.6213 15.7301 29.6934 15.3092 29.6934C15.1709 29.6934 15.0266 29.6934 14.9243 29.6934C14.8522 29.6934 14.786 29.6934 14.7139 29.6934C14.6417 29.6934 14.6056 29.6934 14.5756 29.6934C14.4673 29.6934 14.3651 29.6934 14.2569 29.6934C14.786 28.9899 16.3254 27.3784 16.8546 27.0296C17.486 26.6087 17.8047 26.1877 17.4138 25.4541C17.029 24.7145 16.0127 24.8949 16.0127 24.8949C16.0127 24.8949 16.608 24.6483 17.1372 24.6483C16.4697 24.474 15.6279 24.6483 15.243 25.0332C14.8221 25.418 14.8943 26.7891 14.7199 27.661C14.5455 28.575 13.9502 29.032 13.0362 29.8738C12.5431 30.3308 12.1943 30.4692 11.9117 30.4692C11.3164 30.3669 10.6128 30.1865 10.1198 30.0121C9.77099 29.5551 9.24183 28.0458 9.10352 27.4144C9.20575 27.0657 9.62668 26.326 9.83714 25.9051C10.2581 25.0993 10.5046 24.6423 10.5768 24.2214C10.7151 23.6261 11.1721 19.94 11.3465 18.4006C11.8035 18.9959 12.4349 19.9821 12.2905 20.6135C13.3068 19.1763 12.5732 17.7692 12.2184 17.21C11.9057 16.6508 11.4848 15.5263 11.8335 14.3357C12.1823 13.145 13.4451 9.84378 13.4451 9.84378C13.4451 9.84378 13.866 10.5834 14.4613 10.4391C15.0566 10.3008 19.8612 3.07288 19.8612 3.07288C19.8612 3.07288 21.1601 5.91112 19.789 7.98569C18.388 10.0542 17.0169 10.4391 17.0169 10.4391C17.0169 10.4391 18.9472 10.7879 20.7331 9.489C21.4667 11.2088 22.1703 12.9947 22.2064 13.2413C22.0981 13.4878 20.697 16.8552 20.5587 17.0657C20.4866 17.1378 19.9995 17.2761 19.6447 17.3483C19.0494 17.5227 18.7006 17.6309 18.5563 17.7331C18.3098 17.9436 17.1853 21.0284 16.6622 22.5377C16.0308 22.7121 15.3994 23.0669 14.9424 23.7644C15.1889 23.59 15.9586 23.4818 16.5238 23.4156C17.0169 23.3796 18.5202 24.1853 18.9111 25.6946C18.9111 25.7307 18.9111 25.7307 18.9111 25.7668C18.9893 26.32 18.8149 26.8492 18.5323 27.2701ZM15.237 27.691C15.5557 27.234 15.5196 26.4643 15.5557 26.2178C15.5918 25.9713 15.6579 25.5143 15.9406 25.4481C16.2232 25.3759 16.8907 25.4842 16.8907 25.9713C16.8907 26.4283 16.3976 26.5305 16.0488 26.8492C15.7962 27.0897 15.3032 27.6189 15.237 27.691ZM29.2298 20.9863C29.5786 19.2004 29.6147 17.655 29.5124 16.3922C30.8774 18.2142 31.7193 20.4271 31.9658 22.7061C32.0019 22.9887 32.2785 23.2653 32.5611 23.5479C32.8077 23.7584 33.0903 24.041 33.0903 24.2154C33.0903 25.0212 33.0181 25.8269 32.8798 26.6387C32.8438 26.741 32.5311 26.9213 32.2845 27.0597C31.9358 27.234 31.6171 27.4084 31.5509 27.691C30.7812 30.391 29.1276 32.7782 26.9207 34.4619C30.1799 31.0584 31.7554 25.4421 29.2298 20.9863ZM27.0229 34.7746C29.302 33.0188 31.0578 30.5654 31.8275 27.7933C31.8636 27.691 32.1763 27.5106 32.3867 27.3723C32.7355 27.198 33.0903 26.9875 33.1564 26.7049C33.2948 25.8991 33.3669 25.0572 33.3669 24.2154C33.3669 23.9027 33.0482 23.584 32.7355 23.2713C32.5611 23.0609 32.2785 22.8143 32.2785 22.6399C31.9959 20.0783 30.9797 17.661 29.4042 15.6586C28.7006 11.4493 25.8985 10.1505 25.8263 10.1144C25.8985 10.2226 27.7205 12.8504 26.4577 15.9352C25.1588 19.056 21.8275 18.569 21.5449 18.599C21.2623 18.599 20.1799 20.0001 18.8089 22.5978C18.6345 22.5257 17.8949 22.3513 17.053 22.4956C17.6844 20.7397 18.6345 18.2503 18.8089 18.0398C18.881 17.9676 19.4042 17.8293 19.759 17.7271C20.4264 17.5527 20.7391 17.4445 20.8474 17.3062C20.9195 17.198 21.2683 16.3922 21.6171 15.5503C21.9358 15.5503 22.7415 15.4782 22.8077 15.4421C22.8798 15.3699 23.5473 13.6562 23.5473 13.4457C23.5473 13.2713 22.1763 9.86783 21.6531 8.56897C21.8997 8.28635 22.1462 7.93758 22.3867 7.55274C29.5786 8.32844 35.1949 14.4319 35.1949 21.8281C35.1949 27.5106 31.8636 32.4595 27.0229 34.7746Z" fill="#1B314F"/>
<path d="M17.6903 15.833C18.3577 15.0633 18.009 13.6261 16.7762 13.3796C17.0949 12.646 17.5459 11.1727 17.5459 11.1727C17.5459 11.1727 13.9681 16.7831 13.6554 16.8913C13.3367 16.9995 13.024 15.7668 13.024 15.7668C12.3565 18.3285 14.1485 18.6772 14.3589 17.8715C15.3391 17.6189 17.0228 16.5666 17.6903 15.833Z" fill="#1B314F"/>
<path d="M14.6357 17.1978L16.4577 14.0769C16.4577 14.0769 17.5101 14.6061 16.9809 15.4479C16.3194 16.4281 14.6357 17.1978 14.6357 17.1978Z" fill="#FFD923"/>
<path d="M37.1926 31.6535C36.6635 32.357 36.0682 33.0906 35.3706 33.7942C39.8926 25.093 35.5811 17.1315 35.4067 16.8188C35.7254 17.1375 36.0381 17.4863 36.3207 17.799C39.7903 21.6535 40.2113 27.4442 37.1926 31.6535Z" fill="#D82122"/>
<path d="M41.4003 20.4632C39.8188 16.2178 37.5758 12.6039 32.633 9.34472C27.8645 6.18777 22.7412 6.43431 22.4586 6.47039C22.4225 6.47039 22.3865 6.47039 22.3865 6.47039C22.5608 6.39823 22.7352 6.36215 22.9096 6.33208C23.998 5.98332 25.3991 5.70069 26.8062 5.52631C30.5284 4.99113 34.2806 6.25391 36.8422 8.95987C36.8783 8.99595 36.8783 8.99595 36.9144 9.03203C39.8248 12.1168 41.3341 15.9713 41.4003 20.4632Z" fill="#D82122"/>
<path d="M31.5089 3.09696C26.2834 2.11681 22.916 2.60388 20.4927 3.51789C20.4205 3.23527 20.174 2.67604 19.9635 2.21903C19.2359 3.09696 18.4602 4.14928 17.9732 4.81675C16.6382 5.73076 16.079 6.60869 16.079 6.60869C16.8487 3.9749 19.0976 2.01458 21.8336 1.5215C22.6033 1.38319 23.4452 1.31104 24.3592 1.31104C26.7765 1.34711 29.1938 1.94242 31.5089 3.09696Z" fill="#D82122"/>
<path d="M12.1824 9.83139C8.08139 9.69308 9.4464 4.91858 9.51855 4.64197C9.51855 4.67805 9.79516 8.39422 12.1824 9.83139Z" fill="#D82122"/>
<path d="M16.2184 1.23865C13.0615 3.13281 13.6928 7.65475 13.6928 7.65475C10.6742 3.06667 15.9719 1.34689 16.2184 1.23865Z" fill="#D82122"/>
<path d="M11.0275 11.0945C11.2379 11.2689 11.4484 11.5876 11.2018 12.0446C11.0635 12.2911 10.8531 12.255 10.5344 12.1167C10.1135 11.9063 7.5879 10.433 5.30888 8.92371C7.9066 9.83772 10.5344 10.8179 10.9553 11.0283C10.9553 11.0283 10.9914 11.0644 11.0275 11.0945Z" fill="white"/>
</g>
<defs>
<clipPath id="clip0">
<rect width="42.5015" height="40" fill="white"/>
</clipPath>
</defs>
</svg>
