<svg width="40" height="40" viewBox="0 0 40 40" fill="none" xmlns="http://www.w3.org/2000/svg">
<path d="M20.0002 39.3999C30.7145 39.3999 39.4002 30.7142 39.4002 19.9999C39.4002 9.28553 30.7145 0.599854 20.0002 0.599854C9.2859 0.599854 0.60022 9.28553 0.60022 19.9999C0.60022 30.7142 9.2859 39.3999 20.0002 39.3999Z" fill="url(#paint0_linear)"/>
<path d="M28.4898 27.7297L21.9298 11.8697C21.5598 11.0497 21.0098 10.6497 20.2848 10.6497H19.7048C18.9798 10.6497 18.4298 11.0497 18.0598 11.8697L15.2048 18.7797H13.0448C12.3998 18.7847 11.8748 19.3047 11.8698 19.9547V19.9697C11.8748 20.6147 12.3998 21.1397 13.0448 21.1447H14.2048L11.4798 27.7297C11.4298 27.8747 11.3998 28.0247 11.3998 28.1797C11.3998 28.5497 11.5148 28.8397 11.7198 29.0647C11.9248 29.2897 12.2198 29.3997 12.5898 29.3997C12.8348 29.3947 13.0698 29.3197 13.2648 29.1747C13.4748 29.0297 13.6198 28.8197 13.7348 28.5797L16.7348 21.1397H18.8148C19.4598 21.1347 19.9848 20.6147 19.9898 19.9647V19.9347C19.9848 19.2897 19.4598 18.7647 18.8148 18.7597H17.7048L19.9948 13.0547L26.2348 28.5747C26.3498 28.8147 26.4948 29.0247 26.7048 29.1697C26.8998 29.3147 27.1398 29.3897 27.3798 29.3947C27.7498 29.3947 28.0398 29.2847 28.2498 29.0597C28.4598 28.8347 28.5698 28.5447 28.5698 28.1747C28.5748 28.0247 28.5498 27.8697 28.4898 27.7297Z" fill="white"/>
<defs>
<linearGradient id="paint0_linear" x1="34.4646" y1="7.82917" x2="5.59738" y2="32.118" gradientUnits="userSpaceOnUse">
<stop stop-color="#B6509E"/>
<stop offset="1" stop-color="#2EBAC6"/>
</linearGradient>
</defs>
</svg>
