<svg width="40" height="40" viewBox="0 0 40 40" fill="none" xmlns="http://www.w3.org/2000/svg">
<path d="M20 40C31.0457 40 40 31.0457 40 20C40 8.95431 31.0457 0 20 0C8.95431 0 0 8.95431 0 20C0 31.0457 8.95431 40 20 40Z" fill="#E84142"/>
<path d="M27.0556 20.5197C27.7486 19.3229 28.8667 19.3229 29.5596 20.5197L33.8745 28.0945C34.5675 29.2914 34.0005 30.2678 32.6147 30.2678H23.9218C22.5517 30.2678 21.9848 29.2914 22.6619 28.0945L27.0556 20.5197ZM18.7092 5.93707C19.4021 4.74022 20.5045 4.74022 21.1974 5.93707L22.158 7.66935L24.4257 11.6536C24.9769 12.7875 24.9769 14.126 24.4257 15.2599L16.8194 28.441C16.1265 29.5119 14.9769 30.189 13.7013 30.2678H7.38635C6.00053 30.2678 5.4336 29.3071 6.12651 28.0945L18.7092 5.93707Z" fill="white"/>
</svg>
