<svg width="40" height="40" viewBox="0 0 40 40" fill="none" xmlns="http://www.w3.org/2000/svg">
<path fill-rule="evenodd" clip-rule="evenodd" d="M20 0C31.044 0 40 8.956 40 20C40 31.044 31.044 40 20 40C8.956 40 0 31.044 0 20C0 8.956 8.956 0 20 0Z" fill="white"/>
<path d="M20.3004 28.3596C13.9044 28.3596 8.7204 26.5116 8.7204 24.0356C8.7204 22.7436 10.1324 21.5796 12.3924 20.7596C14.1564 21.8916 17.1164 22.4716 20.4724 22.4716C23.7484 22.4716 26.6444 21.7636 28.4244 20.6796C30.5564 21.4916 31.8804 22.6236 31.8804 23.8716C31.8804 26.3516 26.6964 28.3596 20.3004 28.3596Z" fill="#1E1E1E"/>
<path d="M20.3682 21.916C15.5202 21.916 11.5882 20.396 11.5882 18.52C11.5882 17.48 12.8002 16.548 14.7002 15.928C16.0562 16.636 18.0882 17.088 20.3682 17.088C22.6482 17.088 24.6802 16.636 26.0362 15.928C27.9402 16.552 29.1482 17.48 29.1482 18.52C29.1522 20.396 25.2202 21.916 20.3682 21.916Z" fill="#1E1E1E"/>
<path d="M20.3358 16.5243C16.5878 16.5243 13.5478 15.2683 13.5478 13.7243C13.5478 12.1803 16.5878 10.9243 20.3358 10.9243C24.0838 10.9243 27.1238 12.1803 27.1238 13.7243C27.1238 15.2683 24.0838 16.5243 20.3358 16.5243Z" fill="#1E1E1E"/>
</svg>
