<svg width="40" height="40" viewBox="0 0 40 40" fill="none" xmlns="http://www.w3.org/2000/svg">
<path d="M20 40C31.0457 40 40 31.0457 40 20C40 8.9543 31.0457 0 20 0C8.9543 0 0 8.9543 0 20C0 31.0457 8.9543 40 20 40Z" fill="white"/>
<path d="M19.8999 7.34998L14.2524 10.6587L19.8999 13.9687L25.6536 10.6587L19.8999 7.34998ZM20.8286 25.0175V31.6362L28.4999 27.26V20.64L20.8286 25.0175ZM26.5824 12.74V19.36L20.8274 22.67V16.05L26.5824 12.74ZM12.7299 19.36L18.4849 22.67V16.05L12.7299 12.74V19.36ZM12.7299 28.3275L18.4849 31.6362V25.0175L12.7299 21.7087V28.3262V28.3275Z" fill="#000D2B"/>
</svg>
