<svg width="40" height="40" viewBox="0 0 40 40" fill="none" xmlns="http://www.w3.org/2000/svg">
<path d="M20 40C31.0457 40 40 31.0457 40 20C40 8.9543 31.0457 0 20 0C8.9543 0 0 8.9543 0 20C0 31.0457 8.9543 40 20 40Z" fill="#516AFF"/>
<path d="M23.5002 14.5L27.0002 16.5V6.5L20.0002 3L9.12519 9.125V30.875L20.0002 37.125L30.7502 30.75V20L20.3752 13.75L16.8752 15.5L27.2502 21.625L27.3752 29L20.0002 33.125L12.5002 28.875V10.875L20.0002 6.75L23.5002 8.625V14.5Z" fill="white"/>
<path d="M19.625 20.5L22 19.25L24.625 20.875L16.875 25.25V16.25L19.625 17.875" fill="white"/>
</svg>
