<svg width="40" height="40" viewBox="0 0 40 40" fill="none" xmlns="http://www.w3.org/2000/svg">
<path fill-rule="evenodd" clip-rule="evenodd" d="M10.3438 9.6875C9.875 7.25 11.75 5 14.1875 5C16.3438 5 18.125 6.78125 18.125 8.9375V13.8125C18.6875 13.8125 19.25 13.7188 19.8125 13.7188C20.375 13.7188 20.8438 13.7188 21.4062 13.8125V8.9375C21.4062 6.78125 23.1875 5 25.3438 5C27.7812 5 29.6562 7.25 29.2812 9.6875L28.25 15.4062C31.9062 17 34.7188 19.8125 34.7188 23.2812V25.4375C34.7188 28.3438 32.8438 30.7812 30.125 32.375C27.4062 34.0625 23.8438 35 19.8125 35C15.7812 35 12.2188 34.0625 9.5 32.375C6.875 30.7812 5 28.3438 5 25.4375V23.2812C5 19.8125 7.71875 17 11.375 15.4062L10.3438 9.6875ZM26.8438 16.1562L28.0625 9.40625C28.3438 7.71875 27.125 6.125 25.3438 6.125C23.8438 6.125 22.625 7.34375 22.625 8.84375V15.0312C22.25 14.9375 21.7812 14.9375 21.4062 14.9375C20.8438 14.9375 20.375 14.8438 19.8125 14.8438C19.25 14.8438 18.6875 14.8438 18.125 14.9375C17.75 14.9375 17.2812 15.0312 16.9062 15.0312V8.9375C16.9062 7.4375 15.6875 6.21875 14.1875 6.21875C12.5 6.21875 11.1875 7.8125 11.5625 9.5L12.7812 16.25C8.84375 17.75 6.21875 20.375 6.21875 23.375V25.5312C6.21875 30.125 12.3125 33.875 19.8125 33.875C27.3125 33.875 33.4062 30.125 33.4062 25.5312V23.375C33.5 20.2812 30.875 17.6562 26.8438 16.1562Z" fill="#633001"/>
<path d="M33.5006 25.4375C33.5006 30.0312 27.4069 33.7812 19.9069 33.7812C12.4069 33.7812 6.31313 30.0312 6.31313 25.4375V23.2812H33.5944V25.4375H33.5006Z" fill="#FEDC90"/>
<path fill-rule="evenodd" clip-rule="evenodd" d="M11.5631 9.49963C11.1881 7.81213 12.5006 6.21838 14.1881 6.21838C15.6881 6.21838 16.9069 7.43713 16.9069 8.93713V15.1246C17.8444 15.0309 18.7819 14.9371 19.8131 14.9371C20.7506 14.9371 21.6881 15.0309 22.6256 15.1246V8.93713C22.6256 7.43713 23.8444 6.21838 25.3444 6.21838C27.0319 6.21838 28.3444 7.81213 28.0631 9.49963L26.8444 16.2496C30.7819 17.7496 33.5006 20.3746 33.5006 23.3746C33.5006 27.9684 27.4069 31.7184 19.9069 31.7184C12.4069 31.7184 6.31313 27.9684 6.31313 23.3746C6.31313 20.3746 8.93812 17.7496 12.8756 16.2496L11.5631 9.49963Z" fill="#D1884F"/>
<path d="M16.0619 22.7187C16.0619 23.9375 15.4056 24.9687 14.5619 24.9687C13.7181 24.9687 13.0619 23.9375 13.0619 22.7187C13.0619 21.5 13.7181 20.4688 14.5619 20.4688C15.4056 20.4688 16.0619 21.5 16.0619 22.7187Z" fill="#633001"/>
<path d="M26.4688 22.7187C26.4688 23.9375 25.8125 24.9687 24.9688 24.9687C24.125 24.9687 23.4688 23.9375 23.4688 22.7187C23.4688 21.5 24.125 20.4688 24.9688 20.4688C25.8125 20.4688 26.4688 21.5 26.4688 22.7187Z" fill="#633001"/>
</svg>
