<svg width="24" height="24" viewBox="0 0 24 24" fill="none" xmlns="http://www.w3.org/2000/svg">
<path fill-rule="evenodd" clip-rule="evenodd" d="M6.20625 5.8125C5.925 4.35 7.05 3 8.5125 3C9.80625 3 10.875 4.06875 10.875 5.3625V8.2875C11.2125 8.2875 11.55 8.23125 11.8875 8.23125C12.225 8.23125 12.5062 8.23125 12.8437 8.2875V5.3625C12.8437 4.06875 13.9125 3 15.2062 3C16.6687 3 17.7937 4.35 17.5687 5.8125L16.95 9.24375C19.1437 10.2 20.8312 11.8875 20.8312 13.9688V15.2625C20.8312 17.0062 19.7062 18.4688 18.075 19.425C16.4437 20.4375 14.3062 21 11.8875 21C9.46875 21 7.33125 20.4375 5.7 19.425C4.125 18.4688 3 17.0062 3 15.2625V13.9688C3 11.8875 4.63125 10.2 6.825 9.24375L6.20625 5.8125ZM16.1062 9.69375L16.8375 5.64375C17.0062 4.63125 16.275 3.675 15.2062 3.675C14.3062 3.675 13.575 4.40625 13.575 5.30625V9.01875C13.35 8.9625 13.0687 8.9625 12.8437 8.9625C12.5062 8.9625 12.225 8.90625 11.8875 8.90625C11.55 8.90625 11.2125 8.90625 10.875 8.9625C10.65 8.9625 10.3687 9.01875 10.1437 9.01875V5.3625C10.1437 4.4625 9.4125 3.73125 8.5125 3.73125C7.5 3.73125 6.7125 4.6875 6.9375 5.7L7.66875 9.75C5.30625 10.65 3.73125 12.225 3.73125 14.025V15.3187C3.73125 18.075 7.3875 20.325 11.8875 20.325C16.3875 20.325 20.0437 18.075 20.0437 15.3187V14.025C20.1 12.1687 18.525 10.5938 16.1062 9.69375Z" fill="#633001"/>
<path d="M20.1003 15.2625C20.1003 18.0187 16.4441 20.2687 11.9441 20.2687C7.44409 20.2687 3.78784 18.0187 3.78784 15.2625V13.9688H20.1566V15.2625H20.1003Z" fill="#FEDC90"/>
<path fill-rule="evenodd" clip-rule="evenodd" d="M6.93784 5.69983C6.71284 4.68733 7.50034 3.73108 8.51284 3.73108C9.41284 3.73108 10.1441 4.46233 10.1441 5.36233V9.07483C10.7066 9.01858 11.2691 8.96233 11.8878 8.96233C12.4503 8.96233 13.0128 9.01858 13.5753 9.07483V5.36233C13.5753 4.46233 14.3066 3.73108 15.2066 3.73108C16.2191 3.73108 17.0066 4.68733 16.8378 5.69983L16.1066 9.74983C18.4691 10.6498 20.1003 12.2248 20.1003 14.0248C20.1003 16.7811 16.4441 19.0311 11.9441 19.0311C7.44409 19.0311 3.78784 16.7811 3.78784 14.0248C3.78784 12.2248 5.36284 10.6498 7.72534 9.74983L6.93784 5.69983Z" fill="#D1884F"/>
<path d="M9.63716 13.6312C9.63716 14.3625 9.24341 14.9812 8.73716 14.9812C8.23091 14.9812 7.83716 14.3625 7.83716 13.6312C7.83716 12.9 8.23091 12.2812 8.73716 12.2812C9.24341 12.2812 9.63716 12.9 9.63716 13.6312Z" fill="#633001"/>
<path d="M15.8813 13.6312C15.8813 14.3625 15.4875 14.9812 14.9813 14.9812C14.475 14.9812 14.0813 14.3625 14.0813 13.6312C14.0813 12.9 14.475 12.2812 14.9813 12.2812C15.4875 12.2812 15.8813 12.9 15.8813 13.6312Z" fill="#633001"/>
</svg>
