<svg width="40" height="40" viewBox="0 0 40 40" fill="none" xmlns="http://www.w3.org/2000/svg">
<path d="M20 40C31.046 40 40 31.046 40 20C40 8.954 31.046 0 20 0C8.954 0 0 8.954 0 20C0 31.046 8.954 40 20 40Z" fill="#070A0E"/>
<path fill-rule="evenodd" clip-rule="evenodd" d="M11.5535 26.7063C10.9555 26.3403 10.5895 25.6903 10.5895 24.9903V21.0823C10.5895 20.6183 10.9675 20.2423 11.4315 20.2443C11.5795 20.2443 11.7255 20.2843 11.8535 20.3583L20.6715 25.5003C21.1875 25.8003 21.5055 26.3523 21.5055 26.9503V30.9983C21.5075 31.5543 21.0575 32.0063 20.5015 32.0063C20.3155 32.0063 20.1315 31.9543 19.9735 31.8583L11.5535 26.7063ZM24.6975 19.2883C25.2135 19.5883 25.5295 20.1423 25.5315 20.7383V28.9543C25.5315 29.1963 25.4015 29.4203 25.1895 29.5383L23.2595 30.6243C23.2355 30.6383 23.2095 30.6483 23.1815 30.6563V26.0943C23.1815 25.5043 22.8715 24.9563 22.3635 24.6523L14.6195 20.0203V14.8703C14.6195 14.4063 14.9975 14.0303 15.4615 14.0323C15.6095 14.0323 15.7555 14.0723 15.8835 14.1463L24.6975 19.2883ZM28.5575 13.2203C29.0755 13.5203 29.3935 14.0743 29.3935 14.6723V26.6723C29.3915 26.9183 29.2555 27.1443 29.0395 27.2623L27.2095 28.2503V19.8963C27.2095 19.3063 26.8995 18.7603 26.3955 18.4563L18.4795 13.7083V8.8243C18.4795 8.6763 18.5195 8.5303 18.5915 8.4023C18.8255 8.0023 19.3395 7.8663 19.7395 8.0983L28.5575 13.2203Z" fill="#00D395"/>
</svg>
