<svg width="40" height="40" viewBox="0 0 40 40" fill="none" xmlns="http://www.w3.org/2000/svg">
<path d="M20 40C31.0457 40 40 31.0457 40 20C40 8.95431 31.0457 0 20 0C8.95431 0 0 8.95431 0 20C0 31.0457 8.95431 40 20 40Z" fill="url(#paint0_linear)"/>
<path fill-rule="evenodd" clip-rule="evenodd" d="M14.1702 13.0002V28.0002H26.6702L14.1702 13.0002Z" fill="url(#paint1_linear)"/>
<path fill-rule="evenodd" clip-rule="evenodd" d="M1.67022 28.0002H14.1702V13.0002L1.67022 28.0002Z" fill="white"/>
<path fill-rule="evenodd" clip-rule="evenodd" d="M3.99946 31.9998C5.13946 33.5098 6.48946 34.8598 7.99946 35.9998H31.9995C33.5095 34.8598 34.8595 33.5098 35.9995 31.9998H3.99946Z" fill="#FC9965"/>
<path fill-rule="evenodd" clip-rule="evenodd" d="M7.99994 36C11.3399 38.51 15.4999 40 19.9999 40C24.4999 40 28.6599 38.51 31.9999 36H7.99994Z" fill="#FF2D55"/>
<path fill-rule="evenodd" clip-rule="evenodd" d="M26.8297 21V32H35.9997L26.8297 21Z" fill="url(#paint2_linear)"/>
<path fill-rule="evenodd" clip-rule="evenodd" d="M26.8302 28.0002H1.67022C2.29022 29.4302 3.08022 30.7702 4.00022 32.0002H26.8402V28.0002H26.8302Z" fill="#FFBC5B"/>
<path fill-rule="evenodd" clip-rule="evenodd" d="M17.6697 32H26.8297V21L17.6697 32Z" fill="white"/>
<path d="M26.8297 18.0002C29.5911 18.0002 31.8297 15.7617 31.8297 13.0002C31.8297 10.2388 29.5911 8.00024 26.8297 8.00024C24.0683 8.00024 21.8297 10.2388 21.8297 13.0002C21.8297 15.7617 24.0683 18.0002 26.8297 18.0002Z" fill="#FFC95B"/>
<path d="M14.1702 10C15.5509 10 16.6702 8.88071 16.6702 7.5C16.6702 6.11929 15.5509 5 14.1702 5C12.7895 5 11.6702 6.11929 11.6702 7.5C11.6702 8.88071 12.7895 10 14.1702 10Z" fill="#FFC95B"/>
<defs>
<linearGradient id="paint0_linear" x1="34.142" y1="5.858" x2="5.858" y2="34.142" gradientUnits="userSpaceOnUse">
<stop stop-color="#FF2D55"/>
<stop offset="1" stop-color="#FFBC5B"/>
</linearGradient>
<linearGradient id="paint1_linear" x1="20.416" y1="13.0002" x2="20.416" y2="28.0002" gradientUnits="userSpaceOnUse">
<stop stop-color="#A524B3"/>
<stop offset="1" stop-color="#FF2D55"/>
</linearGradient>
<linearGradient id="paint2_linear" x1="31.4115" y1="21" x2="31.4115" y2="32" gradientUnits="userSpaceOnUse">
<stop stop-color="#A524B3"/>
<stop offset="1" stop-color="#FF2D55"/>
</linearGradient>
</defs>
</svg>
