<svg width="40" height="40" viewBox="0 0 40 40" fill="none" xmlns="http://www.w3.org/2000/svg">
<g clip-path="url(#clip0)">
<path d="M20.0141 40.0282C31.0676 40.0282 40.0282 31.0676 40.0282 20.0141C40.0282 8.96062 31.0676 0 20.0141 0C8.96062 0 0 8.96062 0 20.0141C0 31.0676 8.96062 40.0282 20.0141 40.0282Z" fill="#7866D5"/>
<path d="M28.1146 10.2754C28.7921 10.3601 29.4978 10.4166 30.1753 10.5295C31.5021 10.7835 31.9537 11.461 31.7279 12.816C31.6714 13.3241 31.2762 13.7193 30.7681 13.804C30.4576 13.8605 30.1189 13.8887 29.8084 13.8605C25.4047 13.8605 21.0292 13.8887 16.6256 13.8887C15.9763 13.8887 15.2988 13.9451 14.6496 14.0581C12.476 14.3968 11.6291 15.3001 11.4597 17.502C11.375 18.5182 11.375 18.5182 12.4195 18.5182H29.9213C30.0906 18.5182 30.26 18.5182 30.4294 18.5182C30.7117 18.5182 30.9657 18.6029 31.2198 18.744C32.0102 19.2521 31.8126 20.0708 31.7844 20.8047C31.7561 21.3975 31.3892 21.7363 30.7681 21.8492C30.5141 21.9056 30.26 21.9056 29.9777 21.9056C23.9933 21.9056 18.0088 21.9056 12.0243 21.9056C11.375 21.9056 11.375 21.9056 11.4315 22.5549C11.4597 23.1477 11.5162 23.7405 11.6573 24.3333C11.9396 25.406 12.5889 26.0835 13.6898 26.394C14.8754 26.7327 16.1175 26.7892 17.3313 26.8174C21.5938 26.8174 25.8846 26.8174 30.1753 26.8174C30.7117 26.8174 31.2198 26.8739 31.5585 27.382C32.0949 28.2288 31.8126 29.3298 30.9657 29.8661C30.8528 29.9508 30.7399 30.0073 30.5988 30.0355C29.6672 30.346 28.7074 30.4025 27.7194 30.4307C23.6827 30.5154 19.6743 30.5154 15.6658 30.4307C14.4237 30.4025 13.1817 30.2613 11.9678 30.0072C9.11675 29.4144 7.67709 27.9466 7.1972 25.0672C7.08429 24.418 7.02783 23.7405 6.94315 23.063V17.8125C6.9996 17.3044 7.05606 16.768 7.11252 16.2599C7.47949 13.0136 8.94738 11.4046 12.1372 10.6706C13.2664 10.4166 14.452 10.3601 15.5811 10.2472L28.1146 10.2754Z" fill="white"/>
<path d="M21.6791 30.9951C19.6466 30.9951 17.6424 30.9668 15.6381 30.9386C14.3678 30.9104 13.0975 30.7692 11.8555 30.487C8.77856 29.8377 7.19775 28.2004 6.68964 25.1517C6.60495 24.6718 6.54849 24.192 6.52026 23.7403C6.49204 23.5427 6.46381 23.3451 6.43558 23.1193V23.0628V17.7558L6.49203 17.2477C6.52026 16.8807 6.57672 16.542 6.60495 16.2033C7.00015 12.7311 8.63741 10.9527 12.0531 10.1905C12.9564 9.99295 13.8315 9.90826 14.7066 9.82358C14.9889 9.79535 15.2711 9.76712 15.5534 9.73889H15.6099H28.1716H28.1999C28.3975 9.76712 28.6233 9.79535 28.8209 9.79535C29.3008 9.85181 29.7807 9.88004 30.2888 9.99295C31.8978 10.3035 32.5189 11.2068 32.2366 12.844C32.1519 13.5498 31.5873 14.1426 30.8251 14.2555C30.4864 14.3119 30.1476 14.3402 29.7807 14.3402C25.4052 14.3684 21.0016 14.3966 16.6261 14.3966C16.0051 14.3966 15.3558 14.4531 14.7348 14.566C12.787 14.8765 12.1378 15.5822 11.9684 17.5582C11.9684 17.7276 11.9402 17.897 11.9402 18.0381C12.0531 18.0381 12.2507 18.0381 12.4201 18.0381H30.4299C30.7969 18.0381 31.1639 18.151 31.4744 18.3204C32.4342 18.9414 32.3495 19.873 32.293 20.5505C32.293 20.6352 32.2648 20.7481 32.2648 20.8328C32.2083 21.6232 31.7285 22.1595 30.8534 22.3289C30.5428 22.3853 30.2606 22.3853 29.9783 22.3853H12.0531C12.0249 22.3853 11.9684 22.3853 11.9402 22.3853C11.9402 22.4136 11.9402 22.4418 11.9402 22.47V22.4982C11.9684 23.091 12.0249 23.6556 12.166 24.2202C12.3918 25.0953 12.9282 25.6316 13.8315 25.8857C15.0453 26.2244 16.2874 26.2809 17.3601 26.2809C20.691 26.3091 24.0785 26.3091 27.3812 26.3091H30.2041C30.6275 26.3091 31.5026 26.3091 32.0107 27.1277C32.3495 27.6641 32.4342 28.2851 32.293 28.8779C32.1519 29.4707 31.7849 29.9788 31.2486 30.3176C31.1074 30.4023 30.938 30.4869 30.7687 30.5434C29.7242 30.8822 28.6515 30.9386 27.7482 30.9668C25.744 30.9668 23.7115 30.9951 21.6791 30.9951ZM7.45181 23.0346C7.48004 23.2322 7.50827 23.4298 7.50827 23.6274C7.56472 24.079 7.62118 24.5307 7.67764 24.9824C8.1293 27.6359 9.39959 28.9344 12.0531 29.4989C13.2387 29.753 14.4525 29.8941 15.6663 29.9224C19.6466 30.0071 23.7115 30.0071 27.72 29.9224C28.5386 29.8941 29.5266 29.8377 30.4299 29.5554C30.5146 29.5272 30.5993 29.4707 30.684 29.4425C30.9663 29.2449 31.1921 28.9626 31.2768 28.6239C31.3615 28.2851 31.305 27.9464 31.1074 27.6359C30.938 27.3818 30.7122 27.2971 30.1759 27.2971H27.353C24.0785 27.2971 20.6628 27.2971 17.3318 27.2689C16.2027 27.2689 14.8759 27.2124 13.5492 26.8172C12.2789 26.4785 11.4885 25.6599 11.178 24.3896C11.0368 23.7685 10.9522 23.1193 10.9522 22.4982V22.47C10.9239 22.0748 10.8957 21.7925 11.1215 21.5385C11.3474 21.2844 11.6579 21.2844 12.0531 21.2844H30.0065C30.2323 21.2844 30.4864 21.2844 30.7122 21.228C31.1639 21.1433 31.2768 20.9457 31.305 20.6634C31.305 20.5505 31.3332 20.4658 31.3332 20.3529C31.3897 19.6471 31.3897 19.3084 30.9945 19.0543C30.8534 18.9697 30.6558 18.9132 30.4864 18.9132H12.4201C11.799 18.9132 11.432 18.9132 11.1498 18.6309C10.8675 18.3486 10.9239 17.9534 10.9522 17.3606C11.1498 14.933 12.166 13.832 14.5654 13.4651C15.2429 13.3522 15.9204 13.2957 16.6261 13.2675C21.0298 13.2675 25.4052 13.2392 29.8089 13.2392C30.1194 13.2392 30.4017 13.2392 30.684 13.1828C30.9663 13.1546 31.1921 12.9287 31.2203 12.6464C31.4179 11.5173 31.1356 11.1503 30.063 10.9245C29.6113 10.8398 29.1596 10.7834 28.708 10.7551C28.5104 10.7269 28.2846 10.6987 28.087 10.6987H15.6099C15.3276 10.7269 15.0453 10.7551 14.763 10.7834C13.8879 10.868 13.0693 10.9245 12.2225 11.1221C9.25844 11.856 7.95992 13.2957 7.62118 16.3444C7.59295 16.6831 7.5365 17.0219 7.50827 17.3889L7.45181 17.8687V23.0346Z" fill="white"/>
</g>
<defs>
<clipPath id="clip0">
<rect width="40" height="40" fill="white"/>
</clipPath>
</defs>
</svg>
