<svg width="40" height="40" viewBox="0 0 40 40" fill="none" xmlns="http://www.w3.org/2000/svg">
<mask id="mask0" mask-type="alpha" maskUnits="userSpaceOnUse" x="0" y="0" width="40" height="40">
<path fill-rule="evenodd" clip-rule="evenodd" d="M0 0H40V40H0V0Z" fill="white"/>
</mask>
<g mask="url(#mask0)">
<path fill-rule="evenodd" clip-rule="evenodd" d="M20 40C9 40 0 31 0 19.9C0.1 8.89997 9 -0.100029 20.1 -2.91348e-05C31.1 0.0999709 40 8.99997 40 20.2C39.9 31.1 31 40 20 40Z" fill="#0090FF"/>
<path fill-rule="evenodd" clip-rule="evenodd" d="M21.9 17.6L21.3 20.8L27 21.6L26.6 23.1L21 22.3C20.6 23.6 20.4 25 19.9 26.2C19.4 27.6 18.9 29 18.3 30.3C17.5 32 16.1 33.2 14.2 33.5C13.1 33.7 11.9 33.6 11 32.9C10.7 32.7 10.4 32.3 10.4 32C10.4 31.6 10.6 31.1 10.9 30.9C11.1 30.8 11.6 30.9 11.9 31C12.2 31.3 12.5 31.7 12.7 32.1C13.3 32.9 14.1 33 14.9 32.4C15.8 31.6 16.3 30.5 16.6 29.4C17.2 27 17.8 24.7 18.3 22.3V21.9L13 21.1L13.2 19.6L18.7 20.4L19.4 17.3L13.7 16.4L13.9 14.8L19.8 15.6C20 15 20.1 14.5 20.3 14C20.8 12.2 21.3 10.4 22.5 8.79996C23.7 7.19996 25.1 6.19996 27.2 6.29996C28.1 6.29996 29 6.59996 29.6 7.29996C29.7 7.39996 29.9 7.59996 29.9 7.79996C29.9 8.19996 29.9 8.69996 29.6 8.99996C29.2 9.29996 28.7 9.19996 28.3 8.79996C28 8.49996 27.8 8.19996 27.5 7.89996C26.9 7.09996 26 6.99996 25.3 7.69996C24.8 8.19996 24.3 8.89996 24 9.59996C23.3 11.7 22.8 13.9 22.1 16.1L27.6 16.9L27.2 18.4L21.9 17.6Z" fill="white"/>
</g>
</svg>
