<svg width="40" height="40" viewBox="0 0 40 40" fill="none" xmlns="http://www.w3.org/2000/svg">
<path d="M20 40C31.0457 40 40 31.0457 40 20C40 8.95431 31.0457 0 20 0C8.95431 0 0 8.95431 0 20C0 31.0457 8.95431 40 20 40Z" fill="url(#paint0_linear)"/>
<path d="M10.156 25.9999V16.5866L17.2947 21.9592V25.9999H19.1167V21.5799C19.1164 21.4157 19.078 21.2537 19.0045 21.1068C18.9311 20.9599 18.8246 20.8321 18.6934 20.7332L10.036 14.2152C9.87769 14.0976 9.68983 14.0262 9.49334 14.009C9.29685 13.9917 9.09942 14.0293 8.923 14.1175C8.74658 14.2057 8.59807 14.3411 8.49398 14.5087C8.38989 14.6762 8.33429 14.8693 8.33337 15.0666V25.9999H10.156ZM29.8987 25.9999V16.5866L22.76 21.9592V25.9999H20.938V21.5799C20.9384 21.4157 20.9768 21.2537 21.0502 21.1068C21.1237 20.9599 21.2302 20.8321 21.3614 20.7332L30.0187 14.2179C30.1769 14.1004 30.3645 14.029 30.5607 14.0117C30.757 13.9943 30.9542 14.0317 31.1306 14.1196C31.3069 14.2074 31.4554 14.3425 31.5597 14.5096C31.664 14.6768 31.72 14.8696 31.7214 15.0666V25.9999H29.8987Z" fill="white"/>
<defs>
<linearGradient id="paint0_linear" x1="20" y1="0" x2="20" y2="40" gradientUnits="userSpaceOnUse">
<stop stop-color="#4FA89B"/>
<stop offset="1" stop-color="#6ACEBB"/>
</linearGradient>
</defs>
</svg>
