<svg width="41" height="40" viewBox="0 0 41 40" fill="none" xmlns="http://www.w3.org/2000/svg">
<g clip-path="url(#clip0)">
<path d="M17.5399 0.106236C8.90079 1.27845 1.94776 7.78186 0.358036 16.1801C-0.637548 21.4792 0.454383 26.7943 3.48931 31.3387C4.54912 32.9123 7.19866 35.5779 8.72415 36.5896C11.0525 38.1151 13.4291 39.1106 16.175 39.7048C18.0698 40.1062 21.9879 40.1062 23.8827 39.7048C27.8008 38.8698 30.9642 37.2319 33.7583 34.5984C36.7129 31.7883 38.672 28.384 39.5391 24.5462C41.0485 17.8983 39.2019 11.1379 34.529 6.17608C31.7832 3.28568 27.8008 1.08576 23.8506 0.331043C22.1967 0.0098877 19.0333 -0.102516 17.5399 0.106236ZM22.0361 1.69596C26.8052 2.24192 31.3175 4.68271 34.2561 8.31177C36.1509 10.6723 37.2428 12.8561 37.9654 15.8268C38.3187 17.2399 38.3829 17.8822 38.399 19.8413C38.399 22.6353 38.1099 24.3535 37.1946 26.6658C32.3612 39.0785 16.3837 42.4346 7.02203 33.0087C1.73901 27.7096 0.1814 20.0019 2.99152 13.0488C4.42066 9.46793 7.40741 6.01551 10.7153 4.13674C14.3283 2.06529 18.0859 1.2624 22.0361 1.69596Z" fill="white"/>
<path d="M7.06945 15.281C4.98194 16.0357 3.64914 18.6211 4.13087 21.0297C4.37174 22.2341 4.64472 22.7961 5.39944 23.5829C6.39503 24.6588 7.03734 24.8997 8.78764 24.8997C10.1847 24.8997 10.3934 24.8515 11.1642 24.434C12.5933 23.6311 13.3802 22.3625 13.5568 20.564C13.7816 18.0911 12.3525 15.7788 10.2489 15.1847C9.42995 14.9599 7.85629 15.008 7.06945 15.281ZM10.5861 17.2883C11.5335 17.9787 12.0153 19.5685 11.678 20.9655C11.0357 23.6632 7.48696 24.1931 6.26656 21.7684C5.5279 20.3232 5.91329 18.059 7.03734 17.2722C7.96869 16.5978 9.62265 16.6138 10.5861 17.2883Z" fill="white"/>
<path d="M28.7965 15.3449C25.7777 16.5492 24.9266 20.9972 27.2068 23.6949C28.4433 25.1722 31.3658 25.4452 32.6665 24.1927L33.0197 23.8555L33.0679 24.3051C33.1161 24.7066 33.1643 24.7387 33.919 24.7387H34.7219L34.77 22.2015L34.8182 19.6805H32.5541H30.306V20.4834V21.2863H31.6709C33.1482 21.2863 33.1964 21.3184 32.7789 22.1855C32.4898 22.7796 31.4621 23.3738 30.6914 23.3738C28.8447 23.3738 27.7367 22.0731 27.7367 19.9695C27.7528 17.6411 29.2462 16.3083 31.2855 16.7901C32.0723 16.9828 32.8752 17.6732 32.8752 18.171C32.8752 18.3316 33.1161 18.3958 33.8387 18.3958H34.7861L34.5613 17.6732C34.0635 15.9872 32.827 15.1361 30.7877 15.0719C29.8885 15.0398 29.3907 15.104 28.7965 15.3449Z" fill="white"/>
<path d="M14.89 20.0019V24.8193H15.6929H16.4958L16.5279 21.5756L16.5761 18.3159L17.7644 21.5756L18.9526 24.8353L19.7555 24.7872L20.5584 24.739L21.7306 21.5274L22.9029 18.3159L22.951 21.5274L22.9992 24.739L23.8503 24.7872L24.6853 24.8353L24.6532 20.0501L24.605 15.2649H23.497H22.373L21.0883 18.8297C20.3818 20.8048 19.7555 22.3624 19.7074 22.2821C19.6431 22.2179 19.065 20.6924 18.4227 18.8779C17.7804 17.0633 17.1702 15.4897 17.0899 15.3773C16.9936 15.2649 16.544 15.1846 15.9177 15.1846H14.89V20.0019Z" fill="white"/>
</g>
<defs>
<clipPath id="clip0">
<rect width="40.0482" height="40" fill="white"/>
</clipPath>
</defs>
</svg>
