<svg width="43" height="40" viewBox="0 0 43 40" fill="none" xmlns="http://www.w3.org/2000/svg">
<g clip-path="url(#clip0)">
<path d="M9.65936 35.1137C10.9198 36.5496 12.4527 37.7209 14.1694 38.5597C15.886 39.3985 17.7521 39.8881 19.6594 40.0001C21.9381 39.8791 24.088 38.9056 25.6821 37.2728C28.8265 34.5797 32.1277 32.0753 35.5685 29.7728L37.5003 28.9774C38.2957 28.6365 39.6594 27.841 40.9094 26.3637C42.273 24.5455 42.5003 22.6137 42.5003 21.9319C42.3492 19.7815 41.6445 17.7068 40.4548 15.9092C37.3502 21.4412 32.9008 26.101 27.5181 29.4578C22.1354 32.8145 15.9931 34.7598 9.65936 35.1137Z" fill="#0293D6"/>
<path d="M13.9776 2.84117C14.8259 1.94514 15.8477 1.23117 16.9808 0.742764C18.1139 0.254355 19.3346 0.00172447 20.5685 0.000262257C21.3503 -0.0520819 22.1346 0.0515687 22.876 0.305183C23.6173 0.558797 24.3008 0.957311 24.8867 1.47754C28.1463 3.78676 32.0288 5.05454 36.0231 5.1139C37.0458 5.22754 39.0912 5.56844 40.4549 7.27299C41.4776 8.63663 41.5912 10.1139 41.5912 10.7957C41.4997 12.5516 41.1156 14.2799 40.4549 15.9094L13.9776 2.84117Z" fill="#EBE638"/>
<path d="M9.65909 35.1138C8.63636 35.0002 7.27273 34.6593 5.68182 33.9775C4.09091 33.2956 2.15909 32.5002 0.909091 30.3411C0.113636 28.9775 0 27.6138 0 26.7047C0.0277434 24.2938 0.611035 21.9218 1.70455 19.7729C2.79249 17.1169 3.51868 14.3268 3.86364 11.4775L4.43182 9.20473C4.77273 8.06837 5 6.93201 5.79545 5.79564L7.04545 4.43201C9.11004 3.13397 11.5533 2.57322 13.9773 2.8411C10.7315 7.48417 8.64564 12.8374 7.89433 18.4524C7.14303 24.0675 7.74818 29.7808 9.65909 35.1138Z" fill="#BAD147"/>
<path d="M13.977 2.84082C13.8634 2.84082 20.1134 3.18173 23.977 4.54537L27.1588 5.909C25.9088 5.79537 17.9543 5.45446 11.9316 11.4772C4.31793 19.2045 6.81793 29.7726 6.93157 30.3408C5.16718 28.121 4.27774 25.3314 4.43157 22.4999C4.58117 18.742 5.50638 15.0556 7.14908 11.6725C8.79178 8.28928 11.1164 5.28242 13.977 2.84082Z" fill="#78B650"/>
<path d="M29.205 30.9089C31.3549 27.0009 32.3073 22.5467 31.9436 18.1012C31.5798 13.6557 29.9161 9.41553 27.1596 5.90894C30.4511 6.45926 33.4788 8.05274 35.7959 10.4544C37.1596 11.5908 38.8641 13.2953 40.455 15.9089C38.2081 21.8772 34.3055 27.0808 29.205 30.9089Z" fill="#2F8260"/>
<path d="M32.8409 10.9089C31.0227 7.8407 28.409 6.47707 27.2727 5.90888C26.3636 5.68161 17.8409 4.31798 11.3636 10.568C6.13632 15.568 5.79541 22.0452 5.79541 23.2952C5.81947 27.5778 7.25762 31.7325 9.88632 35.1134C13.2644 35.7639 16.7355 35.7639 20.1136 35.1134C21.8181 34.7725 25.7954 34.0907 29.2045 31.1362C29.659 30.6816 34.659 26.0225 35 18.6362C35 17.3862 35 14.2043 32.8409 10.9089ZM28.75 27.3862C27.6947 28.5341 26.4124 29.4501 24.9844 30.0761C23.5563 30.702 22.0137 31.0244 20.4545 31.0225C19.7727 31.0225 15.2272 30.9089 12.0454 27.1589C11.5909 26.5907 9.31814 23.8634 9.43177 19.7725C9.65905 14.318 13.9772 11.1362 14.8863 10.4543C15.6818 9.88616 17.6136 8.63616 20.4545 8.52252C21.1363 8.40888 23.5227 8.29525 25.909 9.65888C31.1363 12.4998 31.3636 19.318 31.3636 19.7725C31.3636 21.0225 31.3636 24.4316 28.75 27.3862Z" fill="#085229"/>
</g>
<defs>
<clipPath id="clip0">
<rect width="42.5" height="40" fill="white"/>
</clipPath>
</defs>
</svg>
