<svg width="46" height="40" viewBox="0 0 46 40" fill="none" xmlns="http://www.w3.org/2000/svg">
<g clip-path="url(#clip0)">
<path d="M34.6269 12.1791C33.791 11.7015 32.7164 11.7015 31.7612 12.1791L25.0746 16.1194L20.5373 18.6269L13.9701 22.5672C13.1343 23.0448 12.0597 23.0448 11.1045 22.5672L5.97015 19.4627C5.13433 18.9851 4.53731 18.0299 4.53731 16.9552V10.9851C4.53731 10.0299 5.01493 9.07465 5.97015 8.47763L11.1045 5.49256C11.9403 5.01494 13.0149 5.01494 13.9701 5.49256L19.1045 8.59703C19.9403 9.07465 20.5373 10.0299 20.5373 11.1045V15.0448L25.0746 12.4179V8.35823C25.0746 7.403 24.597 6.44778 23.6418 5.85076L14.0896 0.238824C13.2537 -0.238788 12.1791 -0.238788 11.2239 0.238824L1.43284 5.97017C0.477612 6.44778 0 7.403 0 8.35823V19.5821C0 20.5373 0.477612 21.4926 1.43284 22.0896L11.1045 27.7015C11.9403 28.1791 13.0149 28.1791 13.9701 27.7015L20.5373 23.8806L25.0746 21.2537L31.6418 17.4329C32.4776 16.9552 33.5522 16.9552 34.5075 17.4329L39.6418 20.4179C40.4776 20.8955 41.0746 21.8508 41.0746 22.9254V28.8955C41.0746 29.8508 40.597 30.806 39.6418 31.403L34.6269 34.3881C33.791 34.8657 32.7164 34.8657 31.7612 34.3881L26.6269 31.403C25.791 30.9254 25.194 29.9702 25.194 28.8955V25.0746L20.6567 27.7015V31.6418C20.6567 32.597 21.1343 33.5523 22.0896 34.1493L31.7612 39.7612C32.597 40.2388 33.6716 40.2388 34.6269 39.7612L44.2985 34.1493C45.1343 33.6717 45.7313 32.7164 45.7313 31.6418V20.2985C45.7313 19.3433 45.2537 18.3881 44.2985 17.7911L34.6269 12.1791Z" fill="#8247E5"/>
</g>
<defs>
<clipPath id="clip0">
<rect width="45.8507" height="40" fill="white"/>
</clipPath>
</defs>
</svg>
