<svg width="52" height="40" viewBox="0 0 52 40" fill="none" xmlns="http://www.w3.org/2000/svg">
<path d="M13.0395 27.6256C13.2625 27.4026 13.5692 27.2725 13.8945 27.2725H43.394C43.9331 27.2725 44.2026 27.923 43.8215 28.3041L37.9941 34.1315C37.7711 34.3546 37.4644 34.4847 37.1391 34.4847H7.63959C7.10053 34.4847 6.831 33.8341 7.21206 33.4531L13.0395 27.6256Z" fill="url(#paint0_linear)"/>
<path d="M13.0395 5.86831C13.2718 5.64525 13.5785 5.51514 13.8945 5.51514H43.394C43.9331 5.51514 44.2026 6.16572 43.8215 6.54678L37.9941 12.3742C37.7711 12.5972 37.4644 12.7274 37.1391 12.7274H7.63959C7.10053 12.7274 6.831 12.0768 7.21206 11.6957L13.0395 5.86831Z" fill="url(#paint1_linear)"/>
<path d="M37.9941 16.6775C37.7711 16.4545 37.4644 16.3243 37.1391 16.3243H7.63959C7.10053 16.3243 6.831 16.9749 7.21206 17.356L13.0395 23.1834C13.2625 23.4064 13.5692 23.5366 13.8945 23.5366H43.394C43.9331 23.5366 44.2026 22.886 43.8215 22.5049L37.9941 16.6775Z" fill="url(#paint2_linear)"/>
<defs>
<linearGradient id="paint0_linear" x1="40.5759" y1="2.03376" x2="20.1599" y2="41.1387" gradientUnits="userSpaceOnUse">
<stop stop-color="#00FFA3"/>
<stop offset="1" stop-color="#DC1FFF"/>
</linearGradient>
<linearGradient id="paint1_linear" x1="31.649" y1="-2.62663" x2="11.233" y2="36.4782" gradientUnits="userSpaceOnUse">
<stop stop-color="#00FFA3"/>
<stop offset="1" stop-color="#DC1FFF"/>
</linearGradient>
<linearGradient id="paint2_linear" x1="36.084" y1="-0.31098" x2="15.668" y2="38.7939" gradientUnits="userSpaceOnUse">
<stop stop-color="#00FFA3"/>
<stop offset="1" stop-color="#DC1FFF"/>
</linearGradient>
</defs>
</svg>
