<svg width="48" height="40" viewBox="0 0 48 40" fill="none" xmlns="http://www.w3.org/2000/svg">
<path d="M36.8158 8.52511L32.3934 10.7783L11.0381 21.6556C10.9659 21.1048 10.9296 20.5499 10.9293 19.9945C10.9323 17.7781 11.5142 15.601 12.6174 13.6787C13.7206 11.7565 15.3069 10.1558 17.2191 9.03521C19.1313 7.91464 21.3031 7.31308 23.5193 7.29011C25.7355 7.26714 27.9193 7.82357 29.8543 8.90426L32.3856 7.61453L32.7632 7.42184C30.4444 5.73879 27.7053 4.72965 24.8488 4.50594C21.9923 4.28223 19.1296 4.85266 16.577 6.1542C14.0244 7.45573 11.8814 9.43768 10.3848 11.881C8.88821 14.3243 8.09629 17.1339 8.09658 19.9991C8.09658 20.3948 8.1116 20.789 8.14165 21.1816C8.18372 21.7376 8.06041 22.2937 7.78723 22.7797C7.51405 23.2658 7.10321 23.6603 6.60639 23.9134L5.27159 24.594V27.7686L9.20141 25.7656L10.4741 25.1161L11.728 24.4775L34.241 13.0066L36.7707 11.7184L41.9996 9.05344V5.88037L36.8158 8.52511Z" fill="white"/>
<path d="M41.9996 12.2295L13.0069 26.9916L10.4772 28.2828L5.27159 30.9354V34.1069L10.4414 31.473L14.8638 29.2198L36.2408 18.327C36.3131 18.8814 36.3494 19.4399 36.3496 19.999C36.3482 22.2179 35.7665 24.3979 34.6622 26.3225C33.5579 28.2471 31.9694 29.8494 30.0545 30.9703C28.1395 32.0912 25.9647 32.6918 23.7459 32.7124C21.527 32.7329 19.3414 32.1728 17.406 31.0876L17.2506 31.17L14.5064 32.5685C16.8247 34.2516 19.5632 35.261 22.4193 35.4853C25.2753 35.7095 28.1378 35.1399 30.6904 33.8392C33.2429 32.5386 35.3863 30.5576 36.8835 28.1151C38.3808 25.6727 39.1737 22.8638 39.1746 19.999C39.1746 19.5996 39.1591 19.2003 39.1295 18.8056C39.0875 18.2498 39.2107 17.694 39.4836 17.208C39.7564 16.7219 40.1668 16.3274 40.6632 16.0738L41.9996 15.3932V12.2295Z" fill="white"/>
</svg>
