<svg width="40" height="40" viewBox="0 0 40 40" fill="none" xmlns="http://www.w3.org/2000/svg">
<g clip-path="url(#clip0)">
<path d="M8.33372 3.83301L39.3337 24.9997L31.6671 36.333L0.667053 14.9997L8.33372 3.83301Z" fill="url(#paint0_linear)"/>
<path d="M39.333 25.0004C36.6663 28.8337 27.6663 27.3337 19.1663 21.3337C10.4997 15.5004 5.833 7.66707 8.333 3.83374C10.9997 0.000405788 19.9997 1.50041 28.4997 7.50041C37.1663 13.1671 41.833 21.1671 39.333 25.0004Z" fill="url(#paint1_linear)"/>
<path d="M31.6667 36.1665C29.0001 39.9998 20.0001 38.4998 11.5001 32.4998C3.00005 26.4998 -1.83328 18.8331 0.833388 14.8331C3.50005 10.9998 12.5001 12.4998 21.0001 18.4998C29.5001 24.4998 34.1667 32.3331 31.6667 36.1665Z" fill="url(#paint2_linear)"/>
<path d="M39.3342 25.0003L31.6676 36.3336C29.0009 40.167 20.0009 38.5003 11.5009 32.667C9.83423 31.5003 8.33423 30.3336 6.83423 29.0003C8.0009 28.8336 9.5009 28.167 11.0009 26.5003C13.6676 23.667 15.0009 23.0003 16.1676 23.167C17.3342 23.167 18.6676 24.3336 20.8342 27.167C23.0009 30.0003 26.0009 30.8336 27.8342 29.3336C28.0009 29.167 28.1676 29.167 28.3342 29.0003C29.8342 27.8336 30.3342 27.3336 33.1676 22.0003C33.8342 20.667 36.1676 18.5003 39.3342 19.5003C40.1676 21.667 40.1676 23.5003 39.3342 25.0003Z" fill="#0E0F23"/>
<path fill-rule="evenodd" clip-rule="evenodd" d="M38.1665 24.3333C35.8332 27.6666 27.6665 25.9999 19.8332 20.4999C11.8332 14.9999 7.16651 7.99993 9.49984 4.66659C11.8332 1.33326 19.9998 2.99993 27.8332 8.49993C35.6665 13.9999 40.3332 20.9999 38.1665 24.3333ZM30.8332 19.3333C29.6665 20.9999 25.6665 20.1666 21.6665 17.4999C17.8332 14.8333 15.4998 11.3333 16.6665 9.6666C17.8332 7.99993 21.8332 8.83326 25.8332 11.4999C29.6665 14.1666 31.9998 17.6666 30.8332 19.3333Z" fill="white"/>
<path d="M7.66673 7.66746C7.66673 7.5008 7.50006 7.33413 7.33339 7.5008C7.16673 7.66746 7.00006 7.66746 7.00006 7.83413C7.16673 8.33413 7.33339 8.66746 7.33339 9.0008C7.33339 9.16746 7.50006 9.33413 7.66673 9.16746C7.83339 9.16746 8.00006 9.0008 7.83339 8.83413C7.83339 8.5008 7.83339 8.16746 7.66673 7.66746Z" fill="white"/>
<path d="M8.49982 10.3332C8.49982 10.1666 8.33315 9.9999 8.16648 10.1666C7.99982 10.3332 7.99982 10.3332 7.99982 10.4999C9.83315 14.6666 13.6665 19.1666 18.6665 22.4999C18.8332 22.6666 18.9998 22.4999 19.1665 22.4999C19.3332 22.3332 19.1665 22.1666 19.1665 21.9999C13.9998 18.6666 10.3332 14.3332 8.49982 10.3332Z" fill="white"/>
<path d="M28.6666 26.6667C28.4999 26.6667 28.3333 26.6667 28.3333 26.8334C28.3333 27.0001 28.3333 27.1667 28.4999 27.1667C28.9999 27.3334 29.6666 27.5001 30.1666 27.6667C30.3333 27.6667 30.4999 27.6667 30.4999 27.5001C30.4999 27.3334 30.4999 27.1667 30.3333 27.1667C29.8333 27.0001 29.1666 26.8334 28.6666 26.6667Z" fill="white"/>
<path d="M31.6663 27.3341C31.4997 27.3341 31.333 27.5008 31.333 27.6674C31.333 27.8341 31.4997 28.0008 31.6663 28.0008C32.9997 28.1674 34.4997 28.3341 35.6663 28.1674C35.833 28.1674 35.9997 28.0008 35.9997 27.8341C35.9997 27.6674 35.833 27.5008 35.6663 27.5008C34.333 27.6674 32.9997 27.5008 31.6663 27.3341Z" fill="white"/>
</g>
<defs>
<linearGradient id="paint0_linear" x1="14.4074" y1="0.823508" x2="20.5551" y2="21.9338" gradientUnits="userSpaceOnUse">
<stop stop-color="#03B8FF"/>
<stop offset="1" stop-color="#FA52A0"/>
</linearGradient>
<linearGradient id="paint1_linear" x1="19.4693" y1="-0.650261" x2="25.6172" y2="20.4602" gradientUnits="userSpaceOnUse">
<stop stop-color="#03B8FF"/>
<stop offset="1" stop-color="#FA52A0"/>
</linearGradient>
<linearGradient id="paint2_linear" x1="9.36005" y1="2.29329" x2="15.5079" y2="23.4038" gradientUnits="userSpaceOnUse">
<stop stop-color="#03B8FF"/>
<stop offset="1" stop-color="#FA52A0"/>
</linearGradient>
<clipPath id="clip0">
<rect width="40" height="40" fill="white"/>
</clipPath>
</defs>
</svg>
