<svg width="40" height="40" viewBox="0 0 40 40" fill="none" xmlns="http://www.w3.org/2000/svg">
<path d="M20 40C31.0457 40 40 31.0457 40 20C40 8.9543 31.0457 0 20 0C8.9543 0 0 8.9543 0 20C0 31.0457 8.9543 40 20 40Z" fill="#6747ED"/>
<path fill-rule="evenodd" clip-rule="evenodd" d="M19.7086 22.5832C16.7502 22.5832 14.3752 20.2082 14.3752 17.2499C14.3752 14.2915 16.7502 11.9165 19.7086 11.9165C22.6669 11.9165 25.0419 14.2915 25.0419 17.2499C25.0419 20.2082 22.6669 22.5832 19.7086 22.5832ZM19.7086 9.24988C24.1252 9.24988 27.7086 12.8332 27.7086 17.2499C27.7086 21.6665 24.1252 25.2499 19.7086 25.2499C15.2919 25.2499 11.7086 21.6665 11.7086 17.2499C11.7086 12.8332 15.2919 9.24988 19.7086 9.24988ZM27.3336 25.6665C27.8752 26.2082 27.8752 27.0415 27.3336 27.5415L22.0002 32.8749C21.4586 33.4165 20.6252 33.4165 20.1252 32.8749C19.5836 32.3332 19.5836 31.4999 20.1252 30.9999L25.4586 25.6665C25.9586 25.1249 26.8336 25.1249 27.3336 25.6665ZM30.4169 10.5832C30.4169 11.3332 29.8336 11.9165 29.0836 11.9165C28.3336 11.9165 27.7502 11.3332 27.7502 10.5832C27.7502 9.83321 28.3336 9.24988 29.0836 9.24988C29.7919 9.24988 30.4169 9.83321 30.4169 10.5832Z" fill="white"/>
</svg>
