<svg width="40" height="40" viewBox="0 0 40 40" fill="none" xmlns="http://www.w3.org/2000/svg">
<g clip-path="url(#clip0)">
<path d="M38.4684 12.05C36.5934 10.3188 33.9997 7.67504 31.8872 5.80004L31.7622 5.71254C31.5542 5.54553 31.3197 5.41455 31.0684 5.32504C25.9747 4.37504 2.26844 -0.0562075 1.80594 4.25098e-05C1.67635 0.0181925 1.55248 0.0651791 1.44344 0.137543L1.32469 0.231293C1.17847 0.379793 1.06741 0.559195 0.999695 0.756293L0.968445 0.837543V1.28129V1.35004C3.63719 8.78129 14.1747 33.125 16.2497 38.8375C16.3747 39.225 16.6122 39.9625 17.0559 40H17.1559C17.3934 40 18.4059 38.6625 18.4059 38.6625C18.4059 38.6625 36.5059 16.7125 38.3372 14.375C38.5742 14.0871 38.7835 13.7774 38.9622 13.45C39.0078 13.1939 38.9863 12.9303 38.8998 12.685C38.8132 12.4396 38.6646 12.2209 38.4684 12.05ZM23.0497 14.6063L30.7747 8.20004L35.3059 12.375L23.0497 14.6063ZM20.0497 14.1875L6.74969 3.28754L28.2684 7.25629L20.0497 14.1875ZM21.2497 17.0438L34.8622 14.85L19.2997 33.6L21.2497 17.0438ZM4.94344 4.37504L18.9372 16.25L16.9122 33.6125L4.94344 4.37504Z" fill="#FF060A"/>
</g>
<defs>
<clipPath id="clip0">
<rect width="40" height="40" fill="white"/>
</clipPath>
</defs>
</svg>
