<svg width="21" height="24" viewBox="0 0 21 24" fill="none" xmlns="http://www.w3.org/2000/svg">
<g clip-path="url(#clip0)">
<path d="M8.17297 5.46124C7.91291 5.42409 7.90053 5.4117 8.02437 5.39932C8.25966 5.36217 8.80455 5.41171 9.18845 5.49839C10.0801 5.70892 10.885 6.25381 11.7395 7.20737L11.9624 7.46743L12.2844 7.4179C13.659 7.19499 15.0708 7.36836 16.2473 7.91325C16.5693 8.06186 17.077 8.35907 17.1389 8.43338C17.1637 8.45814 17.2008 8.61913 17.2256 8.78012C17.3123 9.36217 17.2751 9.7956 17.0894 10.13C16.9903 10.3157 16.9903 10.3653 17.0522 10.5263C17.1018 10.6501 17.2504 10.7368 17.3866 10.7368C17.6838 10.7368 17.9934 10.2662 18.142 9.60985L18.2039 9.34978L18.3154 9.47362C18.947 10.1795 19.4423 11.1578 19.5166 11.8513L19.5414 12.0371L19.4299 11.8761C19.2442 11.5913 19.0708 11.4055 18.8355 11.2445C18.4145 10.9597 17.9686 10.873 16.7922 10.8111C15.7272 10.7492 15.1203 10.6625 14.5259 10.4643C13.5104 10.13 12.9903 9.69653 11.7891 8.09901C11.2566 7.39313 10.9222 7.00923 10.5878 6.68725C9.85718 5.98136 9.12653 5.60985 8.17297 5.46124Z" fill="#FF007A"/>
<path d="M17.3991 7.03384C17.4239 6.56325 17.4858 6.25366 17.622 5.96883C17.6716 5.85737 17.7211 5.7583 17.7335 5.7583C17.7459 5.7583 17.7211 5.84499 17.6839 5.94406C17.5849 6.2165 17.5725 6.60041 17.6344 7.03384C17.7211 7.59112 17.7582 7.66542 18.3527 8.27223C18.6251 8.55706 18.9471 8.91619 19.0709 9.0648L19.2815 9.33725L19.0709 9.1391C18.8109 8.89143 18.2164 8.42084 18.0802 8.35892C17.9935 8.30938 17.9812 8.30938 17.9192 8.3713C17.8697 8.42084 17.8573 8.49514 17.8573 8.85427C17.8449 9.41155 17.7706 9.7583 17.5849 10.1174C17.4858 10.3032 17.4734 10.266 17.5601 10.0555C17.622 9.89452 17.6344 9.82022 17.6344 9.28771C17.6344 8.21031 17.5106 7.95025 16.7551 7.51681C16.5694 7.40536 16.2474 7.24437 16.0616 7.15768C15.8635 7.07099 15.7149 6.99669 15.7273 6.99669C15.7521 6.97192 16.4827 7.18245 16.7675 7.30629C17.201 7.47966 17.2753 7.49205 17.3248 7.47966C17.362 7.44251 17.3867 7.34344 17.3991 7.03384Z" fill="#FF007A"/>
<path d="M8.68112 8.87914C8.16099 8.16088 7.82663 7.04633 7.90093 6.2166L7.9257 5.95654L8.04954 5.98131C8.27245 6.01846 8.65635 6.16707 8.84211 6.27852C9.33746 6.57574 9.56037 6.98441 9.7709 7.99989C9.83282 8.2971 9.91951 8.64385 9.95666 8.7553C10.0186 8.94106 10.2539 9.3745 10.452 9.64694C10.5882 9.84509 10.5016 9.94416 10.192 9.91939C9.72137 9.86985 9.08979 9.43642 8.68112 8.87914Z" fill="#FF007A"/>
<path d="M16.7681 14.2659C14.3161 13.2752 13.4492 12.4207 13.4492 10.9718C13.4492 10.7613 13.4616 10.5879 13.4616 10.5879C13.474 10.5879 13.5607 10.6622 13.6721 10.7489C14.1675 11.1452 14.7248 11.3185 16.2727 11.5415C17.1768 11.6777 17.6969 11.7767 18.1675 11.9377C19.6659 12.4331 20.5947 13.4486 20.8176 14.8232C20.8796 15.2195 20.8424 15.9749 20.7433 16.3712C20.6567 16.6808 20.409 17.2504 20.3471 17.2628C20.3347 17.2628 20.3099 17.2009 20.3099 17.1018C20.2851 16.5817 20.0251 16.0863 19.5916 15.7024C19.0715 15.2566 18.4028 14.9223 16.7681 14.2659Z" fill="#FF007A"/>
<path d="M15.0341 14.6751C15.0093 14.4894 14.9474 14.2541 14.9102 14.155L14.8483 13.9692L14.9598 14.1055C15.1208 14.2912 15.2446 14.5141 15.3561 14.8237C15.4427 15.059 15.4427 15.1333 15.4427 15.5172C15.4427 15.8887 15.4304 15.9754 15.3561 16.186C15.2322 16.5203 15.0836 16.7556 14.8359 17.0157C14.3901 17.4739 13.8081 17.7216 12.9783 17.833C12.8297 17.8454 12.4087 17.8826 12.0372 17.9073C11.1084 17.9569 10.4892 18.0559 9.93191 18.2541C9.8576 18.2788 9.7833 18.3036 9.77092 18.2912C9.74615 18.2664 10.13 18.0435 10.4396 17.8949C10.8731 17.6844 11.3189 17.573 12.2972 17.3996C12.7802 17.3253 13.2756 17.2262 13.3994 17.1767C14.6254 16.7928 15.2322 15.8392 15.0341 14.6751Z" fill="#FF007A"/>
<path d="M16.1613 16.6686C15.8394 15.9627 15.7651 15.294 15.9384 14.6624C15.9632 14.6005 15.988 14.5386 16.0127 14.5386C16.0375 14.5386 16.1118 14.5757 16.1861 14.6253C16.3347 14.7243 16.6443 14.8977 17.4369 15.3311C18.44 15.876 19.0096 16.2971 19.4059 16.7801C19.7527 17.2011 19.9632 17.6841 20.0623 18.2785C20.1242 18.6129 20.087 19.4178 20.0004 19.7522C19.7279 20.8048 19.1087 21.6469 18.2047 22.1299C18.0685 22.2042 17.957 22.2537 17.9446 22.2537C17.9322 22.2537 17.9818 22.1299 18.0561 21.9813C18.3533 21.3497 18.3904 20.7429 18.1675 20.0618C18.0313 19.6407 17.7465 19.133 17.1768 18.2785C16.4957 17.2878 16.3347 17.0277 16.1613 16.6686Z" fill="#FF007A"/>
<path d="M6.93487 20.4582C7.85127 19.6904 8.97821 19.1455 10.0185 18.9722C10.4643 18.8979 11.2073 18.9226 11.616 19.0341C12.2723 19.2075 12.8668 19.579 13.1764 20.0372C13.4736 20.483 13.6098 20.8669 13.746 21.7214C13.7955 22.0558 13.8575 22.4025 13.8698 22.4768C13.9689 22.9226 14.1671 23.2694 14.4147 23.4551C14.7986 23.74 15.4674 23.7523 16.1237 23.5047C16.2352 23.4675 16.3342 23.4304 16.3342 23.4427C16.359 23.4675 16.0246 23.6904 15.8017 23.8019C15.4921 23.9629 15.2445 24.0124 14.9101 24.0124C14.3157 24.0124 13.8079 23.7028 13.3993 23.0836C13.3126 22.9598 13.1392 22.6006 12.9906 22.2663C12.5572 21.2632 12.3342 20.966 11.8265 20.6316C11.3807 20.3468 10.811 20.2849 10.3776 20.4954C9.80793 20.7678 9.65932 21.4985 10.0556 21.9443C10.2166 22.1301 10.5138 22.2787 10.7615 22.3158C11.2197 22.3777 11.616 22.0186 11.616 21.5604C11.616 21.2632 11.5045 21.0898 11.2073 20.9536C10.811 20.7802 10.3776 20.9784 10.39 21.3623C10.39 21.5232 10.4643 21.6223 10.6253 21.6966C10.7243 21.7462 10.7243 21.7462 10.65 21.7338C10.2909 21.6595 10.2042 21.2136 10.489 20.9288C10.8358 20.5821 11.5664 20.7307 11.8141 21.2136C11.9132 21.4118 11.9256 21.8081 11.8389 22.0558C11.6284 22.6006 11.0339 22.8855 10.4271 22.7245C10.0185 22.613 9.84508 22.5016 9.34973 21.9938C8.48285 21.1022 8.14849 20.9288 6.9101 20.7431L6.6748 20.7059L6.93487 20.4582Z" fill="#FF007A"/>
<path fill-rule="evenodd" clip-rule="evenodd" d="M0.420383 0.532508C3.30583 4.03715 7.75165 9.48607 7.97456 9.78328C8.16032 10.031 8.08602 10.2663 7.77642 10.4396C7.60304 10.5387 7.24391 10.6378 7.07054 10.6378C6.87239 10.6378 6.6371 10.5387 6.47611 10.3777C6.36465 10.2663 5.88168 9.56037 4.7919 7.86378C3.96218 6.56347 3.2563 5.48607 3.24391 5.47368C3.19438 5.44892 3.19438 5.44892 4.70521 8.14861C5.65877 9.8452 5.96837 10.452 5.96837 10.5263C5.96837 10.6873 5.91883 10.774 5.72069 10.9969C5.38633 11.3684 5.23772 11.7895 5.12626 12.6687C5.00243 13.6471 4.66806 14.3406 3.7145 15.517C3.15722 16.2105 3.07054 16.3344 2.93431 16.6192C2.76094 16.9659 2.7114 17.1641 2.68664 17.6099C2.66187 18.0805 2.7114 18.3777 2.84763 18.8235C2.97147 19.2198 3.10769 19.4799 3.44205 19.9876C3.72688 20.4334 3.90026 20.7678 3.90026 20.8916C3.90026 20.9907 3.92503 20.9907 4.37085 20.8916C5.43586 20.644 6.31512 20.2229 6.79809 19.7028C7.0953 19.3808 7.16961 19.2074 7.16961 18.7616C7.16961 18.4768 7.15722 18.4149 7.08292 18.2415C6.95908 17.969 6.72379 17.7461 6.21605 17.3994C5.54732 16.9412 5.26249 16.5697 5.18818 16.0743C5.12626 15.6533 5.20057 15.3684 5.57208 14.5882C5.95599 13.7833 6.05506 13.4489 6.11698 12.6316C6.15413 12.1115 6.21605 11.9009 6.36465 11.7399C6.52565 11.5666 6.66187 11.5046 7.04577 11.4551C7.67735 11.3684 8.08602 11.2074 8.408 10.8978C8.69283 10.6378 8.81667 10.3777 8.82905 9.99381L8.84143 9.70898L8.68044 9.5356C8.0984 8.86687 0.0364818 0 -0.000669861 0C-0.0130538 0 0.185089 0.235294 0.420383 0.532508ZM4.22224 18.1424C4.35846 17.9071 4.28416 17.6099 4.06125 17.4613C3.85072 17.3251 3.52874 17.387 3.52874 17.5728C3.52874 17.6223 3.55351 17.6718 3.62781 17.6966C3.73927 17.7585 3.75165 17.8204 3.66496 17.9567C3.57828 18.0929 3.57828 18.2167 3.68973 18.3034C3.86311 18.4396 4.0984 18.3653 4.22224 18.1424Z" fill="#FF007A"/>
<path fill-rule="evenodd" clip-rule="evenodd" d="M9.23792 11.6284C8.94071 11.7151 8.65588 12.0371 8.56919 12.3591C8.51966 12.5572 8.54442 12.9163 8.63111 13.0278C8.76733 13.2012 8.89117 13.2507 9.23792 13.2507C9.91904 13.2507 10.5011 12.9535 10.563 12.5944C10.6249 12.2971 10.3649 11.8885 10.0057 11.7027C9.81997 11.6036 9.43606 11.5665 9.23792 11.6284ZM10.0305 12.2476C10.1296 12.099 10.0924 11.938 9.90665 11.8266C9.57229 11.616 9.06455 11.7894 9.06455 12.1114C9.06455 12.2724 9.32461 12.4458 9.57229 12.4458C9.73328 12.4458 9.95619 12.3467 10.0305 12.2476Z" fill="#FF007A"/>
</g>
<defs>
<clipPath id="clip0">
<rect width="20.8421" height="24" fill="white"/>
</clipPath>
</defs>
</svg>
