<svg width="35" height="40" viewBox="0 0 35 40" fill="none" xmlns="http://www.w3.org/2000/svg">
<g clip-path="url(#clip0)">
<path d="M13.6217 9.10203C13.1882 9.04011 13.1676 9.01947 13.374 8.99883C13.7661 8.93691 14.6743 9.01947 15.3141 9.16395C16.8002 9.51482 18.1418 10.423 19.5659 12.0122L19.9374 12.4457L20.4741 12.3631C22.7651 11.9916 25.118 12.2806 27.0788 13.1887C27.6155 13.4364 28.4617 13.9317 28.5649 14.0556C28.6062 14.0969 28.6681 14.3652 28.7094 14.6335C28.8539 15.6036 28.7919 16.326 28.4823 16.8832C28.3172 17.1928 28.3172 17.2754 28.4204 17.5437C28.503 17.7501 28.7506 17.8946 28.9777 17.8946C29.473 17.8946 29.989 17.1103 30.2367 16.0164L30.3399 15.5829L30.5257 15.7893C31.5783 16.9658 32.4039 18.5963 32.5277 19.7522L32.569 20.0618L32.3833 19.7935C32.0737 19.3187 31.7847 19.0091 31.3926 18.7408C30.6908 18.2661 29.9478 18.1216 27.987 18.0184C26.212 17.9152 25.2006 17.7708 24.2099 17.4405C22.5174 16.8832 21.6505 16.1608 19.6485 13.4983C18.761 12.3218 18.2037 11.682 17.6464 11.1454C16.4287 9.9689 15.2109 9.3497 13.6217 9.10203Z" fill="#FF007A"/>
<path d="M28.9985 11.7232C29.0398 10.9389 29.143 10.4229 29.3701 9.94817C29.4526 9.76241 29.5352 9.59729 29.5558 9.59729C29.5765 9.59729 29.5352 9.74177 29.4733 9.90689C29.3081 10.361 29.2875 11.0008 29.3907 11.7232C29.5352 12.652 29.5971 12.7758 30.5878 13.7872C31.0419 14.2619 31.5785 14.8604 31.7849 15.1081L32.1358 15.5622L31.7849 15.232C31.3515 14.8192 30.3608 14.0349 30.1337 13.9317C29.9893 13.8491 29.9686 13.8491 29.8654 13.9523C29.7829 14.0349 29.7622 14.1587 29.7622 14.7572C29.7416 15.686 29.6177 16.264 29.3081 16.8625C29.143 17.1721 29.1224 17.1102 29.2669 16.7593C29.3701 16.491 29.3907 16.3672 29.3907 15.4796C29.3907 13.684 29.1843 13.2505 27.9253 12.5281C27.6157 12.3424 27.079 12.0741 26.7694 11.9296C26.4392 11.7851 26.1915 11.6613 26.2122 11.6613C26.2534 11.62 27.4712 11.9709 27.9459 12.1773C28.6683 12.4662 28.7921 12.4869 28.8747 12.4662C28.9366 12.4043 28.9779 12.2392 28.9985 11.7232Z" fill="#FF007A"/>
<path d="M14.4685 14.7985C13.6016 13.6014 13.0443 11.7438 13.1681 10.3609L13.2094 9.92749L13.4158 9.96877C13.7873 10.0307 14.4272 10.2784 14.7368 10.4641C15.5624 10.9595 15.9339 11.6406 16.2848 13.3331C16.388 13.8284 16.5324 14.4063 16.5944 14.5921C16.6976 14.9017 17.0897 15.6241 17.42 16.0782C17.647 16.4084 17.5025 16.5735 16.9865 16.5322C16.2022 16.4497 15.1496 15.7273 14.4685 14.7985Z" fill="#FF007A"/>
<path d="M27.9466 23.7766C23.8599 22.1255 22.4151 20.7013 22.4151 18.2864C22.4151 17.9356 22.4358 17.6466 22.4358 17.6466C22.4564 17.6466 22.6009 17.7704 22.7866 17.9149C23.6122 18.5754 24.541 18.8644 27.121 19.2359C28.6277 19.4629 29.4946 19.628 30.2789 19.8963C32.7763 20.7219 34.3243 22.4144 34.6958 24.7054C34.799 25.3659 34.7371 26.6249 34.572 27.2854C34.4275 27.8014 34.0147 28.7508 33.9115 28.7715C33.8909 28.7715 33.8496 28.6683 33.8496 28.5032C33.8083 27.6363 33.3749 26.8107 32.6525 26.1709C31.7856 25.4278 30.6711 24.8705 27.9466 23.7766Z" fill="#FF007A"/>
<path d="M25.0567 24.4585C25.0154 24.1489 24.9122 23.7567 24.8503 23.5916L24.7471 23.282L24.9329 23.509C25.2012 23.8186 25.4076 24.1901 25.5933 24.7061C25.7378 25.0983 25.7378 25.2221 25.7378 25.862C25.7378 26.4812 25.7172 26.6256 25.5933 26.9765C25.3869 27.5338 25.1393 27.9259 24.7265 28.3594C23.9834 29.1231 23.0134 29.5359 21.6305 29.7216C21.3828 29.7423 20.681 29.8042 20.0619 29.8455C18.5139 29.928 17.4819 30.0931 16.5531 30.4234C16.4292 30.4646 16.3054 30.5059 16.2848 30.4853C16.2435 30.444 16.8833 30.0725 17.3993 29.8248C18.1217 29.4739 18.8647 29.2882 20.4953 28.9992C21.3002 28.8754 22.1258 28.7103 22.3322 28.6277C24.3756 27.9879 25.3869 26.3986 25.0567 24.4585Z" fill="#FF007A"/>
<path d="M26.9357 27.7811C26.3991 26.6047 26.2752 25.4901 26.5642 24.4375C26.6055 24.3343 26.6467 24.2311 26.688 24.2311C26.7293 24.2311 26.8531 24.293 26.977 24.3756C27.2247 24.5407 27.7406 24.8296 29.0616 25.552C30.7334 26.4602 31.6829 27.1619 32.3433 27.9669C32.9212 28.6686 33.2721 29.4736 33.4372 30.4643C33.5404 31.0216 33.4785 32.3632 33.334 32.9204C32.88 34.6748 31.848 36.0783 30.3413 36.8833C30.1142 37.0071 29.9285 37.0897 29.9078 37.0897C29.8872 37.0897 29.9698 36.8833 30.0936 36.6356C30.5889 35.583 30.6509 34.5716 30.2793 33.4364C30.0523 32.7347 29.5776 31.8885 28.6282 30.4643C27.493 28.8131 27.2247 28.3797 26.9357 27.7811Z" fill="#FF007A"/>
<path d="M11.5581 34.0971C13.0854 32.8175 14.9636 31.9093 16.6974 31.6203C17.4404 31.4965 18.6788 31.5378 19.3599 31.7235C20.4538 32.0125 21.4445 32.6317 21.9605 33.3954C22.4559 34.1384 22.6829 34.7782 22.91 36.2024C22.9925 36.7597 23.0957 37.3376 23.1164 37.4614C23.2815 38.2045 23.6117 38.7824 24.0245 39.092C24.6644 39.5667 25.7789 39.5873 26.8728 39.1745C27.0586 39.1126 27.2237 39.0507 27.2237 39.0713C27.265 39.1126 26.7077 39.4841 26.3362 39.6699C25.8202 39.9382 25.4074 40.0208 24.8501 40.0208C23.8594 40.0208 23.0132 39.5048 22.3321 38.4728C22.1876 38.2664 21.8986 37.6678 21.6509 37.1105C20.9286 35.4387 20.557 34.9434 19.7108 34.3861C18.9678 33.9114 18.0183 33.8082 17.2959 34.159C16.3465 34.6131 16.0988 35.8309 16.7593 36.5739C17.0276 36.8835 17.523 37.1312 17.9358 37.1931C18.6995 37.2963 19.3599 36.6977 19.3599 35.9341C19.3599 35.4387 19.1742 35.1498 18.6788 34.9227C18.0183 34.6338 17.2959 34.964 17.3166 35.6038C17.3166 35.8722 17.4404 36.0373 17.7087 36.1611C17.8739 36.2437 17.8739 36.2437 17.75 36.223C17.1515 36.0992 17.007 35.3562 17.4817 34.8814C18.0596 34.3035 19.2774 34.5512 19.6902 35.3562C19.8553 35.6864 19.8759 36.3469 19.7314 36.7597C19.3806 37.6678 18.3899 38.1425 17.3785 37.8742C16.6974 37.6885 16.4084 37.5027 15.5828 36.6565C14.138 35.1704 13.5808 34.8814 11.5168 34.5718L11.1246 34.5099L11.5581 34.0971Z" fill="#FF007A"/>
<path fill-rule="evenodd" clip-rule="evenodd" d="M0.701543 0.887513C5.51062 6.72859 12.9203 15.8101 13.2918 16.3055C13.6014 16.7183 13.4776 17.1104 12.9616 17.3994C12.6726 17.5645 12.0741 17.7296 11.7851 17.7296C11.4549 17.7296 11.0627 17.5645 10.7944 17.2962C10.6087 17.1104 9.80371 15.934 7.9874 13.1063C6.60454 10.9391 5.42807 9.14345 5.40743 9.12281C5.32487 9.08153 5.32487 9.08153 7.84293 13.581C9.43219 16.4087 9.94819 17.42 9.94819 17.5439C9.94819 17.8122 9.86563 17.9567 9.53539 18.3282C8.97812 18.9474 8.73044 19.6491 8.54468 21.1146C8.33828 22.7451 7.78101 23.9009 6.19174 25.8617C5.26295 27.0175 5.11847 27.2239 4.89143 27.6987C4.60247 28.2766 4.51991 28.6068 4.47863 29.3498C4.43735 30.1342 4.51991 30.6295 4.74695 31.3725C4.95335 32.033 5.18039 32.4665 5.73766 33.3127C6.21238 34.0557 6.50134 34.613 6.50134 34.8194C6.50134 34.9845 6.54262 34.9845 7.28565 34.8194C9.06068 34.4066 10.5261 33.7049 11.3311 32.838C11.8264 32.3013 11.9503 32.0124 11.9503 31.2694C11.9503 30.7946 11.9296 30.6914 11.8058 30.4025C11.5994 29.9484 11.2072 29.5769 10.361 28.999C9.24643 28.2353 8.77172 27.6161 8.64788 26.7905C8.54468 26.0888 8.66852 25.614 9.28771 24.3137C9.92755 22.9721 10.0927 22.4149 10.1959 21.0526C10.2578 20.1858 10.361 19.8349 10.6087 19.5666C10.877 19.2776 11.104 19.1744 11.7439 19.0918C12.7965 18.9474 13.4776 18.6791 14.0142 18.1631C14.489 17.7296 14.6954 17.2962 14.716 16.6563L14.7366 16.1816L14.4683 15.8927C13.4982 14.7781 0.0617084 0 -0.000211081 0C-0.0208509 0 0.309386 0.392157 0.701543 0.887513ZM7.03797 30.2374C7.26501 29.8452 7.14117 29.3498 6.76965 29.1022C6.41878 28.8751 5.88214 28.9783 5.88214 29.2879C5.88214 29.3705 5.92342 29.453 6.04726 29.4943C6.23302 29.5975 6.25366 29.7007 6.10918 29.9278C5.9647 30.1548 5.9647 30.3612 6.15046 30.5057C6.43942 30.7327 6.83157 30.6089 7.03797 30.2374Z" fill="#FF007A"/>
<path fill-rule="evenodd" clip-rule="evenodd" d="M15.3966 19.3807C14.9013 19.5251 14.4266 20.0618 14.2821 20.5984C14.1995 20.9286 14.2408 21.5272 14.3853 21.713C14.6123 22.0019 14.8187 22.0845 15.3966 22.0845C16.5318 22.0845 17.5019 21.5891 17.6051 20.9906C17.7083 20.4952 17.2749 19.8141 16.6763 19.5045C16.3667 19.3394 15.7269 19.2775 15.3966 19.3807ZM16.7176 20.4126C16.8827 20.165 16.8208 19.8966 16.5112 19.7109C15.9539 19.36 15.1077 19.649 15.1077 20.1856C15.1077 20.4539 15.5411 20.7429 15.9539 20.7429C16.2222 20.7429 16.5938 20.5778 16.7176 20.4126Z" fill="#FF007A"/>
</g>
<defs>
<clipPath id="clip0">
<rect width="34.7368" height="40" fill="white"/>
</clipPath>
</defs>
</svg>
