<svg width="40" height="40" viewBox="0 0 40 40" fill="none" xmlns="http://www.w3.org/2000/svg">
<path fill-rule="evenodd" clip-rule="evenodd" d="M20 0C31.044 0 40 8.956 40 20C40 31.044 31.044 40 20 40C8.956 40 0 31.044 0 20C0 8.956 8.956 0 20 0Z" fill="#006AE3"/>
<path d="M19.1756 28.4322V11.7922H20.9877V28.4322H19.1756Z" fill="white"/>
<path d="M28.3994 17.336L22.8034 18.82L21.5554 13.012L23.2194 12.636L23.8754 15.388C23.8754 15.388 25.3874 12.908 23.3714 10.34C22.1834 9.02004 21.6194 8.96404 20.2874 8.75603C19.1154 8.58803 16.3914 8.98404 15.5794 12.164C15.2354 14.212 15.6234 15.728 18.2634 17.712L18.1154 19.92C18.1154 19.92 15.1674 17.844 14.4074 16.388C13.8194 15.236 12.8114 12.96 14.6314 9.79204C15.6114 8.20804 17.5434 6.68804 20.9474 6.84804C22.6594 6.92004 26.8394 9.01204 26.1914 13.9C26.0794 14.816 25.6034 16.036 25.6034 16.036L27.8994 15.524L28.3994 17.336Z" fill="white"/>
<path d="M25.204 30.3561C24.18 31.9121 22.208 33.3801 18.812 33.1321C17.1 33.0161 12.98 30.8121 13.756 25.9441C13.892 25.0321 14.4 23.8281 14.4 23.8281L12.092 24.2761L11.64 22.4561L17.276 21.1201L18.372 26.9601L16.696 27.2921L16.112 24.5201C16.112 24.5201 14.536 26.9561 16.48 29.5801C17.632 30.9321 18.192 31.0001 19.524 31.2441C20.688 31.4441 23.424 31.1161 24.32 27.9601C24.716 25.9241 24.368 24.3961 21.784 22.3401L21.992 20.1361C21.992 20.1361 24.884 22.2881 25.604 23.7641C26.156 24.9361 27.104 27.2401 25.204 30.3561Z" fill="white"/>
</svg>
