<svg width="16" height="17" viewBox="0 0 16 17" fill="none" xmlns="http://www.w3.org/2000/svg">
<path d="M12.658 11.049C13.2582 11.049 13.5587 10.3013 13.1344 9.86408L11.0481 7.71449C9.61108 6.23377 8.89255 5.49341 7.99967 5.49341C7.10679 5.49341 6.38826 6.23377 4.9512 7.71449L2.86499 9.86408C2.44063 10.3013 2.74118 11.049 3.34131 11.049C3.51997 11.049 3.69131 10.9758 3.81764 10.8457L5.90385 8.69608C6.64931 7.92797 7.11459 7.45272 7.49672 7.15231C7.84161 6.88117 7.96202 6.88149 7.99784 6.88158L7.99967 6.88158L8.0015 6.88158C8.03732 6.88149 8.15773 6.88117 8.50262 7.15231C8.88475 7.45272 9.35003 7.92797 10.0955 8.69608L12.1817 10.8457C12.308 10.9758 12.4794 11.049 12.658 11.049Z" fill="#969FA8"/>
</svg>
