<svg width="16" height="17" viewBox="0 0 16 17" fill="none" xmlns="http://www.w3.org/2000/svg">
<path d="M3.34197 5.27123C2.74183 5.27123 2.44128 6.01886 2.86564 6.45611L4.95186 8.6057C6.38892 10.0864 7.10745 10.8268 8.00033 10.8268C8.89321 10.8268 9.61174 10.0864 11.0488 8.6057L13.135 6.45611C13.5594 6.01886 13.2588 5.27123 12.6587 5.27123C12.48 5.27123 12.3087 5.34435 12.1824 5.47452L10.0962 7.62411C9.35069 8.39222 8.88541 8.86747 8.50328 9.16788C8.15839 9.43902 8.03798 9.4387 8.00216 9.43861L8.00033 9.43861L7.9985 9.43861C7.96268 9.4387 7.84227 9.43902 7.49738 9.16788C7.11525 8.86747 6.64997 8.39222 5.90451 7.62411L3.81829 5.47452C3.69196 5.34435 3.52062 5.27123 3.34197 5.27123Z" fill="#969FA8"/>
</svg>
