<svg width="40" height="40" viewBox="0 0 40 40" fill="none" xmlns="http://www.w3.org/2000/svg">
<path d="M13.7854 17.4467L19.9999 11.2325L26.2176 17.45L29.8336 13.834L19.9999 4L10.1694 13.8307L13.7854 17.4467Z" fill="currentColor"/>
<path d="M11.2321 19.9995L7.61621 16.3835L4.00011 19.9996L7.61603 23.6156L11.2321 19.9995Z" fill="currentColor"/>
<path d="M13.7854 22.5533L19.9998 28.7675L26.2173 22.5503L29.8353 26.1643L29.8335 26.1663L19.9998 36L10.1691 26.1696L10.1641 26.1645L13.7854 22.5533Z" fill="currentColor"/>
<path d="M32.3844 23.6173L36.0005 20.0012L32.3846 16.3853L28.7685 20.0014L32.3844 23.6173Z" fill="currentColor"/>
<path d="M23.668 19.9982H23.6695L20.0002 16.3289L17.2885 19.0405H17.2883L16.9769 19.3522L16.3342 19.9949L16.3291 19.9999L16.3342 20.0053L20.0002 23.6713L23.6695 20.002L23.6713 19.9999L23.668 19.9982Z" fill="currentColor"/>
</svg>
