<svg width="32" height="32" viewBox="0 0 40 40" fill="none" xmlns="http://www.w3.org/2000/svg">
<path d="M22.3061 20.2396C22.3061 25.8948 17.7604 30.4795 12.1529 30.4795C6.54534 30.4795 2 25.8962 2 20.2396C2 14.583 6.54568 10 12.1529 10C17.7601 10 22.3061 14.5843 22.3061 20.2396Z" fill="currentColor"/>
<path d="M33.4444 20.2397C33.4444 25.5635 31.1714 29.8788 28.3678 29.8788C25.5642 29.8788 23.2912 25.5621 23.2912 20.2397C23.2912 14.9174 25.5642 10.6007 28.3678 10.6007C31.1714 10.6007 33.4444 14.9174 33.4444 20.2397Z" fill="currentColor"/>
<path d="M38 20.2398C38 25.0095 37.2005 28.8759 36.2145 28.8759C35.2285 28.8759 34.4289 25.0082 34.4289 20.2398C34.4289 15.4714 35.2285 11.6036 36.2148 11.6036C37.2012 11.6036 38 15.4703 38 20.2398Z" fill="currentColor"/>
</svg>
