<svg xmlns="http://www.w3.org/2000/svg" fill="none" width="20" height="20" viewBox="0 0 20 20">
  <path fill="currentColor" d="M8.994.417L.417 8.994a1.422 1.422 0 000 2.012l8.577 8.577a1.422 1.422 0 002.012 0l8.577-8.577a1.422 1.422 0 000-2.012L11.006.417a1.422 1.422 0 00-2.012 0z"/>
  <path fill="var(--burger)" d="M10.126 5.74c.466.037 1.116.058 1.757.15.805.115 1.587.34 2.257.837.476.355.843.804.971 1.406.072.337.133.679.19 1.02.029.169-.053.261-.226.233a55.324 55.324 0 01-1.523-.264.37.37 0 01-.205-.14c-.164-.227-.436-.308-.646-.137-.209.17-.417.157-.66.15-1.12-.034-2.242-.048-3.364-.066-.205 0-.374.026-.513-.22-.177-.314-.742-.268-.923.05a.527.527 0 01-.455.289c-.484.048-.966.122-1.448.186-.03 0-.058.007-.088.009-.378.025-.443-.04-.417-.42.05-.76.325-1.428.884-1.95.362-.337.82-.543 1.289-.704.947-.322 1.94-.371 3.12-.43zm-1.094.78c.167-.119.355-.184.41-.308.056-.123-.123-.141-.227-.142-.155 0-.33 0-.35.205-.008.063.088.132.167.245zm1.889-.523l-.33.205c.122.078.253.138.392.179.065.01.153-.112.231-.175l-.293-.21zm-3.797.865l.418-.336c-.062-.046-.12-.124-.187-.131-.182-.022-.418.12-.398.228.01.061.08.118.165.234l.002.005zM9.81 6.75c.102-.014.155-.006.183-.03.08-.072.156-.15.228-.23a2.718 2.718 0 00-.28-.096.167.167 0 00-.125.026c-.072.06-.14.125-.206.193l.2.137zm2.704-.327c.087.222.246.332.437.295a.24.24 0 00.152-.102c.015-.026-.03-.11-.068-.142a.443.443 0 00-.523-.056l.002.005zm-1.057.38c.102-.016.162-.007.197-.034.07-.057.18-.139.174-.206-.011-.13-.13-.162-.253-.119a.433.433 0 00-.143.058 1.176 1.176 0 00-.14.168l.165.132zm-3.148.102c.103-.103.222-.162.22-.222-.006-.205-.206-.176-.334-.187-.07-.007-.148.08-.221.126l.335.283zM9.583 14.261c-.796-.044-1.593-.06-2.384-.14-.984-.102-1.802-.503-2.238-1.457a1.497 1.497 0 01-.107-.535c0-.055.125-.17.188-.166.5.027.998.084 1.498.118.47.03.942.045 1.413.064.152.006.262.04.315.213.051.122.123.234.213.331.188.245.4.268.646.08.09-.05.172-.112.246-.183.281-.367.655-.428 1.094-.43a26.766 26.766 0 004.008-.337c.159-.025.314-.074.472-.103.186-.033.269.046.275.241.024.726-.41 1.346-1.06 1.666-1.047.513-2.174.55-3.296.622-.425.028-.854 0-1.282 0l-.001.016z"/>
  <path fill="var(--burger)" d="M15.33 10.465c-.36-.136-.7-.245-1.027-.396-.219-.103-.395-.151-.61.015a.615.615 0 01-.73.022.481.481 0 00-.532-.007 1.27 1.27 0 01-1.15.016.61.61 0 00-.546-.032.503.503 0 01-.578-.078.351.351 0 00-.444-.056 1.305 1.305 0 01-1.113 0c-.165-.068-.275-.086-.41.095-.097.132-.301.205-.473.256a1.222 1.222 0 01-.968-.08.702.702 0 00-.574-.049c-.298.083-.595.093-.879-.07-.159-.092-.286 0-.429.078a1.975 1.975 0 01-.587.211.339.339 0 01-.287-.17.373.373 0 01.131-.33c.277-.145.57-.303.874-.345.718-.102 1.452-.141 2.18-.192a30.343 30.343 0 014.824-.008c.82.073 1.642.143 2.463.247.33.042.65.171.974.26.184.052.339.163.263.356-.041.11-.224.16-.373.257zM7.861 11.838c-.923-.055-1.838-.108-2.757-.169-.187-.011-.265-.158-.257-.41.007-.19.12-.243.28-.232.698.045 1.396.102 2.095.137 1.717.074 3.434.097 5.148-.083.827-.087 1.656-.155 2.485-.23.154-.014.326-.046.364.176.027.154-.123.332-.32.364-.44.088-.886.15-1.333.19-1.635.08-3.271.137-4.906.199-.266.01-.53 0-.796 0l-.003.058z"/>
</svg>
