<svg width="51" height="41" viewBox="0 0 51 41" fill="none" xmlns="http://www.w3.org/2000/svg">
<path d="M25.4457 40.135C20.2386 40.135 15.0096 40.135 9.8025 40.135C8.86172 40.135 8.83984 40.0582 8.79608 38.9316C8.75233 37.4721 9.25554 36.4223 10.2838 35.5773C12.4498 33.8106 14.8127 32.5815 17.3506 31.7622C18.4008 31.4293 19.3635 30.9428 20.173 30.0722C21.1356 29.048 21.4638 27.7422 21.3982 26.2827C21.3982 26.0523 21.2888 25.7706 21.1575 25.6426C20.348 24.772 19.9104 23.6966 19.7135 22.4676C19.6479 22.0579 19.451 21.8787 19.2103 21.6226C18.7727 21.1873 18.3133 20.624 18.1601 20.0095C17.8538 18.678 17.6132 17.2698 18.4008 15.9639C18.4664 15.8359 18.4008 15.5798 18.4008 15.4006C18.3352 14.274 18.182 13.1474 18.2258 12.0464C18.357 9.15299 19.801 7.00218 22.1639 6.13161C24.3737 5.31225 26.6272 5.31225 28.8588 6.13161C31.2436 7.00218 32.7094 9.1786 32.8188 12.1232C32.8626 13.2242 32.7094 14.2996 32.6657 15.4006C32.6657 15.6567 32.6876 15.9895 32.8188 16.1944C33.6502 17.7307 33.0157 20.8545 31.7249 21.7762C31.5717 21.8787 31.4405 22.1347 31.3967 22.3395C31.1561 23.6454 30.7404 24.7976 29.8871 25.7194C29.6902 25.9242 29.6464 26.3851 29.6464 26.7436C29.6683 28.7152 30.4997 30.0978 31.9656 30.994C32.5344 31.3269 33.147 31.5829 33.7596 31.7878C36.2538 32.6327 38.5948 33.8618 40.7608 35.5773C41.9641 36.5503 42.3579 37.8305 42.2485 39.4437C42.2048 39.8789 42.0516 40.135 41.6578 40.135C41.4828 40.135 41.3077 40.135 41.1546 40.135C35.8818 40.135 30.6528 40.135 25.4457 40.135ZM41.1108 38.8547C41.2421 37.8049 40.8264 37.1904 40.1919 36.6527C38.376 35.142 36.3632 34.0154 34.2409 33.2217C33.2783 32.8632 32.3156 32.5559 31.4186 32.0182C29.2745 30.738 28.29 28.4591 28.6181 25.6938C28.64 25.4377 28.7056 25.0793 28.8588 24.9513C29.9527 24.0551 30.2372 22.7492 30.3903 21.3153C30.4122 21.0593 30.6747 20.7008 30.8716 20.6752C31.5061 20.5984 31.7905 20.1375 31.8781 19.523C31.9874 18.8061 32.0093 18.0635 32.075 17.3466C31.2217 17.0137 31.2436 16.9113 31.3748 16.0151C31.5717 14.7605 31.7687 13.5058 31.7468 12.2512C31.6811 9.94675 30.7185 8.23122 28.8369 7.43746C26.6053 6.49008 24.3518 6.49008 22.1202 7.43746C20.5012 8.1288 19.5604 9.53707 19.2978 11.5343C19.079 13.0193 19.2322 14.4788 19.5823 15.9127C19.8229 16.9369 19.801 16.9881 18.904 17.3978C18.9915 18.1403 18.9915 18.9597 19.1884 19.7022C19.276 20.0607 19.6479 20.5216 19.9323 20.5984C20.5012 20.7008 20.6106 21.0081 20.6543 21.597C20.7856 22.8773 21.07 24.1063 22.0764 24.9C22.2514 25.0281 22.339 25.3609 22.3827 25.5914C22.7547 28.0495 21.9014 30.4307 20.0636 31.711C19.2978 32.2487 18.4446 32.6327 17.5913 32.94C15.1846 33.785 12.8874 34.9372 10.8308 36.6527C10.1963 37.1904 9.73687 37.8305 9.89002 38.8804C20.3042 38.8547 30.6747 38.8547 41.1108 38.8547Z" fill="#CCFF3C"/>
<path d="M38.8132 7.15562C38.8132 8.07739 38.8132 8.94796 38.8132 9.89534C38.4631 9.89534 38.1787 9.89534 37.7849 9.89534C37.7849 7.53969 37.7849 5.18404 37.7849 2.77719C35.7064 2.77719 33.7155 2.77719 31.7026 2.77719C31.7026 2.36751 31.7026 2.03464 31.7026 1.62497C31.8339 1.59936 32.0089 1.57376 32.1621 1.57376C34.1093 1.57376 36.0565 1.59936 38.0037 1.57376C38.6163 1.57376 38.857 1.82981 38.8351 2.54674C38.8132 3.62215 38.8351 4.69755 38.8351 5.79856C40.0165 5.79856 41.1323 5.79856 42.3794 5.79856C42.3794 5.05602 42.3794 4.28787 42.3794 3.51973C42.3794 2.59795 42.4669 2.46993 43.2764 2.46993C44.1953 2.46993 45.1142 2.49553 46.0331 2.44432C46.2519 2.44432 46.5364 2.21388 46.6239 2.00904C47.1708 0.80561 48.1773 0.191093 49.2274 0.498352C50.2776 0.780005 51.0215 1.85541 50.9996 3.11005C50.9777 4.33908 50.2776 5.38888 49.2712 5.67054C48.1991 5.9778 47.1708 5.41449 46.6895 4.18545C46.5364 3.80138 46.3613 3.67336 46.0113 3.69896C45.2455 3.72457 44.4798 3.69896 43.714 3.72457C43.6484 3.72457 43.6046 3.77578 43.4733 3.82699C43.4733 4.54392 43.4733 5.28646 43.4733 6.029C43.4733 6.97639 43.364 7.13001 42.5544 7.13001C41.3949 7.13001 40.2572 7.13001 39.0976 7.15562C38.9882 7.10441 38.9663 7.10441 38.8132 7.15562ZM49.9057 3.08444C49.9275 2.29069 49.4025 1.65057 48.7242 1.62497C48.0679 1.59936 47.4771 2.26509 47.4771 3.00763C47.4553 3.80138 48.0022 4.4415 48.6586 4.46711C49.3368 4.49271 49.8838 3.8782 49.9057 3.08444Z" fill="#CCFF3C"/>
<path d="M11.9896 5.79875C11.9896 4.69773 11.9896 3.62232 11.9896 2.57252C11.9896 1.67634 12.0771 1.59953 12.8429 1.59953C14.7463 1.59953 16.6497 1.59953 18.5532 1.59953C18.7282 1.59953 18.8814 1.62513 19.1002 1.62513C19.1002 2.00921 19.1002 2.34207 19.1002 2.77736C17.1092 2.77736 15.1182 2.77736 13.0398 2.77736C13.0398 5.20983 13.0398 7.53989 13.0398 9.92116C12.6678 9.92116 12.3834 9.92116 12.0115 9.92116C12.0115 9.02498 12.0115 8.12881 12.0115 7.10461C11.0926 7.10461 10.2393 7.10461 9.38603 7.10461C9.05785 7.10461 8.75155 7.079 8.42337 7.10461C7.83265 7.13021 7.54823 6.87416 7.57011 6.13162C7.59198 5.36347 7.57011 4.59531 7.57011 3.69914C6.58557 3.69914 5.62291 3.67353 4.68212 3.72474C4.57273 3.72474 4.44146 3.98079 4.37582 4.13442C3.82886 5.38907 2.82244 5.97799 1.72851 5.64512C0.743968 5.33786 0.0438513 4.26245 0.0219727 3.05901C0.0219727 1.82997 0.765847 0.754562 1.81602 0.472907C2.8662 0.191252 3.85074 0.805772 4.3977 2.00921C4.5071 2.21405 4.79152 2.41889 5.0103 2.44449C5.51351 2.4957 5.99484 2.44449 6.49805 2.44449C8.97034 2.4701 8.62028 2.06042 8.66404 4.92818C8.66404 5.18423 8.66404 5.46589 8.66404 5.77315C9.77985 5.79875 10.83 5.79875 11.9896 5.79875ZM3.52256 3.05901C3.52256 2.29086 2.97559 1.62513 2.29735 1.62513C1.61911 1.62513 1.09403 2.26526 1.09403 3.05901C1.09403 3.85277 1.64099 4.49289 2.29735 4.46729C2.99747 4.46729 3.52256 3.82716 3.52256 3.05901Z" fill="#CCFF3C"/>
<path d="M42.3791 24.6952C41.1539 24.6952 40.0162 24.6952 38.791 24.6952C38.791 25.7962 38.7692 26.8716 38.791 27.9214C38.8129 28.6639 38.5941 28.9456 37.9378 28.92C36.0781 28.8944 34.2184 28.92 32.3806 28.92C32.1618 28.92 31.9649 28.8944 31.7024 28.8688C31.6805 28.4847 31.6586 28.1519 31.6367 27.7422C33.6714 27.7422 35.6843 27.7422 37.7409 27.7422C37.7409 25.3353 37.7409 23.0053 37.7409 20.624C38.1347 20.624 38.441 20.624 38.791 20.624C38.791 21.5458 38.791 22.442 38.791 23.4662C39.7975 23.4662 40.7382 23.4662 41.7009 23.4662C43.5606 23.4662 43.4074 23.2869 43.4074 25.5145C43.4074 25.9242 43.4074 26.3595 43.4074 26.846C44.3482 26.846 45.2671 26.8716 46.1641 26.8204C46.3392 26.8204 46.5361 26.4875 46.6455 26.2571C47.1487 25.1817 48.0238 24.6696 49.0521 24.8488C49.9929 25.0025 50.693 25.8218 50.8899 26.9484C51.1087 28.2287 50.518 29.4833 49.4459 29.9442C48.3958 30.4051 47.1924 29.9442 46.7111 28.7408C46.4704 28.1262 46.1641 28.0238 45.6828 28.0494C44.8295 28.075 43.9763 27.9982 43.123 28.0494C42.5542 28.075 42.3354 27.7934 42.3573 27.1789C42.3791 26.3595 42.3791 25.5658 42.3791 24.6952ZM49.9054 27.4349C49.9054 26.6412 49.3584 26.001 48.6802 26.0266C48.0238 26.0266 47.455 26.6924 47.455 27.4605C47.4769 28.2287 48.0238 28.8688 48.6802 28.8688C49.3584 28.8688 49.9054 28.2031 49.9054 27.4349Z" fill="#CCFF3C"/>
<path d="M7.59236 26.8209C7.59236 25.9247 7.61424 25.1565 7.59236 24.3884C7.57048 23.6458 7.8549 23.4154 8.42375 23.4154C9.58331 23.441 10.721 23.4154 11.9462 23.4154C11.9462 22.4424 11.9462 21.5462 11.9462 20.5732C12.3181 20.5732 12.6463 20.5732 13.0183 20.5732C13.0183 22.9289 13.0183 25.259 13.0183 27.6658C15.0749 27.6658 17.0439 27.6658 18.9911 27.6658C19.2537 28.7668 19.1662 28.8949 18.3348 28.8949C16.497 28.8949 14.6592 28.8949 12.8214 28.8949C12.0556 28.8949 11.9681 28.7924 11.9681 27.8963C11.9681 26.8209 11.9681 25.7711 11.9681 24.6444C10.8304 24.6444 9.75834 24.6444 8.62065 24.6444C8.62065 25.4894 8.59878 26.2831 8.62065 27.0513C8.64253 27.717 8.44563 28.0243 7.83302 27.9987C6.87036 27.9731 5.9077 27.9731 4.94504 28.0243C4.72626 28.0243 4.44183 28.2547 4.35432 28.4852C3.80735 29.6886 2.80094 30.2775 1.75076 29.9703C0.744344 29.6886 0.00047037 28.6132 0.00047037 27.4098C-0.0214083 26.2063 0.722465 25.0797 1.707 24.7981C2.82281 24.4908 3.82923 25.0541 4.3762 26.2831C4.46371 26.4624 4.63874 26.7184 4.79189 26.7184C5.68892 26.8465 6.58594 26.8209 7.59236 26.8209ZM3.54481 27.461C3.56669 26.6928 2.99784 26.0271 2.34148 26.0271C1.68513 26.0271 1.11628 26.6416 1.11628 27.4354C1.11628 28.2035 1.66325 28.8949 2.31961 28.8949C2.95409 28.8693 3.52293 28.2291 3.54481 27.461Z" fill="#CCFF3C"/>
</svg>
