<svg width="40" height="40" viewBox="0 0 40 40" fill="none" xmlns="http://www.w3.org/2000/svg">
<path d="M22.8377 27.2769L17.1437 29.7595V29.5089C16.0505 29.7822 14.8206 29.9417 13.6818 30.01C8.30674 29.9644 4.07046 27.1402 4.00213 23.815V22.5851C5.75586 25.136 9.35443 26.8669 13.6818 26.7986C15.1395 26.8669 16.6427 26.6392 17.8953 26.2976L18.3964 25.0677C16.916 25.5232 15.2761 25.8193 13.6818 25.8193C8.30674 25.8193 4.07046 23.0178 4.00213 19.6243V18.6221C5.75586 20.9908 9.35443 22.699 13.6818 22.5851C15.6405 22.699 17.5309 22.289 19.148 21.583L19.3985 20.3531C17.827 21.173 15.8 21.6513 13.7046 21.583C8.32952 21.6513 4.09323 18.8499 4.02491 15.388V14.3858C5.77864 16.8001 9.3772 18.531 13.7046 18.5994C16.1644 18.531 18.4875 17.8705 20.4007 16.8684L20.6512 15.388C18.9202 16.6634 16.3921 17.5061 13.7046 17.62C8.32952 17.5061 4.09323 14.6819 4.02491 11.1745C4.07046 7.82644 8.32952 5.02503 13.7046 4.97948C16.8932 5.02503 19.8768 6.14104 21.6305 7.9631L21.8127 8.25918H23.0654L22.8832 7.9631C21.1295 5.57165 17.5992 4.00012 13.7046 4.00012C7.73735 3.97734 3 7.23427 3 11.1517V11.4022V24.0427C3.20498 27.8691 7.82845 30.9893 13.659 30.9893C17.5081 31.0121 20.9928 29.4861 22.8377 27.2769Z" fill="currentColor"/>
<path d="M20.5146 35.9998L22.5189 27.4817L16.7566 29.987L20.2641 15.2283H13.5225L15.2762 7.96289H36.7992L35.0455 15.2283H28.0306L26.5274 19.2369L34.2939 15.9799L20.5146 35.9998ZM24.0221 25.7507L23.0199 30.7614L31.2875 18.2575L24.5231 21.2639L27.5295 14.249H34.2939L35.5466 8.9878H16.005L14.7524 14.249H21.5167L18.2598 28.2561L24.0221 25.7507Z" fill="currentColor"/>
</svg>
