<svg width="24" height="24" viewBox="0 0 24 24" fill="none" xmlns="http://www.w3.org/2000/svg">
<circle cx="12" cy="12" r="12" fill="#CCFF3C"/>
<rect x="6.32031" y="9.12012" width="1.92" height="1.92" transform="rotate(-90 6.32031 9.12012)" fill="black"/>
<rect x="6.32031" y="16.8" width="1.92" height="1.92" transform="rotate(-90 6.32031 16.8)" fill="black"/>
<path fill-rule="evenodd" clip-rule="evenodd" d="M15.0295 9.15537C14.858 9.12396 14.6315 9.11999 13.9201 9.11999H11.0401V14.88H13.9201C14.6315 14.88 14.858 14.876 15.0295 14.8446C15.9122 14.6828 16.603 13.9921 16.7647 13.1093C16.7962 12.9379 16.8001 12.7114 16.8001 12C16.8001 11.2886 16.7962 11.0621 16.7647 10.8906C16.603 10.0079 15.9122 9.31714 15.0295 9.15537ZM14.0147 7.19997C14.5918 7.19978 15.009 7.19964 15.3756 7.26682C17.043 7.57239 18.3477 8.87715 18.6533 10.5446C18.7205 10.9111 18.7203 11.3283 18.7201 11.9054C18.7201 11.9364 18.7201 11.968 18.7201 12C18.7201 12.032 18.7201 12.0635 18.7201 12.0946C18.7203 12.6717 18.7205 13.0889 18.6533 13.4554C18.3477 15.1228 17.043 16.4276 15.3756 16.7332C15.009 16.8003 14.5918 16.8002 14.0147 16.8C13.9837 16.8 13.9521 16.8 13.9201 16.8H9.12012V7.19999H13.9201C13.9521 7.19999 13.9837 7.19998 14.0147 7.19997Z" fill="black"/>
</svg>
