<svg width="73" height="48" viewBox="0 0 73 48" fill="none" xmlns="http://www.w3.org/2000/svg">
<path d="M0 4C0 1.79086 1.79086 0 4 0H36C38.2091 0 40 1.79086 40 4V28C40 30.2091 38.2091 32 36 32H20.3508C20.1237 32 19.9034 32.0773 19.7261 32.2191L11.6247 38.7002C10.9699 39.2241 10 38.7579 10 37.9194V33C10 32.4477 9.55229 32 9 32H4C1.79086 32 0 30.2091 0 28V4Z" fill="#0A1213"/>
<path d="M1 4C1 2.34315 2.34315 1 4 1H36C37.6569 1 39 2.34315 39 4V28C39 29.6569 37.6569 31 36 31H20.3508C19.8966 31 19.456 31.1546 19.1014 31.4383L11 37.9194L11 33C11 31.8954 10.1046 31 9 31H4C2.34315 31 1 29.6569 1 28V4Z" stroke="white" stroke-width="2"/>
<path d="M33 12C33 9.79086 34.7909 8 37 8H69C71.2091 8 73 9.79086 73 12V36C73 38.2091 71.2091 40 69 40H64C63.4477 40 63 40.4477 63 41V45.9194C63 46.7579 62.0301 47.2241 61.3753 46.7002L53.2739 40.2191C53.0966 40.0773 52.8763 40 52.6492 40H37C34.7909 40 33 38.2091 33 36V12Z" fill="#0A1213"/>
<path d="M34 12C34 10.3431 35.3431 9 37 9H69C70.6569 9 72 10.3431 72 12V36C72 37.6569 70.6569 39 69 39H64C62.8954 39 62 39.8954 62 41L62 45.9194L53.8986 39.4383C53.544 39.1546 53.1034 39 52.6492 39H37C35.3431 39 34 37.6569 34 36V12Z" stroke="white" stroke-width="2"/>
<circle cx="12" cy="16" r="2" stroke="white" stroke-width="2"/>
<circle cx="20" cy="16" r="2" stroke="white" stroke-width="2"/>
<circle cx="28" cy="16" r="2" stroke="white" stroke-width="2"/>
<path d="M48 20L44 24L48 28" stroke="white" stroke-width="2"/>
<path d="M59 20L63 24L59 28" stroke="white" stroke-width="2"/>
<path d="M56 18L51 30" stroke="white" stroke-width="2"/>
</svg>
