<svg width="32" height="32" viewBox="0 0 32 32" fill="none" xmlns="http://www.w3.org/2000/svg">
<path d="M13.8481 14.7715C13.1706 14.7715 12.6357 15.3658 12.6357 16.0908C12.6357 16.8158 13.1825 17.4101 13.8481 17.4101C14.5256 17.4101 15.0604 16.8158 15.0604 16.0908C15.0723 15.3658 14.5256 14.7715 13.8481 14.7715ZM18.1864 14.7715C17.5089 14.7715 16.974 15.3658 16.974 16.0908C16.974 16.8158 17.5208 17.4101 18.1864 17.4101C18.8639 17.4101 19.3987 16.8158 19.3987 16.0908C19.3987 15.3658 18.8639 14.7715 18.1864 14.7715Z" fill="currentColor"/>
<path d="M23.963 4.7998H8.03618C6.69309 4.7998 5.59961 5.89329 5.59961 7.24826V23.3177C5.59961 24.6727 6.69309 25.7662 8.03618 25.7662H21.5146L20.8846 23.5673L22.406 24.9817L23.8442 26.3129L26.3996 28.5712V7.24826C26.3996 5.89329 25.3061 4.7998 23.963 4.7998ZM19.3752 20.3225C19.3752 20.3225 18.9473 19.8115 18.5907 19.3598C20.1477 18.92 20.742 17.9454 20.742 17.9454C20.2547 18.2663 19.7912 18.4921 19.3752 18.6467C18.7809 18.8963 18.2104 19.0627 17.6517 19.1577C16.5107 19.3717 15.4648 19.3123 14.5733 19.1459C13.8958 19.0151 13.3134 18.8249 12.8261 18.6348C12.5528 18.5278 12.2556 18.3971 11.9585 18.2307C11.9228 18.2069 11.8872 18.195 11.8515 18.1712C11.8277 18.1593 11.8158 18.1475 11.804 18.1356C11.59 18.0167 11.4712 17.9335 11.4712 17.9335C11.4712 17.9335 12.0417 18.8844 13.5512 19.336C13.1946 19.7877 12.7548 20.3225 12.7548 20.3225C10.1281 20.2393 9.12967 18.5159 9.12967 18.5159C9.12967 14.6887 10.8412 11.5865 10.8412 11.5865C12.5528 10.3029 14.1811 10.3385 14.1811 10.3385L14.3 10.4812C12.1605 11.0992 11.174 12.0382 11.174 12.0382C11.174 12.0382 11.4355 11.8956 11.8753 11.6935C13.147 11.1349 14.1573 10.9804 14.5733 10.9447C14.6446 10.9328 14.7041 10.9209 14.7754 10.9209C15.5004 10.8259 16.3205 10.8021 17.1763 10.8972C18.3054 11.0279 19.5178 11.3607 20.7539 12.0382C20.7539 12.0382 19.8149 11.1468 17.7944 10.5287L17.9608 10.3385C17.9608 10.3385 19.5891 10.3029 21.3006 11.5865C21.3006 11.5865 23.0122 14.6887 23.0122 18.5159C23.0122 18.5159 22.0019 20.2393 19.3752 20.3225Z" fill="currentColor"/>
</svg>
