<svg width="32" height="32" viewBox="0 0 32 32" fill="none" xmlns="http://www.w3.org/2000/svg">
<path d="M16 4C9.374 4 4 9.373 4 16C4 21.302 7.438 25.8 12.207 27.387C12.806 27.498 13 27.126 13 26.81V24.576C9.662 25.302 8.967 23.16 8.967 23.16C8.421 21.773 7.634 21.404 7.634 21.404C6.545 20.659 7.717 20.675 7.717 20.675C8.922 20.759 9.556 21.912 9.556 21.912C10.626 23.746 12.363 23.216 13.048 22.909C13.155 22.134 13.466 21.604 13.81 21.305C11.145 21 8.343 19.971 8.343 15.374C8.343 14.063 8.812 12.993 9.579 12.153C9.455 11.85 9.044 10.629 9.696 8.977C9.696 8.977 10.704 8.655 12.997 10.207C13.954 9.941 14.98 9.808 16 9.803C17.02 9.808 18.047 9.941 19.006 10.207C21.297 8.655 22.303 8.977 22.303 8.977C22.956 10.63 22.545 11.851 22.421 12.153C23.191 12.993 23.656 14.064 23.656 15.374C23.656 19.983 20.849 20.998 18.177 21.295C18.607 21.667 19 22.397 19 23.517V26.81C19 27.129 19.192 27.504 19.801 27.386C24.566 25.797 28 21.3 28 16C28 9.373 22.627 4 16 4Z" fill="currentColor"/>
</svg>
