<svg xmlns="http://www.w3.org/2000/svg" fill="none" height="0.9em" viewBox="0 0 120 22">
  <path fill="#29C278" d="M3.778 10.136h12.774V1.938h3.637V22h-3.637v-8.198H3.778V22H.141V1.938h3.637v8.198zm35.802 6.855c0 .504-.089 1.05-.266 1.637a4.894 4.894 0 01-.867 1.623c-.392.494-.91.91-1.553 1.245-.634.336-1.409.504-2.323.504H28.01c-.504 0-1.05-.089-1.637-.266a5.03 5.03 0 01-1.623-.853c-.494-.401-.91-.919-1.245-1.553-.336-.644-.504-1.423-.504-2.337 0-.503.089-1.049.266-1.636a4.846 4.846 0 01.853-1.623 4.853 4.853 0 011.553-1.26c.644-.335 1.423-.503 2.337-.503h6.561v3.47H28.01c-.495 0-.877.153-1.148.461-.27.299-.405.672-.405 1.12 0 .475.154.848.462 1.119.317.26.69.391 1.119.391h6.533c.495 0 .877-.149 1.148-.447.27-.299.405-.672.405-1.12v-5.078c0-.476-.149-.854-.447-1.133-.29-.28-.658-.42-1.106-.42h-7.988V6.876h7.988c.504 0 1.045.089 1.623.266a4.72 4.72 0 011.623.867c.504.392.923.91 1.26 1.553.335.635.503 1.409.503 2.323v5.106zm17.726-.098c0 .625-.08 1.19-.238 1.693a5.056 5.056 0 01-.63 1.315 4.486 4.486 0 01-.909.966 5.41 5.41 0 01-1.091.643 5.7 5.7 0 01-1.147.378 5.706 5.706 0 01-1.092.112H42.35v-3.637h9.822c.494 0 .867-.127 1.119-.378.252-.252.378-.616.378-1.092-.047-.97-.537-1.455-1.47-1.455h-5.638c-.802 0-1.483-.14-2.042-.42a4.254 4.254 0 01-1.371-1.049 4.163 4.163 0 01-.756-1.357 4.628 4.628 0 01-.224-1.357c0-.811.145-1.492.434-2.042a4.075 4.075 0 012.518-2.099 4.893 4.893 0 011.441-.238h8.94v3.638H46.59c-.186 0-.335.023-.447.07a.502.502 0 00-.238.168.468.468 0 00-.084.223 1.81 1.81 0 00-.014.224c.01.15.037.266.084.35a.456.456 0 00.168.182.7.7 0 00.237.07H52.2c.933 0 1.726.168 2.379.504.653.335 1.18.76 1.58 1.273.402.503.691 1.054.868 1.65.187.598.28 1.153.28 1.665zM76.683 22h-3.638V11.969c0-.476-.12-.835-.363-1.077-.243-.252-.607-.378-1.092-.378H65.03V6.876h6.561c.346 0 .71.042 1.092.126.382.075.76.196 1.133.364a5.07 5.07 0 011.091.657c.345.262.648.583.91.966.26.373.47.807.63 1.3.158.495.237 1.055.237 1.68V22zM63.56 22h-3.638V.483h3.638V22zm33.353-8.198H85.427v-3.666h11.486v3.666zM98.55 22H85.427c-.504 0-1.054-.089-1.65-.266a4.995 4.995 0 01-1.666-.867 5.137 5.137 0 01-1.273-1.581c-.336-.653-.503-1.45-.503-2.393V3.77c0-.252.046-.49.14-.713.093-.224.219-.42.377-.588.168-.168.364-.298.588-.392.224-.093.466-.14.727-.14H98.55v3.638H83.972v11.318c0 .476.126.84.378 1.092.252.252.62.378 1.105.378H98.55V22zm20.398-15.124l-6.533 7.135L119.774 22h-5.009l-4.84-5.274L105.084 22h-5.023l7.345-8.017-6.505-7.107h4.98l4.016 4.38 4.043-4.38h5.008z"/>
</svg>
