<svg width="42" height="57" viewBox="0 0 42 57" fill="none" xmlns="http://www.w3.org/2000/svg">
<path d="M9.0737 37.0566L8.4768 37.8589L9.0737 37.0566ZM32.9263 37.0566L32.3294 36.2543L32.9263 37.0566ZM40 21C40 27.2468 36.9864 32.7895 32.3294 36.2543L33.5232 37.8589C38.6656 34.033 42 27.9058 42 21H40ZM21 2C31.4934 2 40 10.5066 40 21H42C42 9.40202 32.598 0 21 0V2ZM2 21C2 10.5066 10.5066 2 21 2V0C9.40202 0 0 9.40202 0 21H2ZM9.67061 36.2542C5.01363 32.7895 2 27.2468 2 21H0C0 27.9058 3.33441 34.033 8.4768 37.8589L9.67061 36.2542ZM12 46V40.6315H10V46H12ZM15 49C13.3431 49 12 47.6569 12 46H10C10 48.7614 12.2386 51 15 51V49ZM27 49H15V51H27V49ZM30 46C30 47.6569 28.6569 49 27 49V51C29.7614 51 32 48.7614 32 46H30ZM30 40.6315V46H32V40.6315H30ZM8.4768 37.8589C9.42083 38.5612 10 39.5795 10 40.6315H12C12 38.8278 11.0178 37.2565 9.67061 36.2542L8.4768 37.8589ZM32.3294 36.2543C30.9822 37.2565 30 38.8278 30 40.6315H32C32 39.5795 32.5792 38.5612 33.5232 37.8589L32.3294 36.2543Z" fill="white"/>
<rect x="12" y="50" width="18" height="6" rx="3" stroke="white" stroke-width="2"/>
<path d="M19 50L18.2306 39.9973C18.0771 38.0019 17.774 36.0209 17.324 34.0708L15.7561 27.2763C15.5441 26.3578 16.6772 25.7442 17.3305 26.4237V26.4237C17.6959 26.8038 18.3041 26.8038 18.6695 26.4237L20.2792 24.7497C20.6726 24.3405 21.3274 24.3405 21.7208 24.7497L23.3305 26.4237C23.6959 26.8038 24.3041 26.8038 24.6695 26.4237V26.4237C25.3228 25.7442 26.4559 26.3578 26.2439 27.2763L24.676 34.0708C24.226 36.0209 23.9229 38.0019 23.7694 39.9973L23 50" stroke="white" stroke-width="2"/>
</svg>
