<svg width="18" height="18" viewBox="0 0 18 18" fill="none" xmlns="http://www.w3.org/2000/svg">
<circle cx="9" cy="9" r="8.5" stroke="currentColor"/>
<path d="M8.387 11.994C8.387 11.574 8.45233 11.2007 8.583 10.874C8.71367 10.5473 8.87933 10.2487 9.08 9.978C9.28067 9.70733 9.48833 9.44833 9.703 9.201C9.99233 8.865 10.2537 8.51733 10.487 8.158C10.7203 7.79867 10.837 7.37167 10.837 6.877C10.837 5.61233 10.221 4.98 8.989 4.98C7.71033 4.98 7.071 5.68933 7.071 7.108H6C6 6.41267 6.12833 5.83633 6.385 5.379C6.64167 4.917 6.994 4.57167 7.442 4.343C7.89 4.11433 8.40333 4 8.982 4C9.84533 4 10.5477 4.24967 11.089 4.749C11.6303 5.24833 11.901 5.97867 11.901 6.94C11.901 7.36933 11.8333 7.74967 11.698 8.081C11.5627 8.40767 11.39 8.70167 11.18 8.963C10.97 9.22433 10.753 9.474 10.529 9.712C10.221 10.0433 9.94567 10.384 9.703 10.734C9.46033 11.0793 9.339 11.4993 9.339 11.994H8.387ZM8.933 14.584C8.70433 14.584 8.51067 14.507 8.352 14.353C8.19333 14.1943 8.114 14.0007 8.114 13.772C8.114 13.548 8.19333 13.3567 8.352 13.198C8.51067 13.0393 8.70433 12.96 8.933 12.96C9.157 12.96 9.34833 13.0393 9.507 13.198C9.66567 13.3567 9.745 13.548 9.745 13.772C9.745 14.0007 9.66567 14.1943 9.507 14.353C9.34833 14.507 9.157 14.584 8.933 14.584Z" fill="currentColor"/>
</svg>
