<svg width="77" height="65" viewBox="0 0 77 65" fill="none" xmlns="http://www.w3.org/2000/svg">
<g clip-path="url(#clip0_1179_29402)">
<path d="M17.8147 35.4479C8.24493 35.8187 -0.772755 27.2534 0.073803 16.1667C0.736327 7.26768 8.46577 -0.0369388 17.5203 0.000140545C22.9677 0.000140545 27.4949 2.11366 31.0284 6.30362C34.525 10.4936 35.7029 15.388 34.9299 20.6904C37.3592 20.6904 39.7148 20.6904 42.1441 20.6904C41.4447 14.2757 43.3955 8.78793 48.3644 4.56089C51.7507 1.66871 55.7258 0.408013 60.1426 0.519251C68.5714 0.741726 76.0064 7.6014 76.8898 15.9813C77.2578 19.3555 76.7794 22.5814 75.3439 25.659C73.9084 28.6995 71.7736 31.1467 68.9395 32.9636C66.1054 34.8176 62.9768 35.7075 59.6642 35.7817C62.167 45.9785 59.7746 54.5809 51.1986 60.6989C43.6163 66.1125 35.2612 66.4462 27.3845 61.4776C17.7411 55.4337 15.0542 46.3493 17.8147 35.4479ZM58.8912 42.6784C58.8912 31.4805 49.8367 22.359 38.7578 22.359C27.5685 22.359 18.4772 31.4434 18.4772 42.6784C18.4772 53.9134 27.5317 63.0349 38.721 63.0349C49.8367 62.9979 58.8912 53.8393 58.8912 42.6784ZM59.5537 2.26198C58.928 2.29906 58.3391 2.29906 57.7134 2.37322C48.6957 3.55975 42.6962 11.4947 43.9108 20.5791C43.9844 21.0612 44.2053 21.2466 44.6469 21.3949C51.0513 23.323 55.689 27.3276 58.5967 33.3715C58.8176 33.8535 59.0752 34.0019 59.6273 34.0019C68.2402 33.9648 75.2703 26.8456 75.2703 18.1319C75.2703 9.45536 68.2402 2.33614 59.5537 2.26198ZM33.4576 17.7611C33.384 16.8712 33.3104 16.0184 33.2 15.2027C31.9118 6.97105 24.5504 1.11252 16.2688 1.77995C8.13451 2.44737 1.76692 9.41828 1.76692 17.687C1.76692 26.5118 8.87065 33.594 17.6307 33.6311C18.3668 33.6311 18.8453 33.5198 19.0662 32.7782C19.1766 32.4074 19.4342 32.0367 19.6183 31.7029C22.5996 26.6231 26.8324 23.2118 32.3902 21.5061C32.8687 21.3578 33.0528 21.1353 33.0896 20.6533C33.2368 19.6892 33.3472 18.7252 33.4576 17.7611Z" fill="#CCFF3C"/>
<path d="M48.1435 44.421C48.1067 44.4952 48.0331 44.7177 47.9595 44.866C45.1622 49.7604 42.3649 54.6549 39.5675 59.5123C39.089 60.3651 38.3161 60.3651 37.8376 59.5123C35.0403 54.6178 32.243 49.7234 29.4456 44.866C29.188 44.421 29.188 44.0502 29.5193 43.6794C29.9241 43.3086 30.329 43.3828 30.7707 43.6424C33.2368 45.3109 35.7396 46.9424 38.2057 48.611C38.6106 48.8705 38.8682 48.8705 39.2731 48.611C41.6287 47.0166 43.9844 45.4222 46.34 43.8648C46.5608 43.7165 46.7449 43.5682 46.9657 43.494C47.5546 43.2716 48.1435 43.6794 48.1435 44.421ZM38.6842 57.51C40.6349 54.0616 42.5489 50.7616 44.4629 47.4244C44.1684 47.4615 43.9844 47.5357 43.8003 47.684C42.3649 48.6481 40.8926 49.575 39.4939 50.5762C38.905 50.9841 38.4265 50.9841 37.8376 50.5762C36.3653 49.538 34.8563 48.5739 33.3472 47.5728C33.2368 47.4986 33.0895 47.4244 32.7951 47.2761C34.8194 50.7616 36.7334 54.0616 38.6842 57.51Z" fill="#CCFF3C"/>
<path d="M46.524 37.3761C46.34 37.6727 46.2295 37.9323 46.0087 38.1177C43.8003 40.1199 41.5919 42.1222 39.3467 44.1245C38.8682 44.5324 38.4265 44.5324 37.948 44.0874C35.7396 42.1222 33.568 40.1199 31.3596 38.1547C30.8811 37.7469 30.8443 37.3019 31.1387 36.7457C33.3839 32.8524 35.5924 28.9962 37.8008 25.1028C38.2793 24.25 39.0154 24.2871 39.5307 25.1399C41.5183 28.6254 43.5058 32.1108 45.5302 35.5963C45.8615 36.1895 46.1927 36.7457 46.524 37.3761ZM38.6841 42.3818C40.5613 40.7132 42.3648 39.0817 44.1684 37.4131C44.2788 37.3019 44.242 36.894 44.1684 36.7457C42.8065 34.3356 41.4446 31.9625 40.0828 29.5523C39.6411 28.8108 39.1994 28.0321 38.7209 27.1793C36.7702 30.5164 34.9298 33.7052 33.1263 36.894C33.0527 37.0053 33.1263 37.3019 33.1999 37.4131C35.0034 39.0446 36.807 40.6761 38.6841 42.3818Z" fill="#CCFF3C"/>
<path d="M58.5601 14.2759C59.1858 13.7938 59.6643 13.423 60.106 13.0893C60.6581 12.6815 61.1734 12.7185 61.4679 13.1264C61.7991 13.5714 61.6887 14.0534 61.1366 14.4983C60.4005 15.0916 59.6643 15.6107 58.9282 16.2411C58.7442 16.4265 58.5233 16.7231 58.5233 16.9456C58.4865 19.949 58.5233 22.9895 58.5233 25.9929C58.5233 26.0671 58.5601 26.1412 58.5969 26.2525C58.8546 26.2525 59.1122 26.2896 59.3699 26.2896C61.5415 26.2896 63.7131 26.2896 65.9215 26.2896C66.1055 26.2896 66.2896 26.2896 66.4736 26.2896C67.0257 26.3266 67.3938 26.5862 67.3938 27.1795C67.3938 27.7357 67.0257 28.0323 66.5104 28.0323C63.5659 28.0323 60.6581 28.0323 57.7136 28.0323C57.051 28.0323 56.7934 27.6986 56.7934 26.8458C56.7934 24.176 56.7934 21.5063 56.7934 18.8366C56.7934 18.5771 56.7934 18.3546 56.7934 17.9096C56.0573 18.5029 55.4315 18.9849 54.8058 19.4299C54.2537 19.8378 53.7384 19.8378 53.444 19.3928C53.1127 18.9849 53.2599 18.4658 53.7752 18.0209C53.812 17.9838 53.8857 17.9467 53.9225 17.9096C54.6586 17.3535 55.3579 16.7231 56.1309 16.204C56.6094 15.8703 56.8302 15.4624 56.7934 14.8321C56.7566 12.7927 56.7934 10.7533 56.7934 8.71398C56.7934 8.56566 56.7934 8.38026 56.7934 8.23195C56.7934 7.4162 57.0879 7.04541 57.6768 7.04541C58.2289 7.04541 58.5233 7.4162 58.5233 8.19487C58.5233 9.82636 58.5233 11.4949 58.5233 13.1264C58.5601 13.4601 58.5601 13.7938 58.5601 14.2759Z" fill="#CCFF3C"/>
<path d="M12.9192 9.04737C12.9192 8.04623 12.9192 7.15633 12.9192 6.22934C12.9192 5.67315 13.1032 5.2282 13.729 5.15404C14.2443 5.07989 14.6491 5.48776 14.6491 6.08103C14.6491 7.00801 14.6491 7.93499 14.6491 8.93613C15.6429 8.93613 16.5999 8.93613 17.6305 8.93613C17.6305 8.00915 17.6305 7.11925 17.6305 6.19227C17.6305 5.71023 17.7777 5.26528 18.293 5.15404C18.8819 5.00573 19.3604 5.37652 19.3604 6.04395C19.3972 6.97093 19.3604 7.89791 19.3604 8.97321C21.6424 8.86198 23.5196 9.60356 24.5134 11.7912C25.3967 13.7194 24.9183 15.6104 23.0779 17.5015C24.771 19.0588 25.4704 20.9498 24.5502 23.1375C23.5932 25.3623 21.7529 26.1038 19.3972 25.9926C19.3972 26.9567 19.3972 27.8837 19.3972 28.7736C19.3972 29.5522 19.066 29.9601 18.477 29.9601C17.9618 30.0343 17.6673 29.6264 17.6673 28.8477C17.6673 27.9578 17.6673 27.0308 17.6673 26.0668C16.6367 26.0668 15.7165 26.0668 14.6859 26.0668C14.6859 27.0308 14.6859 27.9949 14.6859 28.9219C14.6859 29.1444 14.7227 29.4781 14.6123 29.5893C14.3547 29.8489 14.0234 30.1084 13.6922 30.1084C13.2137 30.1455 12.956 29.7376 12.956 29.2927C12.9192 28.4398 12.9192 27.587 12.9192 26.7713C12.9192 26.5488 12.9192 26.3263 12.9192 26.0297C12.2935 26.0297 11.7782 26.0297 11.2261 26.0297C10.6372 26.0297 10.2691 25.7701 10.1955 25.1769C10.1587 24.6207 10.5636 24.287 11.2261 24.287C11.7046 24.287 12.1831 24.287 12.6616 24.287C12.6984 24.287 12.7352 24.2499 12.8456 24.2499C12.8456 19.8374 12.8456 15.3879 12.8456 10.8643C12.2935 10.8643 11.7782 10.8643 11.2261 10.8643C10.5636 10.8643 10.1219 10.4935 10.1955 9.93727C10.2323 9.34401 10.6372 9.08445 11.2261 9.08445C11.7414 9.04737 12.2935 9.04737 12.9192 9.04737ZM14.7227 10.8272C14.7227 12.7553 14.7227 14.6463 14.7227 16.5745C16.8207 16.5745 18.9187 16.6857 21.0167 16.5374C22.4154 16.4262 23.3356 14.9059 23.2251 13.4969C23.1147 12.125 21.9737 10.8643 20.6487 10.8272C18.6611 10.7901 16.7103 10.8272 14.7227 10.8272ZM14.7227 18.4284C14.7227 20.4307 14.7227 22.3218 14.7227 24.2128C14.8332 24.2499 14.9068 24.287 14.9436 24.287C16.7103 24.287 18.477 24.324 20.2438 24.287C21.9369 24.2499 23.2251 22.9892 23.2251 21.3577C23.2251 19.7262 21.9369 18.4655 20.2438 18.4284C18.9187 18.3914 17.6305 18.4284 16.3054 18.4284C15.7901 18.4284 15.2748 18.4284 14.7227 18.4284Z" fill="#CCFF3C"/>
</g>
<defs>
<clipPath id="clip0_1179_29402">
<rect width="77" height="65" fill="white"/>
</clipPath>
</defs>
</svg>
