<svg width="275" height="24" viewBox="0 0 275 24" fill="none" xmlns="http://www.w3.org/2000/svg">
<path fill-rule="evenodd" clip-rule="evenodd" d="M34.7998 14.4001L34.7998 19.2001L34.7998 24H39.5998H58.7996V19.2001H39.5998L39.5998 14.4001H58.7996V9.60016H39.5998L39.5998 4.8002H58.7996V0.00024435L39.5998 0.000244141L34.7998 0.00024435L34.7998 0.000244637L34.7998 4.8002L34.7998 9.60016L34.7998 14.4001Z" fill="white"/>
<path fill-rule="evenodd" clip-rule="evenodd" d="M142.8 14.4001L142.8 19.2001L142.8 24H147.6H166.8V19.2001H147.6L147.6 14.4001H166.8V9.60016H147.6L147.6 4.8002H166.8V0.00024435L147.6 0.000244141L142.8 0.00024435L142.8 0.000244637L142.8 4.8002L142.8 9.60016L142.8 14.4001Z" fill="white"/>
<path fill-rule="evenodd" clip-rule="evenodd" d="M223.799 14.4001L223.799 19.2001L223.799 24H228.599H247.799V19.2001H228.599L228.599 14.4001H247.799V9.60016H228.599L228.599 4.8002H247.799V0.00024435L228.599 0.000244141L223.799 0.00024435L223.799 0.000244637L223.799 4.8002L223.799 9.60016L223.799 14.4001Z" fill="white"/>
<path fill-rule="evenodd" clip-rule="evenodd" d="M98.3997 19.2001L98.3997 4.8002L88.7998 4.8002L88.7998 0.000245495L98.3997 0.00024435L103.2 0.000244141L112.8 0.00024435V4.8002L103.2 4.8002L103.2 19.2001H112.8V24H103.2H98.3997H88.7998L88.7998 19.2001H98.3997Z" fill="white"/>
<path fill-rule="evenodd" clip-rule="evenodd" d="M61.7998 9.60016L61.7998 4.8002L61.7998 0.000244637L61.7998 0.00024435L66.5998 0.000244141L85.7996 0.00024435V4.8002H66.5998V9.60016H85.7996V14.4001H66.5998L66.5998 24H61.7998V14.4001L61.7998 9.60016Z" fill="white"/>
<path fill-rule="evenodd" clip-rule="evenodd" d="M169.799 19.2001L169.799 24H174.599H193.799V19.2001H174.599L174.599 0.000244141L169.799 0.00024435L169.799 19.2001Z" fill="white"/>
<path fill-rule="evenodd" clip-rule="evenodd" d="M115.8 9.60017L115.8 0.00024435L120.6 0.000244141L120.6 9.60017L135 9.60016V0.00024435L139.8 0.000244141V9.60016V14.4001V24H135V14.4001L120.6 14.4001L120.6 24H115.8V14.4001L115.8 9.60017Z" fill="white"/>
<rect y="4.80005" width="4.79996" height="4.79996" transform="rotate(-90 0 4.80005)" fill="white"/>
<rect y="24" width="4.79996" height="4.79996" transform="rotate(-90 0 24)" fill="white"/>
<path fill-rule="evenodd" clip-rule="evenodd" d="M22.5731 4.88851C22.1445 4.80997 21.5783 4.80006 19.7997 4.80006H12.5998V19.1999H19.7997C21.5783 19.1999 22.1445 19.19 22.5731 19.1115C24.7799 18.7071 26.5068 16.9802 26.9112 14.7734C26.9897 14.3448 26.9996 13.7786 26.9996 12C26.9996 10.2214 26.9897 9.65524 26.9112 9.22665C26.5068 7.0198 24.7799 5.29293 22.5731 4.88851ZM20.0363 4.91586e-05C21.4789 -0.000424337 22.5218 -0.000766515 23.4383 0.167176C27.6068 0.931078 30.8686 4.19295 31.6325 8.36143C31.8005 9.27786 31.8001 10.3208 31.7997 11.7634C31.7996 11.8411 31.7996 11.92 31.7996 12C31.7996 12.08 31.7996 12.1589 31.7997 12.2366C31.8001 13.6792 31.8005 14.7221 31.6325 15.6386C30.8686 19.8071 27.6068 23.0689 23.4383 23.8328C22.5218 24.0008 21.4789 24.0004 20.0363 24C19.9586 23.9999 19.8797 23.9999 19.7997 23.9999H7.7998V0.00010037H19.7997C19.8797 0.00010037 19.9586 7.46215e-05 20.0363 4.91586e-05Z" fill="white"/>
<path fill-rule="evenodd" clip-rule="evenodd" d="M196.799 14.4001V24H201.599L201.599 14.4001H213.599C217.575 14.4001 220.799 11.1766 220.799 7.20018C220.799 3.22377 217.575 0.00024435 213.599 0.00024435L201.599 0.000244141L196.799 0.00024435L196.799 14.4001ZM201.599 4.8002V9.60016H213.599C214.924 9.60016 215.999 8.52566 215.999 7.20018C215.999 5.87471 214.924 4.8002 213.599 4.8002H201.599Z" fill="white"/>
<path fill-rule="evenodd" clip-rule="evenodd" d="M250.798 0.00024435L250.798 14.4001V24H255.598L255.598 14.4001H267.598C268.923 14.4001 269.998 15.4746 269.998 16.8001V24H274.798V16.8001C274.798 14.9561 274.104 13.2739 272.964 12.0001C274.104 10.7263 274.798 9.04422 274.798 7.20018C274.798 3.22377 271.574 0.00024435 267.598 0.00024435L255.598 0.000244141L250.798 0.00024435ZM255.598 9.60016H267.598C268.923 9.60016 269.998 8.52566 269.998 7.20018C269.998 5.87471 268.923 4.8002 267.598 4.8002H255.598V9.60016Z" fill="white"/>
</svg>
