<svg width="263" height="66" viewBox="0 0 263 66" fill="none" xmlns="http://www.w3.org/2000/svg">
<path d="M54.658 17.2326H77.3746V2.5971H83.8427V38.412H77.3713V23.7765H54.6547V38.412H48.1865V2.5971H54.6563V17.2326H54.658ZM118.327 29.4707C118.327 30.3699 118.169 31.3451 117.855 32.3928C117.528 33.4479 117.004 34.4311 116.312 35.2902C115.615 36.173 114.694 36.9138 113.55 37.5128C112.423 38.1134 111.045 38.412 109.419 38.412H97.7505C96.8547 38.412 95.8849 38.2536 94.8411 37.9385C93.7934 37.6123 92.8145 37.0955 91.953 36.4139C91.0752 35.6978 90.3372 34.7738 89.7389 33.6419C89.1422 32.4935 88.843 31.1025 88.843 29.4707C88.843 28.5714 89.0008 27.5979 89.3164 26.5502C89.632 25.5008 90.1383 24.5339 90.8336 23.6511C91.547 22.7535 92.4675 22.0028 93.5951 21.4038C94.7408 20.8049 96.1265 20.5046 97.7505 20.5046H109.421V26.6987H97.7505C96.8711 26.6987 96.1922 26.9742 95.7123 27.5237C95.229 28.0566 94.989 28.7216 94.989 29.5202C94.989 30.3699 95.2635 31.0365 95.8109 31.52C96.3747 31.9853 97.0371 32.2179 97.7998 32.2179H109.421C110.299 32.2179 110.979 31.9523 111.459 31.4193C111.941 30.8864 112.183 30.2198 112.183 29.4228V20.3544C112.183 19.5063 111.916 18.8315 111.385 18.3315C110.871 17.8332 110.217 17.5824 109.419 17.5824H95.2126V11.4131H109.419C110.315 11.4131 111.277 11.5715 112.306 11.8883C113.36 12.2096 114.341 12.736 115.192 13.4376C116.088 14.1356 116.836 15.0596 117.431 16.2096C118.029 17.3415 118.327 18.7242 118.327 20.3544V29.4707ZM149.852 29.2957C149.852 30.4128 149.711 31.4193 149.428 32.3186C149.171 33.1513 148.794 33.9422 148.311 34.6665C147.844 35.3315 147.306 35.9073 146.692 36.3891C146.092 36.8474 145.441 37.2334 144.752 37.5392C144.097 37.8355 143.413 38.0612 142.71 38.2124C142.031 38.3444 141.384 38.412 140.771 38.412H123.253V31.9193H140.721C141.601 31.9193 142.265 31.6949 142.712 31.2444C143.161 30.7956 143.384 30.1455 143.384 29.2974C143.302 27.5649 142.431 26.6987 140.771 26.6987H130.744C129.319 26.6987 128.107 26.4495 127.111 25.9496C126.117 25.4496 125.303 24.8259 124.673 24.0768C124.078 23.3606 123.623 22.5383 123.331 21.653C123.079 20.8699 122.945 20.0535 122.933 19.2308C122.933 17.7821 123.189 16.5676 123.704 15.5843C124.218 14.586 124.864 13.7775 125.643 13.1621C126.424 12.5466 127.271 12.1061 128.181 11.8388C129.01 11.5688 129.874 11.4253 130.746 11.4131H146.644V17.9074H130.793C130.461 17.9074 130.196 17.9487 129.996 18.0329C129.829 18.0885 129.682 18.1924 129.574 18.3315C129.491 18.4495 129.44 18.5871 129.426 18.7308C129.408 18.8638 129.4 18.9977 129.399 19.1318C129.416 19.3974 129.465 19.6053 129.549 19.7555C129.631 19.9056 129.731 20.0145 129.848 20.0805C129.98 20.1465 130.121 20.1894 130.27 20.2059H140.771C142.429 20.2059 143.84 20.5046 145 21.1035C146.161 21.7041 147.098 22.4615 147.811 23.3772C148.511 24.2498 149.035 25.2507 149.354 26.3241C149.686 27.39 149.852 28.38 149.852 29.2957ZM184.312 38.412H177.842V20.5046C177.842 19.6565 177.627 19.0146 177.196 18.5823C176.764 18.1319 176.118 17.9074 175.255 17.9074H163.586V11.4131H175.255C175.87 11.4131 176.516 11.489 177.196 11.6391C177.877 11.7711 178.547 11.9889 179.211 12.2876C179.892 12.5879 180.538 12.9806 181.153 13.4624C181.766 13.9277 182.305 14.5019 182.769 15.185C183.234 15.8516 183.607 16.6254 183.89 17.5082C184.171 18.3909 184.312 19.3892 184.312 20.5046V38.412ZM160.974 38.412H154.504V0H160.974V38.412ZM220.29 23.7765H199.862V17.2326H220.29V23.7765ZM223.201 38.412H199.862C198.966 38.412 197.988 38.2536 196.926 37.9385C195.851 37.6145 194.846 37.0888 193.966 36.3891C193.07 35.6565 192.315 34.716 191.702 33.5676C191.104 32.4011 190.806 30.9771 190.806 29.2957V5.86905C190.806 5.42025 190.889 4.99455 191.055 4.59525C191.221 4.19595 191.444 3.84615 191.727 3.54585C192.025 3.2472 192.373 3.0129 192.771 2.8479C193.17 2.68125 193.601 2.5971 194.064 2.5971H223.201V9.0915H197.275V29.2957C197.275 30.1455 197.498 30.7956 197.947 31.2444C198.394 31.6949 199.05 31.9193 199.913 31.9193H223.201V38.412ZM259.477 11.4131L247.858 24.1511L260.945 38.412H252.038L243.429 28.9971L234.82 38.412H225.887L238.95 24.1016L227.382 11.4131H236.238L243.379 19.2308L250.57 11.4131H259.477Z" fill="white"/>
<path d="M4.50059 10.8304H10.257L12.241 2.11182H18.7503L16.7942 10.8304H23.4925L25.4485 2.11182H31.9841L30.0017 10.8304H36.1625L34.7702 16.9849H28.6341L27.2139 23.4331H33.1347L31.7671 29.5876H25.848L23.8673 38.4118H17.3317L19.3141 29.5876H12.6174L10.6351 38.4118H4.12581L6.08187 29.5876H0L1.4728 23.4331H7.44619L8.89269 16.9866H3.02614L4.50059 10.8321V10.8304ZM13.9834 23.4331H20.68L22.0986 16.9866H15.4019L13.9834 23.4331Z" fill="#C2F051"/>
<path d="M47.5703 53.1298H51.0386C51.4775 53.1298 51.9213 53.1793 52.3701 53.2783C52.8188 53.3674 53.2199 53.5258 53.57 53.7568C53.9335 53.9787 54.2337 54.2914 54.4412 54.6643C54.6713 55.0504 54.7864 55.5338 54.7864 56.1163C54.7864 56.7334 54.6006 57.2713 54.2275 57.7333C53.8544 58.1854 53.3563 58.4824 52.7317 58.6243V58.6573C53.4878 58.7464 54.1124 59.0434 54.6056 59.5483C55.1102 60.0433 55.3617 60.7198 55.3617 61.5778C55.3644 62.0352 55.2602 62.487 55.0575 62.8968C54.8549 63.3065 54.5593 63.6629 54.1946 63.9373C53.7817 64.2316 53.3196 64.4496 52.8303 64.5808C52.2928 64.7359 51.6912 64.8118 51.0222 64.8118H47.5703V53.1298ZM48.7538 58.2448H51.1372C51.4216 58.2448 51.7076 58.2118 51.992 58.1458C52.2879 58.0798 52.5558 57.9709 52.7974 57.8158C53.0548 57.6345 53.2631 57.3917 53.4037 57.1094C53.5443 56.8272 53.6128 56.5142 53.6029 56.1988C53.6029 55.8259 53.5256 55.5124 53.3728 55.2583C53.2329 54.997 53.0293 54.7756 52.781 54.6148C52.5295 54.4498 52.2336 54.3343 51.8934 54.2683C51.5371 54.1894 51.1733 54.1507 50.8085 54.1528H48.7538V58.2448ZM48.7538 63.7888H50.9564C51.3838 63.7888 51.7898 63.7508 52.1728 63.6733C52.5673 63.5858 52.9076 63.4538 53.1919 63.2773C53.4878 63.0908 53.7229 62.8549 53.8988 62.5678C54.0746 62.2708 54.1618 61.9193 54.1618 61.5118C54.1618 60.7429 53.8988 60.1703 53.3728 59.7958C52.8583 59.4113 52.1235 59.2183 51.1701 59.2183H48.7538V63.7888ZM60.8469 63.7558H66.2713V64.8118H59.6634V53.1298H60.8469V63.7558ZM80.6952 58.9708C80.6952 59.8618 80.5423 60.6818 80.2349 61.4293C79.941 62.1575 79.5051 62.8195 78.9528 63.3763C78.4024 63.9241 77.7486 64.3561 77.0296 64.6468C76.2965 64.9553 75.496 65.1088 74.6297 65.1088C73.8018 65.1161 72.9807 64.9591 72.2134 64.6468C71.4972 64.3508 70.8443 63.9195 70.2902 63.3763C69.7465 62.8159 69.3166 62.1546 69.0245 61.4293C68.7114 60.6482 68.5549 59.8127 68.5643 58.9708C68.5643 58.0798 68.7188 57.2614 69.0245 56.5123C69.3141 55.7906 69.7445 55.1342 70.2902 54.5818C70.8408 54.03 71.4943 53.5927 72.2134 53.2948C72.9597 52.9879 73.7651 52.8328 74.6297 52.8328C75.496 52.8328 76.2965 52.9879 77.0296 53.2948C77.7759 53.6033 78.4169 54.0323 78.9528 54.5818C79.5018 55.1213 79.9292 55.7648 80.2349 56.5123C80.5423 57.2614 80.6952 58.0798 80.6952 58.9708ZM79.4459 58.9708C79.4459 58.2893 79.3374 57.6409 79.1172 57.0238C78.9092 56.4267 78.5851 55.8771 78.1638 55.4068C77.7395 54.9279 77.2183 54.5454 76.6351 54.2848C76.0048 54.0016 75.3202 53.8608 74.6297 53.8723C73.8851 53.8723 73.2112 54.0109 72.6079 54.2848C72.0162 54.5603 71.5132 54.9349 71.0957 55.4068C70.6798 55.8688 70.3626 56.4083 70.1423 57.0238C69.9237 57.6409 69.8135 58.2893 69.8135 58.9708C69.8135 59.6539 69.9237 60.3023 70.1423 60.9178C70.3626 61.5349 70.6798 62.0728 71.0957 62.5348C71.5132 62.9968 72.0162 63.3664 72.6079 63.6403C73.2112 63.9158 73.8851 64.0528 74.6297 64.0528C75.376 64.0528 76.0434 63.9158 76.6351 63.6403C77.2384 63.3664 77.7479 62.9968 78.1638 62.5348C78.5813 62.0728 78.8985 61.5349 79.1172 60.9178C79.3374 60.3023 79.4459 59.6539 79.4459 58.9708ZM94.5947 62.9308C94.3975 63.2278 94.1575 63.5083 93.8715 63.7723C93.5986 64.0363 93.2748 64.2673 92.9016 64.4653C92.54 64.6633 92.1357 64.8184 91.6853 64.9273C91.248 65.0494 90.7648 65.1088 90.2388 65.1088C89.4055 65.1171 88.5787 64.9601 87.806 64.6468C87.087 64.3562 86.4331 63.9242 85.8828 63.3763C85.339 62.8159 84.9091 62.1546 84.6171 61.4293C84.3213 60.6818 84.1733 59.8618 84.1733 58.9708C84.1733 58.0798 84.3278 57.2614 84.6336 56.5123C84.941 55.7648 85.3634 55.1213 85.8993 54.5818C86.4498 54.03 87.1034 53.5927 87.8225 53.2948C88.5687 52.9879 89.3742 52.8328 90.2388 52.8328C91.0711 52.8302 91.8946 53.0045 92.6551 53.3443C93.0167 53.4994 93.3455 53.6908 93.6413 53.9218C93.9372 54.1429 94.1838 54.3953 94.381 54.6808L93.3948 55.4068C93.2558 55.1987 93.09 55.0101 92.9016 54.8458C92.69 54.6487 92.4521 54.4821 92.1948 54.3508C91.907 54.2024 91.6039 54.0862 91.2908 54.0043C90.9531 53.9137 90.6047 53.8693 90.2552 53.8723C89.4991 53.8723 88.8202 54.0109 88.217 54.2848C87.6252 54.5603 87.1222 54.9349 86.7047 55.4068C86.2888 55.8688 85.9716 56.4083 85.7513 57.0238C85.5306 57.6488 85.4193 58.3076 85.4226 58.9708C85.4226 59.6539 85.5327 60.3023 85.7513 60.9178C85.9815 61.5349 86.3053 62.0794 86.7211 62.5513C87.1387 63.0133 87.6417 63.3829 88.2334 63.6568C88.8367 63.9323 89.5106 64.0693 90.2552 64.0693C90.9242 64.0693 91.5603 63.9323 92.162 63.6568C92.7799 63.3686 93.3041 62.911 93.6742 62.3368L94.5947 62.9308ZM99.4569 58.3768H99.4734L105.013 53.1298H106.706L100.838 58.4263L107.035 64.8118H105.292L99.4734 58.5913H99.4569V64.8118H98.2734V53.1298H99.4569V58.3768ZM119.632 62.9308C119.435 63.2278 119.195 63.5083 118.909 63.7723C118.636 64.0363 118.314 64.2673 117.939 64.4653C117.578 64.6633 117.173 64.8184 116.723 64.9273C116.286 65.0494 115.802 65.1088 115.276 65.1088C114.443 65.1171 113.616 64.9601 112.844 64.6468C112.125 64.3561 111.471 63.9241 110.92 63.3763C110.377 62.8159 109.947 62.1546 109.655 61.4293C109.359 60.6818 109.211 59.8618 109.211 58.9708C109.211 58.0798 109.365 57.2614 109.671 56.5123C109.961 55.7906 110.391 55.1342 110.937 54.5818C111.487 54.03 112.141 53.5927 112.86 53.2948C113.606 52.9879 114.412 52.8328 115.276 52.8328C116.109 52.8302 116.932 53.0045 117.693 53.3443C118.054 53.4994 118.383 53.6908 118.679 53.9218C118.975 54.1429 119.221 54.3953 119.419 54.6808L118.432 55.4068C118.293 55.1987 118.128 55.01 117.939 54.8458C117.728 54.6487 117.49 54.4821 117.232 54.3508C116.945 54.2024 116.641 54.0862 116.328 54.0043C115.991 53.9137 115.642 53.8693 115.293 53.8723C114.537 53.8723 113.858 54.0109 113.255 54.2848C112.663 54.5603 112.16 54.9349 111.742 55.4068C111.328 55.8688 111.009 56.4083 110.789 57.0238C110.57 57.6409 110.46 58.2893 110.46 58.9708C110.46 59.6539 110.57 60.3023 110.789 60.9178C111.019 61.5349 111.343 62.0794 111.759 62.5513C112.176 63.0133 112.679 63.3829 113.271 63.6568C113.876 63.9323 114.55 64.0693 115.293 64.0693C115.951 64.0716 116.601 63.9309 117.2 63.6568C117.817 63.3686 118.342 62.911 118.712 62.3368L119.632 62.9308ZM123.311 53.1298H124.495V58.1953H130.839V53.1298H132.023V64.8118H130.839V59.2843H124.495V64.8118H123.311V53.1298ZM136.671 64.8118H135.373L140.403 53.1298H141.553L146.55 64.8118H145.235L143.953 61.7428H137.937L136.671 64.8118ZM138.381 60.6538H143.509L140.945 54.4498L138.381 60.6538ZM151.09 64.8118H149.907V53.1298H151.09V64.8118ZM164.071 63.0793H164.104V53.1298H165.287V64.8118H163.808L157.036 54.7633H157.003V64.8118H155.819V53.1298H157.299L164.071 63.0793ZM181.408 55.0108C181.155 54.6578 180.822 54.3695 180.438 54.1693C180.043 53.9498 179.567 53.8393 179.008 53.8393C178.723 53.8393 178.433 53.8838 178.137 53.9713C177.841 54.0604 177.573 54.1973 177.331 54.3838C177.087 54.5629 176.885 54.7939 176.739 55.0603C176.596 55.3358 176.526 55.6609 176.526 56.0338C176.526 56.4083 176.596 56.7169 176.739 56.9578C176.882 57.2003 177.068 57.4099 177.298 57.5848C177.54 57.7498 177.808 57.8884 178.104 57.9973C178.411 58.1078 178.728 58.2184 179.057 58.3273C179.463 58.4593 179.868 58.6028 180.274 58.7563C180.689 58.9114 181.063 59.1143 181.391 59.3668C181.72 59.6093 181.988 59.9228 182.197 60.3073C182.405 60.6818 182.509 61.1603 182.509 61.7428C182.525 62.2356 182.422 62.725 182.211 63.17C181.999 63.615 181.684 64.0026 181.293 64.3003C180.943 64.5758 180.537 64.7788 180.076 64.9108C179.291 65.1434 178.459 65.1718 177.66 64.9933C177.315 64.9289 176.978 64.8237 176.657 64.6798C176.34 64.5365 176.042 64.3536 175.77 64.1353C175.496 63.9156 175.253 63.6604 175.046 63.3763L176.066 62.6173C176.317 63.0364 176.669 63.3878 177.118 63.6733C177.578 63.9488 178.115 64.0858 178.728 64.0858C179.034 64.0842 179.339 64.0398 179.632 63.9538C179.94 63.8548 180.213 63.7129 180.454 63.5248C180.706 63.3268 180.91 63.0908 181.063 62.8153C181.227 62.5298 181.309 62.1998 181.309 61.8253C181.309 61.4194 181.227 61.0828 181.063 60.8188C180.912 60.5461 180.697 60.314 180.438 60.1423C180.159 59.9471 179.855 59.7916 179.534 59.6803C179.179 59.5543 178.823 59.4333 178.465 59.3173C178.082 59.196 177.703 59.0584 177.331 58.9048C176.97 58.7575 176.632 58.5573 176.329 58.3108C176.029 58.0536 175.783 57.7396 175.605 57.3868C175.429 57.0238 175.342 56.5783 175.342 56.0503C175.342 55.4893 175.452 55.0058 175.671 54.5983C175.901 54.1924 176.197 53.8558 176.559 53.5918C176.92 53.3278 177.32 53.1364 177.759 53.0143C178.197 52.8938 178.63 52.8328 179.057 52.8328C179.846 52.8328 180.52 52.9763 181.079 53.2618C181.638 53.5373 182.06 53.8673 182.345 54.2518L181.408 55.0108ZM187.876 63.7558H194.106V64.8118H186.692V53.1298H193.908V54.1858H187.876V58.2118H193.514V59.2513H187.876V63.7558ZM207.861 62.9308C207.663 63.2278 207.422 63.5083 207.137 63.7723C206.863 64.0363 206.539 64.2673 206.168 64.4653C205.806 64.6633 205.4 64.8184 204.951 64.9273C204.512 65.0494 204.031 65.1088 203.505 65.1088C202.671 65.1173 201.845 64.9603 201.072 64.6468C200.353 64.3567 199.699 63.9246 199.149 63.3763C198.604 62.8163 198.174 62.1549 197.883 61.4293C197.587 60.6818 197.439 59.8618 197.439 58.9708C197.439 58.0798 197.592 57.2614 197.899 56.5123C198.189 55.7887 198.62 55.131 199.168 54.5783C199.716 54.0256 200.369 53.5891 201.088 53.2948C201.856 52.9824 202.677 52.8254 203.505 52.8328C204.337 52.8303 205.16 53.0046 205.921 53.3443C206.283 53.4994 206.611 53.6908 206.907 53.9218C207.203 54.1429 207.45 54.3953 207.647 54.6808L206.661 55.4068C206.521 55.1992 206.355 55.0106 206.168 54.8458C205.956 54.6489 205.718 54.4824 205.461 54.3508C205.173 54.2025 204.87 54.0863 204.557 54.0043C204.219 53.9139 203.871 53.8695 203.521 53.8723C202.765 53.8723 202.084 54.0109 201.483 54.2848C200.911 54.553 200.397 54.9335 199.974 55.4039C199.551 55.8743 199.225 56.4251 199.017 57.0238C198.797 57.6409 198.688 58.2893 198.688 58.9708C198.688 59.6539 198.797 60.3023 199.017 60.9178C199.247 61.5349 199.57 62.0794 199.987 62.5513C200.403 63.0133 200.908 63.3829 201.499 63.6568C202.101 63.9323 202.775 64.0693 203.521 64.0693C204.188 64.0693 204.825 63.9323 205.428 63.6568C206.029 63.3829 206.534 62.9423 206.94 62.3368L207.861 62.9308ZM215.828 65.1088C214.952 65.1088 214.233 64.9603 213.675 64.6633C213.116 64.3564 212.672 63.9703 212.343 63.5083C212.019 63.0568 211.785 62.5471 211.653 62.0068C211.537 61.4978 211.477 60.9778 211.472 60.4558V53.1298H212.655V60.3238C212.655 60.7973 212.71 61.2593 212.82 61.7098C212.922 62.1343 213.101 62.5368 213.346 62.8978C213.597 63.2393 213.926 63.5198 214.332 63.7393C214.738 63.9488 215.236 64.0528 215.828 64.0528C216.42 64.0528 216.918 63.9488 217.324 63.7393C217.73 63.5198 218.052 63.2393 218.293 62.8978C218.548 62.5399 218.732 62.1367 218.836 61.7098C218.946 61.2593 219 60.7973 219 60.3238V53.1298H220.184V60.4558C220.184 60.9409 220.118 61.4573 219.987 62.0068C219.867 62.5463 219.641 63.0463 219.313 63.5083C218.984 63.9703 218.535 64.3564 217.965 64.6633C217.406 64.9603 216.694 65.1088 215.828 65.1088ZM226.036 64.8118H224.852V53.1298H228.271C228.84 53.1298 229.366 53.1859 229.849 53.2948C230.342 53.4053 230.763 53.5868 231.115 53.8393C231.476 54.0818 231.756 54.4003 231.953 54.7963C232.15 55.1923 232.249 55.6774 232.249 56.2483C232.254 56.6372 232.18 57.0232 232.034 57.3832C231.887 57.7432 231.669 58.0699 231.394 58.3438C231.122 58.603 230.804 58.8099 230.457 58.9543C230.096 59.1094 229.701 59.2084 229.274 59.2513L232.676 64.8118H231.23L228.008 59.3503H226.036V64.8118ZM226.036 58.3273H228.09C229.044 58.3273 229.777 58.1573 230.293 57.8158C230.807 57.4643 231.065 56.9413 231.065 56.2483C231.065 55.8638 230.993 55.5388 230.852 55.2748C230.711 55.0138 230.508 54.7925 230.26 54.6313C230.007 54.4663 229.701 54.3458 229.339 54.2683C228.945 54.188 228.542 54.1493 228.14 54.1528H226.036V58.3273ZM237.519 64.8118H236.335V53.1298H237.519V64.8118ZM245.979 64.8118H244.796V54.1858H240.9V53.1298H249.875V54.1858H245.979V64.8118ZM257.068 64.8118H255.884V59.7793L251.528 53.1298H253.008L256.509 58.7893L260.043 53.1298H261.424L257.068 59.7793V64.8118Z" fill="#C4C4C4"/>
</svg>
