<svg xmlns="http://www.w3.org/2000/svg" height="1em"  viewBox="0 0 250 42" fill="none">
  <path fill="#29C278" d="M16.808 16.923l.216-4.706h-.259l-4.839 7.901H10.89l-5.056-7.901h-.216l.259 4.23V33.02H.256V2.81h6.009l5.185 8.372h.172l5.143-8.372h5.964v30.21h-5.921V16.923zM27.003 28.274h7.607V16.187h-7.607v-4.745h13.222v16.832h7.995v4.746H27.004v-4.746zM33.57 5.572c0-.89.333-1.654.998-2.287.661-.633 1.583-.952 2.763-.952 1.21 0 2.177.32 2.897.952.721.633 1.082 1.396 1.082 2.287 0 .92-.36 1.678-1.082 2.268-.719.59-1.686.883-2.897.883-1.18 0-2.102-.293-2.764-.883-.666-.59-.997-1.347-.997-2.268zM59.499 21.887l-7.52-10.445h6.698l4.883 7.208 5.099-7.208h6.092l-7.388 10.36L75.18 33.02h-6.521l-5.487-7.94-5.574 7.94H51.46l8.038-11.133zM99.336 9.844c0 .75-.093 1.495-.282 2.243a6.108 6.108 0 01-.929 2.052 6.485 6.485 0 01-1.685 1.64c-.693.474-1.525.83-2.508 1.058v.259a9.886 9.886 0 012.464.735c.78.344 1.456.819 2.033 1.423.575.605 1.029 1.338 1.361 2.202.331.864.496 1.884.496 3.061 0 1.553-.331 2.898-.996 4.038a8.165 8.165 0 01-2.656 2.782c-1.109.719-2.373 1.251-3.78 1.597-1.416.345-2.87.518-4.368.518h-1.88c-.763 0-1.587-.02-2.462-.062a64.953 64.953 0 01-2.68-.197 18.367 18.367 0 01-2.486-.39V3.026a55.172 55.172 0 011.88-.26 53.944 53.944 0 012.272-.213 72.995 72.995 0 012.483-.134c.849-.024 1.692-.04 2.53-.04 1.41 0 2.787.106 4.125.322 1.339.216 2.536.596 3.584 1.143a6.615 6.615 0 012.531 2.29c.636.976.953 2.216.953 3.71zm-12.794 5.655c.409 0 .887-.016 1.43-.04.544-.032.993-.076 1.347-.13 1.114-.344 2.078-.854 2.886-1.54.806-.683 1.211-1.578 1.211-2.688 0-.74-.148-1.356-.442-1.839a3.33 3.33 0 00-1.166-1.152 5.038 5.038 0 00-1.653-.597 10.66 10.66 0 00-1.94-.173c-.764 0-1.467.016-2.115.045a14.12 14.12 0 00-1.495.125v7.988h1.937zm1.906 12.993c.718 0 1.419-.087 2.095-.26a5.536 5.536 0 001.792-.787 4.18 4.18 0 001.255-1.349c.316-.54.474-1.183.474-1.925 0-.939-.187-1.681-.563-2.217a3.798 3.798 0 00-1.471-1.26 6.098 6.098 0 00-2.03-.577 20.103 20.103 0 00-2.245-.127h-3.153v8.245c.142.058.373.1.69.13.317.026.656.05 1.016.063.36.017.734.03 1.123.046.39.011.728.018 1.017.018zM115.235 26.938h1.646l4.192-15.496h5.788l-6.137 19.465a111.207 111.207 0 01-1.597 4.422c-.52 1.342-1.126 2.5-1.815 3.476-.692.98-1.508 1.736-2.442 2.267-.936.531-2.078.8-3.437.8a6.65 6.65 0 01-1.879-.258 9.987 9.987 0 01-1.62-.624 9.414 9.414 0 01-1.296-.779 7.607 7.607 0 01-.905-.753l2.894-3.844c.377.319.823.611 1.34.886.517.273 1.008.409 1.467.409.867 0 1.551-.3 2.054-.906.505-.604.987-1.595 1.447-2.979h-3.067l-8.986-21.578h6.093l6.26 15.492zM133.168 16.187h-4.274v-4.744h4.274V6.52l5.616-1.595v6.518h11.321v4.745h-11.321v6.175c0 2.213.416 3.816 1.253 4.81.835.996 2.003 1.492 3.501 1.492.775 0 1.482-.097 2.114-.281a7.923 7.923 0 001.71-.712 9.966 9.966 0 001.382-.95c.416-.346.802-.661 1.144-.948l2.593 3.883a8.435 8.435 0 01-1.836 1.576c-.735.473-1.525.894-2.376 1.253-.849.357-1.735.638-2.658.839-.921.2-1.827.303-2.724.303-3.224 0-5.65-.9-7.28-2.698-1.626-1.797-2.441-4.654-2.441-8.567V16.19l.002-.002zM177.153 30.734c-.373.346-.855.683-1.447 1.014a13.91 13.91 0 01-2.073.93c-.797.287-1.663.516-2.614.69-.95.172-1.961.255-3.028.255-1.845 0-3.491-.256-4.948-.775-1.454-.515-2.685-1.272-3.693-2.266-1.008-.99-1.781-2.183-2.308-3.582-.538-1.392-.802-2.981-.802-4.766 0-1.898.301-3.56.904-4.987.606-1.422 1.436-2.606 2.487-3.56 1.05-.947 2.285-1.658 3.692-2.138 1.411-.472 2.937-.71 4.581-.71 1.097 0 2.225.145 3.39.433a9.262 9.262 0 013.222 1.49c.98.702 1.778 1.646 2.396 2.826.62 1.18.931 2.677.931 4.49 0 1.235-.146 2.572-.433 4.013h-15.555c.029.922.221 1.7.582 2.33.36.634.835 1.153 1.425 1.553.589.402 1.266.7 2.031.883a10.2 10.2 0 002.441.28c1.729 0 3.147-.2 4.254-.603 1.11-.407 2.01-.894 2.701-1.468l1.864 3.668zm-9.33-15.408c-.75 0-1.456.1-2.119.308a5.845 5.845 0 00-1.791.902c-.536.396-.97.888-1.318 1.472a4.613 4.613 0 00-.606 1.98h10.631c0-1.437-.397-2.574-1.191-3.408-.79-.834-1.994-1.254-3.606-1.254zM197.377 27.067c0-.575-.352-1.035-1.061-1.385-.704-.343-1.577-.66-2.611-.945a102.8 102.8 0 00-3.416-.89 15.585 15.585 0 01-3.415-1.25c-1.037-.533-1.908-1.209-2.611-2.027-.707-.822-1.062-1.882-1.062-3.173 0-1.066.239-2.003.713-2.806a6.368 6.368 0 011.944-2.048c.823-.564 1.801-.989 2.939-1.275 1.137-.288 2.371-.43 3.696-.43 1.408 0 2.648.099 3.714.3 1.066.2 1.996.447 2.788.735.793.287 1.468.608 2.033.97a40.13 40.13 0 011.447.97l-2.375 3.84a20.115 20.115 0 00-3.264-1.551 14.21 14.21 0 00-1.944-.565 9.723 9.723 0 00-2.01-.213c-1.211 0-2.188.158-2.938.476-.747.314-1.124.806-1.124 1.467 0 .52.352.936 1.06 1.252.704.317 1.577.612 2.615.883 1.032.276 2.173.572 3.411.889 1.239.312 2.376.727 3.416 1.226 1.034.505 1.909 1.162 2.614 1.965.704.808 1.061 1.843 1.061 3.11 0 2.187-.802 3.905-2.404 5.157-1.598 1.25-3.966 1.877-7.105 1.877-2.479 0-4.617-.366-6.418-1.098-1.799-.736-3.25-1.59-4.341-2.567l2.594-4.06c.376.317.87.67 1.49 1.06.618.386 1.316.743 2.092 1.059.779.315 1.607.58 2.487.797.876.216 1.75.325 2.614.325.923 0 1.713-.158 2.377-.475.662-.32.994-.853.994-1.6zM225.43.229c-1.856 3.362-3.237 6.62-4.135 9.776-.901 3.151-1.355 6.303-1.355 9.456 0 3.123.453 6.275 1.355 9.445.898 3.173 2.275 6.452 4.135 9.827h-4.811c-2.237-3.252-3.896-6.457-4.98-9.621a29.52 29.52 0 01-1.623-9.654c0-3.264.544-6.482 1.634-9.656 1.093-3.173 2.747-6.368 4.969-9.575h4.811v.002zM238.467.229h4.81c2.223 3.21 3.879 6.403 4.968 9.575 1.091 3.174 1.637 6.392 1.637 9.657 0 3.276-.542 6.5-1.625 9.653-1.083 3.163-2.742 6.37-4.98 9.62h-4.81c1.854-3.376 3.237-6.653 4.137-9.826.901-3.17 1.353-6.324 1.353-9.445 0-3.153-.451-6.305-1.353-9.456-.9-3.157-2.28-6.416-4.137-9.778z"/>
</svg>
