<svg xmlns="http://www.w3.org/2000/svg" width="13" height="12" fill="none" viewBox="0 0 13 12">
  <path fill="currentColor" d="M6.238 7.286V7.14c0-.38.066-.667.199-.864.126-.2.343-.42.651-.66l.3-.236c.32-.253.485-.578.494-.975 0-.305-.098-.551-.295-.739-.197-.188-.48-.282-.85-.282-.41 0-.711.107-.905.32-.204.22-.305.515-.305.881h-.813c0-.535.177-.99.531-1.362.348-.367.845-.55 1.492-.55.594 0 1.073.154 1.436.462.36.314.54.731.54 1.252 0 .597-.238 1.079-.715 1.445l-.397.315c-.237.181-.396.332-.476.452-.09.136-.134.316-.134.54v.148h-.753Zm-.134 2.102v-1.04h1.021v1.04h-1.02Z"/>
  <rect width="11" height="11" x="1.214" y=".5" stroke="currentColor" rx="2.5"/>
</svg>
