<svg width="24" height="24" viewBox="0 0 24 24" fill="none" xmlns="http://www.w3.org/2000/svg">
<circle cx="12" cy="12" r="8.5" stroke="currentColor"/>
<path d="M11.387 14.994C11.387 14.574 11.4523 14.2007 11.583 13.874C11.7137 13.5473 11.8793 13.2487 12.08 12.978C12.2807 12.7073 12.4883 12.4483 12.703 12.201C12.9923 11.865 13.2537 11.5173 13.487 11.158C13.7203 10.7987 13.837 10.3717 13.837 9.877C13.837 8.61233 13.221 7.98 11.989 7.98C10.7103 7.98 10.071 8.68933 10.071 10.108H9C9 9.41267 9.12833 8.83633 9.385 8.379C9.64167 7.917 9.994 7.57167 10.442 7.343C10.89 7.11433 11.4033 7 11.982 7C12.8453 7 13.5477 7.24967 14.089 7.749C14.6303 8.24833 14.901 8.97867 14.901 9.94C14.901 10.3693 14.8333 10.7497 14.698 11.081C14.5627 11.4077 14.39 11.7017 14.18 11.963C13.97 12.2243 13.753 12.474 13.529 12.712C13.221 13.0433 12.9457 13.384 12.703 13.734C12.4603 14.0793 12.339 14.4993 12.339 14.994H11.387ZM11.933 17.584C11.7043 17.584 11.5107 17.507 11.352 17.353C11.1933 17.1943 11.114 17.0007 11.114 16.772C11.114 16.548 11.1933 16.3567 11.352 16.198C11.5107 16.0393 11.7043 15.96 11.933 15.96C12.157 15.96 12.3483 16.0393 12.507 16.198C12.6657 16.3567 12.745 16.548 12.745 16.772C12.745 17.0007 12.6657 17.1943 12.507 17.353C12.3483 17.507 12.157 17.584 11.933 17.584Z" fill="currentColor"/>
</svg>
