<svg width="51" height="49" viewBox="0 0 51 49" fill="none" xmlns="http://www.w3.org/2000/svg">
<g clip-path="url(#clip0_1179_29429)">
<path d="M35.349 10.8449C36.6226 9.23508 37.8113 7.68177 38.9999 6.15669C39.7358 5.19646 40.4999 4.26448 41.2075 3.30424C41.632 2.7394 42.1414 2.25929 41.9999 1.35554C41.8867 0.621248 42.6792 -7.8233e-05 43.4433 -0.0283203C44.1792 -0.0283203 44.8301 0.508279 44.9716 1.21433C45.1131 1.97687 44.6886 2.82413 43.8962 2.90886C43.132 2.99358 42.8207 3.4737 42.4528 3.95381C40.4999 6.46736 38.5471 8.9809 36.5943 11.4662C36.2547 11.8898 36.1697 12.2287 36.4245 12.7653C38.9433 18.1596 38.7169 23.4126 35.6603 28.5527C35.3773 29.0328 35.4056 29.3152 35.8018 29.6541C36.283 30.0777 36.7075 30.5296 37.1603 30.9815C37.1886 31.0097 37.2452 31.038 37.3584 31.0662C37.5848 30.8685 37.8396 30.6708 38.0377 30.5296C42.3679 34.8506 46.698 39.1717 50.9999 43.4645C49.1603 45.272 47.2641 47.1642 45.4245 48.9999C41.1792 44.7636 36.8773 40.4426 32.5188 36.0651C32.6037 35.9521 32.8301 35.6979 33.0565 35.4155C32.3773 34.7659 31.7546 34.1446 31.0471 33.4385C27.4811 35.7262 23.5471 36.6581 19.3018 35.9803C15.0848 35.3025 11.6886 33.1844 8.97163 29.8236C7.92446 31.0662 6.9622 32.2241 5.97163 33.3821C5.29239 34.2011 4.61314 35.0201 3.90559 35.8391C3.42446 36.4322 2.91503 36.9406 2.99993 37.8443C3.05654 38.5786 2.32069 39.087 1.55654 39.087C0.735782 39.087 0.141443 38.5504 0.0565372 37.7596C-0.0283685 36.997 0.452764 36.2063 1.24522 36.1498C1.83956 36.0933 2.17918 35.8109 2.5188 35.3872C4.24522 33.2973 5.97163 31.2074 7.75465 29.1457C8.09427 28.7504 8.12257 28.4679 7.86786 28.0161C2.29239 17.9336 8.17918 5.70482 19.5848 4.0103C25.6131 3.10655 30.6509 5.16822 34.6131 9.82816C34.7263 9.96937 34.8396 10.1388 34.9811 10.28C35.0094 10.4212 35.1226 10.5907 35.349 10.8449ZM36.7641 20.1083C36.849 12.0875 30.2263 5.28119 22.1886 5.19646C13.8962 5.11174 7.16031 11.6074 7.0754 19.7976C6.9905 28.0443 13.5282 34.7377 21.7641 34.8224C29.9433 34.9354 36.6792 28.3267 36.7641 20.1083ZM36.3679 37.929C38.7735 40.3296 41.1792 42.7867 43.4999 45.1025C44.6886 43.9164 45.9339 42.7019 47.2358 41.4311C46.0471 40.2731 44.8301 39.087 43.6414 37.9008C42.4245 36.6864 41.2358 35.4437 40.0754 34.2858C38.7452 35.5849 37.4999 36.7994 36.3679 37.929ZM34.0188 34.314C34.8113 33.5515 35.5471 32.8737 36.2829 32.1959C35.6603 31.5746 35.066 30.9815 34.6131 30.5578C33.8773 31.2639 33.1414 31.97 32.4056 32.6478C32.915 33.1844 33.4811 33.7774 34.0188 34.314ZM49.1603 43.408C48.8773 43.1256 48.5943 42.8714 48.3962 42.7019C47.0943 44.0011 45.849 45.2155 44.632 46.4017C44.8301 46.6558 45.0848 46.9665 45.283 47.2207C46.6131 45.8933 47.8584 44.6789 49.1603 43.408ZM35.0377 36.8841C36.3113 35.6132 37.5565 34.3988 38.8584 33.0996C38.632 32.9019 38.4056 32.676 38.2075 32.4783C36.9056 33.7774 35.6603 34.9919 34.4433 36.178C34.6697 36.4322 34.8962 36.6864 35.0377 36.8841Z" fill="#CCFF3C"/>
<path d="M21.9055 33.269C14.5471 33.2408 8.63196 27.3099 8.66026 19.9387C8.68856 12.624 14.632 6.74969 21.9621 6.77793C29.3206 6.80618 35.1508 12.7088 35.1508 20.1364C35.1508 27.3664 29.1791 33.269 21.9055 33.269ZM11.1508 25.0223C12.5942 23.2995 13.9244 21.7462 15.198 20.1647C15.3395 19.9952 15.2829 19.5998 15.198 19.4021C14.7735 18.5549 14.632 17.6794 14.8584 16.7756C15.3395 14.6857 17.4904 13.4431 19.5565 14.0644C21.5659 14.6575 22.6697 16.8321 21.9338 18.8655C21.764 19.3457 21.6508 19.7128 22.1037 20.08C22.3584 20.2776 22.5282 20.5883 22.7829 20.786C22.9244 20.899 23.1791 21.0402 23.3206 20.9837C24.6791 20.4189 25.9527 20.6166 27.198 21.3508C28.8112 19.2609 30.3678 17.2275 31.981 15.2223C32.3772 14.714 32.3772 14.3751 32.0376 13.8667C29.5471 10.054 26.0659 8.04883 21.5376 8.19004C17.0942 8.33125 13.6697 10.4494 11.5187 14.3468C9.62252 17.7641 9.56592 21.2944 11.1508 25.0223ZM11.915 26.3215C15.1697 31.7157 22.4716 33.4667 27.9338 30.2189C32.7735 27.3382 35.3772 20.2494 32.9999 16.239C32.8584 16.3802 32.7169 16.4932 32.6037 16.6627C31.2452 18.3854 29.915 20.1364 28.5565 21.8592C28.2169 22.2828 28.1886 22.6217 28.3584 23.1019C28.9527 24.6834 28.3867 26.4627 26.9999 27.3947C25.5848 28.3549 23.7169 28.2419 22.415 27.1122C21.1697 26.039 20.8301 24.2033 21.5659 22.6782C21.6791 22.4523 21.7923 22.2546 21.9338 22.0004C21.5942 21.6333 21.2829 21.2379 20.915 20.9272C20.7735 20.8142 20.4621 20.7295 20.2923 20.8142C19.0187 21.4921 17.7735 21.4638 16.4716 20.8142C14.9716 22.65 13.4433 24.4575 11.915 26.3215ZM27.2263 24.3445C27.2546 23.1301 26.1508 22.0287 24.9338 22.0004C23.6886 22.0004 22.6131 23.0454 22.6131 24.288C22.6131 25.5589 23.632 26.6039 24.9055 26.6039C26.1508 26.6321 27.2263 25.5872 27.2263 24.3445ZM20.7452 17.6229C20.7452 16.352 19.7546 15.307 18.481 15.2788C17.2357 15.2506 16.1603 16.2955 16.1603 17.5664C16.132 18.8373 17.1508 19.8823 18.4244 19.9105C19.6697 19.9105 20.7169 18.8938 20.7452 17.6229Z" fill="#CCFF3C"/>
</g>
<defs>
<clipPath id="clip0_1179_29429">
<rect width="51" height="49" fill="white"/>
</clipPath>
</defs>
</svg>
