<svg width="50" height="66" viewBox="0 0 50 66" fill="none" xmlns="http://www.w3.org/2000/svg">
<rect x="1" y="25" width="48" height="40" rx="4" stroke="white" stroke-width="2"/>
<path d="M13 13C13 6.37258 18.3726 1 25 1V1C31.6274 1 37 6.37258 37 13V25H13V13Z" stroke="white" stroke-width="2"/>
<path d="M28 48.3264L27.5709 47.4231L27 47.6943V48.3264H28ZM22 48.3264H23V47.6943L22.4291 47.4231L22 48.3264ZM31 42C31 44.392 29.6003 46.459 27.5709 47.4231L28.4291 49.2296C31.1296 47.9468 33 45.1928 33 42H31ZM25 36C28.3137 36 31 38.6863 31 42H33C33 37.5817 29.4183 34 25 34V36ZM19 42C19 38.6863 21.6863 36 25 36V34C20.5817 34 17 37.5817 17 42H19ZM22.4291 47.4231C20.3997 46.459 19 44.392 19 42H17C17 45.1928 18.8704 47.9468 21.5709 49.2296L22.4291 47.4231ZM23 52V48.3264H21V52H23ZM25 54C23.8954 54 23 53.1046 23 52H21C21 54.2091 22.7909 56 25 56V54ZM27 52C27 53.1046 26.1046 54 25 54V56C27.2091 56 29 54.2091 29 52H27ZM27 48.3264V52H29V48.3264H27Z" fill="white"/>
</svg>
