<svg width="40" height="40" viewBox="0 0 40 40" fill="none" xmlns="http://www.w3.org/2000/svg">
<g opacity="0.8">
<path d="M19.9993 27.274C24.0159 27.274 27.272 24.0179 27.272 20.0012C27.272 15.9846 24.0159 12.7285 19.9993 12.7285C15.9827 12.7285 12.7266 15.9846 12.7266 20.0012C12.7266 24.0179 15.9827 27.274 19.9993 27.274Z" stroke="currentColor"/>
<path d="M29.3091 10.6909L31.3455 8.65455M20 4V6.90909V4ZM20 33.0909V36V33.0909ZM8.65455 8.65455L10.6909 10.6909L8.65455 8.65455ZM29.3091 29.3091L31.3455 31.3455L29.3091 29.3091ZM4 20H6.90909H4ZM33.0909 20H36H33.0909ZM8.65455 31.3455L10.6909 29.3091L8.65455 31.3455Z" stroke="currentColor"/>
</g>
</svg>
