<svg xmlns="http://www.w3.org/2000/svg" fill="none" class="SwopPrice_icon__3cI76" viewBox="0 0 32 32">
  <circle cx="16" cy="16" r="16" fill="#209D7F"/>
  <path fill="#173937" fill-rule="evenodd" d="M25.613 18.765C25.865 17.889 26 16.96 26 16c0-5.523-4.477-10-10-10a9.997 9.997 0 00-8.764 5.181l3.14 2.651a6.03 6.03 0 0110.867-.807l-1.894.48 2.782 2.316 3.482 2.944zm-1.026 2.364A9.997 9.997 0 0116 26.002c-5.523 0-10-4.477-10-10 0-.83.1-1.635.292-2.405l2.963 2.502 2.953 2.457-1.476.375a6.03 6.03 0 0010.75-.423l3.105 2.62z" clip-rule="evenodd"/>
  <path fill="#fff" fill-rule="evenodd" d="M25.614 18.765C25.865 17.889 26 16.96 26 16c0-5.523-4.476-10-10-10a9.997 9.997 0 00-8.764 5.181l3.14 2.651a6.03 6.03 0 0110.868-.807l-1.894.48 2.781 2.316 3.483 2.944z" clip-rule="evenodd"/>
</svg>
