<svg width="108" height="32" viewBox="0 0 108 32" fill="none" xmlns="http://www.w3.org/2000/svg">
<g clip-path="url(#clip0)">
<path d="M4.55117 12.3063C4.55117 12.8903 4.87585 13.3512 5.51589 13.6908C6.15779 14.0305 6.94151 14.3234 7.86518 14.5679C8.78885 14.8123 9.71625 15.1015 10.653 15.4281C11.5897 15.7546 12.3772 16.3144 13.0209 17.0944C13.6628 17.8781 13.9857 18.8653 13.9857 20.0558C13.9857 21.7389 13.3344 23.0581 12.0394 24.0173C10.7407 24.9764 9.11353 25.456 7.14864 25.456C5.41886 25.456 3.93539 25.094 2.69823 24.3699C1.46108 23.6459 0.557933 22.6383 0 21.3526L3.25617 19.4568C3.86262 21.1399 5.16135 21.9796 7.14864 21.9796C9.13593 21.9796 10.1286 21.3265 10.1286 20.0184C10.1286 19.4568 9.80395 19.0033 9.16391 18.6507C8.52201 18.298 7.73829 18.0032 6.81462 17.7587C5.89095 17.5143 4.96169 17.225 4.02682 16.8985C3.09009 16.5738 2.30264 16.0289 1.65887 15.2695C1.01697 14.5044 0.694151 13.5434 0.694151 12.3716C0.694151 10.7594 1.3062 9.46062 2.53776 8.47911C3.76372 7.49759 5.28637 7.00684 7.11132 7.00684C8.5612 7.00684 9.8506 7.33152 10.987 7.97156C12.1197 8.61533 12.9892 9.50727 13.5957 10.653L10.4048 12.4425C9.79835 11.1102 8.70115 10.4421 7.10945 10.4421C6.38544 10.4421 5.77713 10.6007 5.28824 10.9142C4.79935 11.2333 4.55117 11.698 4.55117 12.3063Z" fill="#173937"/>
<path d="M36.9677 7.46582H40.9647L35.46 24.995H31.7429L28.0949 13.1795L24.4151 24.995H20.6981L15.1934 7.46582H19.1903L22.5902 19.5594L26.2699 7.46582H29.8825L33.5305 19.5594L36.9677 7.46582Z" fill="#173937"/>
<path d="M73.6676 7.00879C76.0729 7.00879 78.1311 7.90447 79.8348 9.69023C81.5384 11.4797 82.393 13.6573 82.393 16.2287C82.393 18.8224 81.5384 21.0056 79.8348 22.7839C78.1292 24.5622 76.0692 25.4467 73.6676 25.4467C71.0049 25.4467 68.9579 24.4652 67.5322 22.5003V32.0001H63.7461V7.46596H67.5322V9.98879C68.9616 8.00523 71.0049 7.00879 73.6676 7.00879ZM69.1109 20.2462C70.1652 21.3098 71.4863 21.8397 73.0724 21.8397C74.6603 21.8397 75.9833 21.3098 77.0339 20.2462C78.0882 19.1826 78.6107 17.8428 78.6107 16.2306C78.6107 14.6183 78.0863 13.2823 77.0339 12.2149C75.9833 11.1513 74.6622 10.6214 73.0724 10.6214C71.4825 10.6214 70.1614 11.1513 69.1109 12.2149C68.0603 13.2785 67.5341 14.6183 67.5341 16.2306C67.5341 17.8428 68.0603 19.1826 69.1109 20.2462Z" fill="#173937"/>
<path d="M89.2857 24.644C88.7707 25.159 88.1529 25.4146 87.4289 25.4146C86.7049 25.4146 86.0855 25.1571 85.5723 24.644C85.0554 24.129 84.7979 23.5113 84.7979 22.7873C84.7979 22.0633 85.048 21.4438 85.5499 20.9306C86.0538 20.4138 86.6806 20.1562 87.4252 20.1562C88.1492 20.1562 88.7688 20.4138 89.2819 20.9306C89.797 21.4457 90.0526 22.0633 90.0526 22.7873C90.0545 23.5113 89.7988 24.1308 89.2857 24.644Z" fill="#173937"/>
<path d="M107.663 7.46586V24.995H103.873V11.1139H98.0544V24.9988H94.2683V11.1139H91.6055V7.46586H94.2683V7.11318C94.2702 2.37168 96.9068 0 102.193 0C103.431 0 104.726 0.153012 106.086 0.453438V3.92606C104.845 3.73946 103.55 3.64616 102.193 3.64616C100.79 3.64616 99.7487 3.90367 99.0732 4.41682C98.394 4.93183 98.0581 5.83311 98.0581 7.11505V7.46772H107.664V7.46586H107.663Z" fill="#173937"/>
<path fill-rule="evenodd" clip-rule="evenodd" d="M60.7565 18.2863C60.9897 17.4727 61.1147 16.6125 61.1147 15.7224C61.1147 10.6021 56.9647 6.45215 51.8445 6.45215C48.3438 6.45215 45.2967 8.39279 43.7199 11.2552L46.6309 13.7127C47.437 11.621 49.469 10.1356 51.8445 10.1356C53.9269 10.1356 55.7444 11.2758 56.7054 12.9645L54.9495 13.4105L57.5283 15.5564L60.7565 18.2863ZM59.8048 20.477C58.1851 23.1827 55.2256 24.9946 51.8445 24.9946C46.7242 24.9946 42.5742 20.8446 42.5742 15.7243C42.5742 14.9555 42.6675 14.2091 42.8448 13.4944L45.5915 15.8139L48.3289 18.0922L46.9611 18.4393C47.9147 20.1523 49.7452 21.3111 51.8445 21.3111C54.1004 21.3111 56.0448 19.9732 56.9274 18.0475L59.8048 20.477Z" fill="#173937"/>
<path fill-rule="evenodd" clip-rule="evenodd" d="M60.7573 18.2863C60.9905 17.4727 61.1156 16.6125 61.1156 15.7224C61.1156 10.6021 56.9656 6.45215 51.8453 6.45215C48.3447 6.45215 45.2975 8.39279 43.7207 11.2552L46.6317 13.7127C47.4378 11.621 49.4699 10.1356 51.8453 10.1356C53.9277 10.1356 55.7452 11.2758 56.7062 12.9645L54.9503 13.4105L57.5291 15.5564L60.7573 18.2863Z" fill="#12A17E"/>
</g>
<defs>
<clipPath id="clip0">
<rect width="108" height="32" fill="white"/>
</clipPath>
</defs>
</svg>
