<svg width="54" height="54" viewBox="0 0 54 54" fill="none" xmlns="http://www.w3.org/2000/svg">
<path d="M27 33.6665C30.866 33.6665 34 30.5325 34 26.6665C34 22.8005 30.866 19.6665 27 19.6665C23.134 19.6665 20 22.8005 20 26.6665C20 30.5325 23.134 33.6665 27 33.6665Z" stroke="white" stroke-width="2"/>
<path d="M44.2666 33.6667C43.956 34.3704 43.8633 35.1511 44.0006 35.908C44.1378 36.665 44.4987 37.3634 45.0366 37.9133L45.1766 38.0533C45.6105 38.4867 45.9547 39.0014 46.1895 39.5679C46.4244 40.1345 46.5453 40.7417 46.5453 41.355C46.5453 41.9683 46.4244 42.5755 46.1895 43.1421C45.9547 43.7086 45.6105 44.2233 45.1766 44.6567C44.7432 45.0906 44.2285 45.4348 43.662 45.6696C43.0954 45.9045 42.4882 46.0253 41.8749 46.0253C41.2616 46.0253 40.6544 45.9045 40.0879 45.6696C39.5213 45.4348 39.0067 45.0906 38.5732 44.6567L38.4332 44.5167C37.8833 43.9787 37.1849 43.6179 36.428 43.4807C35.671 43.3434 34.8904 43.4361 34.1866 43.7467C33.4965 44.0424 32.9079 44.5336 32.4933 45.1596C32.0787 45.7856 31.8562 46.5192 31.8533 47.27V47.6667C31.8533 48.9043 31.3616 50.0913 30.4864 50.9665C29.6112 51.8417 28.4243 52.3333 27.1866 52.3333C25.9489 52.3333 24.7619 51.8417 23.8868 50.9665C23.0116 50.0913 22.5199 48.9043 22.5199 47.6667V47.4567C22.5019 46.6843 22.2519 45.9353 21.8024 45.307C21.353 44.6786 20.725 44.2 19.9999 43.9333C19.2961 43.6227 18.5155 43.5301 17.7585 43.6673C17.0016 43.8046 16.3032 44.1654 15.7533 44.7033L15.6133 44.8433C15.1798 45.2772 14.6652 45.6214 14.0986 45.8563C13.5321 46.0911 12.9249 46.212 12.3116 46.212C11.6983 46.212 11.0911 46.0911 10.5245 45.8563C9.95801 45.6214 9.44333 45.2772 9.00992 44.8433C8.57603 44.4099 8.23182 43.8952 7.99697 43.3287C7.76213 42.7622 7.64125 42.1549 7.64125 41.5417C7.64125 40.9284 7.76213 40.3211 7.99697 39.7546C8.23182 39.1881 8.57603 38.6734 9.00992 38.24L9.14992 38.1C9.68784 37.5501 10.0487 36.8516 10.1859 36.0947C10.3232 35.3378 10.2305 34.5571 9.91992 33.8533C9.62414 33.1632 9.13301 32.5746 8.507 32.16C7.88099 31.7455 7.14742 31.523 6.39659 31.52H5.99992C4.76224 31.52 3.57526 31.0283 2.70009 30.1532C1.82492 29.278 1.33325 28.091 1.33325 26.8533C1.33325 25.6157 1.82492 24.4287 2.70009 23.5535C3.57526 22.6783 4.76224 22.1867 5.99992 22.1867H6.20992C6.98224 22.1686 7.73126 21.9186 8.35962 21.4692C8.98797 21.0198 9.46659 20.3917 9.73325 19.6667C10.0439 18.9629 10.1365 18.1822 9.99926 17.4253C9.86202 16.6684 9.50117 15.9699 8.96325 15.42L8.82325 15.28C8.38936 14.8466 8.04515 14.3319 7.81031 13.7654C7.57546 13.1989 7.45458 12.5916 7.45458 11.9783C7.45458 11.3651 7.57546 10.7578 7.81031 10.1913C8.04515 9.62475 8.38936 9.11007 8.82325 8.67667C9.25666 8.24278 9.77134 7.89857 10.3379 7.66372C10.9044 7.42887 11.5116 7.308 12.1249 7.308C12.7382 7.308 13.3454 7.42887 13.912 7.66372C14.4785 7.89857 14.9932 8.24278 15.4266 8.67667L15.5666 8.81667C16.1165 9.35459 16.815 9.71543 17.5719 9.85268C18.3288 9.98992 19.1095 9.89727 19.8133 9.58667H19.9999C20.69 9.29089 21.2786 8.79976 21.6932 8.17375C22.1078 7.54774 22.3303 6.81417 22.3333 6.06333V5.66667C22.3333 4.42899 22.8249 3.242 23.7001 2.36684C24.5753 1.49167 25.7622 1 26.9999 1C28.2376 1 29.4246 1.49167 30.2997 2.36684C31.1749 3.242 31.6666 4.42899 31.6666 5.66667V5.87667C31.6696 6.6275 31.8921 7.36108 32.3066 7.98709C32.7212 8.6131 33.3098 9.10422 33.9999 9.4C34.7037 9.7106 35.4844 9.80325 36.2413 9.66601C36.9982 9.52877 37.6967 9.16792 38.2466 8.63L38.3866 8.49C38.82 8.05611 39.3347 7.7119 39.9012 7.47705C40.4677 7.24221 41.075 7.12133 41.6883 7.12133C42.3015 7.12133 42.9088 7.24221 43.4753 7.47705C44.0418 7.7119 44.5565 8.05611 44.9899 8.49C45.4238 8.92341 45.768 9.43809 46.0029 10.0046C46.2377 10.5711 46.3586 11.1784 46.3586 11.7917C46.3586 12.4049 46.2377 13.0122 46.0029 13.5787C45.768 14.1452 45.4238 14.6599 44.9899 15.0933L44.8499 15.2333C44.312 15.7833 43.9512 16.4817 43.8139 17.2386C43.6767 17.9955 43.7693 18.7762 44.0799 19.48V19.6667C44.3757 20.3568 44.8668 20.9454 45.4928 21.3599C46.1188 21.7745 46.8524 21.997 47.6033 22H47.9999C49.2376 22 50.4246 22.4917 51.2997 23.3668C52.1749 24.242 52.6666 25.429 52.6666 26.6667C52.6666 27.9043 52.1749 29.0913 51.2997 29.9665C50.4246 30.8417 49.2376 31.3333 47.9999 31.3333H47.7899C47.0391 31.3363 46.3055 31.5588 45.6795 31.9734C45.0535 32.388 44.5624 32.9765 44.2666 33.6667V33.6667Z" stroke="white" stroke-width="2"/>
</svg>
