<svg width="32" height="32" viewBox="0 0 32 32" fill="none" xmlns="http://www.w3.org/2000/svg">
<path fill-rule="evenodd" clip-rule="evenodd" d="M22.3844 25.7791C22.7064 26.0071 23.1214 26.0641 23.4914 25.9241C23.8614 25.7831 24.1334 25.4671 24.2154 25.0841C25.0844 21.0001 27.1924 10.6631 27.9834 6.94815C28.0434 6.66815 27.9434 6.37715 27.7234 6.19015C27.5034 6.00315 27.1984 5.94915 26.9264 6.05015C22.7334 7.60215 9.8204 12.4471 4.5424 14.4001C4.2074 14.5241 3.9894 14.8461 4.0004 15.1991C4.0124 15.5531 4.2504 15.8601 4.5934 15.9631C6.9604 16.6711 10.0674 17.6561 10.0674 17.6561C10.0674 17.6561 11.5194 22.0411 12.2764 24.2711C12.3714 24.5511 12.5904 24.7711 12.8794 24.8471C13.1674 24.9221 13.4754 24.8431 13.6904 24.6401C14.9064 23.4921 16.7864 21.7171 16.7864 21.7171C16.7864 21.7171 20.3584 24.3361 22.3844 25.7791ZM11.3744 17.1021L13.0534 22.6401L13.4264 19.1331C13.4264 19.1331 19.9134 13.2821 23.6114 9.94715C23.7194 9.84915 23.7344 9.68515 23.6444 9.57015C23.5554 9.45515 23.3914 9.42815 23.2684 9.50615C18.9824 12.2431 11.3744 17.1021 11.3744 17.1021Z" fill="currentColor"/>
</svg>
