<svg width="32" height="32" viewBox="0 0 32 32" fill="none" xmlns="http://www.w3.org/2000/svg">
<path d="M28 8.309C27.117 8.701 26.168 8.965 25.172 9.084C26.189 8.475 26.97 7.51 27.337 6.36C26.386 6.924 25.332 7.334 24.21 7.555C23.313 6.598 22.032 6 20.616 6C17.437 6 15.101 8.966 15.819 12.045C11.728 11.84 8.1 9.88 5.671 6.901C4.381 9.114 5.002 12.009 7.194 13.475C6.388 13.449 5.628 13.228 4.965 12.859C4.911 15.14 6.546 17.274 8.914 17.749C8.221 17.937 7.462 17.981 6.69 17.833C7.316 19.789 9.134 21.212 11.29 21.252C9.22 22.875 6.612 23.6 4 23.292C6.179 24.689 8.768 25.504 11.548 25.504C20.69 25.504 25.855 17.783 25.543 10.858C26.505 10.163 27.34 9.296 28 8.309Z" fill="currentColor"/>
</svg>
