<svg width="40" height="40" viewBox="0 0 40 40" fill="none" xmlns="http://www.w3.org/2000/svg">
<path d="M14.3702 7.59678C14.0085 7.5451 13.9912 7.52787 14.1635 7.51065C14.4908 7.45897 15.2488 7.52787 15.7828 7.64846C17.023 7.9413 18.1427 8.69925 19.3313 10.0257L19.6414 10.3874L20.0893 10.3185C22.0014 10.0084 23.9652 10.2496 25.6017 11.0075C26.0495 11.2143 26.7558 11.6277 26.8419 11.731C26.8764 11.7655 26.9281 11.9894 26.9625 12.2134C27.0831 13.023 27.0314 13.6259 26.773 14.091C26.6352 14.3494 26.6352 14.4183 26.7213 14.6423C26.7903 14.8145 26.997 14.9351 27.1865 14.9351C27.5999 14.9351 28.0305 14.2805 28.2372 13.3675L28.3234 13.0058L28.4784 13.178C29.3569 14.1599 30.046 15.5208 30.1493 16.4855L30.1838 16.7438L30.0288 16.5199C29.7704 16.1237 29.5292 15.8653 29.2019 15.6414C28.6162 15.2452 27.9961 15.1246 26.3596 15.0385C24.8782 14.9523 24.0341 14.8317 23.2072 14.5561C21.7947 14.091 21.0712 13.4881 19.4002 11.2659C18.6595 10.2841 18.1944 9.75004 17.7293 9.30216C16.713 8.32027 15.6966 7.80349 14.3702 7.59678Z" fill="currentColor"/>
<path d="M27.2035 9.78442C27.2379 9.12983 27.3241 8.69918 27.5136 8.30298C27.5825 8.14794 27.6514 8.01013 27.6686 8.01013C27.6858 8.01013 27.6514 8.13071 27.5997 8.26852C27.4619 8.6475 27.4446 9.18151 27.5308 9.78442C27.6514 10.5596 27.703 10.663 28.5299 11.507C28.9089 11.9032 29.3567 12.4028 29.529 12.6095L29.8219 12.9885L29.529 12.7129C29.1673 12.3683 28.3404 11.7137 28.1509 11.6276C28.0303 11.5587 28.0131 11.5587 27.927 11.6448C27.8581 11.7137 27.8408 11.8171 27.8408 12.3167C27.8236 13.0918 27.7203 13.5742 27.4619 14.0737C27.3241 14.3321 27.3068 14.2804 27.4274 13.9876C27.5136 13.7637 27.5308 13.6603 27.5308 12.9196C27.5308 11.4209 27.3585 11.0592 26.3077 10.4562C26.0493 10.3012 25.6015 10.0773 25.3431 9.95668C25.0674 9.8361 24.8607 9.73274 24.878 9.73274C24.9124 9.69829 25.9287 9.99114 26.3249 10.1634C26.9279 10.4046 27.0312 10.4218 27.1001 10.4046C27.1518 10.3529 27.1863 10.2151 27.2035 9.78442Z" fill="currentColor"/>
<path d="M15.0761 12.3511C14.3526 11.352 13.8875 9.80167 13.9909 8.64752L14.0254 8.28577L14.1976 8.32022C14.5077 8.3719 15.0417 8.57861 15.3001 8.73365C15.9891 9.14707 16.2992 9.71553 16.592 11.1281C16.6782 11.5415 16.7988 12.0238 16.8504 12.1789C16.9366 12.4373 17.2639 13.0402 17.5395 13.4192C17.729 13.6948 17.6084 13.8326 17.1777 13.7981C16.5231 13.7292 15.6446 13.1263 15.0761 12.3511Z" fill="currentColor"/>
<path d="M26.3251 19.8446C22.9143 18.4665 21.7085 17.2779 21.7085 15.2624C21.7085 14.9696 21.7257 14.7284 21.7257 14.7284C21.7429 14.7284 21.8635 14.8318 22.0186 14.9523C22.7076 15.5036 23.4828 15.7447 25.6361 16.0548C26.8936 16.2443 27.6171 16.3821 28.2716 16.606C30.356 17.2951 31.648 18.7076 31.958 20.6197C32.0442 21.171 31.9925 22.2218 31.8547 22.773C31.7341 23.2036 31.3896 23.996 31.3034 24.0133C31.2862 24.0133 31.2518 23.9271 31.2518 23.7893C31.2173 23.0658 30.8556 22.3768 30.2527 21.8428C29.5292 21.2226 28.5989 20.7575 26.3251 19.8446Z" fill="currentColor"/>
<path d="M23.9135 20.4129C23.8791 20.1545 23.7929 19.8272 23.7412 19.6894L23.6551 19.431L23.8102 19.6205C24.0341 19.8789 24.2064 20.189 24.3614 20.6196C24.482 20.9469 24.482 21.0503 24.482 21.5843C24.482 22.1011 24.4647 22.2217 24.3614 22.5145C24.1891 22.9796 23.9824 23.3069 23.6379 23.6687C23.0177 24.306 22.2081 24.6505 21.054 24.8056C20.8473 24.8228 20.2616 24.8745 19.7448 24.9089C18.4528 24.9778 17.5915 25.1156 16.8163 25.3913C16.713 25.4257 16.6096 25.4602 16.5924 25.4429C16.558 25.4085 17.092 25.0984 17.5226 24.8917C18.1255 24.5989 18.7457 24.4438 20.1065 24.2027C20.7784 24.0993 21.4674 23.9615 21.6397 23.8926C23.345 23.3586 24.1891 22.0322 23.9135 20.4129Z" fill="currentColor"/>
<path d="M25.4811 23.1864C25.0332 22.2045 24.9299 21.2743 25.171 20.3958C25.2055 20.3096 25.24 20.2235 25.2744 20.2235C25.3089 20.2235 25.4122 20.2752 25.5156 20.3441C25.7223 20.4819 26.1529 20.7231 27.2554 21.326C28.6507 22.0839 29.4431 22.6696 29.9944 23.3414C30.4767 23.9271 30.7695 24.5989 30.9073 25.4258C30.9935 25.8909 30.9418 27.0106 30.8212 27.4757C30.4422 28.9399 29.5809 30.1113 28.3234 30.7831C28.1339 30.8865 27.9789 30.9554 27.9617 30.9554C27.9445 30.9554 28.0134 30.7831 28.1167 30.5764C28.5301 29.6979 28.5818 28.8538 28.2717 27.9064C28.0823 27.3207 27.6861 26.6144 26.8937 25.4258C25.9462 24.0477 25.7223 23.686 25.4811 23.1864Z" fill="currentColor"/>
<path d="M12.6474 28.4575C13.9221 27.3895 15.4897 26.6315 16.9367 26.3904C17.5568 26.287 18.5904 26.3215 19.1589 26.4765C20.0719 26.7177 20.8987 27.2345 21.3294 27.8718C21.7428 28.492 21.9323 29.026 22.1218 30.2146C22.1907 30.6797 22.2768 31.162 22.294 31.2654C22.4318 31.8855 22.7074 32.3678 23.052 32.6262C23.586 33.0224 24.5162 33.0397 25.4292 32.6951C25.5842 32.6435 25.722 32.5918 25.722 32.609C25.7565 32.6435 25.2914 32.9535 24.9813 33.1086C24.5506 33.3325 24.2061 33.4014 23.741 33.4014C22.9142 33.4014 22.2079 32.9708 21.6394 32.1095C21.5188 31.9372 21.2777 31.4376 21.071 30.9725C20.4681 29.5772 20.158 29.1638 19.4517 28.6987C18.8316 28.3025 18.0392 28.2163 17.4363 28.5092C16.6439 28.8882 16.4371 29.9045 16.9884 30.5246C17.2123 30.783 17.6257 30.9898 17.9703 31.0414C18.6076 31.1276 19.1589 30.628 19.1589 29.9906C19.1589 29.5772 19.0038 29.336 18.5904 29.1466C18.0392 28.9054 17.4363 29.181 17.4535 29.715C17.4535 29.939 17.5568 30.0768 17.7808 30.1801C17.9186 30.249 17.9186 30.249 17.8152 30.2318C17.3157 30.1284 17.1951 29.5083 17.5913 29.1121C18.0736 28.6298 19.09 28.8365 19.4345 29.5083C19.5723 29.7839 19.5895 30.3352 19.4689 30.6797C19.1761 31.4376 18.3492 31.8338 17.5052 31.6099C16.9367 31.4549 16.6955 31.2998 16.0065 30.5936C14.8007 29.3533 14.3356 29.1121 12.6129 28.8537L12.2856 28.802L12.6474 28.4575Z" fill="currentColor"/>
<path fill-rule="evenodd" clip-rule="evenodd" d="M3.58645 0.740723C7.60014 5.61572 13.7843 13.1952 14.0944 13.6086C14.3528 13.9532 14.2494 14.2805 13.8188 14.5216C13.5776 14.6594 13.078 14.7972 12.8369 14.7972C12.5613 14.7972 12.234 14.6594 12.01 14.4355C11.855 14.2805 11.1832 13.2986 9.66728 10.9386C8.51313 9.12984 7.53124 7.63117 7.51401 7.61395C7.44511 7.57949 7.44511 7.57949 9.54669 11.3348C10.8731 13.6948 11.3038 14.5388 11.3038 14.6422C11.3038 14.8661 11.2349 14.9867 10.9592 15.2968C10.4941 15.8136 10.2874 16.3993 10.1324 17.6223C9.96012 18.9832 9.49501 19.9478 8.1686 21.5843C7.39343 22.549 7.27284 22.7213 7.08336 23.1175C6.84219 23.5998 6.77329 23.8754 6.73883 24.4955C6.70438 25.1501 6.77329 25.5636 6.96277 26.1837C7.13504 26.7349 7.32452 27.0967 7.78963 27.803C8.18583 28.4231 8.42699 28.8882 8.42699 29.0605C8.42699 29.1983 8.46145 29.1983 9.08159 29.0605C10.563 28.7159 11.7861 28.1303 12.4579 27.4068C12.8713 26.9589 12.9747 26.7177 12.9747 26.0976C12.9747 25.7014 12.9575 25.6152 12.8541 25.3741C12.6818 24.9951 12.3546 24.685 11.6483 24.2027C10.7181 23.5653 10.3219 23.0486 10.2185 22.3595C10.1324 21.7738 10.2357 21.3776 10.7525 20.2924C11.2865 19.1727 11.4243 18.7076 11.5105 17.5706C11.5621 16.8471 11.6483 16.5543 11.855 16.3304C12.0789 16.0892 12.2684 16.0031 12.8024 15.9342C13.681 15.8136 14.2494 15.5896 14.6973 15.159C15.0935 14.7972 15.2658 14.4355 15.283 13.9015L15.3002 13.5053L15.0763 13.2641C14.2667 12.3339 3.05244 0 3.00077 0C2.98354 0 3.25916 0.327296 3.58645 0.740723ZM8.87487 25.2363C9.06436 24.909 8.961 24.4955 8.65093 24.2888C8.35809 24.0993 7.91021 24.1855 7.91021 24.4439C7.91021 24.5128 7.94466 24.5817 8.04802 24.6161C8.20305 24.7023 8.22028 24.7884 8.0997 24.9779C7.97912 25.1674 7.97912 25.3396 8.13415 25.4602C8.37532 25.6497 8.70261 25.5463 8.87487 25.2363Z" fill="currentColor"/>
<path fill-rule="evenodd" clip-rule="evenodd" d="M15.8516 16.1753C15.4381 16.2959 15.0419 16.7437 14.9213 17.1916C14.8524 17.4672 14.8869 17.9668 15.0075 18.1218C15.197 18.363 15.3692 18.4319 15.8516 18.4319C16.799 18.4319 17.6086 18.0185 17.6948 17.5189C17.7809 17.1055 17.4191 16.537 16.9196 16.2786C16.6612 16.1408 16.1272 16.0892 15.8516 16.1753ZM16.954 17.0366C17.0918 16.8299 17.0402 16.6059 16.7818 16.4509C16.3167 16.1581 15.6104 16.3992 15.6104 16.8471C15.6104 17.071 15.9721 17.3122 16.3167 17.3122C16.5406 17.3122 16.8507 17.1744 16.954 17.0366Z" fill="currentColor"/>
</svg>
