<svg width="32" height="32" viewBox="0 0 32 32" fill="none" xmlns="http://www.w3.org/2000/svg">
<circle cx="16" cy="16" r="15.5" stroke="var(--stroke-circle)" fill="var(--fill-circle)"/>
<path d="M23.8736 17.4543V16.7543C26.2736 14.8543 26.3235 14.4044 26.7735 14.0544C27.2235 13.7044 28.0235 12.5071 28.0235 12.0544C28.0235 11.7044 27.3735 10.8544 27.0735 10.2044C26.7735 9.55436 26.5769 9.02399 26.0235 8.15437C25.3235 7.05437 25.1735 6.90436 24.6235 7.05436C24.1787 7.17566 22.9057 6.88543 22.0235 6.60507C20.9735 6.27137 20.2735 6.35489 19.5235 6.78862C18.7788 7.21928 16.4235 7.75432 13.8735 8.55432C11.3235 9.35432 10.9735 9.00507 10.0235 9.50432C8.78343 10.156 6.62351 10.7051 5.92351 11.0051C5.23417 11.3005 4.28806 11.3511 3.98809 11.6004C3.89943 11.6741 3.47419 12.7754 3.28811 13.8004C3.11322 14.7638 2.83809 15.5004 3.12353 15.7543C3.23809 15.8562 3.42386 16.1866 3.7735 16.4051C4.1735 16.6551 4.3235 17.3801 4.6735 17.5051C5.5735 17.8265 5.77353 18.3543 6.27353 18.4043C6.77353 18.4543 7.27353 18.6043 7.62353 18.6543C7.97353 18.7043 9.14064 18.6793 9.22353 18.8043C9.3235 18.9551 9.3735 19.0551 9.3735 20.0051C9.3735 20.9551 9.42353 22.9043 9.42353 23.5043C9.42353 24.1043 9.6235 24.3051 11.0235 24.8543C12.0539 25.2585 13.4735 25.5543 16.0735 25.5543C18.6735 25.5543 20.6235 25.3043 21.6735 25.1043C22.7235 24.9043 23.3235 24.2043 23.5235 23.9543C23.7235 23.7043 23.7736 23.2043 23.7736 22.5543C23.7736 21.9043 23.8093 19.8615 23.7736 19.2543C23.7235 18.4051 23.8736 17.7543 23.8736 17.4543Z" stroke="var(--stroke-hat)" fill="var(--fill-hat)"/>
</svg>
