<svg width="20" height="17" viewBox="0 0 20 17" fill="none" xmlns="http://www.w3.org/2000/svg">
<path d="M0.700012 4.6001H15.8C17.733 4.6001 19.3 6.1671 19.3 8.1001V12.7001C19.3 14.6331 17.733 16.2001 15.8 16.2001H4.20002C2.26702 16.2001 0.700012 14.6331 0.700012 12.7001V4.6001Z" stroke="currentColor"/>
<path d="M14.7 10.4C14.7 9.51639 15.4164 8.80005 16.3 8.80005H19.3V12H16.3C15.4164 12 14.7 11.2837 14.7 10.4Z" stroke="currentColor"/>
<path d="M0.549988 4.10005V4.10005C0.549988 2.55365 1.80359 1.30005 3.34999 1.30005H14.55C16.0964 1.30005 17.35 2.55365 17.35 4.10005V4.10005V4.80005" stroke="currentColor"/>
</svg>
