<svg xmlns="http://www.w3.org/2000/svg" width="25" height="24" fill="none" viewBox="0 0 25 24">
  <mask id="path-1-inside-1_1741_20202" fill="currentColor">
    <path d="M13.84 8.706c0-.26.21-.47.47-.47h2.824a.47.47 0 0 1 0 .94H14.31a.47.47 0 0 1-.47-.47Z"/>
  </mask>
  <path fill="currentColor" d="M13.84 8.706c0-.26.21-.47.47-.47h2.824a.47.47 0 0 1 0 .94H14.31a.47.47 0 0 1-.47-.47Z"/>
  <path fill="currentColor" d="M14.31 9.235h2.824v-2H14.31v2Zm2.824-1.058H14.31v2h2.824v-2Zm-2.824 0a.53.53 0 0 1 .53.529h-2c0 .812.658 1.47 1.47 1.47v-2Zm2.295.529a.53.53 0 0 1 .529-.53v2a1.47 1.47 0 0 0 1.47-1.47h-2Zm.529.53a.53.53 0 0 1-.53-.53h2a1.47 1.47 0 0 0-1.47-1.47v2Zm-2.824-2a1.47 1.47 0 0 0-1.47 1.47h2a.53.53 0 0 1-.53.53v-2Z" mask="url(#path-1-inside-1_1741_20202)"/>
  <mask id="path-3-inside-2_1741_20202" fill="currentColor">
    <path d="M8.758 10.212a.377.377 0 0 0 .753 0v-1.13h1.13a.377.377 0 1 0 0-.753H9.51V7.2a.377.377 0 0 0-.753 0v1.13h-1.13a.377.377 0 1 0 0 .752h1.13v1.13Z"/>
  </mask>
  <path fill="currentColor" d="M8.758 10.212a.377.377 0 0 0 .753 0v-1.13h1.13a.377.377 0 1 0 0-.753H9.51V7.2a.377.377 0 0 0-.753 0v1.13h-1.13a.377.377 0 1 0 0 .752h1.13v1.13Z"/>
  <path fill="currentColor" d="M9.51 9.082v-1h-1v1h1Zm0-.753h-1v1h1v-1Zm-.752 0v1h1v-1h-1Zm0 .753h1v-1h-1v1Zm1.753 1.13v-1.13h-2v1.13h2Zm-1-.13h1.13v-2H9.51v2Zm1.13-2.753H9.51v2h1.13v-2Zm-.13 1V7.2h-2v1.13h2ZM7.758 7.2v1.13h2V7.2h-2Zm1 .13h-1.13v2h1.13v-2Zm-1.13 2.752h1.13v-2h-1.13v2Zm.13-1v1.13h2v-1.13h-2Zm-1.506-.376c0 .76.616 1.376 1.376 1.376v-2c.345 0 .624.28.624.624h-2Zm1.376-1.377c-.76 0-1.376.617-1.376 1.377h2c0 .344-.28.623-.624.623v-2Zm1.506-1.506c-.76 0-1.376.617-1.376 1.377h2c0 .344-.28.623-.624.623v-2Zm2.883 2.883c0-.76-.617-1.377-1.377-1.377v2a.623.623 0 0 1-.623-.623h2Zm-1.377 1.376c.76 0 1.377-.616 1.377-1.376h-2c0-.345.279-.624.623-.624v2ZM10.51 7.2c0-.76-.615-1.377-1.376-1.377v2a.623.623 0 0 1-.623-.623h2Zm-1.376 4.388c.76 0 1.377-.616 1.377-1.376h-2c0-.345.279-.624.623-.624v2Zm0-2c.345 0 .624.28.624.624h-2c0 .76.616 1.376 1.376 1.376v-2Z" mask="url(#path-3-inside-2_1741_20202)"/>
  <mask id="path-5-inside-3_1741_20202" fill="currentColor">
    <path d="M10.704 16.87a.443.443 0 0 0 0-.627L9.76 15.3l.944-.944a.443.443 0 0 0-.626-.626l-.944.944-.943-.944a.443.443 0 1 0-.626.626l.943.944-.943.943a.443.443 0 1 0 .626.626l.943-.943.944.943a.443.443 0 0 0 .626 0Z"/>
  </mask>
  <path fill="currentColor" d="M10.704 16.87a.443.443 0 0 0 0-.627L9.76 15.3l.944-.944a.443.443 0 0 0-.626-.626l-.944.944-.943-.944a.443.443 0 1 0-.626.626l.943.944-.943.943a.443.443 0 1 0 .626.626l.943-.943.944.943a.443.443 0 0 0 .626 0Z"/>
  <path fill="currentColor" d="m9.76 15.3-.707-.707-.707.707.707.707.707-.707Zm-.626-.626-.707.707.707.707.707-.707-.707-.707Zm-.626.626.707.707.708-.707-.708-.707-.707.707Zm.626.626.707-.707-.707-.707-.707.707.707.707Zm1.57.317.707-.707-.707.707Zm.707-.707-.944-.943-1.414 1.414.944.943 1.414-1.414Zm-.944.47.944-.943-1.414-1.414-.944.944 1.414 1.414Zm-1.096-2.983-.944.944 1.414 1.414.944-.943-1.414-1.415Zm.47.944-.943-.944-1.414 1.415.943.943 1.414-1.414Zm-2.983 1.096.943.944 1.414-1.414-.943-.944-1.414 1.415Zm.943-.47-.943.943 1.414 1.414.943-.943-1.414-1.414Zm1.097 2.983.943-.943-1.414-1.414-.943.943 1.414 1.414Zm-.47-.943.943.943 1.414-1.414-.944-.943-1.414 1.414Zm-1.57.943a1.443 1.443 0 0 0 2.04 0l-1.414-1.414a.557.557 0 0 1 .788 0l-1.414 1.414Zm0-2.04a1.443 1.443 0 0 0 0 2.04l1.414-1.414a.557.557 0 0 1 0 .788l-1.414-1.414Zm0-2.513a1.443 1.443 0 0 0 0 2.04l1.414-1.414a.557.557 0 0 1 0 .789l-1.414-1.415Zm4.553 0a1.443 1.443 0 0 0-2.04 0l1.414 1.415a.557.557 0 0 1-.788 0l1.414-1.415Zm0 2.04a1.442 1.442 0 0 0 0-2.04l-1.414 1.415a.557.557 0 0 1 0-.789l1.414 1.415Zm-2.513-2.04a1.443 1.443 0 0 0-2.04 0l1.414 1.415a.558.558 0 0 1-.788 0l1.414-1.415Zm.473 4.553a1.443 1.443 0 0 0 2.04 0l-1.414-1.414a.557.557 0 0 1 .788 0L9.37 17.576Zm.626-.626a.557.557 0 0 1 0-.788l1.414 1.414a1.443 1.443 0 0 0 0-2.04L9.997 16.95Z" mask="url(#path-5-inside-3_1741_20202)"/>
  <mask id="path-7-inside-4_1741_20202" fill="currentColor">
    <path d="M14.391 16.631a.47.47 0 0 1 0-.665l1.997-1.997a.47.47 0 1 1 .665.666l-1.996 1.996a.47.47 0 0 1-.666 0Z"/>
  </mask>
  <path fill="currentColor" d="M14.391 16.631a.47.47 0 0 1 0-.665l1.997-1.997a.47.47 0 1 1 .665.666l-1.996 1.996a.47.47 0 0 1-.666 0Z"/>
  <path fill="currentColor" d="m15.098 16.673 1.997-1.997-1.414-1.414-1.997 1.997 1.415 1.414Zm1.248-2.745-1.996 1.996 1.414 1.414 1.997-1.996-1.415-1.414Zm-1.996 1.996a.53.53 0 0 1 .748 0l-1.414 1.414a1.47 1.47 0 0 0 2.08 0l-1.414-1.414Zm1.996-1.248a.53.53 0 0 1 0-.748l1.415 1.414a1.47 1.47 0 0 0 0-2.08l-1.415 1.414Zm.749 0a.53.53 0 0 1-.749 0l1.415-1.414a1.47 1.47 0 0 0-2.08 0l1.414 1.414Zm-3.41.583a1.47 1.47 0 0 0 0 2.08l1.413-1.415a.53.53 0 0 1 0 .749l-1.414-1.414Z" mask="url(#path-7-inside-4_1741_20202)"/>
  <path fill="currentColor" stroke="currentColor" d="M14.943 14.05a.132.132 0 1 1-.263-.001.132.132 0 0 1 .263 0ZM16.704 16.55a.132.132 0 1 1-.264 0 .132.132 0 0 1 .264 0Z"/>
  <rect width="15" height="15" x="4.929" y="4.5" stroke="currentColor" rx="3.5"/>
</svg>
