<svg width="58" height="56" viewBox="0 0 58 56" fill="none" xmlns="http://www.w3.org/2000/svg">
<g clip-path="url(#clip0_1366_4518)">
<path d="M28.8424 1.13343C30.1092 1.13343 31.1359 2.16019 31.1359 3.42697C31.1359 4.69374 30.1092 5.73383 28.8424 5.73383C27.5756 5.73383 26.5355 4.70708 26.5355 3.4403C26.5355 2.17352 27.5623 1.13343 28.8424 1.13343ZM28.8424 0C26.9489 0 25.4021 1.5468 25.4021 3.4403C25.4021 5.3338 26.9489 6.8806 28.8424 6.8806C30.7359 6.8806 32.2694 5.3338 32.2694 3.4403C32.2694 1.5468 30.7359 0 28.8424 0Z" fill="#F8FBFA"/>
<path d="M28.8424 14.2545C31.5627 14.2545 33.7629 16.4547 33.7629 19.175C33.7629 21.8952 31.5627 24.0954 28.8424 24.0954C26.1222 24.0954 23.922 21.8952 23.922 19.175C23.922 16.4547 26.1222 14.2545 28.8424 14.2545ZM28.8424 13.1211C25.4955 13.1211 22.7886 15.8413 22.7886 19.175C22.7886 22.5086 25.5088 25.2288 28.8424 25.2288C32.1761 25.2288 34.8963 22.5086 34.8963 19.175C34.8963 15.8413 32.1761 13.1211 28.8424 13.1211Z" fill="#F8FBFA"/>
<path d="M40.0568 5.78712C41.3235 5.78712 42.3503 6.81387 42.3503 8.08065C42.3503 9.34743 41.3235 10.3742 40.0568 10.3742C38.79 10.3742 37.7632 9.34743 37.7632 8.08065C37.7632 6.81387 38.7766 5.78712 40.0568 5.78712ZM40.0568 4.65369C38.1633 4.65369 36.6165 6.20049 36.6165 8.09399C36.6165 9.98748 38.1633 11.5343 40.0568 11.5343C41.9503 11.5343 43.4971 9.98748 43.4971 8.09399C43.4971 6.20049 41.9503 4.65369 40.0568 4.65369Z" fill="#F8FBFA"/>
<path d="M17.6149 5.78712C18.8816 5.78712 19.9084 6.81387 19.9084 8.08065C19.9084 9.34743 18.8816 10.3742 17.6149 10.3742C16.3481 10.3742 15.3213 9.34743 15.3213 8.08065C15.3213 6.81387 16.3481 5.78712 17.6149 5.78712ZM17.6149 4.65369C15.7214 4.65369 14.1746 6.20049 14.1746 8.09399C14.1746 9.98748 15.7214 11.5343 17.6149 11.5343C19.5084 11.5343 21.0552 9.98748 21.0552 8.09399C21.0552 6.20049 19.5084 4.65369 17.6149 4.65369Z" fill="#F8FBFA"/>
<path d="M29.4025 6.09387H28.269V13.6145H29.4025V6.09387Z" fill="#F8FBFA"/>
<path d="M37.6835 9.59582L32.553 14.6672L33.3498 15.4733L38.4804 10.4019L37.6835 9.59582Z" fill="#F8FBFA"/>
<path d="M19.9982 9.55536L19.1968 10.3568L24.3638 15.5238L25.1652 14.7224L19.9982 9.55536Z" fill="#F8FBFA"/>
<path d="M44.1081 39.1732L43.5388 40.1533L50.0419 43.9309L50.6113 42.9509L44.1081 39.1732Z" fill="#F8FBFA"/>
<path d="M52.6312 42.4837C53.0179 42.4837 53.418 42.5903 53.778 42.7903C54.8714 43.4304 55.2448 44.8305 54.6047 45.9373C54.178 46.6707 53.4046 47.0841 52.6179 47.0841C52.2312 47.0841 51.8312 46.9774 51.4711 46.7774C50.3777 46.1373 50.0043 44.7372 50.6444 43.6304C51.0711 42.8837 51.8445 42.4837 52.6312 42.4837ZM52.6312 41.3502C51.4045 41.3502 50.271 42.0036 49.6576 43.057C49.1909 43.8438 49.0709 44.7772 49.3109 45.6573C49.551 46.5373 50.111 47.2841 50.9111 47.7508C51.4311 48.0575 52.0312 48.2175 52.6312 48.2175C53.858 48.2175 54.9914 47.5641 55.6048 46.5107C56.5516 44.8705 55.9915 42.7637 54.3647 41.8169C53.8313 41.5102 53.2313 41.3502 52.6312 41.3502Z" fill="#F8FBFA"/>
<path d="M39.0301 31.9495C39.8701 31.9495 40.7235 32.1628 41.4969 32.6162C43.8438 33.9763 44.6439 36.9899 43.2838 39.3501C42.3637 40.9236 40.7235 41.8037 39.0167 41.8037C38.1767 41.8037 37.3232 41.5903 36.5498 41.1369C34.203 39.7768 33.4029 36.7632 34.763 34.403C35.6831 32.8295 37.3232 31.9495 39.0301 31.9495ZM39.0301 30.816V31.9495V30.816C36.8699 30.816 34.8697 31.9761 33.7896 33.8296C32.1095 36.7232 33.0962 40.4302 35.9898 42.1104C36.9099 42.6437 37.9633 42.9371 39.0301 42.9371C41.1769 42.9371 43.1904 41.777 44.2705 39.9235C45.0839 38.5234 45.2973 36.8966 44.8839 35.3231C44.4705 33.763 43.4704 32.4562 42.0703 31.6428C41.1369 31.0961 40.0968 30.816 39.0301 30.816Z" fill="#F8FBFA"/>
<path d="M42.9772 49.8444C43.3639 49.8444 43.7639 49.951 44.1239 50.1511C45.2174 50.7911 45.5907 52.1912 44.9507 53.298C44.524 54.0314 43.7506 54.4448 42.9638 54.4448C42.5771 54.4448 42.1771 54.3381 41.8171 54.1381C40.7236 53.498 40.3503 52.0979 40.9903 50.9911C41.417 50.2444 42.1904 49.8444 42.9772 49.8444ZM42.9772 48.7109C41.7504 48.7109 40.617 49.3643 40.0036 50.4178C39.5369 51.2045 39.4169 52.1379 39.6569 53.018C39.8969 53.8981 40.457 54.6448 41.257 55.1115C41.7771 55.4182 42.3771 55.5782 42.9772 55.5782C44.2039 55.5782 45.3374 54.9248 45.9508 53.8714C46.8975 52.2312 46.3375 50.1244 44.7107 49.1776C44.1773 48.871 43.5906 48.7109 42.9772 48.7109Z" fill="#F8FBFA"/>
<path d="M54.2447 30.4426C54.6314 30.4426 55.0315 30.5493 55.3915 30.7493C56.4849 31.3894 56.8583 32.7895 56.2182 33.8963C55.7915 34.6297 55.0181 35.043 54.2314 35.043C53.8447 35.043 53.4447 34.9364 53.0846 34.7363C51.9912 34.0963 51.6178 32.6962 52.2579 31.5894C52.6846 30.856 53.458 30.4426 54.2447 30.4426ZM54.2447 29.3092C53.0179 29.3092 51.8845 29.9626 51.2711 31.016C50.3244 32.6562 50.8844 34.763 52.5112 35.7098C53.0313 36.0165 53.6313 36.1765 54.2314 36.1765C55.4582 36.1765 56.5916 35.5231 57.205 34.4697C58.1517 32.8295 57.5917 30.7227 55.9649 29.7759C55.4448 29.4692 54.8581 29.3092 54.2447 29.3092Z" fill="#F8FBFA"/>
<path d="M41.0587 42.3474L39.9614 42.6315L41.7692 49.6153L42.8665 49.3313L41.0587 42.3474Z" fill="#F8FBFA"/>
<path d="M51.4858 32.9673L44.4219 34.8387L44.7121 35.9344L51.7761 34.063L51.4858 32.9673Z" fill="#F8FBFA"/>
<path d="M13.5264 39.0482L7.00073 42.786L7.56405 43.7695L14.0897 40.0317L13.5264 39.0482Z" fill="#F8FBFA"/>
<path d="M4.97378 42.297C5.77385 42.297 6.54725 42.7104 6.97395 43.4571C7.60068 44.5639 7.22731 45.964 6.12055 46.5907C5.76052 46.7907 5.36048 46.8974 4.97378 46.8974C4.17371 46.8974 3.40031 46.484 2.97361 45.7373C2.34688 44.6305 2.72025 43.2304 3.82701 42.6037C4.20038 42.4037 4.58708 42.297 4.97378 42.297ZM4.97378 41.1636C4.37373 41.1636 3.78701 41.3236 3.26697 41.6169C1.62682 42.5637 1.05344 44.6705 2.00019 46.3107C2.61357 47.3774 3.74701 48.0442 4.98711 48.0442C5.58717 48.0442 6.17388 47.8842 6.69393 47.5908C8.33407 46.644 8.90746 44.5505 7.96071 42.9104C7.34732 41.8303 6.20055 41.1636 4.97378 41.1636Z" fill="#F8FBFA"/>
<path d="M18.6283 31.8561C20.3351 31.8561 22.0019 32.7495 22.9087 34.3363C24.2555 36.6965 23.442 39.7101 21.0818 41.0569C20.3084 41.4969 19.4684 41.7103 18.6416 41.7103C16.9348 41.7103 15.268 40.8169 14.3613 39.2301C13.0145 36.8699 13.8279 33.8563 16.1881 32.5095C16.9615 32.0694 17.8016 31.8561 18.6283 31.8561ZM18.6283 30.7227V31.8561V30.7227C17.5749 30.7227 16.5348 31.0027 15.6147 31.5227C14.2146 32.3228 13.2012 33.6296 12.7745 35.1897C12.3477 36.7498 12.5611 38.39 13.3612 39.7901C14.4413 41.6703 16.4548 42.8437 18.6283 42.8437C19.6817 42.8437 20.7218 42.5637 21.6286 42.0436C23.0287 41.2436 24.0421 39.9368 24.4688 38.3767C24.8955 36.8165 24.6822 35.1764 23.8821 33.7763C22.8153 31.8828 20.8018 30.7227 18.6283 30.7227Z" fill="#F8FBFA"/>
<path d="M3.42704 30.256C4.22711 30.256 5.00051 30.6694 5.42721 31.4161C6.05394 32.5229 5.68057 33.923 4.57381 34.5497C4.21378 34.7497 3.81374 34.8564 3.42704 34.8564C2.62697 34.8564 1.85357 34.443 1.42687 33.6963C0.800145 32.5895 1.17351 31.1894 2.28027 30.5627C2.65364 30.3627 3.04034 30.256 3.42704 30.256ZM3.42704 29.1226C2.82699 29.1226 2.24027 29.2826 1.72022 29.5759C0.920155 30.0293 0.360106 30.776 0.106751 31.6561C-0.119935 32.5495 7.51358e-05 33.4696 0.453448 34.2697C1.06683 35.3364 2.20027 36.0032 3.44037 36.0032C4.04043 36.0032 4.62714 35.8431 5.14719 35.5498C6.78733 34.603 7.36072 32.5095 6.41397 30.8694C5.80058 29.7893 4.66715 29.1226 3.42704 29.1226Z" fill="#F8FBFA"/>
<path d="M14.588 49.7244C15.3881 49.7244 16.1615 50.1377 16.5882 50.8845C17.2149 51.9912 16.8416 53.3914 15.7348 54.0181C15.3748 54.2181 14.9747 54.3248 14.588 54.3248C13.788 54.3248 13.0146 53.9114 12.5879 53.1647C11.9611 52.0579 12.3345 50.6578 13.4413 50.0311C13.8013 49.8177 14.2013 49.7244 14.588 49.7244ZM14.588 48.5909C13.988 48.5909 13.4013 48.751 12.8812 49.0443C12.0811 49.4977 11.5211 50.2444 11.2677 51.1245C11.0277 52.0046 11.1477 52.938 11.6011 53.7381C12.2145 54.8048 13.3479 55.4715 14.588 55.4715C15.1881 55.4715 15.7748 55.3115 16.2948 55.0182C17.0949 54.5648 17.655 53.8181 17.9083 52.938C18.1483 52.0579 18.0283 51.1245 17.575 50.3244C16.9616 49.2577 15.8148 48.5909 14.588 48.5909Z" fill="#F8FBFA"/>
<path d="M6.23701 32.7806L5.93359 33.8727L12.8842 35.8039L13.1877 34.7118L6.23701 32.7806Z" fill="#F8FBFA"/>
<path d="M16.5944 42.1775L14.6799 49.2297L15.7738 49.5267L17.6883 42.4744L16.5944 42.1775Z" fill="#F8FBFA"/>
<path d="M25.7763 23.8058L21.0613 31.6603L22.0331 32.2437L26.7481 24.3892L25.7763 23.8058Z" fill="#F8FBFA"/>
<path d="M31.9916 23.8136L31.0085 24.3778L35.675 32.508L36.658 31.9438L31.9916 23.8136Z" fill="#F8FBFA"/>
<path d="M33.5497 36.7231H24.1755V37.8566H33.5497V36.7231Z" fill="#F8FBFA"/>
</g>
<defs>
<clipPath id="clip0_1366_4518">
<rect width="57.685" height="55.5782" fill="white"/>
</clipPath>
</defs>
</svg>
