<svg width="77" height="56" viewBox="0 0 77 56" fill="none" xmlns="http://www.w3.org/2000/svg">
<g clip-path="url(#clip0_1366_4506)">
<path d="M38.5001 7.21846C50.3336 7.21846 59.931 16.525 59.931 27.9999C59.931 39.4749 50.3336 48.7814 38.5001 48.7814C26.6665 48.7814 17.0692 39.4749 17.0692 27.9999C17.0692 16.525 26.6665 7.21846 38.5001 7.21846ZM38.5001 6.22217C35.4662 6.22217 32.5289 6.7965 29.7609 7.93345C27.0896 9.03523 24.6842 10.6059 22.6173 12.5984C20.5624 14.6027 18.9427 16.9352 17.8065 19.5256C16.634 22.2097 16.0417 25.058 16.0417 27.9999C16.0417 30.9419 16.634 33.7902 17.8065 36.4743C18.9427 39.0647 20.5624 41.3971 22.6173 43.4015C24.6842 45.4058 27.0775 46.9764 29.7609 48.0664C32.5289 49.2034 35.4662 49.7777 38.5001 49.7777C41.534 49.7777 44.4712 49.2034 47.2393 48.0664C49.9106 46.9647 52.3159 45.394 54.3829 43.4015C56.4498 41.3971 58.0695 39.0764 59.1937 36.4743C60.3661 33.7902 60.9584 30.9419 60.9584 27.9999C60.9584 25.058 60.3661 22.2097 59.1937 19.5256C58.0574 16.9352 56.4377 14.6027 54.3829 12.5984C52.3159 10.5941 49.9226 9.02351 47.2393 7.93345C44.4712 6.7965 41.534 6.22217 38.5001 6.22217Z" fill="#F8FBFA"/>
<path d="M38.5 11.0395C48.1578 11.0395 55.9905 18.6348 55.9905 27.9999C55.9905 37.3651 48.1578 44.9603 38.5 44.9603C28.8422 44.9603 21.0096 37.3651 21.0096 27.9999C21.0096 18.6348 28.8422 11.0395 38.5 11.0395ZM38.5 10.0432C33.5563 10.0432 28.9027 11.9069 25.4094 15.306C21.9162 18.6934 19.9822 23.206 19.9822 27.9999C19.9822 32.7938 21.9041 37.3065 25.4094 40.6939C28.9027 44.0812 33.5563 45.9566 38.5 45.9566C43.4438 45.9566 48.0974 44.093 51.5907 40.6939C55.0839 37.3065 57.0179 32.7938 57.0179 27.9999C57.0179 23.206 55.096 18.6934 51.5907 15.306C48.0974 11.9186 43.4438 10.0432 38.5 10.0432Z" fill="#F8FBFA"/>
<path d="M38.5485 18.7989C43.7823 18.7989 48.0371 22.913 48.0371 28C48.0371 33.0752 43.7944 37.201 38.5485 37.201C33.3147 37.201 29.0599 33.0869 29.0599 28C29.0599 22.9247 33.3026 18.7989 38.5485 18.7989ZM38.5485 17.8026C32.7465 17.8026 28.0325 22.3738 28.0325 28C28.0325 33.6261 32.7465 38.1973 38.5485 38.1973C44.3504 38.1973 49.0645 33.6261 49.0645 28C49.0645 22.3738 44.3383 17.8026 38.5485 17.8026Z" fill="#F8FBFA"/>
<path d="M38.5 41.7722C38.222 41.7722 37.9802 41.5495 37.9802 41.2682V14.7199C37.9802 14.4504 38.2099 14.2159 38.5 14.2159C38.7901 14.2159 39.0197 14.4386 39.0197 14.7199V41.2799C39.0197 41.5495 38.7901 41.7722 38.5 41.7722Z" fill="#F8FBFA"/>
<path d="M52.2314 28.5391H24.8535C24.5755 28.5391 24.3337 28.3164 24.3337 28.0351C24.3337 27.7538 24.5634 27.5311 24.8535 27.5311H52.2435C52.5215 27.5311 52.7632 27.7538 52.7632 28.0351C52.7632 28.3164 52.5215 28.5391 52.2314 28.5391Z" fill="#F8FBFA"/>
<path d="M38.5001 30.2387C39.7484 30.2387 40.7604 29.2573 40.7604 28.0468C40.7604 26.8363 39.7484 25.855 38.5001 25.855C37.2517 25.855 36.2397 26.8363 36.2397 28.0468C36.2397 29.2573 37.2517 30.2387 38.5001 30.2387Z" fill="#F8FBFA"/>
<path d="M48.1942 37.7987C48.0612 37.7987 47.9283 37.7519 47.8316 37.6581L28.4676 18.8809C28.2621 18.6816 28.2621 18.3652 28.4676 18.1776C28.6731 17.9784 28.9994 17.9784 29.1928 18.1776L48.5568 36.9548C48.7623 37.1541 48.7623 37.4706 48.5568 37.6581C48.4601 37.7519 48.3271 37.7987 48.1942 37.7987Z" fill="#F8FBFA"/>
<path d="M28.8905 37.7987C28.7576 37.7987 28.6246 37.7519 28.5279 37.6581C28.3224 37.4588 28.3224 37.1424 28.5279 36.9548L47.8919 18.1776C48.0973 17.9784 48.4237 17.9784 48.6171 18.1776C48.8226 18.3769 48.8226 18.6934 48.6171 18.8809L29.2531 37.6581C29.1564 37.7519 29.0235 37.7987 28.8905 37.7987Z" fill="#F8FBFA"/>
</g>
<rect x="1" y="1" width="75" height="54" rx="4" stroke="#F8FBFA" stroke-width="2"/>
<defs>
<clipPath id="clip0_1366_4506">
<rect width="44.9167" height="43.5556" fill="white" transform="translate(16.0417 6.22217)"/>
</clipPath>
</defs>
</svg>
