<svg width="56" height="57" viewBox="0 0 56 57" fill="none" xmlns="http://www.w3.org/2000/svg">
<g clip-path="url(#clip0_1366_4548)">
<path d="M55.2407 21.2937H47.7933V17.0639L35.3569 9.50807V0.759199C35.3569 0.325371 35.7185 0 36.1161 0C36.5138 0 36.8753 0.361524 36.8753 0.759199V8.64041L49.2756 16.1601V19.7392H55.2046C55.6384 19.7392 55.9638 20.1007 55.9638 20.4984C55.9638 20.8961 55.6746 21.2937 55.2407 21.2937Z" fill="#F8FBFA"/>
<path d="M8.45965 21.2937H0.7592C0.361524 21.2937 0 20.9684 0 20.5345C0 20.1007 0.361524 19.7753 0.7592 19.7753H6.9051V16.1963L19.7392 8.67657V0.759199C19.7392 0.325371 20.1007 0 20.4984 0C20.8961 0 21.2576 0.361524 21.2576 0.759199V9.50807L8.45965 17.0639V21.2937Z" fill="#F8FBFA"/>
<path d="M36.1523 56.7592C35.7184 56.7592 35.3931 56.3977 35.3931 56V47.2511L47.7933 39.7314V35.4655H55.2407C55.6745 35.4655 55.9999 35.827 55.9999 36.2247C55.9999 36.6223 55.6384 36.9839 55.2407 36.9839H49.3117V40.5629L36.9115 48.0826V55.9638C36.9115 56.4338 36.5499 56.7592 36.1523 56.7592Z" fill="#F8FBFA"/>
<path d="M20.4984 56.7592C20.0646 56.7592 19.7392 56.3976 19.7392 56V48.1188L6.9051 40.5991V37.02H0.759199C0.325371 37.02 0 36.6585 0 36.2608C0 35.8631 0.361524 35.5016 0.759199 35.5016H8.4235V39.7314L21.2576 47.2511V56C21.2937 56.4338 20.9322 56.7592 20.4984 56.7592Z" fill="#F8FBFA"/>
<path d="M28.0906 12.0749L42.5515 20.0646L42.7684 36.4416L28.5244 44.829L14.0634 36.8393L13.8465 20.4623L28.0906 12.0749ZM28.0906 10.3035L27.3314 10.7373L13.0873 19.0885L12.3281 19.5585V20.4623L12.545 36.8393V37.7431L13.3404 38.1769L27.8013 46.1666L28.5605 46.6004L29.3197 46.1666L43.5638 37.8154L44.323 37.3454V36.4416L44.106 20.0646V19.1608L43.3107 18.727L28.8498 10.7373L28.0906 10.3035Z" fill="#F8FBFA"/>
<path d="M55.2049 29.1749H48.2275C47.7936 29.1749 47.4683 28.8134 47.4683 28.4157C47.4683 28.018 47.8298 27.6565 48.2275 27.6565H55.2049C55.6387 27.6565 55.9641 28.018 55.9641 28.4157C55.9641 28.8134 55.6387 29.1749 55.2049 29.1749Z" fill="#F8FBFA"/>
<path d="M7.77276 29.1749H0.759199C0.325371 29.1749 0 28.8134 0 28.4157C0 28.018 0.361524 27.6565 0.759199 27.6565H7.7366C8.17043 27.6565 8.4958 28.018 8.4958 28.4157C8.4958 28.8134 8.17043 29.1749 7.77276 29.1749Z" fill="#F8FBFA"/>
<path d="M28.3071 6.57973C27.8732 6.57973 27.5479 6.21821 27.5479 5.82053V0.7592C27.5479 0.325371 27.9094 0 28.3071 0C28.7047 0 29.0663 0.361524 29.0663 0.7592V5.78438C29.1024 6.21821 28.7409 6.57973 28.3071 6.57973Z" fill="#F8FBFA"/>
<path d="M28.3071 56.8677C27.8732 56.8677 27.5479 56.5062 27.5479 56.1085V51.0833C27.5479 50.6495 27.9094 50.3241 28.3071 50.3241C28.7047 50.3241 29.0663 50.6856 29.0663 51.0833V56.1085C29.1024 56.5423 28.7409 56.8677 28.3071 56.8677Z" fill="#F8FBFA"/>
<path d="M29.247 29.2111V34.9593C29.247 35.61 28.7047 36.1523 28.054 36.1523C27.4033 36.1523 26.861 35.61 26.861 34.9593V29.2111H24.8003V34.9593C24.8003 36.7307 26.2464 38.213 28.054 38.213C29.8616 38.213 31.3077 36.7669 31.3077 34.9593V29.2111H29.247Z" fill="#F8FBFA"/>
<path d="M28.0183 19.5222C24.8007 19.5222 22.1616 22.1613 22.1616 25.3789C22.1616 28.2349 24.1862 30.5848 26.8614 31.1271V29.0303C25.3069 28.5603 24.1862 27.1142 24.1862 25.4151C24.1862 23.3182 25.8853 21.5829 28.0183 21.5829C30.1513 21.5829 31.8505 23.2821 31.8505 25.4151C31.8505 27.0781 30.7659 28.5242 29.2475 29.0303V31.1633C31.8866 30.5848 33.875 28.2349 33.875 25.4151C33.875 22.1613 31.2359 19.5222 28.0183 19.5222Z" fill="#F8FBFA"/>
</g>
<defs>
<clipPath id="clip0_1366_4548">
<rect width="56" height="56.8677" fill="white"/>
</clipPath>
</defs>
</svg>
