<svg width="56" height="57" viewBox="0 0 56 57" fill="none" xmlns="http://www.w3.org/2000/svg">
<g clip-path="url(#clip0_1366_4562)">
<path d="M36.8049 18.7924C38.7003 18.7924 40.2511 20.3498 40.2511 22.2532V51.5665C40.2511 53.47 38.7003 55.0274 36.8049 55.0274H5.41046C3.51508 55.0274 1.96431 53.47 1.96431 51.5665V22.2532C1.96431 20.3498 3.51508 18.7924 5.41046 18.7924H36.8049ZM36.8049 16.8543H5.41046C2.41231 16.8543 0 19.2769 0 22.2532V51.5665C0 54.5428 2.41231 57 5.41046 57H36.8049C39.7686 57 42.2154 54.5774 42.2154 51.5665V22.2532C42.2154 19.2769 39.7686 16.8543 36.8049 16.8543Z" fill="#F8FBFA"/>
<path d="M7.27128 47.6904L5.89282 46.306L15.4387 36.7195L6.34082 27.4791L7.71928 26.0947L17.4719 36.0273C17.851 36.408 17.851 37.031 17.4719 37.4117L7.27128 47.6904Z" fill="#F8FBFA"/>
<path d="M36.2536 42.949H23.8474V44.9217H36.2536V42.949Z" fill="#F8FBFA"/>
<path d="M33.3588 17.7541V5.43352C33.3588 3.53005 34.9096 1.97268 36.805 1.97268H50.5896C52.485 1.97268 54.0358 3.53005 54.0358 5.43352V17.7541H56.0001V5.43352C56.0001 2.45719 53.5878 0 50.5896 0H36.805C33.8413 0 31.3945 2.42259 31.3945 5.43352V17.7541H33.3588Z" fill="#F8FBFA"/>
</g>
<defs>
<clipPath id="clip0_1366_4562">
<rect width="56" height="57" fill="white"/>
</clipPath>
</defs>
</svg>
