<svg width="45" height="56" viewBox="0 0 45 56" fill="none" xmlns="http://www.w3.org/2000/svg">
<g clip-path="url(#clip0_1366_4573)">
<path d="M22.6 0.0999756C22.5 0.0999756 22.5 0.0999756 22.4 0.0999756H22.3H22.2H22.1H22H21.9L0 7.39998V30.6C0 31.3 1.2 47.8 21.7 55.3C21.8 55.4 22 55.4 22.2 55.4C22.4 55.4 22.5 55.4 22.7 55.3C43.2 47.8 44.4 31.3 44.4 30.5V7.39998L22.6 0.0999756ZM22.2 52.4C4 45.6 2.9 31.1 2.8 30.5V9.39997L22.2 2.89998L41.6 9.39997V30.4C41.5 31.1 40.4 45.6 22.2 52.4Z" fill="#F8FBFA"/>
<path d="M14.3001 15.9C15.9001 15.9 17.3001 17.2 17.3001 18.7C17.3001 20.3 16.0001 21.5 14.3001 21.5C12.7001 21.5 11.3001 20.2 11.3001 18.7C11.4001 17.2 12.7001 15.9 14.3001 15.9ZM14.3001 14.3C11.7001 14.3 9.6001 16.3 9.6001 18.8C9.6001 21.3 11.7001 23.3 14.3001 23.3C16.9001 23.3 19.0001 21.3 19.0001 18.8C19.0001 16.3 16.9001 14.3 14.3001 14.3Z" fill="#F8FBFA"/>
<path d="M30.0003 30.7C31.6003 30.7 33.0003 32 33.0003 33.5C33.0003 35.1 31.7003 36.3 30.0003 36.3C28.4003 36.3 27.0003 35 27.0003 33.5C27.1003 32 28.4003 30.7 30.0003 30.7ZM30.0003 29.1C27.4003 29.1 25.3003 31.1 25.3003 33.6C25.3003 36.1 27.4003 38.1 30.0003 38.1C32.6003 38.1 34.7003 36.1 34.7003 33.6C34.8003 31.1 32.6003 29.1 30.0003 29.1Z" fill="#F8FBFA"/>
<path d="M12.0999 36.6C11.8999 36.6 11.6999 36.5 11.4999 36.4C11.1999 36.1 11.1999 35.6 11.4999 35.2L31.5999 15.9C31.8999 15.6 32.4999 15.6 32.7999 15.9C33.0999 16.2 33.0999 16.7 32.7999 17.1L12.6999 36.3C12.5999 36.5 12.2999 36.6 12.0999 36.6Z" fill="#F8FBFA"/>
</g>
<defs>
<clipPath id="clip0_1366_4573">
<rect width="44.4" height="55.4" fill="white"/>
</clipPath>
</defs>
</svg>
