<svg width="57" height="55" viewBox="0 0 57 55" fill="none" xmlns="http://www.w3.org/2000/svg">
<g clip-path="url(#clip0_1366_4567)">
<path d="M27.0654 2.16596L54.3633 18.488L28.1511 35.5837L2.24907 19.6484L27.0654 2.16596ZM27.0654 0C26.6001 0 26.2123 0.154712 25.8246 0.386779L1.00825 17.7918C0.387841 18.1786 0.0776367 18.9522 0.0776367 19.6484C0.0776367 20.3446 0.465392 21.0408 1.0858 21.4276L26.9878 37.4402C27.3756 37.6723 27.7634 37.7496 28.1511 37.7496C28.5389 37.7496 29.0042 37.5949 29.3919 37.3629L55.6042 20.2672C56.2246 19.8805 56.6123 19.1069 56.6123 18.4107C56.6123 17.6371 56.2246 16.9409 55.5266 16.5541L28.1511 0.309423C27.8409 0.0773558 27.4531 0 27.0654 0Z" fill="#F8FBFA"/>
<path d="M1.08571 29.1632C0.465306 29.1632 0 28.699 0 28.0802V19.2616C0 18.6428 0.465306 18.1786 1.08571 18.1786C1.70612 18.1786 2.17143 18.6428 2.17143 19.2616V28.0802C2.17143 28.699 1.70612 29.1632 1.08571 29.1632Z" fill="#F8FBFA"/>
<path d="M55.9142 37.9817C55.2938 37.9817 54.8285 37.5176 54.8285 36.9761L54.751 28.5443C54.751 28.0028 55.2163 27.5387 55.8367 27.5387C56.4571 27.5387 56.9224 28.0028 56.9224 28.5443L57 36.9761C57.0775 37.5176 56.5346 37.9817 55.9142 37.9817Z" fill="#F8FBFA"/>
<path d="M55.2163 27.6934L54.7509 28.0028L28.306 44.557L2.40401 27.616L0.542784 26.4557C0.310131 26.8425 0.155029 27.2292 0.155029 27.6934C0.155029 28.3896 0.542784 29.0858 1.16319 29.5499L27.0652 46.4135C27.453 46.6456 27.8407 46.8003 28.306 46.8003C28.6938 46.8003 29.0816 46.7229 29.4693 46.4908L55.2938 30.4008V27.6934H55.2163Z" fill="#F8FBFA"/>
<path d="M56.8448 34.8875L54.7509 36.2799L28.306 52.8341L2.40401 35.8931L0.542784 34.7328C0.310131 35.1196 0.155029 35.5063 0.155029 35.9705C0.155029 36.6667 0.542784 37.3629 1.16319 37.827L27.0652 54.6906C27.453 54.9227 27.8407 55.0774 28.306 55.0774C28.6938 55.0774 29.0816 55 29.4693 54.768L56.6897 37.7497L56.8448 34.8875Z" fill="#F8FBFA"/>
</g>
<defs>
<clipPath id="clip0_1366_4567">
<rect width="57" height="55" fill="white"/>
</clipPath>
</defs>
</svg>
