<svg xmlns="http://www.w3.org/2000/svg" fill="none" viewBox="0 0 40 40">
  <path fill="#F3BA2F" d="M13.786 17.447L20 11.233l6.218 6.217 3.616-3.616L20 4l-9.83 9.83 3.616 3.617zM11.232 20l-3.616-3.616L4 20l3.616 3.616L11.232 20zM13.785 22.553L20 28.767l6.217-6.217 3.618 3.614-.002.002L20 36l-9.83-9.83-.006-.006 3.621-3.61zM32.384 23.617L36 20.001l-3.616-3.616-3.616 3.616 3.616 3.616z"/>
  <path fill="#F3BA2F" d="M23.668 19.998h.002L20 16.328l-2.712 2.712-.311.312-.643.643-.005.005.005.005L20 23.671l3.67-3.67.001-.001-.003-.002z"/>
</svg>
