<svg xmlns="http://www.w3.org/2000/svg" fill="none" viewBox="0 0 40 40">
  <path fill="#633001" fill-rule="evenodd" d="M10.344 9.688C9.875 7.25 11.75 5 14.188 5c2.156 0 3.937 1.781 3.937 3.938v4.874c.563 0 1.125-.093 1.688-.093.562 0 1.03 0 1.593.094V8.936C21.406 6.781 23.188 5 25.344 5c2.437 0 4.312 2.25 3.937 4.688l-1.031 5.718c3.656 1.594 6.469 4.406 6.469 7.875v2.157c0 2.906-1.875 5.343-4.594 6.937C27.406 34.063 23.844 35 19.812 35c-4.03 0-7.593-.938-10.312-2.625C6.875 30.781 5 28.344 5 25.437v-2.156c0-3.468 2.719-6.281 6.375-7.875l-1.031-5.719zm16.5 6.468l1.218-6.75c.282-1.687-.937-3.281-2.718-3.281a2.72 2.72 0 00-2.719 2.719v6.187c-.375-.094-.844-.094-1.219-.094-.562 0-1.031-.093-1.593-.093-.563 0-1.125 0-1.688.094-.375 0-.844.093-1.219.093V8.937a2.72 2.72 0 00-2.718-2.718c-1.688 0-3 1.593-2.626 3.281l1.22 6.75c-3.938 1.5-6.563 4.125-6.563 7.125v2.156c0 4.594 6.093 8.344 13.593 8.344s13.594-3.75 13.594-8.344v-2.156c.094-3.094-2.531-5.719-6.562-7.219z" clip-rule="evenodd"/>
  <path fill="#FEDC90" d="M33.5 25.438c0 4.593-6.094 8.343-13.594 8.343-7.5 0-13.593-3.75-13.593-8.343V23.28h27.28v2.157H33.5z"/>
  <path fill="#D1884F" fill-rule="evenodd" d="M11.563 9.5c-.376-1.688.937-3.281 2.624-3.281a2.72 2.72 0 012.72 2.718v6.188c.937-.094 1.874-.188 2.905-.188.938 0 1.875.094 2.813.188V8.937a2.72 2.72 0 012.719-2.718c1.687 0 3 1.593 2.718 3.281l-1.218 6.75c3.937 1.5 6.656 4.125 6.656 7.125 0 4.594-6.094 8.344-13.594 8.344-7.5 0-13.593-3.75-13.593-8.344 0-3 2.625-5.625 6.562-7.125L11.562 9.5z" clip-rule="evenodd"/>
  <path fill="#633001" d="M16.063 22.719c0 1.218-.657 2.25-1.5 2.25-.844 0-1.5-1.032-1.5-2.25 0-1.219.656-2.25 1.5-2.25.843 0 1.5 1.031 1.5 2.25zM26.469 22.719c0 1.218-.657 2.25-1.5 2.25-.844 0-1.5-1.032-1.5-2.25 0-1.219.656-2.25 1.5-2.25.843 0 1.5 1.031 1.5 2.25z"/>
</svg>
