<svg xmlns="http://www.w3.org/2000/svg" fill="none" viewBox="0 0 40 40">
  <path fill="#FF007A" d="M14.37 7.597c-.361-.052-.379-.07-.206-.086.327-.052 1.085.017 1.619.137 1.24.293 2.36 1.051 3.548 2.378l.31.361.448-.069c1.912-.31 3.876-.068 5.513.69.447.206 1.154.62 1.24.723.034.034.086.258.12.482.121.81.07 1.413-.189 1.878-.138.258-.138.327-.052.551.07.173.276.293.465.293.414 0 .845-.655 1.051-1.568l.086-.361.155.172c.879.982 1.568 2.343 1.671 3.307l.035.259-.155-.224c-.259-.396-.5-.655-.827-.879-.586-.396-1.206-.516-2.842-.602-1.482-.087-2.326-.207-3.153-.483-1.412-.465-2.136-1.068-3.807-3.29-.74-.982-1.206-1.516-1.67-1.964-1.017-.982-2.033-1.499-3.36-1.705z"/>
  <path fill="#FF007A" d="M27.203 9.784c.035-.654.121-1.085.31-1.481.07-.155.138-.293.156-.293.017 0-.018.12-.07.259-.137.379-.154.913-.068 1.515.12.776.172.879.999 1.723.379.396.827.896.999 1.103l.293.379-.293-.276c-.362-.345-1.189-1-1.378-1.085-.12-.07-.138-.07-.224.017-.069.069-.086.172-.086.672-.017.775-.12 1.257-.38 1.757-.137.258-.154.206-.034-.086.087-.224.104-.328.104-1.068 0-1.5-.172-1.86-1.223-2.464a12.888 12.888 0 00-.965-.5c-.276-.12-.482-.223-.465-.223.034-.035 1.05.258 1.447.43.603.242.706.259.775.242.052-.052.086-.19.103-.62zM15.076 12.351c-.723-.999-1.189-2.55-1.085-3.703l.034-.362.173.034c.31.052.844.259 1.102.414.69.413 1 .982 1.292 2.394.086.413.207.896.258 1.05.087.26.414.862.69 1.241.189.276.068.414-.362.38-.655-.07-1.533-.673-2.102-1.448zM26.325 19.844c-3.411-1.378-4.617-2.566-4.617-4.582 0-.293.017-.534.017-.534.017 0 .138.104.293.224.69.551 1.464.793 3.618 1.103 1.257.19 1.98.327 2.635.55 2.084.69 3.377 2.102 3.687 4.015.086.55.034 1.602-.104 2.153-.12.43-.465 1.223-.551 1.24-.017 0-.052-.086-.052-.224-.034-.723-.396-1.412-.999-1.946-.723-.62-1.653-1.086-3.927-1.999zM23.913 20.413a4.073 4.073 0 00-.172-.724l-.086-.258.155.19c.224.258.396.568.551.999.121.327.121.43.121.964 0 .517-.017.638-.12.93a3.118 3.118 0 01-.724 1.155c-.62.637-1.43.982-2.584 1.137-.207.017-.792.069-1.31.103-1.291.069-2.152.207-2.928.482-.103.035-.206.07-.224.052-.034-.035.5-.345.93-.551.604-.293 1.224-.448 2.585-.69.671-.103 1.36-.24 1.533-.31 1.705-.533 2.55-1.86 2.273-3.48z"/>
  <path fill="#FF007A" d="M25.48 23.186c-.447-.982-.55-1.912-.31-2.79.035-.086.07-.172.104-.172.034 0 .138.051.241.12.207.138.637.38 1.74.982 1.395.758 2.188 1.344 2.739 2.015.482.586.775 1.258.913 2.085.086.465.034 1.585-.086 2.05-.38 1.464-1.24 2.635-2.498 3.307a2.39 2.39 0 01-.362.172c-.017 0 .052-.172.155-.379.414-.878.465-1.722.155-2.67-.19-.585-.585-1.292-1.378-2.48-.947-1.378-1.171-1.74-1.412-2.24zM12.648 28.457c1.275-1.067 2.842-1.826 4.29-2.067.62-.103 1.653-.069 2.221.087.913.24 1.74.758 2.17 1.395.414.62.604 1.154.793 2.343.07.465.155.947.172 1.05.138.62.414 1.103.758 1.361.535.396 1.465.414 2.378.07.155-.052.293-.104.293-.087.034.035-.431.344-.741.5-.43.224-.775.292-1.24.292-.827 0-1.534-.43-2.102-1.292-.12-.172-.362-.671-.569-1.137-.603-1.395-.913-1.808-1.619-2.273-.62-.397-1.412-.483-2.015-.19-.793.38-1 1.395-.448 2.016.224.258.637.465.982.516a1.05 1.05 0 001.188-1.05c0-.414-.155-.655-.568-.844-.551-.242-1.154.034-1.137.568 0 .224.103.362.327.465.138.069.138.069.035.052-.5-.104-.62-.724-.224-1.12.482-.482 1.498-.275 1.843.396.138.276.155.827.034 1.172-.292.758-1.12 1.154-1.963.93-.569-.155-.81-.31-1.499-1.016-1.206-1.24-1.671-1.482-3.394-1.74l-.327-.052.362-.345z"/>
  <path fill="#FF007A" fill-rule="evenodd" d="M3.586.74C7.6 5.617 13.784 13.196 14.094 13.61c.259.344.155.671-.275.913-.241.137-.741.275-.982.275-.276 0-.603-.138-.827-.362-.155-.155-.827-1.136-2.343-3.496a223.33 223.33 0 00-2.153-3.325c-.069-.035-.069-.035 2.033 3.72 1.326 2.36 1.757 3.205 1.757 3.308 0 .224-.07.345-.345.655-.465.517-.672 1.102-.827 2.325-.172 1.361-.637 2.326-1.963 3.962-.776.965-.896 1.137-1.086 1.534-.24.482-.31.757-.344 1.378-.035.654.034 1.068.224 1.688.172.55.362.913.827 1.619.396.62.637 1.085.637 1.258 0 .137.034.137.655 0 1.481-.345 2.704-.93 3.376-1.654.413-.448.517-.69.517-1.31 0-.396-.018-.482-.12-.723-.173-.379-.5-.689-1.207-1.171-.93-.638-1.326-1.154-1.43-1.843-.086-.586.018-.982.534-2.068.534-1.12.672-1.584.758-2.721.052-.724.138-1.017.345-1.24.224-.242.413-.328.947-.397.879-.12 1.447-.344 1.895-.775.397-.362.569-.724.586-1.258l.017-.396-.224-.24C14.266 12.333 3.052 0 3.001 0c-.017 0 .258.327.585.74zm5.289 24.496a.711.711 0 00-.224-.947c-.293-.19-.74-.104-.74.155 0 .069.034.138.137.172.155.086.172.172.052.362s-.12.362.034.482c.241.19.569.086.74-.224zM15.851 16.175c-.413.12-.81.569-.93 1.017-.069.275-.035.775.086.93.19.241.362.31.844.31.947 0 1.757-.413 1.843-.913.086-.413-.275-.982-.775-1.24-.258-.138-.792-.19-1.068-.104zm1.102.862c.138-.207.087-.431-.172-.586-.465-.293-1.171-.052-1.171.396 0 .224.362.465.706.465.224 0 .534-.138.637-.275z" clip-rule="evenodd"/>
</svg>
