<svg xmlns="http://www.w3.org/2000/svg" fill="none" viewBox="0 0 32 32">
  <path fill="#2775CA" d="M16 32c8.867 0 16-7.133 16-16S24.867 0 16 0 0 7.133 0 16s7.133 16 16 16z"/>
  <path fill="#fff" d="M20.4 18.533c0-2.333-1.4-3.133-4.2-3.466-2-.267-2.4-.8-2.4-1.734 0-.933.667-1.533 2-1.533 1.2 0 1.867.4 2.2 1.4.067.2.267.333.467.333h1.066c.267 0 .467-.2.467-.466V13a3.33 3.33 0 00-3-2.733v-1.6c0-.267-.2-.467-.533-.534h-1c-.267 0-.467.2-.534.534V10.2c-2 .267-3.266 1.6-3.266 3.267 0 2.2 1.333 3.066 4.133 3.4 1.867.333 2.467.733 2.467 1.8 0 1.067-.934 1.8-2.2 1.8-1.734 0-2.334-.734-2.534-1.734-.066-.266-.266-.4-.466-.4h-1.134c-.266 0-.466.2-.466.467v.067c.266 1.666 1.333 2.866 3.533 3.2v1.6c0 .266.2.466.533.533h1c.267 0 .467-.2.534-.533v-1.6c2-.334 3.333-1.734 3.333-3.534z"/>
  <path fill="#fff" d="M12.6 25.533c-5.2-1.866-7.867-7.666-5.934-12.8 1-2.8 3.2-4.933 5.933-5.933.267-.133.4-.333.4-.667V5.2c0-.267-.133-.467-.4-.533-.066 0-.2 0-.266.066-6.334 2-9.8 8.734-7.8 15.067 1.2 3.733 4.066 6.6 7.8 7.8.266.133.533 0 .6-.267.066-.066.066-.133.066-.266v-.934c0-.2-.2-.466-.4-.6zm7.066-20.8c-.267-.133-.533 0-.6.267-.067.067-.067.133-.067.267V6.2c0 .267.2.533.4.667 5.2 1.866 7.867 7.666 5.934 12.8-1 2.8-3.2 4.933-5.934 5.933-.266.133-.4.333-.4.667v.933c0 .267.134.467.4.533.067 0 .2 0 .267-.066 6.333-2 9.8-8.734 7.8-15.067a12.091 12.091 0 00-7.8-7.867z"/>
</svg>
