<svg xmlns="http://www.w3.org/2000/svg" fill="none" viewBox="0 0 32 32">
  <circle cx="16" cy="16" r="16" fill="#fff"/>
  <path fill="#53AE94" d="M16 0c8.836 0 16 7.164 16 16s-7.164 16-16 16S0 24.838 0 16C0 7.162 7.163 0 16 0z"/>
  <path fill="#fff" d="M17.807 13.08v-2.365h4.982V7.111H9.223v3.604h4.983v2.364c-4.05.202-7.095 1.073-7.095 2.116 0 1.043 3.047 1.914 7.095 2.117v7.577h3.602V17.31c4.043-.202 7.081-1.073 7.081-2.115 0-1.042-3.038-1.912-7.08-2.115h-.002zm.001 3.59v-.003c-.101.007-.624.041-1.786.041-.93 0-1.584-.028-1.815-.041v.003c-3.577-.172-6.248-.848-6.248-1.658 0-.81 2.671-1.485 6.248-1.657v2.641c.235.018.905.06 1.83.06 1.11 0 1.67-.05 1.772-.06v-2.641c3.57.173 6.235.85 6.235 1.656 0 .807-2.666 1.484-6.235 1.657"/>
</svg>
