<svg width="24" height="24" viewBox="0 0 24 24" fill="none" xmlns="http://www.w3.org/2000/svg">
<path d="M10.3865 11.0791C9.87841 11.0791 9.47726 11.5248 9.47726 12.0686C9.47726 12.6124 9.88732 13.0581 10.3865 13.0581C10.8946 13.0581 11.2958 12.6124 11.2958 12.0686C11.3047 11.5248 10.8946 11.0791 10.3865 11.0791ZM13.6402 11.0791C13.1321 11.0791 12.731 11.5248 12.731 12.0686C12.731 12.6124 13.141 13.0581 13.6402 13.0581C14.1484 13.0581 14.5495 12.6124 14.5495 12.0686C14.5495 11.5248 14.1484 11.0791 13.6402 11.0791Z" fill="currentColor"/>
<path d="M17.9726 3.6001H6.02743C5.02011 3.6001 4.2 4.42021 4.2 5.43644V17.4886C4.2 18.5048 5.02011 19.3249 6.02743 19.3249H16.1362L15.6638 17.6758L16.8048 18.7366L17.8834 19.735L19.8 21.4287V5.43644C19.8 4.42021 18.9799 3.6001 17.9726 3.6001ZM14.5317 15.2422C14.5317 15.2422 14.2107 14.8588 13.9433 14.5201C15.1111 14.1903 15.5568 13.4593 15.5568 13.4593C15.1913 13.7 14.8437 13.8694 14.5317 13.9852C14.0859 14.1724 13.6581 14.2972 13.2391 14.3686C12.3833 14.529 11.5989 14.4844 10.9303 14.3596C10.4222 14.2616 9.98537 14.119 9.61988 13.9763C9.41485 13.8961 9.192 13.798 8.96914 13.6732C8.9424 13.6554 8.91565 13.6465 8.88891 13.6287C8.87108 13.6198 8.86217 13.6108 8.85325 13.6019C8.6928 13.5128 8.60365 13.4504 8.60365 13.4504C8.60365 13.4504 9.03154 14.1635 10.1637 14.5023C9.89623 14.841 9.5664 15.2422 9.5664 15.2422C7.59634 15.1798 6.84754 13.8872 6.84754 13.8872C6.84754 11.0168 8.1312 8.69015 8.1312 8.69015C9.41485 7.72741 10.6361 7.75415 10.6361 7.75415L10.7253 7.86113C9.12068 8.32467 8.3808 9.0289 8.3808 9.0289C8.3808 9.0289 8.57691 8.92193 8.90674 8.77038C9.86057 8.35141 10.6183 8.23553 10.9303 8.20878C10.9838 8.19987 11.0283 8.19095 11.0818 8.19095C11.6256 8.11964 12.2407 8.10181 12.8825 8.17313C13.7294 8.27118 14.6386 8.52078 15.5657 9.0289C15.5657 9.0289 14.8615 8.36033 13.3461 7.89678L13.4709 7.75415C13.4709 7.75415 14.6921 7.72741 15.9758 8.69015C15.9758 8.69015 17.2594 11.0168 17.2594 13.8872C17.2594 13.8872 16.5017 15.1798 14.5317 15.2422Z" fill="currentColor"/>
</svg>
