<svg width="24" height="24" viewBox="0 0 24 24" fill="none" xmlns="http://www.w3.org/2000/svg">
<path fill-rule="evenodd" clip-rule="evenodd" d="M5.17511 4C4.52628 4 4 4.51348 4 5.14615V18.8543C4 19.4869 4.52628 20 5.17511 20H18.7242C19.3732 20 19.8993 19.4869 19.8993 18.8541V5.14615C19.8993 4.51348 19.3732 4 18.7242 4H5.17511ZM8.81962 10.1687V17.3936H6.41819V10.1687H8.81962ZM8.97784 7.93432C8.97784 8.62764 8.45659 9.18246 7.61933 9.18246H7.61912H7.60359C6.79758 9.18246 6.27655 8.62764 6.27655 7.93432C6.27655 7.22527 6.81332 6.68597 7.63527 6.68597C8.45659 6.68597 8.9621 7.22527 8.97784 7.93432ZM12.55 17.3936H10.1488C10.149 17.351 10.1801 10.8445 10.149 10.1689H12.5502V11.1917C12.8693 10.6995 13.4406 9.99937 14.7145 9.99937C16.2944 9.99937 17.4789 11.032 17.4789 13.2511V17.3936H15.0777V13.5289C15.0777 12.5576 14.73 11.8951 13.8613 11.8951C13.1978 11.8951 12.8026 12.3418 12.6291 12.7735C12.5657 12.9275 12.55 13.1436 12.55 13.3594V17.3936ZM10.1488 17.3938V17.3936V17.3938Z" fill="currentColor"/>
</svg>
