<svg width="24" height="24" viewBox="0 0 24 24" fill="none" xmlns="http://www.w3.org/2000/svg">
<path d="M13.3837 12.1438C13.3837 15.5369 10.6563 18.2877 7.29173 18.2877C3.9272 18.2877 1.2 15.5377 1.2 12.1438C1.2 8.74977 3.92741 6 7.29173 6C10.6561 6 13.3837 8.7506 13.3837 12.1438Z" fill="currentColor"/>
<path d="M20.0666 12.1437C20.0666 15.338 18.7028 17.9272 17.0207 17.9272C15.3385 17.9272 13.9747 15.3371 13.9747 12.1437C13.9747 8.95037 15.3385 6.36035 17.0207 6.36035C18.7028 6.36035 20.0666 8.95037 20.0666 12.1437Z" fill="currentColor"/>
<path d="M22.8 12.1436C22.8 15.0055 22.3203 17.3253 21.7287 17.3253C21.1371 17.3253 20.6573 15.0047 20.6573 12.1436C20.6573 9.28257 21.1371 6.96191 21.7289 6.96191C22.3207 6.96191 22.8 9.28195 22.8 12.1436Z" fill="currentColor"/>
</svg>
