<svg width="24" height="24" viewBox="0 0 24 24" fill="none" xmlns="http://www.w3.org/2000/svg">
<path fill-rule="evenodd" clip-rule="evenodd" d="M16.7883 19.3344C17.0298 19.5054 17.341 19.5481 17.6185 19.4431C17.896 19.3374 18.1 19.1004 18.1615 18.8131C18.8133 15.7501 20.3943 7.99736 20.9875 5.21111C21.0325 5.00111 20.9575 4.78286 20.7925 4.64261C20.6275 4.50236 20.3988 4.46186 20.1948 4.53761C17.05 5.70161 7.3653 9.33536 3.4068 10.8001C3.15555 10.8931 2.99205 11.1346 3.0003 11.3994C3.0093 11.6649 3.1878 11.8951 3.44505 11.9724C5.2203 12.5034 7.55055 13.2421 7.55055 13.2421C7.55055 13.2421 8.63955 16.5309 9.2073 18.2034C9.27855 18.4134 9.4428 18.5784 9.65955 18.6354C9.87555 18.6916 10.1065 18.6324 10.2678 18.4801C11.1798 17.6191 12.5898 16.2879 12.5898 16.2879C12.5898 16.2879 15.2688 18.2521 16.7883 19.3344ZM8.5308 12.8266L9.79005 16.9801L10.0698 14.3499C10.0698 14.3499 14.935 9.96161 17.7085 7.46036C17.7895 7.38686 17.8008 7.26386 17.7333 7.17761C17.6665 7.09136 17.5435 7.07111 17.4513 7.12961C14.2368 9.18236 8.5308 12.8266 8.5308 12.8266Z" fill="currentColor"/>
</svg>
