<svg width="24" height="24" viewBox="0 0 24 24" fill="none" xmlns="http://www.w3.org/2000/svg">
<path d="M21 6.23175C20.3377 6.52575 19.626 6.72375 18.879 6.813C19.6418 6.35625 20.2275 5.6325 20.5028 4.77C19.7895 5.193 18.999 5.5005 18.1575 5.66625C17.4847 4.9485 16.524 4.5 15.462 4.5C13.0777 4.5 11.3258 6.7245 11.8643 9.03375C8.796 8.88 6.075 7.41 4.25325 5.17575C3.28575 6.8355 3.7515 9.00675 5.3955 10.1062C4.791 10.0868 4.221 9.921 3.72375 9.64425C3.68325 11.355 4.9095 12.9555 6.6855 13.3118C6.16575 13.4528 5.5965 13.4858 5.0175 13.3748C5.487 14.8418 6.8505 15.909 8.4675 15.939C6.915 17.1563 4.959 17.7 3 17.469C4.63425 18.5168 6.576 19.128 8.661 19.128C15.5175 19.128 19.3912 13.3373 19.1572 8.1435C19.8787 7.62225 20.505 6.972 21 6.23175Z" fill="currentColor"/>
</svg>
